<svg id="Logo_-_Long" data-name="Logo - Long" xmlns="http://www.w3.org/2000/svg" viewBox="0 0 900.42 299.3"><defs><style>.cls-1{fill:#fff;}</style></defs><title>Logo - Long - BW (White)</title><path id="Tree_Symbol" data-name="Tree Symbol" class="cls-1" d="M288.48,142l-.08-.89c.61-.18.67-.22.89-1-.25-.4-.55-.37-1-.16-.27-.39,0-.78.08-1.37a2.26,2.26,0,0,0-1.78,0l-.24-.16-.08-.73-.32-.32c-.42-.32-.33-.4-.81-.16l-.08-.73a6.88,6.88,0,0,0-2.18-.49,8,8,0,0,0-.81-2.18l-.16-.32c.14-.34.51-.48.65-1.05l-.4-.57c-.76,0-.75.11-1.29-.08-.32.38-.52.32-.73.89a5.45,5.45,0,0,0-2.26.08,2.94,2.94,0,0,0-.24,1.46c-.37-.07-.64.17-.89.49-.82-.18-1.27-.72-1.94-.89.06-1.18-1-1.56-1.94-1.54a8.86,8.86,0,0,1,.4-1.94.86.86,0,0,0-.65-.24l.16-.57-.24-.24c-.72-.25-1.39.09-2.18,0,.18-.51.53-.54.4-1.13l.57.4.24-.81c-.26-.38-.54-.36-1-.16V127a.85.85,0,0,1-.4-.32,2,2,0,0,0-1.7,0l-.65-.24a3.66,3.66,0,0,0-.08-2.43l-.08-.24a3.27,3.27,0,0,0-1.62.16l.32-1.29c-.79-.62-1.53,0-2.43.08a1.93,1.93,0,0,0-1.7-2v-.49h.4l.16-.81-.32-.32.08-.49.49.24.16-.73c-.2-.29-.15-.3-.65-.32.12-.59,0-.65-.32-1l.57-.24.16-.65-.08-.24a2.64,2.64,0,0,1-1.13-.4l-1.46.65c-.73.16-1.57-.62-2.18-.32-.15-.77.11-1.23-.89-1.21,0-.4.12-.35-.16-.57l-.4-.08a3.21,3.21,0,0,1,0-1.54l-.16-.24a9,9,0,0,0-4.77.08l-.32,1.54-.4.08c-1.47-1.16-1.67-2.21-3.64-1.13.51-1.28.18-1,.24-2.18l-.81-.16a4.34,4.34,0,0,0,.81-2.26c.52,0,.6-.06.73-.49l.73.32.24-.24c.2-.2.15-.28.08-.57l.73-.4c0-.4,0-.32-.24-.49v-.4l.24-.08c1.17,0,.21-3,.16-3.64l-.57-.16a4.46,4.46,0,0,0-.32-1.62l.73-.65c.56.29,1,.08,1-.73l.4.49.32-.49-.16-1.05v-.08l.16.16.4.32c.29-.8.07-1.12-.16-1.86l.73-.73c.21-.1,0-.07.32.08l.49-1-.08-.24c-.47-.07-.73,0-1-.24h-.16l.16-.24c.18,0,.05-.06.16.08.56-.13.66-.33.57-.89l.65.4.16-.73c-.19-.29-.28-.32-.32-.57s.54-.46.73-1l.32.24a1.45,1.45,0,0,0,.4-.89c-.35-.37-.63-.24-1-.65-.14-.13-.09-.17-.08-.57.23.2.21.29.57.4l.16-1-.49-.16v-.49c.37-.29.43-.42.81-.32l.32-.81-.08-.16a2.64,2.64,0,0,0-1.05,0c.25-.54,0-.58-.32-1,.84-.15,1.12-1.88.24-2.18V83.5a1,1,0,0,0,.57.24l.4-.24V83l-.65-.4a2.14,2.14,0,0,1-1.05.32v-.4a2,2,0,0,0-1.29-.08v-.32l-1.62-.4c0-.4-.31-.51-.32-.65s.26-.46.24-.81l.49.4c.31-.23.69-.07,1.05-.49l-.4-1.21c-.57-.24-.9-.57-1.46-.32l-.4-.81a8.16,8.16,0,0,0-2.18-.24c-.09-.56-.23-.28-.4-.57-.42-.68,0-3.07.16-3.72v-.08a1.12,1.12,0,0,0-1.05,0c-.29-.27-.38-.22-.4-.81a2.17,2.17,0,0,0-1.05-.16A4.19,4.19,0,0,0,244.9,70c.58-.16.64-.49.81-1.05-.38-.58-.94-1-.73-1.7-.25-.4-.55-.37-1-.16-.33-.29-.28-.36-.08-.89a2.2,2.2,0,0,0-1.37-.65V65l-.57-.16.16-2.34.24.32a1.57,1.57,0,0,0,1-.81l.32.24a2.06,2.06,0,0,0,.49-.89l1,.08a1,1,0,0,0,.57-.89l.4.4.16-.08c.17-.84-.15-2.39-1.29-1.86l-.16-.08a2.66,2.66,0,0,1-.16-1.21,8,8,0,0,0-2.34-.32v-.57a3.87,3.87,0,0,0-2.1-1.05v-.65c-.79-.35-1.38-.15-1.86-.73l-.65.16V55c-.3,0-.65.06-.89.08a2.68,2.68,0,0,0-.49,1.7A2.63,2.63,0,0,0,233.91,59a7.5,7.5,0,0,0-2,.24,1.33,1.33,0,0,0-.73-.65.52.52,0,0,1-.4.16c-.25.34-.09.47.16.73-.92-.2-1,.27-1.86.57l-.16.73c-.6.42-1.77-.08-2.43.08s-.33.56-.65.89c-.65.68-1.87.93-2.67,1.54h-.24c0-.89.33-.78.4-1.62-.59-.18-1.2-.13-1.29-.89l-.24-.16a1.51,1.51,0,0,1-1.54-.81c-1.07.3-3.34,0-3.64-1.54a8.08,8.08,0,0,0-3.8-.08l-.24,1.05a2.36,2.36,0,0,0-2,0l-.16.81c-1.31.17-3-.26-4.12.4-.86-.86-1.91-1.15-2.67-2-.79-.08-3.82.18-4,1h-.08l-.08-.32c-1.09-.5-2,.14-2.91.4l-.49,1.29a7.49,7.49,0,0,1-1.94-1.05l-.16-.16c.26-.52.39-.55.81-.57l.32-.81a3,3,0,0,0-.89-.73l.49-1.7a4.33,4.33,0,0,0-2.91-.49c-.4-.46-.2-1.33-.16-2.34a1.21,1.21,0,0,0-.65-.16,2,2,0,0,1,.16-1.21l-1.46-1.29a.68.68,0,0,1-.4.16.47.47,0,0,0-.08.57l-.65.24-.81-1c-.49.07-.67.11-.73.65l-.32.08a3.12,3.12,0,0,1-.08-1.29,1.73,1.73,0,0,0-.89-.16c0-.83-.24-.88-.32-1.54a1.73,1.73,0,0,0-.89-.16,10.71,10.71,0,0,0-.49-2.59v-.08l.49.4a1.6,1.6,0,0,0,.32-1.13l.49.32.4-.24a.85.85,0,0,0,.16-.81l.57.4.16-.08a6.2,6.2,0,0,0-.65-3c-.1-.29.52-1.14.65-1.54s-.4-.6-.4-1,.35-.65-.08-1l-.24-.32c.54-.33.39-.44,1.05-.4l.16-.81c-.2-.2-.17-.2-.57-.24,0-.43,0-.59-.24-.81a2.08,2.08,0,0,0-1.94.4h-.08l.16-1.37c-1-.48-3.16.09-3.48-.24a1,1,0,0,1,.24-1.21c-.11-.39-.21-.39-.4-.65l.57-.4c0-.52,0-.76-.57-.89.25-1.13.87-1.66,1.21-2.75.23-.74-.25-.87-.4-1.13l.16-.81-.89-1.29c-1.14-1.28-4.37-.65-5.74-.73-.08,1-.87,1.35-.89,2.75a2.75,2.75,0,0,1-2,.32c-.38.45-1.22.9-1.13,1.54-.71,0-5.37-.49-6-.16l-1.29,1.46c-.48.15-.26-.26-.57-.4-.71-.35-2.57.54-2.91,1-.16.59-.26.93.32.89V32.4c.31.11.17,0,.32.24.46,0,.41,0,.73-.16h.08v2.18a1.3,1.3,0,0,0,.65-.16l.08,2.1c.66.16.71.64,1.29,1a10,10,0,0,0-.32,3.56h-.24c-.17.3-.15.33,0,.65a7.61,7.61,0,0,1-2.67.49l-.16.32.32.32c-.35.31-.3.27-.16.73a12.3,12.3,0,0,0-2.18.65l-.16,1.37c-.31.33-1.17.33-1.7.49L156.29,48a4.4,4.4,0,0,0-1.62-.24c-.21-.65-.09-1.29-1.05-1.29,0-.41.06-.45-.4-.57l.4-1.37a1.71,1.71,0,0,0-1.37-.89,2.41,2.41,0,0,0,.16-1.13L150,42.18c-.89.52-.67.81-1.05,1.86a1.65,1.65,0,0,1-.73.32c-.19.36,0,.93-.16,1.29s-.55.73-.65,1c-.28.72.19,1.46.16,1.94l-.4,1.37a1.14,1.14,0,0,0-1.13.81c-.43,0-.28.54-.24,1.05a4.5,4.5,0,0,0-1.7,1.86,18,18,0,0,1-1.78.57c-.33,1.52.29,2.45.4,3.64.36,0,.49,0,.65.16l.16.08a13.11,13.11,0,0,1-2.1.81,4.92,4.92,0,0,0-4.77-1l-.4.89a4.52,4.52,0,0,1-.89.32c-.54,1.75.18,3.72.16,5.66l.08.08c.33-.1.28-.13.49-.32l.08,1.37c-.83-.26-1.74.69-2.67.81-.21.29-.1.37,0,.73-.2.26-.25.29-.49.32l-.16.32.57.81a.82.82,0,0,0-.89.81c-.61-.17-.68-.51-1.05-1.05l-.65.08a1,1,0,0,1-.4-1,1.73,1.73,0,0,0-.89-.16c.09-.65.42-.85.65-1.46-.38-.4-.36-1.28-.81-1.62,0-.17.08-.18.24-.4-.06-.52-.28-.62-.65-.81-.43.25-1.29.49-1.21,1.05-.7.11-1.07-.11-1.7.16a4.73,4.73,0,0,0-2.34-1.37c-.47-.12-.8.27-1.29.4l-1-1.13a1.25,1.25,0,0,0-.81.24c.07.7.2,1.13.81,1.29l-.24.65c-.62-.1-.86.2-1.37.4l-.16.65c-.06.71-.11,1.09.49,1.21v.32c-.28.13-.4.16-.57.4l-.16,1.62.49.16-.08,1c-.65.31-.84-.2-1.54.08l-1,.65a2.11,2.11,0,0,0-1.94.24c-.1-.66-.75-.94-1.21-1.21-.85.45-1.9-.07-2.51.81l-.08.4a12.53,12.53,0,0,0-3,.49l-1.94-.4.32-1.62c.42-.24.3-.14.81,0l.4-.49c.35-.12.14-.09.49.08l.32-.81a.77.77,0,0,0-.65-.24,6.5,6.5,0,0,0,.32-1.29,2.2,2.2,0,0,0-1.94.16c0-.48,0-.48-.32-.65l.81-2.59-.16-.24c-.59-.09-.84.13-1.37-.16l-.49-.57c-.45-.2-1.27.16-1.37.08-.32-.27-.11-.42-.73-.49v-.73l-.57-.16c0-.55,0-.74-.49-.89l.32-.65c.71.08.66-1.22.32-1.7a8.37,8.37,0,0,0,.4-1.13c.33-.12.13-.06.57,0l.08-1a6.27,6.27,0,0,0,1.13-1.94l-.16-.24h-.57l-.08-.4a.7.7,0,0,1,.73-.32c.61-.74-.06-2.22.32-3.23.24-.42.45-.39,1.05-.4.22-.31.34-.36.24-.81l.57.4.24-.81c-.17-.18-.11-.16-.4-.24l.4-1.21-.08-.24a9.82,9.82,0,0,1-1.7-.32l.24-1.05a1.4,1.4,0,0,0-1-.49L105,44l-.08-.24c-3.26-.8-3.5,2.91-6.55,2.34a8,8,0,0,1-1.13,1.29c-.49.37-2.19-.17-3.07.08-.06.25,0,1-.08,1.21-.2.53-1,.84-1.21,2-1.48-.1-2.35-.83-3.88-.4a3.2,3.2,0,0,0-1.54,1.54,3.61,3.61,0,0,0,.65,2.1c-1.49-.38-3.83.93-4.53,2-.31.32-2.73.19-2.75.16a5,5,0,0,0-1.29,1.78v.57H80l-.08.4.16.24.49-.24c.18.27.08.24.49.32,0,.9.08,1.4.08,2.43l-.49.16a3.07,3.07,0,0,0-.08,1.86,7.48,7.48,0,0,0-1.86.08,1.53,1.53,0,0,0,.16,1.05,2.84,2.84,0,0,0-1.86,2.59,9.72,9.72,0,0,1-1.54.32l-.57,1.78v1.13c.39,0,.36,0,.65-.08l-.08.81.08.08c.33-.1.28-.13.49-.32l.16.4h.24L77,71l-.08,1.78.65-.08v1l.24.08.4-.4c.43,1.83,2.29,1.29,2.26,3.31.32.14.48.18.65.49.38.22.36,1.09.32,1.7a1,1,0,0,0,.73-.08c0,2.94-1.64,3.35-2.26,5.42a20.53,20.53,0,0,0-4.37.49c-.24.35-.06.43.16.73-1.14.31-1.33-.09-2.59-.16-.11-.64-.23-.23-.49-.57s-.33-2-.32-3A2,2,0,0,0,71,81.64c-.26-.73-.35-1-.81-1.29s-1.55,0-1.86.08c-1.11,1.4-2.48,1.88-2.43,4.85-.68.23-.91.53-.89,1.46-.39-.08-.52,0-.89.16A4.41,4.41,0,0,0,64,88.43l-.81.49a2.73,2.73,0,0,0,.4,1.94.84.84,0,0,0,.73,0v.81a8.87,8.87,0,0,1,1.46.24v.73c.5.07.61.1.81-.32h.16c.41,1.14,0,1.83,0,3.31.39,0,.36,0,.65-.08,0,.76-.19,1-.57,1.21l.4.73a1.33,1.33,0,0,0-.81,1.29,4.58,4.58,0,0,0-2.18.08,1.91,1.91,0,0,0-.08,1.13h.49a5.23,5.23,0,0,0-.65,1.86c-.06.67-.09,1,.4,1.21-.58,1.68.4,3.18.4,4.85l.08.08c.33-.1.28-.13.49-.32a2,2,0,0,0,.32.4,3.4,3.4,0,0,1-.81,1.13c-.46-.18-.63-.06-1.05.16l-.16.73c-.37.59-2.81.24-4,.16l.16-.49-.24-.24c-.69-.26-3.08.1-4.2.32.36-.6,1.07-3-.4-2.18-.12-.73-.59-.63-.49-1.29-.45-.54-1.46-.28-2-.08a2.65,2.65,0,0,0,0,1.46,3.51,3.51,0,0,1-1.46.57c-.56.89-1.24,1.39-1.21,2.83-.68.42-1.94.62-2.43,1.62-.36.75.65,1,.57,1.7a27.79,27.79,0,0,0-.16,4.2,5.14,5.14,0,0,1-1.13,1l-.16.32c.74,1,.67,1,.65,2.43l.08.08c.33-.1.28-.13.49-.32l.16.4c.43,0,.39,0,.57-.24.19.09.14-.07.24.32l.65-.24.24.16a1.7,1.7,0,0,0-.73,1.78c-.48.18-.53.43-1.05.65-1-.73-1.09-.42-1.94-.81l-.65.32A2.22,2.22,0,0,0,45,125.7l.24.08.32-.24.4.57c-.18,1.55-.89,2.67-.89,4.37-1.15.05-2.21.66-3.15.73-.44,0-1.09-.39-1.62-.24a4,4,0,0,1-2.18.32l-.32-.16-.57.57a1.71,1.71,0,0,0,.16,1.62l-.57.4-.08,1,.24.08.4-.4.08.4c.65.14,1.48-.44,1.54.81.31,0,.14,0,.4-.08a7.44,7.44,0,0,0-.32,1.29c.34.15.38.16.57-.24a2.84,2.84,0,0,1,.65,1.7c.28,0,.2.11.4-.08h.08c-.11.73-.44.43-.65.89l-.08,1.62-.73,1.13h-.08a1.07,1.07,0,0,1,0-.89l-.08-.16a4.74,4.74,0,0,0-1.46-.16l-.57.49a14.37,14.37,0,0,0-.16,3.56,2.54,2.54,0,0,0,1.7.08v1.37c.23.31.34-.06.4.57a1,1,0,0,0,.73-.08c.18.68.62,2,1.21,2.26l-.24.49.49.65c-.53.28-1,0-1.46.57a4.92,4.92,0,0,0,.89,3.31l.32-.4.49.4.57-.49L42,155.21c.48.05.54.09.73-.32l.16-.08c.38.68.6.6.57,1.62.33.14.35,0,.49.4-.57-.1-.84.23-1.37.4l-.32,1.21c.08.29,0,.16.16.32l.16.24-.57.16c-.19-.25-.26-.22-.32-.65-.52-.25-1-.11-1.46-.24-.93,1.25-.48,1.37-1.05,2.59l-1.13.65.16-.49c-.68-1.05-2.24.11-2.91.4L35,161.2c-.33-.31-.67,0-1.13.24-.2-.14-.4-.56-.57-.65-.7-.33-.74.24-1.21-.32l-1.7.73a1.68,1.68,0,0,0,.24,1.05c-.4.37-.65.48-.73,1.21a7,7,0,0,0-1.29.16l-.16.24a1.77,1.77,0,0,0,.24,1.46l-.65.16-.16.24.73.89.32,4.2a3.53,3.53,0,0,0-1.29,1l.32.49a4.77,4.77,0,0,1-1.62.57L26.19,174l.08.08c.33-.1.28-.13.49-.32l.16.4a1.07,1.07,0,0,0,.57-.24l.65,1.29a7.52,7.52,0,0,0,1.86.57,11.19,11.19,0,0,0-.65,2.1c.33.47.67,1.33,1.37,1.46a3.41,3.41,0,0,1-.4,1.46,2.2,2.2,0,0,0,.24,1.29c-.52-.07-1.9.71-1.13,1.62l-1.46,1-.08.89.4.16.24-.32c.05.57.42.64.49,1s-.15,1.2-.08,1.7c-.14,0-1.08.13-1.29.16s-.16.28-.16.65l1,1.29.4-.32.16.4,1-.4a1.33,1.33,0,0,0,.49.57v.24a2.25,2.25,0,0,1-1.13.49l-.16,1.13.08.08c.33-.1.28-.13.49-.32l.57.81a1.31,1.31,0,0,0-.73,1.46l.08.08c.33-.1.28-.13.49-.32l.16.4.81-.24.16.4c.06.17-.23.67-.24,1.37l.08.08c.34-.11.26,0,.4-.32l.24.4c1.1,0,1.44-.32,1.37-1.46.47-.19.82-.37,1-.89.38-.09.14-.09.49.16l.32-.49c.14-.12.32,0,.65-.16l.16.57.49-.24.08-.16.16.49.4-.08a.85.85,0,0,0,.16-.81l.16.16.4.32a1.44,1.44,0,0,0,.08-1.13c.4,0,.32,0,.49-.24.28.38.39.63,1,.73.32-.16.35-.13.49-.49l.24.49c.44-.09.53-.15.65-.57,1.07,1.06,1.57,1.75,2.75,2.18l.08.16-.24.49a5.77,5.77,0,0,0-1.54-.24c-.16.21-.09.16-.4.24l-.24.57a2.74,2.74,0,0,0,.65,1.62,2.79,2.79,0,0,0-.4,1.37c.4.08.37,0,.65-.24l.16.4c.46-.1.57-.16.65-.65a1.44,1.44,0,0,1,1.05.81c-.52.35-.75.45-.73,1.37l.08.08.49-.24c.18.19.11.21.4.32a3.81,3.81,0,0,1,1.37-.73l.08-.08.16.08-.16,1.05.08.08c.33-.1.28-.13.49-.32.18.24.09.27.4.4a12.53,12.53,0,0,1,1.7-.81l-.08,1,.16.08a1.08,1.08,0,0,0,.4-.24l.08-.16.16.49.81-.32v.4c.48.05.54.09.73-.32.32.14.23,0,.32.4l-.65.24a2.06,2.06,0,0,0-.24,1.13l.16.08a1.08,1.08,0,0,0,.4-.24l.08-.16.32,1.21c.46,0,.41,0,.73-.16a1.59,1.59,0,0,0,1.29,1.46l-.08.49c.33,0,.22,0,.49-.08l.4.24-.32,2.18.16.08a1.08,1.08,0,0,0,.4-.24l.08-.16a3.16,3.16,0,0,1,.24,1.29c.53.06.65,0,.81-.49H55c.27.72.72.82.73,1.78.5.06.62,0,.81-.4l.32.65c.57,0,.57-.16.89-.4h.08a10.19,10.19,0,0,1-.4,3.31c-.29,1.55.25,2.24.24,3.4.35.11.15.21.4-.08.52.6.36,1.43.32,2.26l.08.08.57-.32.08.4h.24c.36-.22.51-.34.4-.81l.4.4c.33.22.31.09.57-.16l.16.4c.67-.09.82,0,1.37-.32l.32.32.4-.32.16.4a.84.84,0,0,0,.73-.81l.4.32.4-.73.16-.16c.13.23,0,.76.08,1.13l.24.08.32-.4c.15.26.1.28.4.4.29-.22.47-.36.32-.81l.57.4c.27-.57,0-1,.57-1.21l-.08.73c.4.08.37,0,.65-.24.1.36,0,.27.32.4a.82.82,0,0,0,.49-.73l.4.32.32-.73.49-.24.08.73c.43,0,.4-.13.73-.4a.81.81,0,0,1,.24.57c.64-.12.74-.47,1.13-.81l-.08.73.08.08c.4-.09.33-.13.57-.32.3.51.39.4.81.08v1.13l.24.08.32-.32.16.4.4-.08.24-.65.16-.08c.33.69-.11,1-.16,1.86l1.13.08v.65l.24.16.32-.32c.54.55,1,.11,1.62.49l.73-.49c.1,1-.45,1.37-.49,2.43l.08.08c.4-.09.33-.13.57-.32l.16.49a.81.81,0,0,0,.57-.24l.4.49c-.11.8-.55.68-.57,1.78l.08.08.57-.32.08.4h.24l.65-.4.08-.16.16.49.4-.08a.85.85,0,0,0,.16-.81l.16.16c.53.33.2.18.81,0-.08,2.51.18.83.89,2.34.32.06.31.14.49-.16.37.31,1,.63,1.05,1.21a15.15,15.15,0,0,1,1.86.65c.35,0,.26,0,.57-.24.18.19.11.21.4.32.29-.22.47-.36.32-.81l.57.4c1-.67,1.85-.46,2.83-1.05l-.08.81.16.08a1.08,1.08,0,0,0,.4-.24l.08-.16.16.49.4-.08a.73.73,0,0,0,.16-.73l.57.4c.25-.54.65-.64.81-1.21l.24.57c.5-.1.61-.26.73-.73l.4.32a6.76,6.76,0,0,0,.08-1.21c.33-.43.61-.25.73-1,.28,0,.24,0,.49.08.3-.47.8-.82.73-1.37l.49.4c.4-.46,0-.79.24-1.37s.6-.41.73-1l.4.24.16-.08a1.72,1.72,0,0,0-.08-1.21l.57.4.16-1c.37,0,.5.16.73-.24l.24.4a2,2,0,0,0,1.29-.24c.25.29.3.86.49,1.21l.4-.32c.18.19.11.21.4.32a.74.74,0,0,0,.4-.65c.4.08,1.52.1,1.62.4,1.45-.06,2.76-1.53,3.72-1.46a3.45,3.45,0,0,0,.16-1.78l.16-.08.16.32c.3-.15.27-.19.32-.57h.08l.49.57.4-.24V218l.16.08a1.08,1.08,0,0,0,.4-.24l.08-.16.16.49c.52-.13.56-.36.89-.65a5.41,5.41,0,0,0,.65,1.46l.4-.4.08.4.16.08c.38-.2.64-.37.49-.89a1.67,1.67,0,0,1,1,1.46l.08.08c.34-.11.26,0,.4-.32l.73.65.49-.08a2.37,2.37,0,0,1,.4-.65c.09-.1.66-.24,1-.49l.08.4c.69.05,1.74-1,2.43-1.37,1-.3,2.71.7,3.48,1.05,1.91.88,2.84,2.38,4.37,3.56,1.12.87,2.57,1.57,3.72,2.34,3.27,2.2,7.28,3.23,10.43,5.5a54.85,54.85,0,0,1,8.25,7.76l1.86,2.51c3.35,3.49,7.25,7.41,3.8,13.83-1.6,3-5.22,4.61-8.41,6-2.29,1-6.25-.05-8.49,1-1.17.53-1.89,1.88-3,2.34-.63.27-1.52,0-2.26.24-1.87.73-3.94,1.57-5.9,2.18l-3.8.65-3.23,1.46c-1.34.39-2.68.27-3.8.89a74.15,74.15,0,0,1-10.11,4.12c-1.42.52-2.33,1.65-3.88,2a1,1,0,0,0-.24.73l.16.24c1.61,0,2.52-.71,3.88-1.05,1.18-.29,4,0,4.77-.4.91-.44,1.64-1.4,2.51-1.78a25.33,25.33,0,0,1,2.83-.89c4-1.23,7.34-2.16,11.16-3.4l7-1c2.07-.78,4-2,6-2.91l3.23-.57,3.4-1.13v.08a21.72,21.72,0,0,0-3.64,2.51c-1.38,1-3,1.26-4.29,2.26-1.09.86-1.58,2.28-2.83,3-2.29,1.31-5.87.76-8.57,1.7-.9.31-1.37,1.36-2,1.94l-2.83,1.7a22.19,22.19,0,0,0-3.88,4.12l.49.4c2-.17,2.84-2,4.29-2.67.94-.43,1.59-.46,2.51-.89l1.37-1c2.08-.75,4.5-1.23,6.55-1.94,1.51-.52,3,.17,4.29-.57,1.63-.95,2-2.47,3.23-3.8.29-.32.82-.42,1.21-.65.91-.54,1.85-1.37,2.83-1.94s3.25-.68,4.69-1.37c2-1,4.27-2.33,7-2.43,0,3.61-1,5.5-3.23,7.36-1.62,1.32-4.47,3.2-2.83,6.23.41.66,1.56.95,2.75.89l.08-.49c-.47-.5-.81-1.14-1.62-1.29.56-2,2.14-1.83,3.48-3.15s2.17-3,3.4-4.45c.84-1,1.92-1.92,2.75-2.91.62-.74.94-1.48,1.86-1.94l1.21,1.13c1.82.84,4.47-.16,6.06.89,1.09.72,1.82,2.07,2.91,2.67a74.83,74.83,0,0,0,10.92,5.34l4.53.08c1.37.47,3.3-.77,4.29-.32.54.25,1.07,1.15,2.18.89.7-.17,1-.61,1.94-.65l.24-.24v-.4l-.16-.08c-.62-.55-1.67.29-2.26.08-.85-.3-1.28-1.2-2.26-1.46h-1.86l-7-1c-.67-.22-1.3-1-1.86-1.37s-1.13-.17-1.86-.4l-1.54-1.46-2.1-.4a10.87,10.87,0,0,0-2.43-3.48v-.08c.88.2,2.33.42,3.15.65s1.64-.4,2.75,0c1.36.49,3.26.43,5.5.89l2.51.81,3.15.16,1.21.65c1.06.4,2,.12,3,.57l.73.65h2.26c1.09.3,2.42.17,3.4.49,2.33.74,4.37,2.18,7.36,2l-.08-.65-7-3.72c-2.06-.68-4.63,0-6.47-.89-.77-.36-1.82-1.08-2.59-1.46-1-.47-2.09-.25-3.07-.65l-2.18-1.21c-.76-.31-1.57.07-2.34-.08-2-.4-4.52-1.24-6.55-1.78l-3.15-.4c-1.3-.35-5.94-4.25-6.79-5.34-1.42-1.8-1.64-6.85-.89-9.38l1.05-2.67c.57-1.95.59-3.81,1.21-5.42,3.38-8.77,7.39-17.48,12.53-24.58,1-1.43,1.5-3.09,2.43-4.61l.89-1.05c.2-.39.94-1.54.57-2,.95-1,6.4-5.4,6.47-6.31l.16-.08c.18.19.11.21.4.32h.08c.21-.29.39-.42.24-.89l.57.49.24-.24.32.49.32-.4.49.4c.29-.22.47-.36.32-.81.85.37.81,1,1,1.86a5.94,5.94,0,0,0,2.34-.24c.14.19.08.14.32.24.4.76.14,1.17.08,2l.16.08a1.08,1.08,0,0,0,.4-.24l.08-.16.16.49.4-.08a.73.73,0,0,0,.16-.73,6.27,6.27,0,0,1,.73.4c.19.25.16.94.24,1.29l.24.08.24-.49.24.49.4-.08a.73.73,0,0,0,.16-.73,1.51,1.51,0,0,1,1,.73l.4-.32.32.4a1,1,0,0,0,.57-.89l.4.4.16-.24c.51.12.6.45.89.89l.32-.4a1.51,1.51,0,0,1,.57,1l.16.08.32-.32.16.16a2.31,2.31,0,0,0-.49,1.29l.08.16.24.08.24-.49c.3.4.44.84.89.89l-.08.81.73.32c0,.41-.17.27-.4.49a12.67,12.67,0,0,0,.73,1.37c.32-.11.27-.15.49-.32l.16.4.4-.08a.76.76,0,0,0,.16-.81l.65.4a4.09,4.09,0,0,1,2.18-1.05c.26,1,1.65,1,2.34.57v.57c.37-.08.24,0,.4-.24h.08l.08.81.08.08a.85.85,0,0,0,.49-.24l.24.32h.24c.23-.26.32-.2.4-.65l.16-.08.32.32c.11-.31.07-.83.16-1.05.23-.57.94-.29.81-1.13.17.05,0,0,.16.08l.4.32.24-.81a1.38,1.38,0,0,0-.89-.49v-.08c.72-.86,1.34-.45,1.78-1.46l-.24-.89c.78-.4,2-.18,2.18-1.29l.49.24c.43-.92.8-1.67,1.7-1.62l.24-1-1.13-.49a19.9,19.9,0,0,0-.08-2.34l.32.16a3.72,3.72,0,0,0,.16-1.94l-.89-.08a3.86,3.86,0,0,1-.57-2l.32.16.16-.24a11.48,11.48,0,0,0-.81-2.34H227v-1.94a1,1,0,0,1,.57-.16l.16-.24c.06-.64.1-1-.4-1.13,0-.47,0-.53.24-.73s.06-.06.32,0l.16-.16c0-.62,0-.7-.32-1,.28-.15.22-.07.32-.4l.32.24.16-.08.16-.73-1-1.13c.57-.21.57-.54,1-.49l.24-.81a.61.61,0,0,0-.4-.32l.24-1.05c.3-.17.66-.13.89-.49l.16.32c.59-.16.49-.42,1-.32a1.21,1.21,0,0,0,.16-.65c.38.13.26.18.49-.16l.16.32c.59-.16.49-.42,1-.32l.16-.73.4-.08c.14,0,0,0,.16.16a3.46,3.46,0,0,0,1.54-.65l.16.32c.8-.17.78-.57,1.46-.81.26-.17,0,0,.4.08.67-.41.66-.66,1.21-1.05.26-.18,1-.17,1.21-.32.42-.27.67-1.16,1.13-1.62l.32.16.57-1.37c.15-.23.06-.06.32,0a1.8,1.8,0,0,0,0-1.29c.64.23.71-.25,1.21-.16l.16-.57a5.44,5.44,0,0,0,1.46-.24V171c1.3-.07,5.36-2.21,5.9-2.1l.16-.73c.29.08,2.82-1.53,3.88-1.78v.32c.37-.08.24,0,.4-.24.25.29.11.24.49.24v.73c.37-.08.24,0,.4-.24l.16.32a.73.73,0,0,0,.65-.49,1.47,1.47,0,0,1,.16,1c.37-.08.24,0,.4-.24l.08.4.49-.16-.08,1.94c.62,0,.85.1,1.21-.16l.08.49c.37-.08.24,0,.4-.24l.16.32c.31-.08.24,0,.4-.24l.08.73c.37-.08.24,0,.4-.24l.16.32.49-.24.08.32c.37-.08.24,0,.4-.24l.16.32,1.13-.49v.49c.37-.08.24,0,.4-.24l.16.32c.59-.16.49-.42,1-.32l.16-.81.16.32a.73.73,0,0,0,.65-.49c.35.2.3,0,.4.4.37-.08.24,0,.4-.24l.16.32a5.17,5.17,0,0,0,1.13-.49v.65l.81.16.49-.49c.44.24.42.28.89.16l.08.57a2.18,2.18,0,0,0,1.86-.32l.4.32a.89.89,0,0,0,.49-.73l.57.24c.17-1.44.14-2.49.24-4l-.49-.4a5.26,5.26,0,0,1,.08-2.75c-.2-.29-.15-.3-.65-.32.23-.52.57-.65.32-1.21l.49.32c.33,0,.32,0,.49-.16s.23-.26.16-.65l.49.16c.22-.56.31-.48.73-.81l.16.4.4-.08a.76.76,0,0,0,.16-.81l.24.24.32.24.24-1-.49-.16a.83.83,0,0,0,.24-.65l-1.7-1.46a3.23,3.23,0,0,0,.16-1.21c.28,0,.31.18.73.16l.24-.73c.2.06.18,0,.32.32a17.65,17.65,0,0,0,2.91-1.46c.21-.43.1-.5-.08-.89l.16-.16.73.4c.91-.07,1.6-2,1.46-2.59l.08-.24.57.16.16-1.21c.39-.22.32-.1.81-.16a1,1,0,0,0,.24-.73l.49.4c.31-.87-.31-1.39.24-2.1.17-.1.21.09.57.24.31-.32.84-.46.89-1.13l.49.24c.51-.56,1.15-1.62,1.86-1.46.17-.42.33-.8,0-1.05a1.24,1.24,0,0,1,1.21-.89,3.6,3.6,0,0,0,.49-1.05C288.92,142,288.93,142,288.48,142ZM135.1,218.52c-.67.43-4.62-3-5.26-3.64.32-.31,1.6-1.23,2.26-1.13.75-1.47,1.7-1.24,2.26-2.1C134.86,212.23,135.61,218.1,135.1,218.52Zm24.58,20c-4.61-4-8.25-9.17-13.26-12.77-1.78-1.28-3.6-2.65-5.42-3.8-.54-.34-1.47-.5-1.78-1.05-.82-1.47-1.46-7.73-1.46-10a2.26,2.26,0,0,0,1.46-1l.08.32c.38-.05.55-.05.73-.32l.16.32,1.05-.49h.08V210c.37-.08.24,0,.4-.24l.16.32.57-.24c1.31,3.33,2.65,6.69,4.93,9.06,1.18,1.22,2.75,2,4,3.15C154.27,224.54,160.18,233.18,159.68,238.49Zm-1-17-.49-.08c-1.33-.48-2-2-3-2.83-1.42-1.15-2.82-2.38-4.2-3.48l-2-1.46-2.83-6v-.32c1.46.2,3.49-2.21,5.09-1.86a1.21,1.21,0,0,0,.16-.65l.24-.08v.49c.37-.08.24,0,.4-.24h.08l-.08,1.05c.37-.08.24,0,.4-.24a1.06,1.06,0,0,1,.4.89c.37-.08.24,0,.4-.24l.16.32a3.17,3.17,0,0,0,1.62-.89l.16.32c.59-.16.49-.42,1-.32.21-.48.15-.93.57-1.21.15-.23.06-.06.32,0,.36-.81.26-2.25,1.29-2l.24-.65c.15-.23.06-.06.32,0l.32-.89.49,4.29C160.77,209.9,161,218.23,158.71,221.51Zm9.78-6.47c-.37.64-1,1.1-1.29,1.86l-.57.49c-1.58-3.47-1.86-8.59-2.83-12.61-.57-2.36,0-5.25-.57-7.28.1-.33,0-.17.24-.24a3.1,3.1,0,0,0,.08-1.54l.32.16c.48-1,.27-1.71.73-2.67.15-.23.06-.06.32,0,.24-.55.14-1.14.73-1.37.25-.24.72-.08.89.4.51,0,.46,0,.81-.24.18.3.48.64.81.32l.16,1.13c.53.06.65,0,.81-.49l.32.73c.89-.06,1.35-.71,2.1-.73a4,4,0,0,0,.57-2l.32-.08c.14,0,0,0,.16.16.59-.16.49-.42,1-.32.22-.37.29-.86-.16-1.05.54-.33.89-.39.89-1.29l.81.49.81-2.26,1.05-.24.08.4c.82,0,.61-.27,1.46-.24.29-.46.63-.51.73-1.21l.65.49.57-1.05h.32l.08,1.29.4.4c.31.17.79,0,1.21,0,.23-.24.32-.22.4-.65H183c1,3.22-2.71,7.23-4.12,9.3a87.49,87.49,0,0,0-7.84,13.5Zm18.92-14.55c-1.45,1.34-3.27,2.35-4.45,4-.66.91-.85,2-1.46,3-.76,1.25-1.94,2.37-2.75,3.56l-4.45,7.92c-.85,1.39-2.73,2.48-3.23,3.8l-.16.08c.16-3.53,2.57-8.76,3.88-11.48l.57-1.94,1.21-1.94.57-2c3.18-5,6.31-10,9.54-15l.49.24h-.32l-.08.32a3.16,3.16,0,0,1,.4,2.18c.55.11.65-.07,1.05.49-.15.48-.12.54-.57.73.19.95,0,.82-.16,1.94l.08.16.16.08.32-.4.49.4c.29-.22.47-.36.32-.81l.89.73A21.72,21.72,0,0,1,187.41,200.49Z" transform="translate(-26.19 -23.82)"/><path class="cls-1" d="M293.55,195.32q.74-2.73,6-10.55t13.15-18.36q7.94-10.55,17.62-23t19.11-24.2q9.43-11.78,17.74-22t13.52-16.38q5.21-1.73,8.19-2.61a43,43,0,0,0,4.72-1.61c1,.33,1.16.83.5,1.49a8.59,8.59,0,0,0-3.72,5.71q-1,5.71-2,13.65t-1.86,16.87q-.87,8.93-1.61,18.36t-1.24,17.87q-.5,8.44-.74,15.51t-.25,11.29a9.86,9.86,0,0,0,.37,3.35c.25.58.58.83,1,.74a2.68,2.68,0,0,0,1.36-1q.74-.87,1.49-1.86,2.73-3.47,8.93-11t14.15-17.12q7.94-9.55,16.88-20t17.12-19.73q8.19-9.31,14.77-16.63t9.8-10.3a62.72,62.72,0,0,1,9.68-3.72,37.08,37.08,0,0,0,9.18-4,1.54,1.54,0,0,1,1.24.62,1.06,1.06,0,0,1,0,1.36,37.84,37.84,0,0,0-6.08,3,9.2,9.2,0,0,0-3.1,4.72q-3,9.43-6.08,22t-5.71,25.69q-2.61,13.16-4.34,25.69a162.27,162.27,0,0,0-1.74,22q0,3.48,1.61,4.84a5.75,5.75,0,0,0,3.85,1.36,27.74,27.74,0,0,0,5-.5,21.68,21.68,0,0,0,5-1.49c.33,0,.54.21.62.62a1.18,1.18,0,0,1-.37,1.12l-5.83,1.74-6.7,2-6.2,1.86q-2.86.87-4.84,1.37a9.32,9.32,0,0,1-4.84-1.12,5.5,5.5,0,0,1-2.36-4.09,114.92,114.92,0,0,1,1.74-11.42q1.49-7.94,3.72-17.87t4.84-20.85q2.61-10.92,4.84-20.23t3.85-15.76q1.61-6.45,1.86-7.69,1-3.72,0-3.6a7.05,7.05,0,0,0-3,1.86q-4.72,4.22-11,10.79t-13.4,14.52q-7.07,7.95-14.52,16.88t-14.64,17.87q-7.2,8.93-13.65,17.5t-11.42,15.76c-.33.66-.74,1.45-1.24,2.36a15.18,15.18,0,0,0-1.24,3.1,19.69,19.69,0,0,0-7.07,1.36,20.37,20.37,0,0,0-4.84,3.35c-1,.33-1.57.16-1.74-.5q.74-5.21,1.61-13.9t1.74-19.11q.87-10.42,1.61-21.47T375.94,121q.74-9.8,1.24-17.25t.74-10.67q0-4.71-4,0-7.2,8.19-17,20.6t-19.73,25.81q-9.93,13.4-18.74,26.31t-14,22.33q-4.47,8.19-5.34,12.41a24.48,24.48,0,0,0-.62,6.95c.16,1.82,0,2.61-.5,2.36a4,4,0,0,1-1.49-1.86,16.51,16.51,0,0,1-1.24-4.47Q294.79,200.53,293.55,195.32Z" transform="translate(-26.19 -23.82)"/><path class="cls-1" d="M574.23,158.34q-5.71,7-12.53,14a163.25,163.25,0,0,1-13.77,12.78,76.64,76.64,0,0,1-13.77,9.18,28,28,0,0,1-12.53,3.47q-5,0-6.95-2.48a9.6,9.6,0,0,1-2-6.2,29.18,29.18,0,0,1,2.11-9.31,65.86,65.86,0,0,1,6.33-12.53q-3.23,4.22-7.45,8.93a93.74,93.74,0,0,1-8.69,8.56,60.25,60.25,0,0,1-8.93,6.45,16.23,16.23,0,0,1-7.94,2.61q-5.21,0-5.21-5.21,0-5.71,4.47-14.39a74.11,74.11,0,0,1,12-16.75,80.56,80.56,0,0,1,17.25-13.9,38.45,38.45,0,0,1,20.1-5.83,14,14,0,0,1,2.23-3.47,7.84,7.84,0,0,1,2-1.49l6.95-2,.5.25a16,16,0,0,0-2.36,3.1Q544.94,136,543.7,138c.83,0,2.07.09,3.72.25s2.89.33,3.72.5c.83.33,1.24.74,1.24,1.24a.66.66,0,0,1-.75.74,20.64,20.64,0,0,0-4.47-.74c-2-.16-3.47-.25-4.47-.25q-11.42,20.1-16.75,31.89t-5.34,17.5a6,6,0,0,0,1.12,3.72q1.12,1.49,4.59,1.49,4,0,9.43-2.85a69.52,69.52,0,0,0,11.66-7.94,161.6,161.6,0,0,0,12.78-11.79,187.23,187.23,0,0,0,12.53-14.15q.49-.74,1-.37A1.31,1.31,0,0,1,574.23,158.34Zm-38.71-18.86q-8.44,0-16.13,6a70.85,70.85,0,0,0-13.65,14,88.7,88.7,0,0,0-9.55,16q-3.6,7.94-3.6,11.66c0,1.33.5,2,1.49,2s2.52-.66,4.59-2a69,69,0,0,0,7.07-5.34A88.52,88.52,0,0,0,513.8,174a80.14,80.14,0,0,0,7.57-9.68q4-6,7.69-12.66t6.7-11.91Z" transform="translate(-26.19 -23.82)"/><path class="cls-1" d="M619.39,126.08a9.14,9.14,0,0,1-1.24,4.47q-12.41,23.08-22.33,40.82T577,204.13q-8.93,15-17.62,29T541,263.07a209.48,209.48,0,0,1-17.25,23.7,112.21,112.21,0,0,1-20.6,19.11,96.09,96.09,0,0,1-24.57,12.66,88.7,88.7,0,0,1-29.16,4.59q-11.66,0-19.23-3.1a29.92,29.92,0,0,1-11.91-8.31,30.25,30.25,0,0,1-6.08-11.91,55.26,55.26,0,0,1-1.74-13.9,43.43,43.43,0,0,1,.5-6.33,27.07,27.07,0,0,1,1.24-5.34c.17-.66.5-1,1-1s.74.41.74,1.24q-.49,1.73-1,4.1a24.7,24.7,0,0,0-.5,5.09,29.09,29.09,0,0,0,3.72,15,30.29,30.29,0,0,0,10.3,10.42A51.61,51.61,0,0,0,442,315.31a83.21,83.21,0,0,0,19.11,2.11,69.8,69.8,0,0,0,21.47-3.47A72.84,72.84,0,0,0,504,302.4a119.44,119.44,0,0,0,21-21,201.39,201.39,0,0,0,20.23-31.77q6.45-11.91,13.65-25.31t13.9-25.69l12-22.09q5.33-9.8,7.82-14.27-5,6.7-9.68,12.66t-8.81,10.42a49,49,0,0,1-7.82,7.07q-3.72,2.61-6.7,2.61a5.05,5.05,0,0,1-3.72-1.49q-1.49-1.49-1.49-4.71,0-3.72,3.1-10.55a95.56,95.56,0,0,1,8.19-14.27,108.78,108.78,0,0,1,11.54-14.15A46.69,46.69,0,0,1,590.36,140a26.43,26.43,0,0,1,11.91-3,11.93,11.93,0,0,1,2.73.25q2-3.47,4.09-6.95t4.34-7.44q1.73-3.22,3.23-3.23,1,0,1.86,2.23A11.68,11.68,0,0,1,619.39,126.08Zm-15.88,14.64a6.53,6.53,0,0,0-2-.25h-1.74a33.7,33.7,0,0,0-6.58.62,11.17,11.17,0,0,0-5.33,2.61,59.22,59.22,0,0,0-10.67,11.66A93.55,93.55,0,0,0,569.76,168a66,66,0,0,0-4.34,11.29,32.51,32.51,0,0,0-1.37,7.32c0,1.82.5,2.73,1.49,2.73s3-1.4,6-4.22A112.22,112.22,0,0,0,581.55,174q5.58-6.94,11.54-15.63A148.79,148.79,0,0,0,603.51,140.72Z" transform="translate(-26.19 -23.82)"/><path class="cls-1" d="M697.07,160.33a135.27,135.27,0,0,1-10.3,12.53,93.58,93.58,0,0,1-12.41,11.29,76.44,76.44,0,0,1-13.4,8.19,31,31,0,0,1-13.28,3.23,16.45,16.45,0,0,1-5.46-.87q-2.48-.87-2.48-4.34t2.48-8.81q2.48-5.33,5.83-11.29T655,158.1a107.6,107.6,0,0,0,5.83-11.42,2.73,2.73,0,0,0,.12-2.11q-.37-.87-1.61-.12a75.89,75.89,0,0,0-6.45,4.71q-3.72,3-7.57,6.33t-7.45,6.82a74.69,74.69,0,0,0-5.83,6.2q-4,6.21-6.82,11.42t-7.07,11.66q-1,1.49-1.49,1.49-1.25,0-2.11-2.73a16,16,0,0,1-.87-3.47q0-2.23,3.1-6.08t6.82-8.56q4-7.94,8.19-16.75t7.2-15.76a2.44,2.44,0,0,1,2.23-1.24,4.27,4.27,0,0,1,4,4q0,1-3.6,6.82a119.55,119.55,0,0,0-7.07,13.52q4.71-4.22,10.3-8.93t10.67-8.69q5.08-4,8.93-6.58t5.33-2.61a2.42,2.42,0,0,1,1.86,1.12,3.52,3.52,0,0,1,.87,2.11,6.61,6.61,0,0,1-1.24,3q-2.73,4-6.7,10.17T657,165.17a131.34,131.34,0,0,0-6.08,12.53q-2.48,6-2.48,9.43,0,3,1.24,4.09a5.83,5.83,0,0,0,4,1.12q4.22,0,9.93-3.23a90.93,90.93,0,0,0,11.79-8.07,101.2,101.2,0,0,0,11.54-10.79,83.8,83.8,0,0,0,8.93-11.42,1.13,1.13,0,0,1,1.49-.37Q698.31,158.84,697.07,160.33Z" transform="translate(-26.19 -23.82)"/><path class="cls-1" d="M766.31,150.15a50.64,50.64,0,0,1-10.3,10.3A22.26,22.26,0,0,1,742.23,165a18,18,0,0,1-8.31-2.11,16.06,16.06,0,0,1-6.58-6.33q-1.74,4-4.47,9.06a86.66,86.66,0,0,1-6.45,10.17,63.65,63.65,0,0,1-8.31,9.31,46,46,0,0,1-9.8,6.95,19.26,19.26,0,0,1-7.45,2q-8.93,0-8.93-7.94a28.22,28.22,0,0,1,1.61-9.18,56.47,56.47,0,0,1,4.09-9.18,85.43,85.43,0,0,1,5.33-8.44,52.59,52.59,0,0,1,5.34-6.45,51.84,51.84,0,0,1,11.91-9.68,34.43,34.43,0,0,1,14.39-4.71,40.72,40.72,0,0,1,1.49-4.59,4.55,4.55,0,0,1,3.47-3.1l2.48-.5a8.69,8.69,0,0,0,2.23-.74,1.4,1.4,0,0,1,1.49-.12c.5.25.58.71.25,1.36a20.66,20.66,0,0,0-2.61,6.95,45.37,45.37,0,0,0-.87,9.18q0,7,2.61,11.42t9.06,4.47a18.06,18.06,0,0,0,11.66-4.22,45.2,45.2,0,0,0,8.69-9.18q.5-1.24,1.61-.74C766.93,149,767,149.49,766.31,150.15Zm-40.95,1.74a38.48,38.48,0,0,1-.74-5.21q-.25-3-.25-5.71c0-.83-.33-1.24-1-1.24a10.81,10.81,0,0,0-5.71,1.86,31.61,31.61,0,0,0-6,5,77,77,0,0,0-6,7.07,88,88,0,0,0-5.46,8.19,91.87,91.87,0,0,0-5.83,11.79,28.3,28.3,0,0,0-2.36,12,8.27,8.27,0,0,0,.62,3.23c.41,1,1.37,1.49,2.85,1.49q4.22,0,9.18-4.71a74.1,74.1,0,0,0,9.43-11,89.35,89.35,0,0,0,7.57-12.78Q724.86,155.37,725.36,151.89Z" transform="translate(-26.19 -23.82)"/><path class="cls-1" d="M863.59,30.54q0,3.48-2.73,10.17A130.47,130.47,0,0,1,853,56.22a215.46,215.46,0,0,1-12.41,18.86,210.36,210.36,0,0,1-16.63,20,204.86,204.86,0,0,1-20.47,19,159.51,159.51,0,0,1-23.82,16q-2.23,4-6.2,10.67t-7.82,14.15q-3.85,7.44-6.7,14.64t-2.85,12.16q0,7.94,7.2,7.94a28,28,0,0,0,12.91-3.47A74.07,74.07,0,0,0,789,177.7a126.22,126.22,0,0,0,11.42-10.55q5.33-5.58,9.06-10.05,1.73-1.73,2-.87a1.93,1.93,0,0,1-.75,1.86q-4.47,5.46-10.55,11.66a120.41,120.41,0,0,1-12.9,11.42A77.49,77.49,0,0,1,773,189.86a34.92,34.92,0,0,1-14.89,3.47q-6.46,0-9.31-3.1a10.77,10.77,0,0,1-2.85-7.57q0-4.47,3.85-12.78t9.06-17.5q5.21-9.18,10.42-17.37T777,122.61l8.81-15q4.59-7.82,9.06-15.26l8.56-14.27q4.09-6.82,7.57-12,4.22-6.45,8.69-12.16a74.33,74.33,0,0,1,11.42-11.42,102.1,102.1,0,0,1,17.37-12.16q7.94-4.22,10.67-4.22a4.64,4.64,0,0,1,3.23,1.12A4.28,4.28,0,0,1,863.59,30.54ZM852.42,37q0-4-3.23-4a6.17,6.17,0,0,0-2.73.74,16.78,16.78,0,0,0-3.85,3.1,79.65,79.65,0,0,0-5.71,6.58q-3.35,4.22-8.56,10.92-2,2.73-5.58,7.94t-9.18,13.77q-5.58,8.56-13.4,21.09l-18.49,29.66a150,150,0,0,0,27.92-20.47,181.29,181.29,0,0,0,22.46-24.69A137.41,137.41,0,0,0,847,57.09Q852.41,45.18,852.42,37Z" transform="translate(-26.19 -23.82)"/><path class="cls-1" d="M853.91,159.83a112.78,112.78,0,0,1-13.65,14.64,117.71,117.71,0,0,1-14.15,11.17,44.33,44.33,0,0,1-10.17,5,30.09,30.09,0,0,1-9.43,1.74,28.23,28.23,0,0,1-3.47-.25,8.81,8.81,0,0,1-3.6-1.24,9,9,0,0,1-2.73-2.61,7.5,7.5,0,0,1-1.12-4.34q0-3.22,2.48-8.81t5.83-11.54q3.35-6,6.7-11.42t5.33-8.19a9.35,9.35,0,0,1,4.34-3.35,13.81,13.81,0,0,1,4.09-1.37c.83,0,1.24.25,1.24.74a4.73,4.73,0,0,1-.37,1.49,4.16,4.16,0,0,1-.87,1.49q-3.23,5-6.58,10.92t-6.08,11.54a89.65,89.65,0,0,0-4.34,10.3,24.62,24.62,0,0,0-1.61,7.44,5.37,5.37,0,0,0,1.61,4.34,6.49,6.49,0,0,0,4.34,1.37q5,0,10.92-3.35a85.28,85.28,0,0,0,11.79-8.06,113.23,113.23,0,0,0,10.8-9.93,95.81,95.81,0,0,0,7.69-8.93q1.24-1.24,1.37-.62A3.66,3.66,0,0,1,853.91,159.83Zm-11.17-55.34a9.1,9.1,0,0,1-2.61,6,7.65,7.65,0,0,1-5.83,3,2.63,2.63,0,0,1-3-3,9.87,9.87,0,0,1,2.36-6.2,7.17,7.17,0,0,1,5.83-3Q842.74,101.27,842.74,104.49Z" transform="translate(-26.19 -23.82)"/><path class="cls-1" d="M926.62,158.34q-5.71,7-12.53,14a163.41,163.41,0,0,1-13.77,12.78,76.58,76.58,0,0,1-13.77,9.18A28,28,0,0,1,874,197.8q-5,0-6.95-2.48a9.6,9.6,0,0,1-2-6.2,29.2,29.2,0,0,1,2.11-9.31,65.81,65.81,0,0,1,6.33-12.53q-3.23,4.22-7.45,8.93a94,94,0,0,1-8.69,8.56,60.26,60.26,0,0,1-8.93,6.45,16.22,16.22,0,0,1-7.94,2.61q-5.21,0-5.21-5.21,0-5.71,4.47-14.39a74.12,74.12,0,0,1,12-16.75A80.57,80.57,0,0,1,869,143.58a38.45,38.45,0,0,1,20.1-5.83,14,14,0,0,1,2.23-3.47,7.83,7.83,0,0,1,2-1.49l6.95-2,.5.25a16,16,0,0,0-2.36,3.1q-1.12,1.86-2.36,3.85c.83,0,2.07.09,3.72.25s2.89.33,3.72.5c.83.33,1.24.74,1.24,1.24a.66.66,0,0,1-.75.74,20.66,20.66,0,0,0-4.47-.74c-2-.16-3.47-.25-4.47-.25q-11.42,20.1-16.75,31.89T873,189.12a6,6,0,0,0,1.12,3.72q1.12,1.49,4.59,1.49,4,0,9.43-2.85a69.52,69.52,0,0,0,11.66-7.94,161.94,161.94,0,0,0,12.78-11.79,187.21,187.21,0,0,0,12.53-14.15q.49-.74,1-.37A1.31,1.31,0,0,1,926.62,158.34Zm-38.71-18.86q-8.44,0-16.13,6a70.87,70.87,0,0,0-13.65,14,88.7,88.7,0,0,0-9.55,16q-3.6,7.94-3.6,11.66c0,1.33.5,2,1.49,2s2.52-.66,4.59-2a69,69,0,0,0,7.07-5.34,88.39,88.39,0,0,0,8.07-7.82,80.15,80.15,0,0,0,7.57-9.68q4-6,7.69-12.66t6.7-11.91Z" transform="translate(-26.19 -23.82)"/><path class="cls-1" d="M569.8,265.45a16.19,16.19,0,0,1,5.14.78,11.79,11.79,0,0,1,4,2.23,9.84,9.84,0,0,1,2.61,3.59,13,13,0,0,1,0,9.63,9.84,9.84,0,0,1-2.61,3.59,11.76,11.76,0,0,1-4,2.23,17.39,17.39,0,0,1-10.29,0,11.76,11.76,0,0,1-4-2.23,9.84,9.84,0,0,1-2.61-3.59,13,13,0,0,1,0-9.63,9.84,9.84,0,0,1,2.61-3.59,11.79,11.79,0,0,1,4-2.23A16.18,16.18,0,0,1,569.8,265.45Zm0,1.19a7.28,7.28,0,0,0-3.56.83,7.13,7.13,0,0,0-2.48,2.25,10,10,0,0,0-1.44,3.26,16.48,16.48,0,0,0,0,7.76,10,10,0,0,0,1.44,3.27,7.11,7.11,0,0,0,2.48,2.25,8.06,8.06,0,0,0,7.11,0,7.14,7.14,0,0,0,2.48-2.25,10,10,0,0,0,1.44-3.27,16.48,16.48,0,0,0,0-7.76,10.06,10.06,0,0,0-1.44-3.26,7.16,7.16,0,0,0-2.48-2.25A7.28,7.28,0,0,0,569.8,266.64Z" transform="translate(-26.19 -23.82)"/><path class="cls-1" d="M592.83,275.21h1.72a6.67,6.67,0,0,0,1.69-.21,5,5,0,0,0,1.54-.69A4.57,4.57,0,0,0,599,273a5.85,5.85,0,0,0,.79-2h.66q0,1.16-.08,2.35t0,2.35q0,1.19,0,2.37t.08,2.37h-.66a9.38,9.38,0,0,0-.66-2.05,3.7,3.7,0,0,0-1-1.32,3.9,3.9,0,0,0-1.49-.71,8.7,8.7,0,0,0-2.08-.22h-1.72v7.64a6,6,0,0,0,.13,1.36,1.72,1.72,0,0,0,.55.93,2.6,2.6,0,0,0,1.19.53,10.12,10.12,0,0,0,2,.17v.93q-1.59-.07-3.14-.1t-3.14,0q-1.39,0-2.75,0t-2.75.1v-.93a7.7,7.7,0,0,0,1.77-.17,2.17,2.17,0,0,0,1-.53,1.89,1.89,0,0,0,.5-.93,6,6,0,0,0,.13-1.36V270.61a10,10,0,0,0-.12-1.62,2.51,2.51,0,0,0-.48-1.16,2.3,2.3,0,0,0-1-.71,5.91,5.91,0,0,0-1.8-.28v-.93l3.39.13q1.7.07,3.39.07,3.21,0,6.37-.07l6.37-.13q0,.59,0,1.19v1.16q0,1,0,2.05a14.26,14.26,0,0,0,.18,2.05H604a6.63,6.63,0,0,0-2.46-4,8.77,8.77,0,0,0-5-1.19h-3.71Z" transform="translate(-26.19 -23.82)"/><path class="cls-1" d="M634.11,272.82a9.82,9.82,0,0,0-1-2.93,4.53,4.53,0,0,0-1.5-1.64,5.17,5.17,0,0,0-2.05-.73,18.87,18.87,0,0,0-2.65-.17v15.81A13.72,13.72,0,0,0,627,285a2.18,2.18,0,0,0,.46,1.14,2.1,2.1,0,0,0,1.09.63,11.2,11.2,0,0,0,2,.3v.66q-1.39-.07-2.8-.1t-2.83,0q-1.52,0-3,0t-3.08.1v-.66a11.23,11.23,0,0,0,2-.3,2.11,2.11,0,0,0,1.09-.63,2.2,2.2,0,0,0,.46-1.14,13.72,13.72,0,0,0,.1-1.84V267.37a18.88,18.88,0,0,0-2.65.17,5.18,5.18,0,0,0-2.05.73,4.52,4.52,0,0,0-1.5,1.64,9.85,9.85,0,0,0-1,2.93h-.86q.07-.63.12-1.27t.1-1.44q0-.79.08-1.82t0-2.38l4.9.13q2.41.07,4.86.07t5-.07l5-.13q0,1.36,0,2.38t.08,1.82q0,.79.1,1.44t.12,1.27Z" transform="translate(-26.19 -23.82)"/><path class="cls-1" d="M636.13,287a15.82,15.82,0,0,0,1.65-.18,2.13,2.13,0,0,0,1.06-.46,1.89,1.89,0,0,0,.56-1,6.48,6.48,0,0,0,.17-1.64v-12.9a17.85,17.85,0,0,0-.08-1.92,1.95,1.95,0,0,0-1.46-1.82,9.16,9.16,0,0,0-1.84-.36v-.79q2.85.2,5.72.2t5.69-.2v.79a10.4,10.4,0,0,0-2,.36,2.32,2.32,0,0,0-1.09.66,2.22,2.22,0,0,0-.46,1.16,14.76,14.76,0,0,0-.1,1.92v4.37h11v-4.37a14.78,14.78,0,0,0-.1-1.92,2.3,2.3,0,0,0-.45-1.16,2.2,2.2,0,0,0-1.06-.66,10.08,10.08,0,0,0-2-.36v-.79q2.94.2,5.82.2t5.69-.2v.79a9.64,9.64,0,0,0-1.92.36,2.2,2.2,0,0,0-1,.66,2.3,2.3,0,0,0-.45,1.16,14.76,14.76,0,0,0-.1,1.92v12.9a6.49,6.49,0,0,0,.17,1.64,1.89,1.89,0,0,0,.56,1,2.15,2.15,0,0,0,1.08.46,16.58,16.58,0,0,0,1.7.18v.79q-1.42-.07-2.86-.1t-2.86,0q-1.42,0-2.84,0t-2.85.1V287a15.76,15.76,0,0,0,1.65-.18,2.23,2.23,0,0,0,1.08-.46,1.84,1.84,0,0,0,.58-1,6.49,6.49,0,0,0,.17-1.64v-7.15H644v7.15a6.44,6.44,0,0,0,.17,1.64,1.83,1.83,0,0,0,.58,1,2.25,2.25,0,0,0,1.09.46,16.46,16.46,0,0,0,1.67.18v.79q-1.46-.07-2.89-.1t-2.89,0q-1.39,0-2.8,0t-2.79.1Z" transform="translate(-26.19 -23.82)"/><path class="cls-1" d="M664.25,287a7.63,7.63,0,0,0,1.8-.28,2.13,2.13,0,0,0,1-.66,2.4,2.4,0,0,0,.48-1.14,10.58,10.58,0,0,0,.12-1.69V270.61a10.11,10.11,0,0,0-.12-1.62,2.51,2.51,0,0,0-.48-1.16,2.29,2.29,0,0,0-1-.71,5.91,5.91,0,0,0-1.8-.28v-.93l3.39.13q1.7.07,3.39.07,3.21,0,6.38-.07l6.48-.13q0,.59,0,1.19v1.16q0,1,0,2a9,9,0,0,0,.23,1.82l-.73.13a7.21,7.21,0,0,0-2.53-3.79,8.46,8.46,0,0,0-5-1.27h-3.71v8h1.72a6.67,6.67,0,0,0,1.69-.21,5,5,0,0,0,1.54-.69,4.58,4.58,0,0,0,1.24-1.27,5.85,5.85,0,0,0,.79-2h.66q0,1.16-.08,2.35t0,2.35q0,1.19,0,2.37t.08,2.37h-.66a6.76,6.76,0,0,0-.76-2.05,4.56,4.56,0,0,0-1.16-1.32,4.22,4.22,0,0,0-1.51-.71,7.41,7.41,0,0,0-1.84-.22h-1.72V286a10.94,10.94,0,0,0,1.77.35,18.51,18.51,0,0,0,2.17.12,11.33,11.33,0,0,0,5.86-1.54,12.4,12.4,0,0,0,4.43-4.78l.63.46q-.83,1.75-1.57,3.51a36,36,0,0,0-1.31,3.61q-2.58-.07-5.13-.1t-5.13,0h-3.08l-2.7,0-2.22,0-1.6.07Z" transform="translate(-26.19 -23.82)"/><path class="cls-1" d="M709.54,265.45a16.19,16.19,0,0,1,5.14.78,11.79,11.79,0,0,1,4,2.23,9.84,9.84,0,0,1,2.61,3.59,13,13,0,0,1,0,9.63,9.84,9.84,0,0,1-2.61,3.59,11.76,11.76,0,0,1-4,2.23,17.39,17.39,0,0,1-10.29,0,11.76,11.76,0,0,1-4-2.23,9.84,9.84,0,0,1-2.61-3.59,13,13,0,0,1,0-9.63,9.84,9.84,0,0,1,2.61-3.59,11.79,11.79,0,0,1,4-2.23A16.18,16.18,0,0,1,709.54,265.45Zm0,1.19a7.28,7.28,0,0,0-3.56.83,7.13,7.13,0,0,0-2.48,2.25,10,10,0,0,0-1.44,3.26,16.48,16.48,0,0,0,0,7.76A10,10,0,0,0,703.5,284a7.11,7.11,0,0,0,2.48,2.25,8.06,8.06,0,0,0,7.11,0,7.14,7.14,0,0,0,2.48-2.25,10,10,0,0,0,1.44-3.27,16.48,16.48,0,0,0,0-7.76,10.06,10.06,0,0,0-1.44-3.26,7.16,7.16,0,0,0-2.48-2.25A7.28,7.28,0,0,0,709.54,266.64Z" transform="translate(-26.19 -23.82)"/><path class="cls-1" d="M726.71,273q0-.4,0-1v-1.16a23.59,23.59,0,0,1,.12-2.46,19.73,19.73,0,0,1,.45-2.5q2.25,0,4.45.12t4.45.08q2.38,0,4.71,0t4.71-.17l.36.79q-2.15,2.28-4.12,4.7T738,276.3q-1.89,2.48-3.74,5t-3.8,5l1.34.12q.68,0,1.34,0a25,25,0,0,0,3.84-.28,12.46,12.46,0,0,0,3.36-1,9.09,9.09,0,0,0,2.73-1.94,8.69,8.69,0,0,0,1.89-3.11h.83a32.42,32.42,0,0,1-1.17,3.9,31.42,31.42,0,0,1-1.67,3.74q-2.28-.07-4.5-.1t-4.5,0q-2.22,0-4.43,0t-4.43.1l-.56-.7L740,267.1q-3,0-5.28.13a12.68,12.68,0,0,0-3.8.73,5,5,0,0,0-2.37,1.77,6.5,6.5,0,0,0-1,3.26Z" transform="translate(-26.19 -23.82)"/><path class="cls-1" d="M746.26,287a5,5,0,0,0,1.54-.38,3.07,3.07,0,0,0,1-.74,5.09,5.09,0,0,0,.73-1.08q.31-.61.64-1.41l6.48-15.12-.6-1.59q1.06-.2,2.08-.48a13.82,13.82,0,0,0,2-.71l7.18,19.49a2.69,2.69,0,0,0,1.39,1.54,4.59,4.59,0,0,0,2,.48v.79l-1.42-.07-1.59,0-1.59,0h-1.39q-1.39,0-2.76,0t-2.76.1V287a6.94,6.94,0,0,0,2.55-.56,1.38,1.38,0,0,0,.83-1.29,3.33,3.33,0,0,0-.12-.76,8.63,8.63,0,0,0-.3-.94l-.36-1-.31-.81-1.12-3.28H753.8L752.12,283q-.17.46-.35.89a2.83,2.83,0,0,0-.18,1.09,1.1,1.1,0,0,0,.28.73,2.6,2.6,0,0,0,.73.58,5.3,5.3,0,0,0,1,.41,6,6,0,0,0,.94.23v.79q-1.06-.07-2.13-.1t-2.13,0q-1,0-2,0t-2,.1Zm13.66-9.86-2.71-7.74h-.07l-2.88,7.74Z" transform="translate(-26.19 -23.82)"/><path class="cls-1" d="M771,266q1.22.07,2.4.1t2.66,0q1.79,0,3.57-.1t3.74-.1a9.05,9.05,0,0,1,3.09.5,7.07,7.07,0,0,1,2.35,1.37,6,6,0,0,1,1.49,2,6.14,6.14,0,0,1,.51,2.51,5.06,5.06,0,0,1-.38,2,4.74,4.74,0,0,1-1,1.52,5.85,5.85,0,0,1-1.55,1.08,8.86,8.86,0,0,1-2,.66q.69,1.13,1.72,2.66a30.09,30.09,0,0,0,2.27,3,18,18,0,0,0,2.66,2.53,6.72,6.72,0,0,0,2.91,1.36v.6q-1-.07-1.87-.1t-1.87,0q-.83,0-1.65,0t-1.65.1a49.18,49.18,0,0,1-3.85-4.63,46.38,46.38,0,0,1-3.23-5.06q-.56-.07-1.27-.2a2.66,2.66,0,0,1-1.08-.4v5.72a15.9,15.9,0,0,0,.08,1.82,2,2,0,0,0,.43,1.09,2,2,0,0,0,1,.58,10.57,10.57,0,0,0,1.82.28v.79q-1.16-.07-2.53-.1t-2.8,0q-1.52,0-3,0t-3,.1V287a12.08,12.08,0,0,0,1.93-.28,2,2,0,0,0,1.06-.58,2.06,2.06,0,0,0,.45-1.09,13.52,13.52,0,0,0,.1-1.82V270.61a12.3,12.3,0,0,0-.1-1.69,2.47,2.47,0,0,0-.45-1.16,2.17,2.17,0,0,0-1.06-.71,8,8,0,0,0-1.93-.35Zm8,10.19a5.17,5.17,0,0,0,2.22.5,5,5,0,0,0,3.52-1.22,4.59,4.59,0,0,0,1.34-3.57,5.51,5.51,0,0,0-.31-1.87,4.41,4.41,0,0,0-.91-1.52,4.24,4.24,0,0,0-1.42-1,4.56,4.56,0,0,0-1.85-.36,12.36,12.36,0,0,0-1.29.07,5.76,5.76,0,0,0-1.29.3Z" transform="translate(-26.19 -23.82)"/><path class="cls-1" d="M798.37,270a4.68,4.68,0,0,0-.17-1.26,2.59,2.59,0,0,0-.56-1,2.91,2.91,0,0,0-1.06-.73,4.24,4.24,0,0,0-1.65-.28v-.79q2.75.2,5.43.2,1.49,0,3-.07l3-.13v.79a4.58,4.58,0,0,0-1.74.28,2.89,2.89,0,0,0-1.08.73,2.59,2.59,0,0,0-.56,1,4.68,4.68,0,0,0-.17,1.26v6.68c.18-.13.49-.39.94-.78s1-.84,1.54-1.36l1.8-1.65q.94-.88,1.72-1.72a17.13,17.13,0,0,0,1.29-1.55,2.19,2.19,0,0,0,.51-1.14,1.17,1.17,0,0,0-.23-.71,2.28,2.28,0,0,0-.58-.55,3.13,3.13,0,0,0-.74-.36,3.44,3.44,0,0,0-.73-.17v-.79a22.45,22.45,0,0,0,2.58.18l2.61,0q1.39,0,2.68,0t2.68-.17v.79a9,9,0,0,0-3.13.94A17.36,17.36,0,0,0,813,269.4q-1.29,1-2.5,2.15t-2.46,2.13l6.78,9.73q.53.76,1,1.37a6.68,6.68,0,0,0,1.11,1.06,5.53,5.53,0,0,0,1.32.73A6.58,6.58,0,0,0,820,287v.79q-1.49-.07-3-.1t-3,0q-1.49,0-2.94,0t-2.94.1v-.66l.73-.17a4.68,4.68,0,0,0,.91-.3,3.18,3.18,0,0,0,.78-.48.89.89,0,0,0,.33-.71,2.53,2.53,0,0,0-.38-.91q-.38-.68-1-1.59t-1.31-2q-.71-1-1.39-2l-1.21-1.67-.76-1.06-2.08,1.65v5.66a8.84,8.84,0,0,0,.1,1.41,2.07,2.07,0,0,0,.45,1,2.25,2.25,0,0,0,1,.65,7.49,7.49,0,0,0,1.89.3v.79q-1.52-.07-3-.1t-3,0q-1.36,0-2.68,0t-2.68.1V287a7.26,7.26,0,0,0,1.87-.3,2.25,2.25,0,0,0,1-.65,2.08,2.08,0,0,0,.45-1,8.84,8.84,0,0,0,.1-1.41Z" transform="translate(-26.19 -23.82)"/><path class="cls-1" d="M836,272.49a7.23,7.23,0,0,0-1.08-2.28,9.18,9.18,0,0,0-1.72-1.85,8.19,8.19,0,0,0-2.13-1.26,6.28,6.28,0,0,0-2.35-.46,4.12,4.12,0,0,0-2.53.78,2.73,2.73,0,0,0-1,2.33,2.58,2.58,0,0,0,.94,2,10.22,10.22,0,0,0,2.37,1.5q1.42.68,3.06,1.37a17.47,17.47,0,0,1,3.06,1.67,9.16,9.16,0,0,1,2.37,2.33,6.37,6.37,0,0,1,.38,6,5.6,5.6,0,0,1-1.59,2,7.49,7.49,0,0,1-2.48,1.26,11,11,0,0,1-3.24.45,9.29,9.29,0,0,1-1.65-.15q-.83-.15-1.64-.33t-1.64-.33a9.3,9.3,0,0,0-1.65-.15,1.62,1.62,0,0,0-.35,0l-.46.12-.48.13a2.06,2.06,0,0,0-.36.13q-.27-1.85-.56-3.74t-.76-3.8h.73a8.46,8.46,0,0,0,1.19,2.42,11.12,11.12,0,0,0,1.93,2.13,9.65,9.65,0,0,0,2.4,1.5,6.33,6.33,0,0,0,2.55.56,10.94,10.94,0,0,0,2-.17,4.69,4.69,0,0,0,1.54-.55,2.61,2.61,0,0,0,1-1,3.43,3.43,0,0,0,.35-1.64,3,3,0,0,0-1-2.27,10.43,10.43,0,0,0-2.4-1.65q-1.44-.74-3.11-1.44a21.54,21.54,0,0,1-3.11-1.59,9.07,9.07,0,0,1-2.4-2.12,4.72,4.72,0,0,1-1-3,5.26,5.26,0,0,1,1.89-4.52q1.89-1.4,5.72-1.41a12,12,0,0,1,1.92.15q.93.15,1.75.35l1.55.35a6.77,6.77,0,0,0,1.36.15h1.19q0,.56-.07,1.06t0,1q0,1,.08,2t.15,2Z" transform="translate(-26.19 -23.82)"/><path class="cls-1" d="M583.07,238.68l-3.7,10.15c-.11.3-.22.56-.31.79a1.87,1.87,0,0,0-.14.73,2.68,2.68,0,0,0,.59,1.74,5,5,0,0,0,1.43,1.21,8.86,8.86,0,0,0,1.74.76,12.89,12.89,0,0,0,1.51.39v.67q-1.68-.11-3.36-.17t-3.42-.06q-1.68,0-3.28.06t-3.39.17v-.67a8,8,0,0,0,2.89-1.21,7.92,7.92,0,0,0,1.93-1.93,14.16,14.16,0,0,0,1.37-2.47q.59-1.35,1.15-2.8l9.7-23.83.31-.73a1.63,1.63,0,0,0,.14-.62,2.88,2.88,0,0,0-.2-.84,5.14,5.14,0,0,0-.48-1,12.68,12.68,0,0,0,2.52-.73q1.06-.45,2.35-1l11.66,32.07a8.3,8.3,0,0,0,2.19,3.45,7.43,7.43,0,0,0,4.15,1.6v.67q-2.24-.11-4.4-.17t-4.51-.06h-2.63q-1.12,0-2,0t-1.71.08l-1.77.11v-.67a10.26,10.26,0,0,0,4-1.21,2.8,2.8,0,0,0,1.6-2.49,2.22,2.22,0,0,0-.2-.9,6.77,6.77,0,0,1-.31-.84l-3.64-10.31Zm6.05-15.92L583.63,237h10.54Z" transform="translate(-26.19 -23.82)"/><path class="cls-1" d="M645.29,231a21.59,21.59,0,0,0-1.93-4.65,15.79,15.79,0,0,0-2.86-3.7,12,12,0,0,0-3.81-2.44,12.88,12.88,0,0,0-4.85-.87,11.92,11.92,0,0,0-5.89,1.35,11.36,11.36,0,0,0-4,3.64,15.89,15.89,0,0,0-2.24,5.33,28.23,28.23,0,0,0-.7,6.39,22.64,22.64,0,0,0,.9,6.42,16.14,16.14,0,0,0,2.66,5.35,13,13,0,0,0,4.43,3.67,13.19,13.19,0,0,0,6.14,1.37,15.34,15.34,0,0,0,9-2.63,25.09,25.09,0,0,0,6.7-7.18l1.4,1.12a49.24,49.24,0,0,1-3.81,5,21.36,21.36,0,0,1-4.15,3.7,17.69,17.69,0,0,1-4.88,2.3,20.81,20.81,0,0,1-5.94.78,18,18,0,0,1-7.12-1.43,18.2,18.2,0,0,1-5.89-4,18.94,18.94,0,0,1-4-6.11,21.32,21.32,0,0,1,0-15.64,19,19,0,0,1,4-6.11,18.22,18.22,0,0,1,5.89-4,18,18,0,0,1,7.12-1.43,27.87,27.87,0,0,1,3.87.25q1.79.25,3.45.53l3.2.56a21.31,21.31,0,0,0,3.05.34q0,1.18.08,2.75t.25,3.22q.17,1.65.34,3.25t.34,2.78Z" transform="translate(-26.19 -23.82)"/><path class="cls-1" d="M662,238.68l-3.7,10.15c-.11.3-.22.56-.31.79a1.87,1.87,0,0,0-.14.73,2.68,2.68,0,0,0,.59,1.74,5,5,0,0,0,1.43,1.21,8.86,8.86,0,0,0,1.74.76,12.89,12.89,0,0,0,1.51.39v.67q-1.68-.11-3.36-.17t-3.42-.06q-1.68,0-3.28.06t-3.39.17v-.67a8,8,0,0,0,2.89-1.21,7.92,7.92,0,0,0,1.93-1.93,14.16,14.16,0,0,0,1.37-2.47q.59-1.35,1.15-2.8l9.7-23.83.31-.73a1.63,1.63,0,0,0,.14-.62,2.88,2.88,0,0,0-.2-.84,5.14,5.14,0,0,0-.48-1,12.68,12.68,0,0,0,2.52-.73q1.06-.45,2.35-1L683,249.38a8.3,8.3,0,0,0,2.19,3.45,7.43,7.43,0,0,0,4.15,1.6v.67q-2.24-.11-4.4-.17t-4.51-.06h-2.63q-1.12,0-2,0t-1.71.08l-1.77.11v-.67a10.26,10.26,0,0,0,4-1.21,2.8,2.8,0,0,0,1.6-2.49,2.22,2.22,0,0,0-.2-.9,6.77,6.77,0,0,1-.31-.84l-3.64-10.31Zm6.05-15.92L662.56,237H673.1Z" transform="translate(-26.19 -23.82)"/><path class="cls-1" d="M691.43,254.43a10.45,10.45,0,0,0,2.94-.62,5.1,5.1,0,0,0,1.68-1,2.72,2.72,0,0,0,.76-1.26,5.52,5.52,0,0,0,.17-1.35v-25.9a14.54,14.54,0,0,0-.14-2.16,3.2,3.2,0,0,0-.7-1.6,3.74,3.74,0,0,0-1.68-1.06,13,13,0,0,0-3-.56v-.67q1.46.11,2.92.17t2.92.06a63,63,0,0,0,7.29-.39,59.66,59.66,0,0,1,6.9-.39,25.5,25.5,0,0,1,8.52,1.4,21.32,21.32,0,0,1,7,4,18.9,18.9,0,0,1,4.74,6.31,19.29,19.29,0,0,1,1.74,8.3,17.21,17.21,0,0,1-1.68,7.93,15.4,15.4,0,0,1-4.48,5.38,18.39,18.39,0,0,1-6.42,3.06,29.45,29.45,0,0,1-7.54,1q-3,0-5.19,0l-3.78,0q-1.63,0-2.92,0l-2.47,0q-1.91,0-3.76.06t-3.76.17ZM702,250.62a10,10,0,0,0,4.12,2.35,16.76,16.76,0,0,0,4.68.67q8.63,0,12.59-4.43t4-12.84a17.58,17.58,0,0,0-1.32-6.81A17.15,17.15,0,0,0,722.4,224a16.8,16.8,0,0,0-5.55-3.7,18.76,18.76,0,0,0-14.49.22q-.23,2.92-.28,5.8t-.06,5.91Z" transform="translate(-26.19 -23.82)"/><path class="cls-1" d="M748.84,252.69c.34.08.75.15,1.23.22l1.57.22q.84.11,1.74.2t1.68.08a29.37,29.37,0,0,0,6-.56,17.26,17.26,0,0,0,4.88-1.79,19.88,19.88,0,0,0,4.18-3.14,39.18,39.18,0,0,0,4-4.6l.62.5-5.1,11.27q-1-.11-2-.17t-2-.06H744.63q-1.63,0-3.25.06t-3.25.17v-.67a11.29,11.29,0,0,0,3.14-.62,3.3,3.3,0,0,0,1.68-1.4,6,6,0,0,0,.7-2.49q.14-1.54.14-3.9V227.3q0-2.35-.14-3.9a6,6,0,0,0-.7-2.49,3.29,3.29,0,0,0-1.74-1.4,12.1,12.1,0,0,0-3.2-.62v-.67l3.62.11q1.71.06,3.53.08t3.87,0h4.63q3.92,0,7.85-.06t8-.17q-.06.62-.08,1.23t0,1.18v2.24q0,1.23.11,2.49t.22,2.77l-.73.22A14,14,0,0,0,767,224a9.23,9.23,0,0,0-2.8-2.66,10.27,10.27,0,0,0-3.5-1.29,23.18,23.18,0,0,0-4-.34q-3.92,0-7.85.34v14Q750,234,751,234t2.16-.06a10.77,10.77,0,0,0,6.14-1.54q2.27-1.54,2.78-5.63h.67q0,2-.06,4t-.06,4q0,2,.06,4t.06,4h-.67a16.94,16.94,0,0,0-1.23-3.84,5.94,5.94,0,0,0-1.82-2.27,6.49,6.49,0,0,0-2.72-1.06,23.15,23.15,0,0,0-3.87-.28h-3.59Z" transform="translate(-26.19 -23.82)"/><path class="cls-1" d="M808.48,218.21q2,.11,4,.17t4,.06q1.79,0,3.56-.06t3.56-.17v.67a9.27,9.27,0,0,0-3.87,1.35q-1.51,1-1.51,3.64a39.41,39.41,0,0,0,.42,4.57q.42,3.17,1.07,6.92t1.35,7.51q.7,3.76,1.32,6.39a15.35,15.35,0,0,0,.62,2,4.26,4.26,0,0,0,2.69,2.55,13.19,13.19,0,0,0,3,.65v.67q-2.24-.11-4.46-.17t-4.46-.06q-2.13,0-4.18.06t-4.18.17v-.67q1.18-.17,2.24-.42a6.29,6.29,0,0,0,1.88-.76,3.44,3.44,0,0,0,1.26-1.37,5.1,5.1,0,0,0,.45-2.33q0-.67-.06-1.79a18.86,18.86,0,0,0-.34-2.58L813,222.59h-.11q-1.57,4-3.31,8t-3.42,7.93q-1.68,4-3.28,8T800,254.88h-.11q-2.69-8.69-6.08-16.73T786.56,222h-.11q-.45,3.08-.9,6.84t-.81,7.32q-.37,3.56-.59,6.5t-.22,4.4a17.51,17.51,0,0,0,.25,3.2,4.92,4.92,0,0,0,1,2.24,4.38,4.38,0,0,0,2,1.35,12,12,0,0,0,3.28.56v.67q-2.35-.11-4.6-.17t-4.6-.06q-1.74,0-3.45.06t-3.45.17v-.67a12.48,12.48,0,0,0,2.33-.45,8.57,8.57,0,0,0,2.1-.92,6.12,6.12,0,0,0,1.6-1.4,4,4,0,0,0,.81-1.93q.34-2,.62-4.12t.56-4.29l2.69-20a10.15,10.15,0,0,0-2.8-1.57,17.68,17.68,0,0,0-3.25-.9v-.67q2.41.11,4.79.17t4.79.06q1.74,0,3.45-.06t3.45-.17v.67a5.92,5.92,0,0,0-2,.93,2.35,2.35,0,0,0-.9,2,5.63,5.63,0,0,0,.31,1.85q.31.9.7,1.85l7.91,19.4Q804.39,239,807,233t4.71-12.25a5,5,0,0,0-1.46-1.18,10.13,10.13,0,0,0-1.74-.73Z" transform="translate(-26.19 -23.82)"/><path class="cls-1" d="M827.21,218.21q2.35.11,4.6.17t4.6.06q2.19,0,4.4-.06t4.4-.17v.67a15.15,15.15,0,0,0-1.49.34,6.82,6.82,0,0,0-1.51.62,3.53,3.53,0,0,0-1.15,1,2.5,2.5,0,0,0-.45,1.51,3.51,3.51,0,0,0,.59,1.63,28.7,28.7,0,0,0,1.71,2.52l8,10.76,6.62-10.37a8.35,8.35,0,0,0,1.46-4.32,3.07,3.07,0,0,0-1.34-2.61,5.69,5.69,0,0,0-3-1.09v-.67q2,.11,4,.17t4,.06q1.79,0,3.56-.06t3.56-.17v.67a9.86,9.86,0,0,0-3.59,1.43,16.6,16.6,0,0,0-2.83,2.35,20.82,20.82,0,0,0-2.24,2.77q-1,1.46-1.82,2.63l-7.68,11.21v8.24a13.4,13.4,0,0,0,.34,3.34,4.19,4.19,0,0,0,1.09,2,4.53,4.53,0,0,0,2,1.06,20,20,0,0,0,3.25.5v.67q-2.52-.11-5-.17t-5-.06q-2.08,0-4.15.06t-4.15.17v-.67a19,19,0,0,0,3.11-.5,4.53,4.53,0,0,0,2-1.06,4,4,0,0,0,1.07-2,14.57,14.57,0,0,0,.31-3.34v-8.8l-10.15-13q-.79-1-1.63-2a16.85,16.85,0,0,0-1.88-2,13.52,13.52,0,0,0-2.38-1.68,11.34,11.34,0,0,0-3.14-1.15Z" transform="translate(-26.19 -23.82)"/><path class="cls-1" d="M245.27,234.45a21.59,21.59,0,0,0-1.93-4.65,15.8,15.8,0,0,0-2.86-3.7,12,12,0,0,0-3.81-2.44,12.89,12.89,0,0,0-4.85-.87,11.92,11.92,0,0,0-5.89,1.35,11.36,11.36,0,0,0-4,3.64,15.89,15.89,0,0,0-2.24,5.33,28.24,28.24,0,0,0-.7,6.39,22.67,22.67,0,0,0,.9,6.42,16.15,16.15,0,0,0,2.66,5.35,13,13,0,0,0,4.43,3.67,13.19,13.19,0,0,0,6.14,1.37,15.35,15.35,0,0,0,9-2.63,25.09,25.09,0,0,0,6.7-7.18l1.4,1.12a49.39,49.39,0,0,1-3.81,5,21.36,21.36,0,0,1-4.15,3.7,17.67,17.67,0,0,1-4.88,2.3,20.8,20.8,0,0,1-5.94.79,18,18,0,0,1-7.12-1.43,18.2,18.2,0,0,1-5.89-4,18.94,18.94,0,0,1-4-6.11,21.33,21.33,0,0,1,0-15.64,19,19,0,0,1,4-6.11,18.21,18.21,0,0,1,5.89-4,18,18,0,0,1,7.12-1.43,27.8,27.8,0,0,1,3.87.25q1.79.25,3.45.53l3.2.56a21.3,21.3,0,0,0,3.06.34q0,1.18.08,2.75t.25,3.22q.17,1.65.34,3.25t.34,2.78Z" transform="translate(-26.19 -23.82)"/><path class="cls-1" d="M283.51,230.75q0-2.35-.14-3.9a5.72,5.72,0,0,0-.73-2.5,3.44,3.44,0,0,0-1.77-1.4,12.07,12.07,0,0,0-3.2-.62v-.67q2.35.11,4.57.17t4.57.06q1.85,0,3.7-.06t3.64-.17v.67a11.12,11.12,0,0,0-3.08.62,3.3,3.3,0,0,0-1.68,1.4,6,6,0,0,0-.7,2.5q-.14,1.54-.14,3.9v18.73q0,2.35.14,3.9a5.69,5.69,0,0,0,.73,2.5,3.42,3.42,0,0,0,1.77,1.4,12.2,12.2,0,0,0,3.25.62v.67q-2.13-.11-4.26-.17t-4.26-.06q-2.07,0-4.09.06t-4,.17v-.67a11.27,11.27,0,0,0,3.14-.62,3.44,3.44,0,0,0,1.71-1.4,5.71,5.71,0,0,0,.73-2.5q.14-1.54.14-3.9V239.39h-20.8v10.09q0,2.35.14,3.9a5.7,5.7,0,0,0,.73,2.5,3.42,3.42,0,0,0,1.77,1.4,12.21,12.21,0,0,0,3.25.62v.67q-2.13-.11-4.26-.17t-4.26-.06q-2.07,0-4.09.06t-4,.17v-.67a11.27,11.27,0,0,0,3.14-.62,3.44,3.44,0,0,0,1.71-1.4,5.71,5.71,0,0,0,.73-2.5q.14-1.54.14-3.9V230.75q0-2.35-.14-3.9a5.71,5.71,0,0,0-.73-2.5A3.43,3.43,0,0,0,255,223a12.06,12.06,0,0,0-3.2-.62v-.67q2.35.11,4.57.17t4.57.06q1.85,0,3.7-.06t3.64-.17v.67a11.12,11.12,0,0,0-3.08.62,3.3,3.3,0,0,0-1.68,1.4,6,6,0,0,0-.7,2.5q-.14,1.54-.14,3.9v6.84h20.8Z" transform="translate(-26.19 -23.82)"/><path class="cls-1" d="M337.83,258.34H327.74a98.4,98.4,0,0,1-6.53-7.93,64.32,64.32,0,0,1-5.35-8.61,11.49,11.49,0,0,1-1.43-.11l-1.79-.25q-.93-.14-1.79-.34t-1.43-.36v8.75q0,2.35.14,3.9a5.7,5.7,0,0,0,.73,2.5,3.42,3.42,0,0,0,1.77,1.4,12.21,12.21,0,0,0,3.25.62v.67q-2.13-.11-4.26-.17t-4.26-.06q-2.07,0-4.09.06t-4,.17v-.67a11.27,11.27,0,0,0,3.14-.62,3.44,3.44,0,0,0,1.71-1.4,5.71,5.71,0,0,0,.73-2.5q.14-1.54.14-3.9V230.75q0-2.35-.14-3.9a5.71,5.71,0,0,0-.73-2.5,3.45,3.45,0,0,0-1.71-1.4,11.29,11.29,0,0,0-3.14-.62v-.67q1.79.11,3.59.17t3.59.06q.78,0,2-.08l2.49-.2,2.66-.2q1.35-.08,2.41-.08a20.76,20.76,0,0,1,4.93.62,14.2,14.2,0,0,1,4.54,2,11.13,11.13,0,0,1,3.31,3.42,9.16,9.16,0,0,1,1.29,4.93,8.19,8.19,0,0,1-.7,3.48,8.58,8.58,0,0,1-1.88,2.63,10,10,0,0,1-2.77,1.85,14.76,14.76,0,0,1-3.34,1.07q.78,1.35,1.85,3t2.38,3.42q1.32,1.74,2.8,3.45a26.94,26.94,0,0,0,3.14,3.08,20.06,20.06,0,0,0,3.39,2.3,9.33,9.33,0,0,0,3.53,1.09Zm-28.42-19.51a14.63,14.63,0,0,0,5.21,1,10.27,10.27,0,0,0,6.78-2q2.41-2,2.41-6.56a7.73,7.73,0,0,0-.7-3.34,8,8,0,0,0-1.93-2.58,8.82,8.82,0,0,0-2.83-1.68A9.57,9.57,0,0,0,315,223q-1.4,0-2.75.11a12.71,12.71,0,0,0-2.63.5q-.11,2.69-.17,5.44t-.06,5.94Z" transform="translate(-26.19 -23.82)"/><path class="cls-1" d="M339.57,257.89a11.27,11.27,0,0,0,3.14-.62,3.44,3.44,0,0,0,1.71-1.4,5.71,5.71,0,0,0,.73-2.5q.14-1.54.14-3.9V230.75q0-2.35-.14-3.9a5.71,5.71,0,0,0-.73-2.5,3.43,3.43,0,0,0-1.77-1.4,12.07,12.07,0,0,0-3.2-.62v-.67q2.35.11,4.57.17t4.57.06q1.85,0,3.7-.06t3.64-.17v.67a11.12,11.12,0,0,0-3.08.62,3.3,3.3,0,0,0-1.68,1.4,6,6,0,0,0-.7,2.5q-.14,1.54-.14,3.9v18.73q0,2.35.14,3.9a5.69,5.69,0,0,0,.73,2.5,3.42,3.42,0,0,0,1.77,1.4,12.21,12.21,0,0,0,3.25.62v.67q-2.13-.11-4.26-.17t-4.26-.06q-2.07,0-4.09.06t-4,.17Z" transform="translate(-26.19 -23.82)"/><path class="cls-1" d="M386.27,232.32a21.12,21.12,0,0,0-1.88-3.56,16,16,0,0,0-2.66-3.14,13,13,0,0,0-3.36-2.21,9.64,9.64,0,0,0-4-.84,10.42,10.42,0,0,0-5.24,1.18q-2,1.18-2,4.21a5.27,5.27,0,0,0,.93,3.11,8.94,8.94,0,0,0,2.47,2.33,22.7,22.7,0,0,0,3.5,1.85l4,1.71q2,.87,4,1.88a16.23,16.23,0,0,1,3.5,2.41,11,11,0,0,1,2.47,3.25,9.81,9.81,0,0,1,.92,4.43,10.36,10.36,0,0,1-1,4.74,9.31,9.31,0,0,1-2.72,3.28,11.58,11.58,0,0,1-4,1.91,18.48,18.48,0,0,1-4.85.62,17.27,17.27,0,0,1-2.92-.26q-1.51-.26-2.92-.58l-2.55-.58a8.81,8.81,0,0,0-1.82-.26,3.53,3.53,0,0,0-1.18.2l-1.18.42q-.5-3.18-1.18-6.23t-1.4-6.22l.73-.39a40.92,40.92,0,0,0,2.44,4.07,24.84,24.84,0,0,0,3.22,3.88,17.67,17.67,0,0,0,4,2.93,9.65,9.65,0,0,0,4.68,1.17,13.41,13.41,0,0,0,3.14-.36A8,8,0,0,0,382,256.1a5.66,5.66,0,0,0,1.82-2,6.52,6.52,0,0,0,.67-3.11,6.24,6.24,0,0,0-1.63-4.39,15.58,15.58,0,0,0-4-3.08,47.13,47.13,0,0,0-5.24-2.44,38.92,38.92,0,0,1-5.24-2.52,15.42,15.42,0,0,1-4-3.3,7.15,7.15,0,0,1-1.63-4.81,9.19,9.19,0,0,1,3.11-7,10.1,10.1,0,0,1,3.31-1.93,11.81,11.81,0,0,1,4-.67,22.49,22.49,0,0,1,3.73.28q1.65.28,3.22.62l3.2.64a17.4,17.4,0,0,0,3.36.31q0,2.52.08,4.91t.36,4.79Z" transform="translate(-26.19 -23.82)"/><path class="cls-1" d="M401.86,257.89a11.27,11.27,0,0,0,3.14-.62,3.44,3.44,0,0,0,1.71-1.4,5.71,5.71,0,0,0,.73-2.5q.14-1.54.14-3.9v-26a45.71,45.71,0,0,0-5,.22,8,8,0,0,0-3.45,1.15,7.91,7.91,0,0,0-2.55,2.83,28,28,0,0,0-2.16,5.21l-.73-.22.79-11q2.35.11,4.65.17t4.65.06H417q2.24,0,4.43-.06t4.43-.17l.79,11-.73.22a28.05,28.05,0,0,0-2.16-5.21,7.92,7.92,0,0,0-2.55-2.83,8.1,8.1,0,0,0-3.5-1.15,48,48,0,0,0-5.07-.22v26q0,2.35.14,3.9a5.7,5.7,0,0,0,.73,2.5,3.42,3.42,0,0,0,1.77,1.4,12.21,12.21,0,0,0,3.25.62v.67q-2.13-.11-4.26-.17t-4.26-.06q-2.07,0-4.09.06t-4,.17Z" transform="translate(-26.19 -23.82)"/><path class="cls-1" d="M431,257.89a11.27,11.27,0,0,0,3.14-.62,3.44,3.44,0,0,0,1.71-1.4,5.71,5.71,0,0,0,.73-2.5q.14-1.54.14-3.9V230.75q0-2.35-.14-3.9a5.71,5.71,0,0,0-.73-2.5A3.43,3.43,0,0,0,434,223a12.07,12.07,0,0,0-3.2-.62v-.67q2.35.11,4.57.17t4.57.06q1.85,0,3.7-.06t3.64-.17v.67a11.12,11.12,0,0,0-3.08.62,3.3,3.3,0,0,0-1.68,1.4,6,6,0,0,0-.7,2.5q-.14,1.54-.14,3.9v18.73q0,2.35.14,3.9a5.69,5.69,0,0,0,.73,2.5,3.42,3.42,0,0,0,1.77,1.4,12.21,12.21,0,0,0,3.25.62v.67q-2.13-.11-4.26-.17t-4.26-.06q-2.07,0-4.09.06t-4,.17Z" transform="translate(-26.19 -23.82)"/><path class="cls-1" d="M462.35,242.13l-3.7,10.15c-.11.3-.22.56-.31.79a1.87,1.87,0,0,0-.14.73,2.68,2.68,0,0,0,.59,1.74,4.94,4.94,0,0,0,1.43,1.21,8.84,8.84,0,0,0,1.74.76,13,13,0,0,0,1.51.39v.67q-1.68-.11-3.36-.17t-3.42-.06q-1.68,0-3.28.06t-3.39.17v-.67a8,8,0,0,0,2.89-1.21,7.92,7.92,0,0,0,1.93-1.93,14.26,14.26,0,0,0,1.37-2.47q.59-1.35,1.15-2.8l9.7-23.83.31-.73a1.63,1.63,0,0,0,.14-.62,2.85,2.85,0,0,0-.2-.84,5.13,5.13,0,0,0-.48-1,12.7,12.7,0,0,0,2.52-.73q1.06-.45,2.35-1l11.66,32.07a8.3,8.3,0,0,0,2.19,3.45,7.43,7.43,0,0,0,4.15,1.6v.67q-2.24-.11-4.4-.17t-4.51-.06h-2.63q-1.12,0-2,0t-1.71.08l-1.77.11v-.67a10.24,10.24,0,0,0,4-1.21,2.8,2.8,0,0,0,1.6-2.49,2.23,2.23,0,0,0-.2-.9,6.61,6.61,0,0,1-.31-.84l-3.64-10.32Zm6.05-15.92-5.49,14.24h10.54Z" transform="translate(-26.19 -23.82)"/><path class="cls-1" d="M490.49,221.67q2,.11,3.73.17t4.12.06q1.23,0,2.41-.06t2.41-.17q.73,1,2.41,3.06l3.84,4.68Q511.57,232,514,235t4.77,5.8q2.3,2.83,4.23,5.27t3.06,4h.11q0-1.68,0-3.34t0-3.34v-6.5q0-3.59-.25-6.25a15.28,15.28,0,0,0-1-4.46,6.15,6.15,0,0,0-2.13-2.75,7.21,7.21,0,0,0-3.62-1.12v-.67q2,.11,4,.17t4,.06q1.79,0,3.64-.06t3.64-.17v.67q-3.53.45-4.85,2a7.61,7.61,0,0,0-1.32,4.91V259h-2.07q-3.08-4.82-6.53-9.36T512.83,241q-3.39-4.09-6.56-7.6t-5.69-6.25q-.06,1.46-.08,2.86t0,2.86v9.81q0,5,.2,7.88a12.25,12.25,0,0,0,1,4.43,3.92,3.92,0,0,0,2.24,2.07,18.45,18.45,0,0,0,4.12.81v.67q-2.86-.11-5.55-.17t-5.55-.06q-1.63,0-3.2.06t-3.2.17v-.67q1.9-.28,3.33-.53a6.45,6.45,0,0,0,2.36-.84,3.68,3.68,0,0,0,1.4-1.68,8.47,8.47,0,0,0,.53-3.06l.67-25.73a14.82,14.82,0,0,0-3.92-2.3,35.19,35.19,0,0,0-4.37-1.4Z" transform="translate(-26.19 -23.82)"/></svg>