<svg id="Logo_-_Tall" data-name="Logo - Tall" xmlns="http://www.w3.org/2000/svg" viewBox="0 0 452.52 510.86"><defs><style>.cls-1{fill:#0b6630;}.cls-2{fill:#5b5953;}</style></defs><title>Logo - Tall - Color</title><path id="Tree_Symbol" data-name="Tree Symbol" class="cls-1" d="M478.45,202.18l-0.12-1.35c0.93-.27,1-0.33,1.35-1.47a1,1,0,0,0-1.47-.25c-0.41-.6,0-1.18.12-2.09a3.44,3.44,0,0,0-2.7,0l-0.37-.25-0.12-1.11-0.49-.49c-0.64-.49-0.5-0.6-1.23-0.25l-0.12-1.11a10.46,10.46,0,0,0-3.32-.74c-0.59-1.63-.5-2.3-1.23-3.32l-0.25-.49a6.38,6.38,0,0,0,1-1.6l-0.61-.86a3.77,3.77,0,0,1-2-.12,3.28,3.28,0,0,0-1.11,1.35,8.28,8.28,0,0,0-3.44.12,4.47,4.47,0,0,0-.37,2.21,1.42,1.42,0,0,0-1.35.74c-1.25-.28-1.93-1.1-2.95-1.35,0.1-1.79-1.49-2.37-2.95-2.33a13.46,13.46,0,0,1,.61-2.95,1.3,1.3,0,0,0-1-.37l0.25-.86-0.37-.37c-1.1-.39-2.12.13-3.32,0,0.27-.77.8-0.82,0.61-1.72l0.86,0.61,0.37-1.23a1,1,0,0,0-1.47-.25v-0.86a1.3,1.3,0,0,1-.61-0.49,3.1,3.1,0,0,0-2.58,0l-1-.37a5.56,5.56,0,0,0-.12-3.69l-0.12-.37a5,5,0,0,0-2.46.25l0.49-2c-1.2-.95-2.33-0.07-3.69.12a2.93,2.93,0,0,0-2.58-3.07v-0.74h0.61l0.25-1.23-0.49-.49,0.12-.74,0.74,0.37,0.25-1.11c-0.3-.45-0.23-0.45-1-0.49a1.19,1.19,0,0,0-.49-1.47l0.86-.37,0.25-1-0.12-.37a4,4,0,0,1-1.72-.61l-2.21,1c-1.11.25-2.39-.94-3.32-0.49-0.23-1.16.17-1.86-1.35-1.84,0-.6.18-0.53-0.25-0.86l-0.61-.12a4.87,4.87,0,0,1,0-2.33l-0.25-.37c-3.06-.48-4.77-0.69-7.25.12l-0.49,2.33-0.61.12c-2.24-1.77-2.53-3.35-5.53-1.72,0.77-1.94.27-1.47,0.37-3.32l-1.23-.25c0.57-1.11,1.23-1.87,1.23-3.44,0.79,0,.92-0.09,1.11-0.74l1.11,0.49,0.37-.37a0.68,0.68,0,0,0,.12-0.86l1.11-.61c-0.06-.61,0-0.48-0.37-0.74V147l0.37-.12c1.78,0,.31-4.62.25-5.53l-0.86-.25a6.78,6.78,0,0,0-.49-2.46l1.11-1c0.85,0.44,1.52.12,1.47-1.11l0.61,0.74,0.49-.74-0.25-1.6v-0.12l0.25,0.25,0.61,0.49c0.44-1.22.1-1.7-.25-2.83l1.11-1.11c0.32-.16,0-0.1.49,0.12l0.74-1.47-0.12-.37a2.68,2.68,0,0,1-1.47-.37h-0.25l0.25-.37c0.27-.06.08-0.1,0.25,0.12A1,1,0,0,0,425,128l1,0.61,0.25-1.11a2.1,2.1,0,0,1-.49-0.86c0.09-.59.82-0.69,1.11-1.47l0.49,0.37a2.21,2.21,0,0,0,.61-1.35c-0.54-.56-1-0.36-1.47-1-0.22-.2-0.13-0.25-0.12-0.86a1.68,1.68,0,0,0,.86.61l0.25-1.47-0.74-.25V120.5c0.57-.44.65-0.65,1.23-0.49l0.49-1.23-0.12-.25a4,4,0,0,0-1.6,0c0.38-.82,0-0.88-0.49-1.47,1.28-.23,1.7-2.86.37-3.32v-0.37a1.53,1.53,0,0,0,.86.37l0.61-.37v-0.74l-1-.61a3.26,3.26,0,0,1-1.6.49V111.9a3,3,0,0,0-2-.12v-0.49l-2.46-.61a2.62,2.62,0,0,0-.49-1c-0.06-.41.39-0.7,0.37-1.23l0.74,0.61c0.48-.36,1.06-0.11,1.6-0.74l-0.61-1.84c-0.87-.36-1.37-0.86-2.21-0.49l-0.61-1.23c-1-.47-2.45-0.22-3.32-0.37-0.13-.85-0.34-0.43-0.61-0.86-0.64-1,0-4.66.25-5.65V97.77a1.7,1.7,0,0,0-1.6,0,1.17,1.17,0,0,1-.61-1.23,3.3,3.3,0,0,0-1.6-.25c0.16-1.41.33-2.53-.12-3.44,0.88-.24,1-0.75,1.23-1.6-0.58-.88-1.42-1.54-1.11-2.58a1,1,0,0,0-1.47-.25c-0.51-.45-0.43-0.55-0.12-1.35a3.33,3.33,0,0,0-2.09-1V85.24L407.82,85l0.25-3.56,0.37,0.49a2.38,2.38,0,0,0,1.47-1.23l0.49,0.37a3.14,3.14,0,0,0,.74-1.35l1.47,0.12a1.45,1.45,0,0,0,.86-1.35l0.61,0.61,0.25-.12c0.26-1.27-.22-3.63-2-2.83L412.12,76a4,4,0,0,1-.25-1.84,12.09,12.09,0,0,0-3.56-.49V72.84a5.87,5.87,0,0,0-3.19-1.6v-1c-1.21-.53-2.1-0.23-2.83-1.11l-1,.25v0.74c-0.45.06-1,.09-1.35,0.12a4.08,4.08,0,0,0-.74,2.58c-1.69.32-3.55,1.3-3.69,3.32-1.2.19-2.14-.07-3.07,0.37a2,2,0,0,0-1.11-1,0.79,0.79,0,0,1-.61.25c-0.38.52-.13,0.71,0.25,1.11-1.4-.3-1.47.41-2.83,0.86l-0.25,1.11c-0.92.64-2.69-.12-3.69,0.12-0.83.21-.5,0.85-1,1.35-1,1-2.84,1.41-4.05,2.33h-0.37c0-1.35.5-1.19,0.61-2.46-0.9-.27-1.83-0.2-2-1.35l-0.37-.25a2.29,2.29,0,0,1-2.33-1.23c-1.62.46-5.08,0-5.53-2.33-1.27-.6-4.79-0.44-5.77-0.12l-0.37,1.6c-0.85-.61-2.16-0.31-3.07,0l-0.25,1.23c-2,.26-4.5-0.4-6.26.61-1.31-1.31-2.91-1.75-4.05-3.07-1.21-.13-5.8.27-6,1.47h-0.12l-0.12-.49c-1.66-.76-3.05.21-4.42,0.61l-0.74,2a11.38,11.38,0,0,1-2.95-1.6L334.86,77a1.1,1.1,0,0,1,1.23-.86l0.49-1.23a4.59,4.59,0,0,0-1.35-1.11L336,71.24a6.58,6.58,0,0,0-4.42-.74c-0.61-.69-0.31-2-0.25-3.56a1.85,1.85,0,0,0-1-.25,3,3,0,0,1,.25-1.84l-2.21-2a1,1,0,0,1-.61.25,0.71,0.71,0,0,0-.12.86l-1,.37-1.23-1.47c-0.74.11-1,.16-1.11,1L323.8,64a4.73,4.73,0,0,1-.12-2,2.63,2.63,0,0,0-1.35-.25,12.16,12.16,0,0,0-.49-2.33,2.62,2.62,0,0,0-1.35-.25,16.28,16.28,0,0,0-.74-3.93V55.15l0.74,0.61A2.43,2.43,0,0,0,321,54l0.74,0.49,0.61-.37a1.29,1.29,0,0,0,.25-1.23l0.86,0.61,0.25-.12a9.42,9.42,0,0,0-1-4.54c-0.15-.43.8-1.73,1-2.33s-0.61-.91-0.61-1.47,0.53-1-.12-1.47l-0.37-.49c0.82-.5.6-0.67,1.6-0.61l0.25-1.23a0.88,0.88,0,0,0-.86-0.37,1.33,1.33,0,0,0-.37-1.23,3.17,3.17,0,0,0-2.95.61h-0.12l0.25-2.09c-1.5-.74-4.81.13-5.28-0.37a1.47,1.47,0,0,1,.37-1.84,2,2,0,0,0-.61-1l0.86-.61c-0.07-.79-0.06-1.16-0.86-1.35,0.38-1.71,1.32-2.52,1.84-4.18,0.35-1.12-.39-1.33-0.61-1.72l0.25-1.23L315,24c-1.73-1.95-6.64-1-8.72-1.11-0.13,1.5-1.32,2.05-1.35,4.18a4.17,4.17,0,0,1-3.07.49c-0.58.68-1.85,1.36-1.72,2.33-1.09-.07-8.17-0.74-9.09-0.25l-2,2.21c-0.73.23-.4-0.39-0.86-0.61-1.07-.53-3.9.83-4.42,1.47-0.25.9-.39,1.42,0.49,1.35v1.72c0.47,0.17.25,0,.49,0.37a1.16,1.16,0,0,0,1.11-.25H286v3.32a2,2,0,0,0,1-.25l0.12,3.19c1,0.25,1.08,1,2,1.47-0.56,1.31-.53,3.58-0.49,5.4h-0.37a0.75,0.75,0,0,0,0,1,11.56,11.56,0,0,1-4.05.74l-0.25.49,0.49,0.49c-0.54.47-.46,0.4-0.25,1.11a18.69,18.69,0,0,0-3.32,1l-0.25,2.09c-0.48.51-1.77,0.51-2.58,0.74l-0.37,2.83a6.68,6.68,0,0,0-2.46-.37c-0.32-1-.14-2-1.6-2,0.07-.63.1-0.69-0.61-0.86l0.61-2.09a2.6,2.6,0,0,0-2.09-1.35,3.66,3.66,0,0,0,.25-1.72L268,50.61c-1.34.79-1,1.23-1.6,2.83a2.5,2.5,0,0,1-1.11.49c-0.29.54,0,1.41-.25,2-0.13.34-.84,1.1-1,1.47-0.42,1.09.29,2.22,0.25,2.95l-0.61,2.09A1.72,1.72,0,0,0,262,63.63c-0.65-.08-0.43.82-0.37,1.6A6.84,6.84,0,0,0,259.07,68a27.33,27.33,0,0,1-2.7.86c-0.5,2.31.44,3.72,0.61,5.53a1.44,1.44,0,0,1,1,.25l0.25,0.12A19.92,19.92,0,0,1,255,76a7.47,7.47,0,0,0-7.25-1.47l-0.61,1.35a6.87,6.87,0,0,1-1.35.49c-0.81,2.65.27,5.66,0.25,8.6l0.12,0.12a1.24,1.24,0,0,0,.74-0.49L247,86.72c-1.27-.4-2.65,1-4.05,1.23a1,1,0,0,0,0,1.11,0.88,0.88,0,0,1-.74.49L242,90l0.86,1.23a1.24,1.24,0,0,0-1.35,1.23c-0.93-.26-1-0.78-1.6-1.6l-1,.12a1.5,1.5,0,0,1-.61-1.47A2.62,2.62,0,0,0,237,89.3c0.14-1,.64-1.3,1-2.21-0.58-.61-0.55-1.94-1.23-2.46a1.54,1.54,0,0,1,.37-0.61,1.34,1.34,0,0,0-1-1.23c-0.65.38-2,.75-1.84,1.6-1.06.16-1.63-.17-2.58,0.25-0.42-.82-2.62-1.9-3.56-2.09-0.72-.18-1.22.41-2,0.61l-1.47-1.72a1.9,1.9,0,0,0-1.23.37c0.1,1.06.3,1.72,1.23,2l-0.37,1c-0.94-.14-1.3.3-2.09,0.61l-0.25,1c-0.1,1.08-.16,1.66.74,1.84v0.49a1.52,1.52,0,0,0-.86.61l-0.25,2.46L222.34,92l-0.12,1.47c-1,.47-1.28-0.31-2.33.12l-1.47,1a3.2,3.2,0,0,0-2.95.37c-0.15-1-1.14-1.42-1.84-1.84-1.28.68-2.89-.1-3.81,1.23l-0.12.61a19,19,0,0,0-4.54.74l-2.95-.61,0.49-2.46c0.63-.36.45-0.21,1.23,0l0.61-.74c0.52-.18.22-0.14,0.74,0.12l0.49-1.23a1.17,1.17,0,0,0-1-.37,9.87,9.87,0,0,0,.49-2,3.34,3.34,0,0,0-2.95.25c0-.72,0-0.73-0.49-1l1.23-3.93-0.25-.37c-0.9-.14-1.27.2-2.09-0.25L200,82.3c-0.68-.3-1.94.25-2.09,0.12-0.49-.41-0.16-0.63-1.11-0.74V80.58l-0.86-.25c0-.84,0-1.13-0.74-1.35l0.49-1c1.08,0.12,1-1.85.49-2.58a12.71,12.71,0,0,0,.61-1.72,0.94,0.94,0,0,1,.86,0l0.12-1.47a9.53,9.53,0,0,0,1.72-2.95l-0.25-.37h-0.86l-0.12-.61a1.06,1.06,0,0,1,1.11-.49c0.92-1.12-.1-3.37.49-4.91,0.37-.64.68-0.59,1.6-0.61a1.15,1.15,0,0,0,.37-1.23l0.86,0.61,0.37-1.23a0.81,0.81,0,0,0-.61-0.37l0.61-1.84-0.12-.37a14.92,14.92,0,0,1-2.58-.49l0.37-1.6a2.13,2.13,0,0,0-1.47-.74l0.49-1.72-0.12-.37c-4.95-1.22-5.31,4.43-9.95,3.56a12.07,12.07,0,0,1-1.72,2c-0.74.56-3.32-.25-4.67,0.12-0.09.37,0,1.55-.12,1.84-0.3.8-1.57,1.28-1.84,3.07-2.25-.15-3.56-1.25-5.9-0.61a4.87,4.87,0,0,0-2.33,2.33,5.49,5.49,0,0,0,1,3.19c-2.26-.57-5.82,1.42-6.88,3.07-0.47.49-4.15,0.28-4.18,0.25-0.81.45-1.43,1.79-2,2.7V75.3h0.74l-0.12.61,0.25,0.37,0.74-.37a0.7,0.7,0,0,0,.74.49c0.05,1.37.13,2.13,0.12,3.69l-0.74.25a4.67,4.67,0,0,0-.12,2.83,11.37,11.37,0,0,0-2.83.12,2.33,2.33,0,0,0,.25,1.6,4.31,4.31,0,0,0-2.83,3.93,14.77,14.77,0,0,1-2.33.49L154,92v1.72a1.27,1.27,0,0,0,1-.12l-0.12,1.23L155,94.95a1.24,1.24,0,0,0,.74-0.49L156,95.07h0.37l0.74-.61L157,97.16l1-.12v1.47l0.37,0.12L159,98c0.65,2.78,3.48,2,3.44,5a1.55,1.55,0,0,1,1,.74c0.57,0.34.55,1.66,0.49,2.58a1.45,1.45,0,0,0,1.11-.12c0,4.46-2.49,5.09-3.44,8.23a31.19,31.19,0,0,0-6.63.74c-0.37.53-.1,0.66,0.25,1.11-1.73.48-2-.14-3.93-0.25-0.17-1-.34-0.35-0.74-0.86-0.55-.71-0.5-3-0.49-4.54a3,3,0,0,0-2-.12,3,3,0,0,0-1.23-2c-0.65-.37-2.36,0-2.83.12-1.69,2.13-3.77,2.86-3.68,7.37-1,.34-1.38.8-1.35,2.21a2.13,2.13,0,0,0-1.35.25,6.7,6.7,0,0,0-.12,2.33l-1.23.74a4.15,4.15,0,0,0,.61,2.95,1.27,1.27,0,0,0,1.11,0v1.23a13.48,13.48,0,0,1,2.21.37v1.11c0.76,0.11.93,0.16,1.23-.49h0.25c0.63,1.73,0,2.78,0,5a1.27,1.27,0,0,0,1-.12c-0.07,1.15-.29,1.49-0.86,1.84l0.61,1.11a2,2,0,0,0-1.23,2,7,7,0,0,0-3.32.12,2.9,2.9,0,0,0-.12,1.72h0.74a7.94,7.94,0,0,0-1,2.83c-0.09,1-.14,1.58.61,1.84-0.88,2.55.61,4.83,0.61,7.37l0.12,0.12a1.24,1.24,0,0,0,.74-0.49,3.08,3.08,0,0,0,.49.61,5.17,5.17,0,0,1-1.23,1.72,1.53,1.53,0,0,0-1.6.25L137,153.79c-0.56.89-4.27,0.37-6,.25l0.25-.74-0.37-.37c-1-.4-4.69.15-6.39,0.49,0.54-.91,1.62-4.54-0.61-3.32-0.18-1.11-.89-1-0.74-2-0.68-.82-2.21-0.42-3.07-0.12a4,4,0,0,0,0,2.21,5.33,5.33,0,0,1-2.21.86c-0.85,1.35-1.88,2.12-1.84,4.3-1,.63-3,0.94-3.69,2.46-0.55,1.14,1,1.51.86,2.58a42.21,42.21,0,0,0-.25,6.39,7.82,7.82,0,0,1-1.72,1.47l-0.25.49c1.12,1.45,1,1.58,1,3.69l0.12,0.12a1.24,1.24,0,0,0,.74-0.49L113,172.7c0.65,0,.6,0,0.86-0.37,0.29,0.14.21-.1,0.37,0.49l1-.37,0.37,0.25c-0.82.75-1.17,1-1.11,2.7-0.73.27-.8,0.65-1.6,1-1.49-1.12-1.65-.64-2.95-1.23l-1,.49a3.37,3.37,0,0,0-.37,1.84l0.37,0.12,0.49-.37,0.61,0.86c-0.28,2.36-1.36,4.06-1.35,6.63-1.75.08-3.35,1-4.79,1.11-0.66,0-1.66-.6-2.46-0.37a6.15,6.15,0,0,1-3.32.49l-0.49-.25-0.86.86a2.6,2.6,0,0,0,.25,2.46l-0.86.61-0.12,1.47,0.37,0.12,0.61-.61,0.12,0.61c1,0.21,2.25-.67,2.33,1.23a0.87,0.87,0,0,0,.61-0.12,11.3,11.3,0,0,0-.49,2c0.52,0.23.58,0.24,0.86-.37a4.32,4.32,0,0,1,1,2.58c0.43,0.06.31,0.16,0.61-.12h0.12c-0.16,1.11-.67.66-1,1.35l-0.12,2.46L100,201.94H99.88a1.63,1.63,0,0,1,0-1.35l-0.12-.25a7.2,7.2,0,0,0-2.21-.25l-0.86.74a21.83,21.83,0,0,0-.25,5.4,3.86,3.86,0,0,0,2.58.12v2.09c0.35,0.47.51-.08,0.61,0.86a1.45,1.45,0,0,0,1.11-.12c0.27,1,.94,3,1.84,3.44l-0.37.74,0.74,1c-0.81.43-1.51,0-2.21,0.86a7.47,7.47,0,0,0,1.35,5l0.49-.61,0.74,0.61,0.86-.74-0.12,2.83c0.72,0.08.82,0.14,1.11-.49l0.25-.12c0.57,1,.92.92,0.86,2.46,0.5,0.21.53,0.07,0.74,0.61-0.86-.15-1.28.36-2.09,0.61l-0.49,1.84c0.12,0.45,0,.25.25,0.49l0.25,0.37-0.86.25a1.42,1.42,0,0,1-.49-1,10.78,10.78,0,0,0-2.21-.37c-1.41,1.9-.72,2.08-1.6,3.93l-1.72,1,0.25-.74c-1-1.6-3.4.17-4.42,0.61l-0.49-.37c-0.51-.47-1,0-1.72.37-0.31-.21-0.6-0.86-0.86-1-1.06-.51-1.12.36-1.84-0.49l-2.58,1.11a2.56,2.56,0,0,0,.37,1.6,2.33,2.33,0,0,0-1.11,1.84,10.59,10.59,0,0,0-2,.25l-0.25.37a2.69,2.69,0,0,0,.37,2.21l-1,.25-0.25.37,1.11,1.35L84.15,246a5.36,5.36,0,0,0-2,1.47l0.49,0.74a7.24,7.24,0,0,1-2.46.86L80,250.83l0.12,0.12a1.24,1.24,0,0,0,.74-0.49l0.25,0.61a1.62,1.62,0,0,0,.86-0.37l1,2a11.43,11.43,0,0,0,2.83.86,17,17,0,0,0-1,3.19c0.5,0.72,1,2,2.09,2.21a5.18,5.18,0,0,1-.61,2.21,3.35,3.35,0,0,0,.37,2c-0.79-.11-2.89,1.08-1.72,2.46L82.68,267l-0.12,1.35,0.61,0.25,0.37-.49c0.08,0.87.63,1,.74,1.47s-0.23,1.83-.12,2.58c-0.21.06-1.64,0.19-2,.25a1.26,1.26,0,0,0-.25,1l1.47,2L84,274.9l0.25,0.61,1.47-.61a2,2,0,0,0,.74.86v0.37a3.42,3.42,0,0,1-1.72.74l-0.25,1.72,0.12,0.12a1.24,1.24,0,0,0,.74-0.49l0.86,1.23a2,2,0,0,0-1.11,2.21l0.12,0.12a1.24,1.24,0,0,0,.74-0.49l0.25,0.61,1.23-.37,0.25,0.61c0.09,0.26-.35,1-0.37,2.09l0.12,0.12a0.6,0.6,0,0,0,.61-0.49l0.37,0.61c1.67,0.07,2.19-.49,2.09-2.21A2,2,0,0,0,92,280.92c0.58-.13.21-0.13,0.74,0.25l0.49-.74a5,5,0,0,1,1-.25L94.47,281l0.74-.37,0.12-.25,0.25,0.74,0.61-.12a1.29,1.29,0,0,0,.25-1.23l0.25,0.25,0.61,0.49a2.18,2.18,0,0,0,.12-1.72c0.61-.06.48,0,0.74-0.37a1.94,1.94,0,0,0,1.47,1.11,1,1,0,0,0,.74-0.74l0.37,0.74a0.94,0.94,0,0,0,1-.86c1.62,1.6,2.39,2.66,4.18,3.32l0.12,0.25-0.37.74a8.76,8.76,0,0,0-2.33-.37,0.64,0.64,0,0,1-.61.37l-0.37.86a4.16,4.16,0,0,0,1,2.46,4.24,4.24,0,0,0-.61,2.09c0.61,0.13.56,0,1-.37l0.25,0.61a0.93,0.93,0,0,0,1-1,2.18,2.18,0,0,1,1.6,1.23A1.85,1.85,0,0,0,105.4,291l0.12,0.12,0.74-.37a1.14,1.14,0,0,0,.61.49,5.79,5.79,0,0,1,2.09-1.11l0.12-.12,0.25,0.12-0.25,1.6,0.12,0.12a1.24,1.24,0,0,0,.74-0.49,1,1,0,0,0,.61.61,19,19,0,0,1,2.58-1.23L113,292.22l0.25,0.12a1.64,1.64,0,0,0,.61-0.37l0.12-.25,0.25,0.74,1.23-.49v0.61c0.72,0.08.82,0.14,1.11-.49,0.48,0.22.34,0.06,0.49,0.61l-1,.37a3.13,3.13,0,0,0-.37,1.72l0.25,0.12a1.64,1.64,0,0,0,.61-0.37l0.12-.25,0.49,1.84a1.16,1.16,0,0,0,1.11-.25,2.42,2.42,0,0,0,2,2.21l-0.12.74a0.91,0.91,0,0,0,.74-0.12l0.61,0.37L121,302.42l0.25,0.12a1.64,1.64,0,0,0,.61-0.37l0.12-.25a4.8,4.8,0,0,1,.37,2c0.81,0.09,1,0,1.23-.74h0.12c0.4,1.1,1.09,1.24,1.11,2.7,0.76,0.09.94,0.05,1.23-.61l0.49,1a1.77,1.77,0,0,0,1.35-.61H128c0.25,1.69-.31,3.43-0.61,5-0.44,2.36.38,3.4,0.37,5.16,0.53,0.16.22,0.31,0.61-.12,0.78,0.92.54,2.17,0.49,3.44l0.12,0.12,0.86-.49,0.12,0.61h0.37a0.94,0.94,0,0,0,.61-1.23l0.61,0.61c0.5,0.33.47,0.14,0.86-.25l0.25,0.61a3.9,3.9,0,0,0,2.09-.49l0.49,0.49,0.61-.49,0.25,0.61a1.28,1.28,0,0,0,1.11-1.23l0.61,0.49,0.61-1.11,0.25-.25a10.5,10.5,0,0,1,.12,1.72l0.37,0.12,0.49-.61a0.86,0.86,0,0,0,.61.61,0.92,0.92,0,0,0,.49-1.23l0.86,0.61c0.41-.86.07-1.45,0.86-1.84l-0.12,1.11c0.61,0.13.56,0,1-.37,0.15,0.55,0,.4.49,0.61a1.24,1.24,0,0,0,.74-1.11l0.61,0.49,0.49-1.11,0.74-.37,0.12,1.11a1.33,1.33,0,0,0,1.11-.61,1.23,1.23,0,0,1,.37.86c1-.18,1.13-0.72,1.72-1.23L149.62,317l0.12,0.12a1.28,1.28,0,0,0,.86-0.49c0.46,0.77.59,0.61,1.23,0.12v1.72l0.37,0.12,0.49-.49,0.25,0.61,0.61-.12,0.37-1,0.25-.12c0.51,1-.17,1.56-0.25,2.83l1.72,0.12v1L156,321.7l0.49-.49c0.82,0.83,1.57.17,2.46,0.74l1.11-.74c0.15,1.49-.69,2.08-0.74,3.68l0.12,0.12a1.28,1.28,0,0,0,.86-0.49l0.25,0.74a1.23,1.23,0,0,0,.86-0.37l0.61,0.74c-0.16,1.22-.84,1-0.86,2.7l0.12,0.12,0.86-.49,0.12,0.61h0.37l1-.61,0.12-.25,0.25,0.74,0.61-.12a1.29,1.29,0,0,0,.25-1.23l0.25,0.25c0.81,0.51.31,0.27,1.23,0-0.12,3.81.27,1.26,1.35,3.56,0.48,0.09.47,0.21,0.74-.25,0.56,0.47,1.45,1,1.6,1.84,0.91,0.44,1.83.37,2.83,1a1.12,1.12,0,0,0,.86-0.37,1.14,1.14,0,0,0,.61.49,0.92,0.92,0,0,0,.49-1.23l0.86,0.61c1.56-1,2.81-.7,4.3-1.6l-0.12,1.23,0.25,0.12a1.64,1.64,0,0,0,.61-0.37l0.12-.25,0.25,0.74,0.61-.12a1.11,1.11,0,0,0,.25-1.11l0.86,0.61c0.38-.82,1-1,1.23-1.84l0.37,0.86a1.17,1.17,0,0,0,1.11-1.11l0.61,0.49a10.26,10.26,0,0,0,.12-1.84c0.5-.66.93-0.38,1.11-1.47a0.82,0.82,0,0,1,.74.12c0.46-.71,1.22-1.24,1.11-2.09l0.74,0.61c0.6-.7,0-1.2.37-2.09,0.24-.67.91-0.62,1.11-1.47l0.61,0.37,0.25-.12a2.62,2.62,0,0,0-.12-1.84l0.86,0.61,0.25-1.47c0.57,0,.76.25,1.11-0.37l0.37,0.61a3,3,0,0,0,2-.37,10.9,10.9,0,0,1,.74,1.84l0.61-.49a1.14,1.14,0,0,0,.61.49,1.13,1.13,0,0,0,.61-1c0.6,0.13,2.31.15,2.46,0.61,2.21-.09,4.19-2.33,5.65-2.21a5.24,5.24,0,0,0,.25-2.7l0.25-.12,0.25,0.49c0.45-.23.41-0.29,0.49-0.86h0.12l0.74,0.86,0.61-.37v1.23l0.25,0.12a1.64,1.64,0,0,0,.61-0.37l0.12-.25,0.25,0.74a2.65,2.65,0,0,0,1.35-1,8.22,8.22,0,0,0,1,2.21l0.61-.61,0.12,0.61,0.25,0.12a1,1,0,0,0,.74-1.35,2.54,2.54,0,0,1,1.47,2.21l0.12,0.12a0.6,0.6,0,0,0,.61-0.49l1.11,1,0.74-.12a3.6,3.6,0,0,1,.61-1c0.14-.15,1-0.36,1.47-0.74l0.12,0.61c1.05,0.08,2.64-1.5,3.68-2.09,1.52-.46,4.12,1.06,5.28,1.6,2.9,1.34,4.31,3.62,6.63,5.4,1.71,1.32,3.91,2.38,5.65,3.56,5,3.35,11.06,4.9,15.85,8.35a83.33,83.33,0,0,1,12.53,11.79l2.83,3.81c5.1,5.3,11,11.26,5.77,21-2.43,4.52-7.94,7-12.77,9.09-3.48,1.5-9.49-.08-12.9,1.47-1.78.81-2.87,2.85-4.54,3.56-1,.41-2.32-0.07-3.44.37-2.84,1.1-6,2.38-9,3.32l-5.77,1-4.91,2.21c-2,.6-4.07.41-5.77,1.35-4.62,2.54-10.15,4.36-15.35,6.26-2.16.79-3.55,2.51-5.9,3.07a1.59,1.59,0,0,0-.37,1.11l0.25,0.37c2.45,0,3.82-1.08,5.9-1.6,1.79-.44,6.1-0.06,7.25-0.61,1.39-.67,2.49-2.12,3.81-2.7a38.49,38.49,0,0,1,4.3-1.35c6.09-1.87,11.15-3.28,17-5.16l10.69-1.47c3.15-1.18,6-3.07,9.09-4.42l4.91-.86,5.16-1.72v0.12c-2,.84-3.79,2.6-5.53,3.81-2.1,1.46-4.58,1.91-6.51,3.44-1.65,1.31-2.4,3.46-4.3,4.54-3.48,2-8.92,1.16-13,2.58-1.37.47-2.08,2.07-3.07,2.95l-4.3,2.58a33.72,33.72,0,0,0-5.9,6.26l0.74,0.61c3-.26,4.32-3,6.51-4.05,1.43-.66,2.42-0.7,3.81-1.35l2.09-1.47c3.16-1.14,6.84-1.87,9.95-2.95,2.29-.8,4.58.26,6.51-0.86,2.47-1.44,3.08-3.75,4.91-5.77a7.62,7.62,0,0,1,1.84-1c1.38-.82,2.82-2.09,4.3-2.95,1.28-.74,4.94-1,7.12-2.09,3-1.46,6.49-3.55,10.69-3.69,0,5.49-1.44,8.36-4.91,11.18-2.46,2-6.79,4.86-4.3,9.46,0.62,1,2.37,1.44,4.18,1.35l0.12-.74c-0.71-.76-1.23-1.73-2.46-2,0.85-3,3.25-2.78,5.28-4.79s3.29-4.54,5.16-6.76c1.27-1.51,2.92-2.91,4.18-4.42,0.94-1.13,1.42-2.25,2.83-2.95l1.84,1.72c2.77,1.27,6.79-.25,9.21,1.35,1.66,1.09,2.77,3.14,4.42,4.05,5.28,2.91,10.5,5.92,16.58,8.11l6.88,0.12c2.08,0.71,5-1.17,6.51-.49,0.82,0.37,1.62,1.75,3.32,1.35,1.07-.25,1.59-0.92,2.95-1l0.37-.37v-0.61l-0.25-.12c-0.95-.83-2.54.44-3.44,0.12-1.3-.45-1.95-1.82-3.44-2.21h-2.83l-10.56-1.47c-1-.33-2-1.55-2.83-2.09s-1.72-.26-2.83-0.61l-2.33-2.21-3.19-.61A16.52,16.52,0,0,0,310,387v-0.12c1.33,0.3,3.54.63,4.79,1,1.1,0.31,2.49-.61,4.18,0,2.06,0.74,5,.65,8.35,1.35l3.81,1.23,4.79,0.25,1.84,1c1.62,0.61,3,.18,4.54.86l1.11,1h3.44c1.66,0.46,3.68.26,5.16,0.74,3.54,1.13,6.64,3.31,11.18,3.07l-0.12-1-10.69-5.65c-3.13-1-7,0-9.83-1.35-1.16-.55-2.77-1.65-3.93-2.21-1.48-.72-3.18-0.39-4.67-1l-3.32-1.84c-1.16-.47-2.38.11-3.56-0.12-3-.6-6.87-1.88-9.95-2.7l-4.79-.61c-2-.53-9-6.46-10.32-8.11-2.16-2.74-2.49-10.4-1.35-14.25l1.6-4.05c0.87-3,.9-5.79,1.84-8.23,5.14-13.32,11.23-26.56,19-37.34,1.57-2.17,2.27-4.69,3.69-7l1.35-1.6c0.3-.6,1.42-2.34.86-3.07,1.44-1.45,9.73-8.2,9.83-9.58l0.25-.12a1.14,1.14,0,0,0,.61.49h0.12a1.2,1.2,0,0,0,.37-1.35l0.86,0.74,0.37-.37L342,287.8l0.49-.61,0.74,0.61a0.92,0.92,0,0,0,.49-1.23c1.29,0.56,1.24,1.5,1.47,2.83a9,9,0,0,0,3.56-.37,0.67,0.67,0,0,0,.49.37c0.61,1.15.22,1.78,0.12,3.07l0.25,0.12a1.64,1.64,0,0,0,.61-0.37l0.12-.25,0.25,0.74,0.61-.12a1.11,1.11,0,0,0,.25-1.11,9.52,9.52,0,0,1,1.11.61,6.94,6.94,0,0,1,.37,2l0.37,0.12,0.37-.74,0.37,0.74,0.61-.12a1.1,1.1,0,0,0,.25-1.11,2.29,2.29,0,0,1,1.47,1.11l0.61-.49,0.49,0.61a1.53,1.53,0,0,0,.86-1.35l0.61,0.61,0.25-.37c0.77,0.18.91,0.68,1.35,1.35l0.49-.61a2.29,2.29,0,0,1,.86,1.47l0.25,0.12,0.49-.49,0.25,0.25a3.52,3.52,0,0,0-.74,2l0.12,0.25,0.37,0.12,0.37-.74c0.46,0.62.67,1.28,1.35,1.35l-0.12,1.23,1.11,0.49c-0.06.63-.26,0.41-0.61,0.74a19.25,19.25,0,0,0,1.11,2.09,1.57,1.57,0,0,0,.74-0.49l0.25,0.61,0.61-.12a1.15,1.15,0,0,0,.25-1.23l1,0.61a6.21,6.21,0,0,1,3.32-1.6c0.4,1.51,2.5,1.52,3.56.86v0.86c0.56-.11.36,0,0.61-0.37h0.12l0.12,1.23,0.12,0.12a1.29,1.29,0,0,0,.74-0.37l0.37,0.49H378a1.4,1.4,0,0,0,.61-1l0.25-.12,0.49,0.49c0.17-.47.11-1.26,0.25-1.6,0.36-.87,1.43-0.45,1.23-1.72,0.26,0.08,0-.07.25,0.12l0.61,0.49,0.37-1.23a2.1,2.1,0,0,0-1.35-.74v-0.12c1.1-1.31,2-.68,2.7-2.21L383,294.31c1.18-.61,3-0.27,3.32-2l0.74,0.37c0.65-1.41,1.22-2.54,2.58-2.46l0.37-1.47-1.72-.74a30.23,30.23,0,0,0-.12-3.56l0.49,0.25a5.64,5.64,0,0,0,.25-2.95l-1.35-.12a5.86,5.86,0,0,1-.86-3.07l0.49,0.25,0.25-.37c-0.07-1.31-.91-2.36-1.23-3.56H385.1V272a1.45,1.45,0,0,1,.86-0.25l0.25-.37c0.09-1,.15-1.5-0.61-1.72a1,1,0,0,1,.37-1.11c0.22-.35.09-0.09,0.49,0l0.25-.25a1.41,1.41,0,0,0-.49-1.47,0.61,0.61,0,0,0,.49-0.61l0.49,0.37,0.25-.12,0.25-1.11-1.47-1.72c0.87-.32.86-0.83,1.47-0.74l0.37-1.23a0.92,0.92,0,0,0-.61-0.49l0.37-1.6a2.72,2.72,0,0,0,1.35-.74l0.25,0.49c0.9-.25.74-0.64,1.47-0.49a1.85,1.85,0,0,0,.25-1c0.57,0.19.39,0.27,0.74-.25l0.25,0.49c0.9-.25.74-0.64,1.47-0.49l0.25-1.11,0.61-.12c0.22,0,.06,0,0.25.25a5.25,5.25,0,0,0,2.33-1l0.25,0.49c1.22-.26,1.18-0.86,2.21-1.23,0.39-.26.07-0.05,0.61,0.12a20.37,20.37,0,0,0,1.84-1.6c0.39-.28,1.48-0.26,1.84-0.49,0.64-.4,1-1.77,1.72-2.46L406,250.7l0.86-2.09c0.22-.35.09-0.09,0.49,0a2.73,2.73,0,0,0,0-2c1,0.35,1.08-.38,1.84-0.25l0.25-.86a8.26,8.26,0,0,0,2.21-.37v1.11c2-.1,8.15-3.36,9-3.19l0.25-1.11c0.44,0.12,4.29-2.33,5.9-2.7v0.49c0.56-.11.36,0,0.61-0.37,0.38,0.44.16,0.36,0.74,0.37v1.11c0.56-.11.36,0,0.61-0.37l0.25,0.49a1.11,1.11,0,0,0,1-.74,2.23,2.23,0,0,1,.25,1.47c0.56-.11.36,0,0.61-0.37l0.12,0.61,0.74-.25-0.12,2.95a2.3,2.3,0,0,0,1.84-.25l0.12,0.74c0.56-.11.36,0,0.61-0.37l0.25,0.49a0.64,0.64,0,0,0,.61-0.37l0.12,1.11c0.56-.11.36,0,0.61-0.37l0.25,0.49,0.74-.37,0.12,0.49c0.56-.11.36,0,0.61-0.37l0.25,0.49,1.72-.74v0.74c0.56-.11.36,0,0.61-0.37l0.25,0.49c0.9-.25.74-0.64,1.47-0.49l0.25-1.23,0.25,0.49a1.11,1.11,0,0,0,1-.74c0.52,0.3.46-.05,0.61,0.61,0.56-.11.36,0,0.61-0.37l0.25,0.49a7.86,7.86,0,0,0,1.72-.74v1l1.23,0.25,0.74-.74a1.28,1.28,0,0,0,1.35.25l0.12,0.86a3.31,3.31,0,0,0,2.83-.49l0.61,0.49a1.35,1.35,0,0,0,.74-1.11l0.86,0.37c0.26-2.19.21-3.78,0.37-6l-0.74-.61c-0.36-.56-0.27-3,0.12-4.18-0.3-.45-0.23-0.45-1-0.49,0.34-.79.87-1,0.49-1.84l0.74,0.49a0.94,0.94,0,0,0,.74-0.25c0.46-.31.35-0.4,0.25-1l0.74,0.25a2.06,2.06,0,0,1,1.11-1.23l0.25,0.61,0.61-.12a1.15,1.15,0,0,0,.25-1.23l0.37,0.37,0.49,0.37,0.37-1.47-0.74-.25a1.26,1.26,0,0,0,.37-1l-2.58-2.21a4.9,4.9,0,0,0,.25-1.84,3.45,3.45,0,0,0,1.11.25l0.37-1.11c0.3,0.1.27,0,.49,0.49,1.85-.5,3.15-1.66,4.42-2.21a1.14,1.14,0,0,0-.12-1.35l0.25-.25,1.11,0.61c1.39-.1,2.43-3,2.21-3.93l0.12-.37,0.86,0.25,0.25-1.84a2,2,0,0,1,1.23-.25A1.59,1.59,0,0,0,470,213l0.74,0.61c0.47-1.32-.47-2.11.37-3.19,0.25-.15.32,0.14,0.86,0.37,0.48-.48,1.28-0.7,1.35-1.72l0.74,0.37c0.77-.85,1.74-2.45,2.83-2.21,0.25-.63.49-1.22,0-1.6a1.88,1.88,0,0,1,1.84-1.35,5.46,5.46,0,0,0,.74-1.6A1,1,0,0,0,478.45,202.18Zm-233,116.32c-1,.65-7-4.58-8-5.53,0.49-.47,2.43-1.87,3.44-1.72,1.13-2.23,2.58-1.88,3.44-3.19C245.07,308.95,246.2,317.87,245.43,318.51Zm37.34,30.34c-7-6.08-12.54-13.94-20.14-19.41-2.71-1.95-5.46-4-8.23-5.77-0.82-.51-2.23-0.75-2.7-1.6-1.24-2.23-2.21-11.74-2.21-15.23a3.43,3.43,0,0,0,2.21-1.47l0.12,0.49a1.2,1.2,0,0,0,1.11-.49l0.25,0.49,1.6-.74h0.12v0.49c0.56-.11.36,0,0.61-0.37l0.25,0.49,0.86-.37c2,5.06,4,10.17,7.49,13.76,1.79,1.85,4.18,3.09,6.14,4.79C274.55,327.65,283.53,340.78,282.78,348.85Zm-1.47-25.8-0.74-.12c-2-.72-3-3-4.54-4.3-2.15-1.74-4.28-3.62-6.39-5.28l-3.07-2.21-4.3-9.09v-0.49c2.22,0.3,5.29-3.36,7.74-2.83a1.85,1.85,0,0,0,.25-1l0.37-.12v0.74c0.56-.11.36,0,0.61-0.37h0.12l-0.12,1.6c0.56-.11.36,0,0.61-0.37a1.62,1.62,0,0,1,.61,1.35c0.56-.11.36,0,0.61-0.37l0.25,0.49a4.81,4.81,0,0,0,2.46-1.35l0.25,0.49c0.9-.25.74-0.64,1.47-0.49,0.32-.73.23-1.41,0.86-1.84,0.22-.35.09-0.09,0.49,0,0.54-1.23.39-3.43,2-3.07l0.37-1c0.22-.35.09-0.09,0.49,0l0.49-1.35,0.74,6.51C284.44,305.4,284.72,318.07,281.3,323.05Zm14.86-9.83c-0.56,1-1.53,1.67-2,2.83l-0.86.74c-2.39-5.27-2.83-13-4.3-19.16-0.86-3.59,0-8-.86-11.06,0.15-.5-0.05-0.26.37-0.37a4.71,4.71,0,0,0,.12-2.33l0.49,0.25c0.73-1.46.4-2.6,1.11-4.05,0.22-.35.09-0.09,0.49,0,0.36-.84.22-1.74,1.11-2.09a0.88,0.88,0,0,1,1.35.61,1.21,1.21,0,0,0,1.23-.37c0.27,0.45.72,1,1.23,0.49l0.25,1.72c0.81,0.09,1,0,1.23-.74l0.49,1.11c1.36-.09,2.05-1.08,3.19-1.11a6.13,6.13,0,0,0,.86-3.07l0.49-.12c0.22,0,.06,0,0.25.25,0.9-.25.74-0.64,1.47-0.49a1,1,0,0,0-.25-1.6c0.81-.5,1.35-0.6,1.35-2l1.23,0.74,1.23-3.44,1.6-.37,0.12,0.61c1.25,0,.93-0.42,2.21-0.37,0.44-.7,1-0.77,1.11-1.84l1,0.74,0.86-1.6h0.49l0.12,2,0.61,0.61a4.84,4.84,0,0,0,1.84,0,1.4,1.4,0,0,0,.61-1h0.12c1.57,4.9-4.11,11-6.26,14.13A132.92,132.92,0,0,0,300,303.4Zm28.74-22.11c-2.21,2-5,3.57-6.76,6-1,1.38-1.28,3-2.21,4.54-1.16,1.9-2.94,3.6-4.18,5.4l-6.76,12c-1.29,2.12-4.15,3.77-4.91,5.77l-0.25.12c0.24-5.37,3.9-13.31,5.9-17.44l0.86-2.95,1.84-2.95,0.86-3.07c4.83-7.55,9.59-15.16,14.49-22.72l0.74,0.37H324l-0.12.49c0.58,0.95.68,1.49,0.61,3.32,0.84,0.16,1-.1,1.6.74a1.17,1.17,0,0,1-.86,1.11c0.28,1.44,0,1.25-.25,2.95l0.12,0.25,0.25,0.12,0.49-.61,0.74,0.61a0.92,0.92,0,0,0,.49-1.23l1.35,1.11C327.87,286.34,325.86,290.23,324.91,291.11Z" transform="translate(-27.16 -22.71)"/><path d="M75.66,456.64q0.45-1.65,3.59-6.35t7.92-11.05q4.78-6.35,10.61-13.82t11.5-14.57q5.68-7.09,10.68-13.22t8.14-9.86q3.14-1,4.93-1.57a25.76,25.76,0,0,0,2.84-1c0.6,0.2.7,0.5,0.3,0.9a5.17,5.17,0,0,0-2.24,3.44q-0.6,3.44-1.2,8.22t-1.12,10.16q-0.53,5.38-1,11.05t-0.75,10.76q-0.3,5.08-.45,9.34t-0.15,6.8a5.94,5.94,0,0,0,.22,2,0.55,0.55,0,0,0,.6.45,1.62,1.62,0,0,0,.82-0.6q0.45-.52.9-1.12,1.64-2.09,5.38-6.65t8.51-10.31q4.78-5.75,10.16-12t10.31-11.88q4.93-5.6,8.89-10t5.9-6.2a37.66,37.66,0,0,1,5.83-2.24,22.35,22.35,0,0,0,5.53-2.39,0.93,0.93,0,0,1,.75.37,0.64,0.64,0,0,1,0,.82,22.7,22.7,0,0,0-3.66,1.79,5.54,5.54,0,0,0-1.87,2.84q-1.79,5.68-3.66,13.22t-3.44,15.46q-1.57,7.92-2.61,15.46a97.74,97.74,0,0,0-1,13.22,3.65,3.65,0,0,0,1,2.91,3.46,3.46,0,0,0,2.32.82,16.75,16.75,0,0,0,3-.3,13.07,13.07,0,0,0,3-.9,0.38,0.38,0,0,1,.37.37,0.72,0.72,0,0,1-.22.67l-3.51,1-4,1.2-3.73,1.12q-1.72.52-2.91,0.82a5.6,5.6,0,0,1-2.91-.67,3.31,3.31,0,0,1-1.42-2.46,69.15,69.15,0,0,1,1-6.87q0.9-4.78,2.24-10.76t2.91-12.55q1.57-6.57,2.91-12.17t2.32-9.49q1-3.88,1.12-4.63,0.6-2.24,0-2.17a4.24,4.24,0,0,0-1.79,1.12q-2.84,2.54-6.65,6.5t-8.07,8.74q-4.26,4.78-8.74,10.16t-8.81,10.76q-4.33,5.38-8.22,10.53t-6.87,9.49c-0.2.4-.45,0.87-0.75,1.42a9.14,9.14,0,0,0-.75,1.87,11.87,11.87,0,0,0-4.26.82,12.28,12.28,0,0,0-2.91,2c-0.6.2-.95,0.1-1-0.3q0.45-3.14,1-8.37t1-11.5q0.52-6.28,1-12.92t0.9-12.55q0.45-5.9.75-10.38t0.45-6.42q0-2.84-2.39,0-4.33,4.93-10.23,12.4T102,423q-6,8.07-11.28,15.83t-8.44,13.45A30.56,30.56,0,0,0,79,459.77a14.75,14.75,0,0,0-.37,4.18c0.1,1.09,0,1.57-.3,1.42a2.42,2.42,0,0,1-.9-1.12,9.94,9.94,0,0,1-.75-2.69Q76.41,459.77,75.66,456.64Z" transform="translate(-27.16 -22.71)"/><path d="M244.62,434.38q-3.44,4.18-7.54,8.44a98.41,98.41,0,0,1-8.29,7.69,46.07,46.07,0,0,1-8.29,5.53,16.84,16.84,0,0,1-7.54,2.09q-3,0-4.18-1.49a5.78,5.78,0,0,1-1.2-3.74,17.58,17.58,0,0,1,1.27-5.6,39.59,39.59,0,0,1,3.81-7.54q-1.94,2.54-4.48,5.38a56.43,56.43,0,0,1-5.23,5.15,36.21,36.21,0,0,1-5.38,3.88,9.77,9.77,0,0,1-4.78,1.57q-3.14,0-3.14-3.14,0-3.43,2.69-8.66a44.62,44.62,0,0,1,7.25-10.08A48.51,48.51,0,0,1,210,425.49a23.14,23.14,0,0,1,12.1-3.51,8.46,8.46,0,0,1,1.34-2.09,4.78,4.78,0,0,1,1.2-.9l4.18-1.2,0.3,0.15a9.67,9.67,0,0,0-1.42,1.87q-0.67,1.12-1.42,2.32,0.74,0,2.24.15t2.24,0.3a0.93,0.93,0,0,1,.75.75,0.4,0.4,0,0,1-.45.45,12.46,12.46,0,0,0-2.69-.45c-1.19-.1-2.09-0.15-2.69-0.15q-6.87,12.1-10.08,19.2t-3.21,10.53a3.63,3.63,0,0,0,.67,2.24q0.67,0.9,2.76.9a12.74,12.74,0,0,0,5.68-1.72,41.93,41.93,0,0,0,7-4.78,97.54,97.54,0,0,0,7.69-7.1,112.26,112.26,0,0,0,7.54-8.51q0.3-.45.6-0.22A0.79,0.79,0,0,1,244.62,434.38ZM221.31,423a15.64,15.64,0,0,0-9.71,3.59,42.64,42.64,0,0,0-8.22,8.44,53.43,53.43,0,0,0-5.75,9.64q-2.17,4.78-2.17,7c0,0.8.3,1.19,0.9,1.19a6.13,6.13,0,0,0,2.76-1.19,41.45,41.45,0,0,0,4.26-3.21,53.23,53.23,0,0,0,4.85-4.71A48.09,48.09,0,0,0,212.8,438q2.39-3.58,4.63-7.62t4-7.17Z" transform="translate(-27.16 -22.71)"/><path d="M271.8,415a5.49,5.49,0,0,1-.75,2.69q-7.47,13.89-13.44,24.57t-11.35,19.72q-5.38,9-10.61,17.48t-11.05,18a126.07,126.07,0,0,1-10.38,14.27,67.51,67.51,0,0,1-12.4,11.5A57.87,57.87,0,0,1,187,530.81a53.41,53.41,0,0,1-17.55,2.76,30.81,30.81,0,0,1-11.58-1.87,18,18,0,0,1-7.17-5,18.22,18.22,0,0,1-3.66-7.17,33.26,33.26,0,0,1-1-8.37,26.18,26.18,0,0,1,.3-3.81,16.3,16.3,0,0,1,.75-3.21,0.64,0.64,0,0,1,.6-0.6c0.3,0,.45.25,0.45,0.75q-0.3,1-.6,2.46a14.91,14.91,0,0,0-.3,3.06,17.51,17.51,0,0,0,2.24,9,18.22,18.22,0,0,0,6.2,6.27,31.07,31.07,0,0,0,9.34,3.74,50.06,50.06,0,0,0,11.5,1.27A42,42,0,0,0,189.42,528a43.85,43.85,0,0,0,12.92-6.95A71.88,71.88,0,0,0,215,508.47a121.17,121.17,0,0,0,12.17-19.12q3.88-7.17,8.22-15.24t8.37-15.46l7.25-13.3q3.21-5.9,4.71-8.59-3,4-5.83,7.62t-5.3,6.27a29.51,29.51,0,0,1-4.71,4.26,7.28,7.28,0,0,1-4,1.57,3,3,0,0,1-2.24-.9,3.88,3.88,0,0,1-.9-2.84,16.94,16.94,0,0,1,1.87-6.35,57.64,57.64,0,0,1,4.93-8.59,65.55,65.55,0,0,1,6.95-8.51,28.11,28.11,0,0,1,7.92-6,15.92,15.92,0,0,1,7.17-1.79,7.16,7.16,0,0,1,1.64.15q1.19-2.09,2.46-4.18t2.61-4.48q1-1.94,1.94-1.94,0.59,0,1.12,1.34A7,7,0,0,1,271.8,415Zm-9.56,8.81a4,4,0,0,0-1.2-.15h-1a20.21,20.21,0,0,0-4,.37,6.72,6.72,0,0,0-3.21,1.57,35.67,35.67,0,0,0-6.42,7,56.42,56.42,0,0,0-4.48,7.62,39.84,39.84,0,0,0-2.61,6.8,19.59,19.59,0,0,0-.82,4.41c0,1.1.3,1.64,0.9,1.64s1.79-.84,3.58-2.54a67.46,67.46,0,0,0,6-6.72q3.36-4.18,6.95-9.41A89.38,89.38,0,0,0,262.24,423.77Z" transform="translate(-27.16 -22.71)"/><path d="M318.56,435.57a81.46,81.46,0,0,1-6.2,7.54,56.3,56.3,0,0,1-7.47,6.8,46,46,0,0,1-8.07,4.93,18.67,18.67,0,0,1-8,1.94,9.9,9.9,0,0,1-3.29-.52q-1.5-.52-1.49-2.61a13.28,13.28,0,0,1,1.49-5.3q1.49-3.21,3.51-6.8t4.18-7.32a64.64,64.64,0,0,0,3.51-6.87,1.64,1.64,0,0,0,.08-1.27q-0.22-.52-1-0.07a45.46,45.46,0,0,0-3.88,2.84q-2.24,1.79-4.56,3.81t-4.48,4.11a44.87,44.87,0,0,0-3.51,3.73q-2.39,3.74-4.11,6.87t-4.26,7a1.76,1.76,0,0,1-.9.9c-0.5,0-.92-0.55-1.27-1.64a9.64,9.64,0,0,1-.52-2.09q0-1.34,1.87-3.66t4.11-5.15q2.39-4.78,4.93-10.08t4.33-9.49a1.47,1.47,0,0,1,1.34-.75,2.57,2.57,0,0,1,2.39,2.39q0,0.6-2.17,4.11a72,72,0,0,0-4.26,8.14q2.84-2.54,6.2-5.38t6.42-5.23q3.06-2.39,5.38-4a7.61,7.61,0,0,1,3.21-1.57,1.46,1.46,0,0,1,1.12.67,2.12,2.12,0,0,1,.52,1.27,4,4,0,0,1-.75,1.79q-1.65,2.39-4,6.13t-4.56,7.69a79,79,0,0,0-3.66,7.54,15.91,15.91,0,0,0-1.49,5.68,3.23,3.23,0,0,0,.75,2.46,3.51,3.51,0,0,0,2.39.67,12.6,12.6,0,0,0,6-1.94,54.77,54.77,0,0,0,7.1-4.85,60.88,60.88,0,0,0,6.95-6.5,50.45,50.45,0,0,0,5.38-6.87,0.68,0.68,0,0,1,.9-0.22Q319.3,434.68,318.56,435.57Z" transform="translate(-27.16 -22.71)"/><path d="M360.24,429.45a30.47,30.47,0,0,1-6.2,6.2,13.4,13.4,0,0,1-8.29,2.76,10.8,10.8,0,0,1-5-1.27,9.66,9.66,0,0,1-4-3.81q-1,2.39-2.69,5.45a52.36,52.36,0,0,1-3.88,6.12,38.26,38.26,0,0,1-5,5.6,27.7,27.7,0,0,1-5.9,4.18,11.6,11.6,0,0,1-4.48,1.2q-5.38,0-5.38-4.78a17,17,0,0,1,1-5.53,34,34,0,0,1,2.46-5.53A51.21,51.21,0,0,1,316.1,435a31.58,31.58,0,0,1,3.21-3.88,31.19,31.19,0,0,1,7.17-5.83,20.72,20.72,0,0,1,8.67-2.84,24.56,24.56,0,0,1,.9-2.76,2.74,2.74,0,0,1,2.09-1.87l1.49-.3a5.22,5.22,0,0,0,1.34-.45,0.84,0.84,0,0,1,.9-0.08c0.3,0.15.35,0.42,0.15,0.82a12.45,12.45,0,0,0-1.57,4.18,27.36,27.36,0,0,0-.52,5.53,13.49,13.49,0,0,0,1.57,6.87q1.57,2.69,5.45,2.69a10.87,10.87,0,0,0,7-2.54,27.25,27.25,0,0,0,5.23-5.53,0.66,0.66,0,0,1,1-.45C360.61,428.75,360.64,429.05,360.24,429.45Zm-24.65,1a23.07,23.07,0,0,1-.45-3.14q-0.15-1.79-.15-3.44a0.6,0.6,0,0,0-.6-0.75A6.51,6.51,0,0,0,331,424.3a19,19,0,0,0-3.58,3,46.36,46.36,0,0,0-3.58,4.26,52.72,52.72,0,0,0-3.29,4.93,55.22,55.22,0,0,0-3.51,7.1,17,17,0,0,0-1.42,7.25,5,5,0,0,0,.37,1.94,1.65,1.65,0,0,0,1.72.9q2.54,0,5.53-2.84a44.61,44.61,0,0,0,5.68-6.65,53.75,53.75,0,0,0,4.56-7.69A22.88,22.88,0,0,0,335.59,430.5Z" transform="translate(-27.16 -22.71)"/><path d="M418.8,357.45a18.09,18.09,0,0,1-1.64,6.12,78.52,78.52,0,0,1-4.71,9.34A130,130,0,0,1,405,384.26a126.86,126.86,0,0,1-10,12,123.42,123.42,0,0,1-12.32,11.43,96.06,96.06,0,0,1-14.34,9.64q-1.34,2.39-3.73,6.42t-4.71,8.52a96.83,96.83,0,0,0-4,8.81,20.62,20.62,0,0,0-1.72,7.32q0,4.78,4.33,4.78a16.86,16.86,0,0,0,7.77-2.09,44.62,44.62,0,0,0,7.69-5.08,76,76,0,0,0,6.87-6.35q3.21-3.36,5.45-6.05,1-1,1.2-.52a1.16,1.16,0,0,1-.45,1.12q-2.69,3.29-6.35,7a72.39,72.39,0,0,1-7.77,6.87,46.6,46.6,0,0,1-8.59,5.23,21,21,0,0,1-9,2.09q-3.89,0-5.6-1.87A6.48,6.48,0,0,1,348,449q0-2.69,2.32-7.69t5.45-10.53q3.14-5.53,6.27-10.46t4.63-7.47l5.3-9q2.76-4.71,5.45-9.19l5.15-8.59q2.47-4.11,4.56-7.25,2.54-3.88,5.23-7.32a44.73,44.73,0,0,1,6.87-6.87,61.49,61.49,0,0,1,10.46-7.32q4.78-2.54,6.42-2.54a2.8,2.8,0,0,1,1.94.67A2.58,2.58,0,0,1,418.8,357.45Zm-6.72,3.88q0-2.39-1.94-2.39a3.72,3.72,0,0,0-1.64.45,10.12,10.12,0,0,0-2.32,1.87,48.2,48.2,0,0,0-3.44,4q-2,2.54-5.15,6.57-1.2,1.65-3.36,4.78t-5.53,8.29q-3.36,5.15-8.07,12.7L369.5,415.41a90.28,90.28,0,0,0,16.81-12.32,109.08,109.08,0,0,0,13.52-14.86,82.62,82.62,0,0,0,9-14.79Q412.07,366.26,412.08,361.33Z" transform="translate(-27.16 -22.71)"/><path d="M413,435.28a67.93,67.93,0,0,1-8.22,8.81,70.85,70.85,0,0,1-8.51,6.72,26.69,26.69,0,0,1-6.12,3,18.11,18.11,0,0,1-5.68,1,16.92,16.92,0,0,1-2.09-.15,5.29,5.29,0,0,1-2.17-.75,5.42,5.42,0,0,1-1.64-1.57,4.51,4.51,0,0,1-.67-2.61,14.17,14.17,0,0,1,1.49-5.3q1.49-3.36,3.51-6.95t4-6.87q2-3.28,3.21-4.93a5.63,5.63,0,0,1,2.61-2,8.3,8.3,0,0,1,2.46-.82c0.5,0,.75.15,0.75,0.45a2.83,2.83,0,0,1-.22.9,2.5,2.5,0,0,1-.52.9q-1.94,3-4,6.57t-3.66,6.95a53.8,53.8,0,0,0-2.61,6.2,14.81,14.81,0,0,0-1,4.48,3.23,3.23,0,0,0,1,2.61,3.9,3.9,0,0,0,2.61.82,13.61,13.61,0,0,0,6.57-2,51.28,51.28,0,0,0,7.1-4.85,68.18,68.18,0,0,0,6.5-6,58,58,0,0,0,4.63-5.38c0.5-.5.77-0.62,0.82-0.37A2.2,2.2,0,0,1,413,435.28ZM406.25,402a5.48,5.48,0,0,1-1.57,3.58,4.61,4.61,0,0,1-3.51,1.79,1.58,1.58,0,0,1-1.79-1.79,5.94,5.94,0,0,1,1.42-3.73,4.31,4.31,0,0,1,3.51-1.79A1.72,1.72,0,0,1,406.25,402Z" transform="translate(-27.16 -22.71)"/><path d="M456.74,434.38q-3.44,4.18-7.54,8.44a98.41,98.41,0,0,1-8.29,7.69,46.1,46.1,0,0,1-8.29,5.53,16.84,16.84,0,0,1-7.54,2.09q-3,0-4.18-1.49a5.79,5.79,0,0,1-1.19-3.74,17.56,17.56,0,0,1,1.27-5.6,39.53,39.53,0,0,1,3.81-7.54q-1.94,2.54-4.48,5.38a56.61,56.61,0,0,1-5.23,5.15,36.28,36.28,0,0,1-5.38,3.88,9.78,9.78,0,0,1-4.78,1.57q-3.14,0-3.14-3.14,0-3.43,2.69-8.66a44.59,44.59,0,0,1,7.25-10.08,48.5,48.5,0,0,1,10.38-8.37,23.14,23.14,0,0,1,12.1-3.51,8.43,8.43,0,0,1,1.34-2.09,4.76,4.76,0,0,1,1.2-.9l4.18-1.2,0.3,0.15a9.67,9.67,0,0,0-1.42,1.87q-0.67,1.12-1.42,2.32,0.75,0,2.24.15t2.24,0.3a0.93,0.93,0,0,1,.75.75,0.4,0.4,0,0,1-.45.45,12.46,12.46,0,0,0-2.69-.45c-1.19-.1-2.09-0.15-2.69-0.15q-6.87,12.1-10.08,19.2t-3.21,10.53a3.63,3.63,0,0,0,.67,2.24q0.67,0.9,2.76.9a12.74,12.74,0,0,0,5.68-1.72,41.92,41.92,0,0,0,7-4.78,97.37,97.37,0,0,0,7.69-7.1,112.27,112.27,0,0,0,7.54-8.51c0.2-.3.4-0.37,0.6-0.22A0.79,0.79,0,0,1,456.74,434.38ZM433.44,423a15.64,15.64,0,0,0-9.71,3.59,42.67,42.67,0,0,0-8.22,8.44,53.42,53.42,0,0,0-5.75,9.64q-2.17,4.78-2.17,7c0,0.8.3,1.19,0.9,1.19a6.13,6.13,0,0,0,2.76-1.19,41.4,41.4,0,0,0,4.26-3.21,53.17,53.17,0,0,0,4.86-4.71,48.14,48.14,0,0,0,4.56-5.83q2.39-3.58,4.63-7.62t4-7.17Z" transform="translate(-27.16 -22.71)"/><path class="cls-2" d="M242,498.85a9.76,9.76,0,0,1,3.1.47,7.1,7.1,0,0,1,2.42,1.34,5.91,5.91,0,0,1,1.57,2.16,7.81,7.81,0,0,1,0,5.8,5.91,5.91,0,0,1-1.57,2.16,7.08,7.08,0,0,1-2.42,1.34,10.48,10.48,0,0,1-6.19,0,7.08,7.08,0,0,1-2.42-1.34,5.93,5.93,0,0,1-1.57-2.16,7.81,7.81,0,0,1,0-5.8,5.92,5.92,0,0,1,1.57-2.16,7.09,7.09,0,0,1,2.42-1.34A9.76,9.76,0,0,1,242,498.85Zm0,0.72a4.38,4.38,0,0,0-2.14.5,4.3,4.3,0,0,0-1.49,1.35,6,6,0,0,0-.87,2,9.9,9.9,0,0,0,0,4.67,6,6,0,0,0,.87,2,4.3,4.3,0,0,0,1.49,1.35,4.85,4.85,0,0,0,4.28,0,4.3,4.3,0,0,0,1.49-1.35,6,6,0,0,0,.87-2,9.9,9.9,0,0,0,0-4.67,6,6,0,0,0-.87-2,4.3,4.3,0,0,0-1.49-1.35A4.38,4.38,0,0,0,242,499.57Z" transform="translate(-27.16 -22.71)"/><path class="cls-2" d="M255.81,504.72h1a4,4,0,0,0,1-.13,3,3,0,0,0,.93-0.42,2.76,2.76,0,0,0,.75-0.77,3.52,3.52,0,0,0,.48-1.17h0.4q0,0.7,0,1.41t0,1.41q0,0.72,0,1.42t0,1.42H260a5.65,5.65,0,0,0-.4-1.24,2.22,2.22,0,0,0-.62-0.8,2.35,2.35,0,0,0-.9-0.43,5.27,5.27,0,0,0-1.25-.13h-1v4.6a3.57,3.57,0,0,0,.08.82,1,1,0,0,0,.33.56,1.56,1.56,0,0,0,.72.32,6.08,6.08,0,0,0,1.22.1v0.56l-1.89-.06-1.89,0-1.65,0-1.65.06v-0.56a4.64,4.64,0,0,0,1.07-.1,1.3,1.3,0,0,0,.63-0.32,1.12,1.12,0,0,0,.3-0.56,3.63,3.63,0,0,0,.08-0.82v-8a6,6,0,0,0-.07-1,1.51,1.51,0,0,0-.29-0.7,1.38,1.38,0,0,0-.63-0.43,3.52,3.52,0,0,0-1.08-.17v-0.56l2,0.08q1,0,2,0,1.93,0,3.83,0l3.83-.08q0,0.36,0,.72v0.7q0,0.62,0,1.24a8.5,8.5,0,0,0,.11,1.23h-0.4A4,4,0,0,0,261,500.6a5.27,5.27,0,0,0-3-.72h-2.23v4.84Z" transform="translate(-27.16 -22.71)"/><path class="cls-2" d="M280.66,503.29a5.92,5.92,0,0,0-.59-1.76,2.73,2.73,0,0,0-.91-1,3.11,3.11,0,0,0-1.23-.44,11.37,11.37,0,0,0-1.59-.1v9.52a8.25,8.25,0,0,0,.06,1.11,1.33,1.33,0,0,0,.28.69,1.27,1.27,0,0,0,.66.38,6.74,6.74,0,0,0,1.2.18v0.4l-1.68-.06-1.7,0-1.81,0-1.85.06v-0.4a6.74,6.74,0,0,0,1.19-.18,1.26,1.26,0,0,0,.66-0.38,1.32,1.32,0,0,0,.28-0.69,8.25,8.25,0,0,0,.06-1.11V500a11.35,11.35,0,0,0-1.59.1,3.12,3.12,0,0,0-1.24.44,2.74,2.74,0,0,0-.91,1,5.92,5.92,0,0,0-.59,1.76h-0.52c0-.25,0-0.51.07-0.77s0-.55.06-0.87,0-.68,0-1.09,0-.89,0-1.43l2.95,0.08q1.45,0,2.93,0t3,0l3-.08q0,0.82,0,1.43c0,0.41,0,.78,0,1.09s0,0.61.06,0.87,0,0.51.07,0.77h-0.44Z" transform="translate(-27.16 -22.71)"/><path class="cls-2" d="M281.88,511.79a9.51,9.51,0,0,0,1-.11,1.28,1.28,0,0,0,.64-0.28,1.13,1.13,0,0,0,.34-0.58,3.91,3.91,0,0,0,.1-1v-7.77a10.67,10.67,0,0,0,0-1.16,1.17,1.17,0,0,0-.88-1.1,5.46,5.46,0,0,0-1.11-.22v-0.48q1.71,0.12,3.45.12t3.43-.12v0.48a6.22,6.22,0,0,0-1.18.22,1.39,1.39,0,0,0-.66.4,1.33,1.33,0,0,0-.28.7,8.88,8.88,0,0,0-.06,1.16v2.63h6.61v-2.63a8.88,8.88,0,0,0-.06-1.16,1.4,1.4,0,0,0-.27-0.7,1.33,1.33,0,0,0-.64-0.4,6,6,0,0,0-1.18-.22v-0.48q1.77,0.12,3.5.12t3.42-.12v0.48a5.74,5.74,0,0,0-1.15.22,1.33,1.33,0,0,0-.63.4,1.39,1.39,0,0,0-.27.7,8.88,8.88,0,0,0-.06,1.16v7.77a3.91,3.91,0,0,0,.1,1,1.13,1.13,0,0,0,.34.58,1.29,1.29,0,0,0,.65.28,10,10,0,0,0,1,.11v0.48l-1.72-.06-1.72,0-1.71,0-1.71.06v-0.48a9.54,9.54,0,0,0,1-.11,1.34,1.34,0,0,0,.65-0.28,1.1,1.1,0,0,0,.35-0.58,3.91,3.91,0,0,0,.1-1v-4.3h-6.61v4.3a3.91,3.91,0,0,0,.1,1,1.1,1.1,0,0,0,.35.58,1.35,1.35,0,0,0,.66.28,9.93,9.93,0,0,0,1,.11v0.48l-1.74-.06-1.74,0-1.68,0-1.68.06v-0.48Z" transform="translate(-27.16 -22.71)"/><path class="cls-2" d="M298.81,511.79a4.61,4.61,0,0,0,1.08-.17,1.28,1.28,0,0,0,.63-0.4,1.44,1.44,0,0,0,.29-0.69,6.25,6.25,0,0,0,.07-1V502a6,6,0,0,0-.07-1,1.51,1.51,0,0,0-.29-0.7,1.37,1.37,0,0,0-.63-0.43,3.52,3.52,0,0,0-1.08-.17v-0.56l2,0.08q1,0,2,0,1.93,0,3.84,0l3.9-.08q0,0.36,0,.72v0.7q0,0.62,0,1.21a5.41,5.41,0,0,0,.14,1.1l-0.44.08a4.33,4.33,0,0,0-1.52-2.28,5.09,5.09,0,0,0-3-.77h-2.23v4.84h1a4,4,0,0,0,1-.13,3,3,0,0,0,.93-0.42,2.74,2.74,0,0,0,.75-0.77,3.5,3.5,0,0,0,.48-1.17h0.4q0,0.7,0,1.41t0,1.41q0,0.72,0,1.42t0,1.42h-0.4a4.07,4.07,0,0,0-.46-1.24,2.75,2.75,0,0,0-.7-0.8,2.55,2.55,0,0,0-.91-0.43,4.48,4.48,0,0,0-1.11-.13h-1v5.91a6.54,6.54,0,0,0,1.07.21,11,11,0,0,0,1.3.07,6.81,6.81,0,0,0,3.52-.93,7.46,7.46,0,0,0,2.67-2.88l0.38,0.28q-0.5,1.06-.95,2.11a21.56,21.56,0,0,0-.79,2.17l-3.09-.06-3.09,0h-3.47l-1.33,0-1,0v-0.48Z" transform="translate(-27.16 -22.71)"/><path class="cls-2" d="M326.07,498.85a9.76,9.76,0,0,1,3.1.47,7.1,7.1,0,0,1,2.42,1.34,5.91,5.91,0,0,1,1.57,2.16,7.81,7.81,0,0,1,0,5.8,5.91,5.91,0,0,1-1.57,2.16,7.08,7.08,0,0,1-2.42,1.34,10.48,10.48,0,0,1-6.19,0,7.08,7.08,0,0,1-2.42-1.34,5.93,5.93,0,0,1-1.57-2.16,7.81,7.81,0,0,1,0-5.8,5.92,5.92,0,0,1,1.57-2.16,7.09,7.09,0,0,1,2.42-1.34A9.76,9.76,0,0,1,326.07,498.85Zm0,0.72a4.38,4.38,0,0,0-2.14.5,4.3,4.3,0,0,0-1.49,1.35,6,6,0,0,0-.87,2,9.9,9.9,0,0,0,0,4.67,6,6,0,0,0,.87,2,4.3,4.3,0,0,0,1.49,1.35,4.85,4.85,0,0,0,4.28,0A4.3,4.3,0,0,0,329.7,510a6,6,0,0,0,.87-2,9.9,9.9,0,0,0,0-4.67,6,6,0,0,0-.87-2,4.3,4.3,0,0,0-1.49-1.35A4.38,4.38,0,0,0,326.07,499.57Z" transform="translate(-27.16 -22.71)"/><path class="cls-2" d="M336.4,503.39c0-.16,0-0.35,0-0.58v-0.7a14.27,14.27,0,0,1,.07-1.48,11.8,11.8,0,0,1,.27-1.5q1.35,0,2.68.07t2.68,0l2.84,0q1.4,0,2.84-.1l0.22,0.48q-1.29,1.37-2.48,2.83t-2.32,2.95q-1.14,1.49-2.25,3t-2.29,3l0.81,0.07c0.27,0,.54,0,0.81,0a15.19,15.19,0,0,0,2.31-.17,7.55,7.55,0,0,0,2-.6,5.48,5.48,0,0,0,1.64-1.17,5.24,5.24,0,0,0,1.14-1.87h0.5a19.63,19.63,0,0,1-.71,2.35,19.07,19.07,0,0,1-1,2.25l-2.71-.06-2.71,0-2.67,0-2.67.06-0.34-.42,9.38-12q-1.81,0-3.18.08a7.64,7.64,0,0,0-2.29.44,3,3,0,0,0-1.42,1.07,3.91,3.91,0,0,0-.6,2H336.4Z" transform="translate(-27.16 -22.71)"/><path class="cls-2" d="M348.17,511.79a3,3,0,0,0,.93-0.23,1.87,1.87,0,0,0,.62-0.45,3.08,3.08,0,0,0,.44-0.65q0.19-.37.39-0.85l3.9-9.1-0.36-1q0.64-.12,1.25-0.29a8.15,8.15,0,0,0,1.19-.43l4.32,11.73a1.62,1.62,0,0,0,.84.93,2.75,2.75,0,0,0,1.21.29v0.48l-0.86,0-1,0H359.3l-1.66,0-1.66.06v-0.48a4.17,4.17,0,0,0,1.53-.34,0.83,0.83,0,0,0,.5-0.78,2,2,0,0,0-.07-0.46,5.32,5.32,0,0,0-.18-0.57l-0.22-.58-0.19-.49-0.68-2h-4l-1,2.81c-0.07.19-.14,0.37-0.21,0.54a1.69,1.69,0,0,0-.11.66,0.66,0.66,0,0,0,.17.44,1.53,1.53,0,0,0,.44.35,3.13,3.13,0,0,0,.58.25,3.56,3.56,0,0,0,.57.14v0.48l-1.28-.06-1.28,0-1.2,0-1.19.06v-0.48Zm8.22-5.93-1.63-4.66h0L353,505.86h3.41Z" transform="translate(-27.16 -22.71)"/><path class="cls-2" d="M363.07,499.17l1.44,0.06,1.6,0q1.08,0,2.15-.06t2.25-.06a5.47,5.47,0,0,1,1.86.3,4.26,4.26,0,0,1,1.41.83,3.58,3.58,0,0,1,.9,1.22A3.71,3.71,0,0,1,375,503a3,3,0,0,1-.23,1.22,2.84,2.84,0,0,1-.63.92,3.52,3.52,0,0,1-.94.65,5.3,5.3,0,0,1-1.18.4q0.42,0.68,1,1.6a18.12,18.12,0,0,0,1.36,1.79,10.77,10.77,0,0,0,1.6,1.52,4,4,0,0,0,1.75.82v0.36l-1.12-.06-1.12,0-1,0-1,.06a29.76,29.76,0,0,1-2.32-2.79,27.86,27.86,0,0,1-1.94-3l-0.77-.12a1.62,1.62,0,0,1-.65-0.24v3.44a9.64,9.64,0,0,0,0,1.1,1.19,1.19,0,0,0,.26.66,1.2,1.2,0,0,0,.61.35,6.39,6.39,0,0,0,1.1.17v0.48l-1.52-.06-1.68,0-1.81,0-1.79.06v-0.48a7.31,7.31,0,0,0,1.17-.17,1.22,1.22,0,0,0,.64-0.35,1.24,1.24,0,0,0,.27-0.66,8.18,8.18,0,0,0,.06-1.1V502a7.46,7.46,0,0,0-.06-1,1.49,1.49,0,0,0-.27-0.7,1.3,1.3,0,0,0-.64-0.43,4.87,4.87,0,0,0-1.17-.21v-0.44Zm4.8,6.13a3.11,3.11,0,0,0,1.33.3,3,3,0,0,0,2.12-.74,2.77,2.77,0,0,0,.81-2.15,3.31,3.31,0,0,0-.19-1.12,2.66,2.66,0,0,0-.55-0.92,2.56,2.56,0,0,0-.86-0.61,2.75,2.75,0,0,0-1.12-.22,7.46,7.46,0,0,0-.78,0,3.49,3.49,0,0,0-.78.18v5.24Z" transform="translate(-27.16 -22.71)"/><path class="cls-2" d="M379.54,501.6a2.82,2.82,0,0,0-.1-0.76,1.55,1.55,0,0,0-.34-0.63,1.75,1.75,0,0,0-.64-0.44,2.57,2.57,0,0,0-1-.17v-0.48q1.65,0.12,3.27.12,0.9,0,1.8,0l1.8-.08v0.48a2.77,2.77,0,0,0-1,.17,1.74,1.74,0,0,0-.65.44,1.55,1.55,0,0,0-.34.63,2.78,2.78,0,0,0-.1.76v4l0.57-.47,0.93-.82,1.08-1q0.57-.53,1-1a10.47,10.47,0,0,0,.78-0.94,1.32,1.32,0,0,0,.31-0.69,0.71,0.71,0,0,0-.14-0.43,1.42,1.42,0,0,0-.35-0.33,1.87,1.87,0,0,0-.45-0.22,2.09,2.09,0,0,0-.44-0.1v-0.48a13.62,13.62,0,0,0,1.55.11h1.57l1.61,0q0.78,0,1.61-.1v0.48a5.46,5.46,0,0,0-1.88.57,10.46,10.46,0,0,0-1.64,1.06q-0.78.61-1.5,1.29t-1.48,1.29l4.08,5.85q0.32,0.46.63,0.83a4,4,0,0,0,.67.64,3.31,3.31,0,0,0,.8.44,4,4,0,0,0,1,.23v0.48l-1.8-.06-1.8,0-1.77,0-1.77.06v-0.4l0.44-.1a2.79,2.79,0,0,0,.55-0.18,1.93,1.93,0,0,0,.47-0.29,0.54,0.54,0,0,0,.2-0.43,1.54,1.54,0,0,0-.23-0.55q-0.23-.41-0.59-1l-0.79-1.17q-0.43-.63-0.84-1.19l-0.73-1-0.46-.64-1.25,1v3.41a5.32,5.32,0,0,0,.06.85,1.25,1.25,0,0,0,.27.62,1.36,1.36,0,0,0,.63.39,4.51,4.51,0,0,0,1.14.18v0.48l-1.81-.06-1.79,0-1.61,0-1.61.06v-0.48a4.36,4.36,0,0,0,1.13-.18,1.36,1.36,0,0,0,.62-0.39,1.26,1.26,0,0,0,.27-0.62,5.32,5.32,0,0,0,.06-0.85V501.6Z" transform="translate(-27.16 -22.71)"/><path class="cls-2" d="M402.2,503.09a4.34,4.34,0,0,0-.65-1.37,5.55,5.55,0,0,0-1-1.12,4.91,4.91,0,0,0-1.29-.76,3.76,3.76,0,0,0-1.41-.28,2.48,2.48,0,0,0-1.52.47,1.64,1.64,0,0,0-.63,1.4,1.56,1.56,0,0,0,.57,1.21,6.21,6.21,0,0,0,1.42.91q0.86,0.41,1.84.83a10.53,10.53,0,0,1,1.84,1,5.5,5.5,0,0,1,1.42,1.4,3.84,3.84,0,0,1,.23,3.58,3.39,3.39,0,0,1-1,1.19,4.54,4.54,0,0,1-1.49.76,6.65,6.65,0,0,1-2,.27,5.63,5.63,0,0,1-1-.09l-1-.2-1-.2a5.63,5.63,0,0,0-1-.09l-0.21,0-0.28.07-0.29.08-0.22.08q-0.16-1.12-.34-2.25t-0.46-2.29h0.44a5.09,5.09,0,0,0,.72,1.45,6.67,6.67,0,0,0,1.17,1.28,5.76,5.76,0,0,0,1.44.91,3.82,3.82,0,0,0,1.53.34,6.58,6.58,0,0,0,1.19-.1,2.82,2.82,0,0,0,.93-0.33,1.56,1.56,0,0,0,.6-0.62,2.06,2.06,0,0,0,.21-1,1.8,1.8,0,0,0-.58-1.36,6.27,6.27,0,0,0-1.44-1q-0.87-.45-1.87-0.87a13,13,0,0,1-1.87-1,5.49,5.49,0,0,1-1.44-1.27,2.85,2.85,0,0,1-.58-1.81,3.17,3.17,0,0,1,1.13-2.72,5.75,5.75,0,0,1,3.45-.85,7.3,7.3,0,0,1,1.16.09q0.56,0.09,1.06.21l0.94,0.21a4.1,4.1,0,0,0,.82.09h0.72c0,0.23,0,.44,0,0.64s0,0.41,0,.62q0,0.58,0,1.19c0,0.41.06,0.81,0.09,1.2H402.2Z" transform="translate(-27.16 -22.71)"/><path class="cls-1" d="M249.94,482.74l-2.23,6.11-0.19.47a1.14,1.14,0,0,0-.08.44,1.61,1.61,0,0,0,.35,1,3,3,0,0,0,.86.73,5.34,5.34,0,0,0,1,.46,7.85,7.85,0,0,0,.91.24v0.4q-1-.07-2-0.1t-2.06,0q-1,0-2,0t-2,.1v-0.4a4.55,4.55,0,0,0,2.9-1.89,8.57,8.57,0,0,0,.83-1.48q0.35-.81.69-1.69l5.84-14.34,0.19-.44A1,1,0,0,0,253,472a1.71,1.71,0,0,0-.12-0.51,3.09,3.09,0,0,0-.29-0.61,7.63,7.63,0,0,0,1.52-.44l1.42-.57,7,19.3a5,5,0,0,0,1.32,2.08,4.48,4.48,0,0,0,2.5,1v0.4q-1.35-.07-2.65-0.1t-2.72,0h-1.59l-1.21,0-1,.05-1.06.07v-0.4a6.18,6.18,0,0,0,2.38-.73,1.69,1.69,0,0,0,1-1.5,1.34,1.34,0,0,0-.12-0.54,4,4,0,0,1-.19-0.51L257,482.74h-7.05Zm3.64-9.58-3.31,8.57h6.34Z" transform="translate(-27.16 -22.71)"/><path class="cls-1" d="M287.39,478.11a13,13,0,0,0-1.16-2.8,9.55,9.55,0,0,0-1.72-2.23,7.25,7.25,0,0,0-2.29-1.47,7.76,7.76,0,0,0-2.92-.52,7.17,7.17,0,0,0-3.54.81,6.84,6.84,0,0,0-2.38,2.19A9.55,9.55,0,0,0,272,477.3a17,17,0,0,0-.42,3.85,13.63,13.63,0,0,0,.54,3.86,9.7,9.7,0,0,0,1.6,3.22,7.84,7.84,0,0,0,2.67,2.21,7.94,7.94,0,0,0,3.7.83,9.24,9.24,0,0,0,5.42-1.59,15.11,15.11,0,0,0,4-4.32L290.4,486a29.7,29.7,0,0,1-2.29,3,12.88,12.88,0,0,1-2.5,2.23,10.62,10.62,0,0,1-2.94,1.38,12.51,12.51,0,0,1-3.58.47,10.85,10.85,0,0,1-4.29-.86,11,11,0,0,1-3.54-2.4,11.41,11.41,0,0,1-2.41-3.68,12.85,12.85,0,0,1,0-9.42,11.43,11.43,0,0,1,2.41-3.68,11,11,0,0,1,3.54-2.4,10.84,10.84,0,0,1,4.29-.86,16.85,16.85,0,0,1,2.33.15l2.08,0.32,1.92,0.34a12.71,12.71,0,0,0,1.84.2q0,0.71,0,1.65t0.15,1.94q0.1,1,.2,2t0.2,1.67h-0.47Z" transform="translate(-27.16 -22.71)"/><path class="cls-1" d="M297.45,482.74l-2.23,6.11-0.19.47a1.14,1.14,0,0,0-.08.44,1.61,1.61,0,0,0,.35,1,3,3,0,0,0,.86.73,5.34,5.34,0,0,0,1,.46,7.85,7.85,0,0,0,.91.24v0.4q-1-.07-2-0.1t-2.06,0q-1,0-2,0t-2,.1v-0.4a4.55,4.55,0,0,0,2.9-1.89,8.57,8.57,0,0,0,.83-1.48q0.35-.81.69-1.69l5.84-14.34,0.19-.44a1,1,0,0,0,.08-0.37,1.71,1.71,0,0,0-.12-0.51,3.09,3.09,0,0,0-.29-0.61,7.63,7.63,0,0,0,1.52-.44l1.42-.57,7,19.3a5,5,0,0,0,1.32,2.08,4.48,4.48,0,0,0,2.5,1v0.4q-1.35-.07-2.65-0.1t-2.72,0H307l-1.21,0-1,.05-1.06.07v-0.4a6.18,6.18,0,0,0,2.38-.73,1.69,1.69,0,0,0,1-1.5,1.34,1.34,0,0,0-.12-0.54,4,4,0,0,1-.19-0.51l-2.19-6.21h-7.05Zm3.64-9.58-3.31,8.57h6.34Z" transform="translate(-27.16 -22.71)"/><path class="cls-1" d="M315.17,492.22a6.29,6.29,0,0,0,1.77-.37,3.06,3.06,0,0,0,1-.62,1.65,1.65,0,0,0,.46-0.76,3.34,3.34,0,0,0,.1-0.81V474.06a8.72,8.72,0,0,0-.08-1.3,1.92,1.92,0,0,0-.42-1,2.25,2.25,0,0,0-1-.64,7.78,7.78,0,0,0-1.82-.34v-0.4q0.88,0.07,1.75.1t1.75,0a38,38,0,0,0,4.39-.24,35.85,35.85,0,0,1,4.15-.24,15.34,15.34,0,0,1,5.13.84,12.82,12.82,0,0,1,4.2,2.41,11.39,11.39,0,0,1,2.85,3.8,11.63,11.63,0,0,1,1,5,10.36,10.36,0,0,1-1,4.78,9.27,9.27,0,0,1-2.7,3.24,11.08,11.08,0,0,1-3.86,1.84,17.72,17.72,0,0,1-4.54.57l-3.12,0-2.28,0-1.75,0-1.49,0q-1.15,0-2.26,0t-2.26.1v-0.4Zm6.38-2.29a6,6,0,0,0,2.48,1.42,10.07,10.07,0,0,0,2.82.41q5.2,0,7.58-2.67t2.38-7.73a10.58,10.58,0,0,0-.79-4.1,10.35,10.35,0,0,0-2.19-3.32,10.14,10.14,0,0,0-3.34-2.23,11.29,11.29,0,0,0-8.72.13q-0.13,1.75-.17,3.49t0,3.56v11Z" transform="translate(-27.16 -22.71)"/><path class="cls-1" d="M349.72,491.17l0.74,0.14,0.95,0.13,1,0.12c0.36,0,.7.05,1,0.05a17.64,17.64,0,0,0,3.63-.34,10.4,10.4,0,0,0,2.94-1.08,12,12,0,0,0,2.51-1.89,23.61,23.61,0,0,0,2.4-2.77l0.37,0.3-3.07,6.78q-0.57-.07-1.18-0.1t-1.18,0H347.19q-1,0-2,0t-2,.1v-0.4a6.8,6.8,0,0,0,1.89-.37,2,2,0,0,0,1-.84,3.6,3.6,0,0,0,.42-1.5q0.08-.93.08-2.35V475.89q0-1.42-.08-2.35a3.6,3.6,0,0,0-.42-1.5,2,2,0,0,0-1-.84,7.27,7.27,0,0,0-1.92-.37v-0.4l2.18,0.07,2.13,0.05,2.33,0h2.78q2.36,0,4.72,0t4.79-.1c0,0.25,0,.5-0.05.74s0,0.48,0,.71v1.35q0,0.74.07,1.5t0.14,1.67l-0.44.13a8.38,8.38,0,0,0-1.16-2.65,5.56,5.56,0,0,0-1.69-1.6,6.2,6.2,0,0,0-2.11-.78,14,14,0,0,0-2.43-.2q-2.36,0-4.72.2v8.44q0.67,0,1.3,0t1.3,0a6.48,6.48,0,0,0,3.69-.93,4.52,4.52,0,0,0,1.67-3.39h0.41q0,1.21,0,2.43t0,2.4q0,1.21,0,2.43t0,2.43h-0.41a10.18,10.18,0,0,0-.74-2.31,3.59,3.59,0,0,0-1.1-1.37,3.93,3.93,0,0,0-1.64-.64,14,14,0,0,0-2.33-.17h-2.16v10.43Z" transform="translate(-27.16 -22.71)"/><path class="cls-1" d="M385.63,470.42q1.22,0.07,2.43.1t2.43,0q1.08,0,2.14,0t2.14-.1v0.4a5.57,5.57,0,0,0-2.33.81,2.44,2.44,0,0,0-.91,2.19,23.67,23.67,0,0,0,.25,2.75q0.25,1.91.64,4.17t0.81,4.52q0.42,2.26.79,3.85a9.21,9.21,0,0,0,.37,1.18,2.56,2.56,0,0,0,1.62,1.54,7.93,7.93,0,0,0,1.79.39v0.4q-1.35-.07-2.68-0.1t-2.68,0q-1.28,0-2.51,0t-2.51.1v-0.4q0.71-.1,1.35-0.25a3.79,3.79,0,0,0,1.13-.46,2.07,2.07,0,0,0,.76-0.83,3.07,3.07,0,0,0,.27-1.4c0-.27,0-0.63,0-1.08a11.37,11.37,0,0,0-.2-1.55l-2.33-13.6h-0.07q-0.94,2.43-2,4.81t-2.06,4.78q-1,2.4-2,4.84t-1.74,5h-0.07q-1.62-5.23-3.66-10.07t-4.37-9.7h-0.07q-0.27,1.86-.54,4.12t-0.49,4.4q-0.22,2.14-.35,3.91t-0.13,2.65a10.54,10.54,0,0,0,.15,1.92,3,3,0,0,0,.59,1.35,2.64,2.64,0,0,0,1.2.81,7.18,7.18,0,0,0,2,.34v0.4q-1.42-.07-2.77-0.1t-2.77,0q-1,0-2.08,0t-2.08.1v-0.4a7.51,7.51,0,0,0,1.4-.27,5.14,5.14,0,0,0,1.27-.56,3.7,3.7,0,0,0,1-.84,2.42,2.42,0,0,0,.49-1.16q0.2-1.18.37-2.48l0.34-2.58,1.62-12a6.1,6.1,0,0,0-1.69-.95,10.68,10.68,0,0,0-2-.54v-0.4q1.45,0.07,2.89.1t2.88,0q1,0,2.08,0t2.08-.1v0.4a3.59,3.59,0,0,0-1.18.56,1.41,1.41,0,0,0-.54,1.23,3.39,3.39,0,0,0,.19,1.11q0.19,0.54.42,1.11l4.76,11.68q1.72-3.58,3.27-7.17t2.83-7.37a3,3,0,0,0-.88-0.71,6.15,6.15,0,0,0-1-.44v-0.4Z" transform="translate(-27.16 -22.71)"/><path class="cls-1" d="M396.9,470.42q1.42,0.07,2.77.1t2.77,0q1.32,0,2.65,0t2.65-.1v0.4a9.15,9.15,0,0,0-.89.2,4,4,0,0,0-.91.37,2.11,2.11,0,0,0-.69.61,1.5,1.5,0,0,0-.27.91,2.12,2.12,0,0,0,.35,1,17.29,17.29,0,0,0,1,1.52l4.79,6.48,4-6.24a5,5,0,0,0,.88-2.6,1.85,1.85,0,0,0-.81-1.57,3.43,3.43,0,0,0-1.82-.66v-0.4q1.18,0.07,2.38.1t2.38,0q1.08,0,2.14,0t2.14-.1v0.4a5.94,5.94,0,0,0-2.16.86,10,10,0,0,0-1.7,1.42,12.52,12.52,0,0,0-1.35,1.67q-0.59.88-1.1,1.59l-4.62,6.75v5a8.06,8.06,0,0,0,.2,2,2.52,2.52,0,0,0,.66,1.2,2.73,2.73,0,0,0,1.23.64,12.13,12.13,0,0,0,2,.3v0.4q-1.52-.07-3-0.1t-3,0q-1.25,0-2.5,0t-2.5.1v-0.4a11.52,11.52,0,0,0,1.87-.3,2.73,2.73,0,0,0,1.21-.64,2.41,2.41,0,0,0,.64-1.2,8.79,8.79,0,0,0,.19-2v-5.3l-6.11-7.83-1-1.23a10.12,10.12,0,0,0-1.13-1.18,8.17,8.17,0,0,0-1.43-1,6.83,6.83,0,0,0-1.89-.69v-0.4Z" transform="translate(-27.16 -22.71)"/><path class="cls-1" d="M46.6,480.2a13,13,0,0,0-1.16-2.8,9.48,9.48,0,0,0-1.72-2.23,7.21,7.21,0,0,0-2.29-1.47,7.76,7.76,0,0,0-2.92-.52A7.17,7.17,0,0,0,35,474a6.84,6.84,0,0,0-2.38,2.19,9.57,9.57,0,0,0-1.35,3.21,17,17,0,0,0-.42,3.85,13.63,13.63,0,0,0,.54,3.86,9.74,9.74,0,0,0,1.6,3.22,7.84,7.84,0,0,0,2.67,2.21,7.94,7.94,0,0,0,3.7.83,9.24,9.24,0,0,0,5.42-1.59,15.11,15.11,0,0,0,4-4.32l0.84,0.67a29.79,29.79,0,0,1-2.29,3,12.89,12.89,0,0,1-2.5,2.23,10.61,10.61,0,0,1-2.94,1.38,12.51,12.51,0,0,1-3.58.47,10.85,10.85,0,0,1-4.29-.86,11,11,0,0,1-3.54-2.4,11.41,11.41,0,0,1-2.41-3.68,12.84,12.84,0,0,1,0-9.42,11.42,11.42,0,0,1,2.41-3.68,11,11,0,0,1,3.54-2.4,10.85,10.85,0,0,1,4.29-.86,16.87,16.87,0,0,1,2.33.15l2.08,0.32,1.92,0.34a12.82,12.82,0,0,0,1.84.2q0,0.71.05,1.65t0.15,1.94q0.1,1,.2,2t0.2,1.67H46.6Z" transform="translate(-27.16 -22.71)"/><path class="cls-1" d="M69.61,478q0-1.42-.08-2.35a3.43,3.43,0,0,0-.44-1.5,2.06,2.06,0,0,0-1.06-.84,7.28,7.28,0,0,0-1.92-.37V472.5q1.42,0.07,2.75.1t2.75,0q1.11,0,2.23,0t2.19-.1v0.41a6.7,6.7,0,0,0-1.86.37,2,2,0,0,0-1,.84,3.58,3.58,0,0,0-.42,1.5q-0.08.93-.08,2.35v11.27q0,1.42.08,2.35a3.42,3.42,0,0,0,.44,1.5,2.06,2.06,0,0,0,1.06.84,7.37,7.37,0,0,0,2,.37v0.4q-1.28-.07-2.56-0.1t-2.56,0q-1.25,0-2.46,0t-2.43.1v-0.4a6.8,6.8,0,0,0,1.89-.37,2.07,2.07,0,0,0,1-.84,3.42,3.42,0,0,0,.44-1.5q0.08-.93.08-2.35v-6.08H57.09v6.08q0,1.42.08,2.35a3.42,3.42,0,0,0,.44,1.5,2.06,2.06,0,0,0,1.06.84,7.37,7.37,0,0,0,2,.37v0.4q-1.28-.07-2.56-0.1t-2.56,0q-1.25,0-2.46,0t-2.43.1v-0.4a6.8,6.8,0,0,0,1.89-.37,2.07,2.07,0,0,0,1-.84,3.43,3.43,0,0,0,.44-1.5q0.08-.93.08-2.35V478q0-1.42-.08-2.35a3.44,3.44,0,0,0-.44-1.5,2.06,2.06,0,0,0-1.06-.84,7.28,7.28,0,0,0-1.92-.37V472.5q1.42,0.07,2.75.1t2.75,0q1.11,0,2.23,0t2.19-.1v0.41a6.7,6.7,0,0,0-1.86.37,2,2,0,0,0-1,.84,3.59,3.59,0,0,0-.42,1.5q-0.08.93-.08,2.35v4.12H69.61V478Z" transform="translate(-27.16 -22.71)"/><path class="cls-1" d="M102.31,494.57H96.24a59.15,59.15,0,0,1-3.93-4.78,38.79,38.79,0,0,1-3.22-5.18,6.8,6.8,0,0,1-.86-0.07l-1.08-.15q-0.56-.08-1.08-0.2T85.2,484v5.26q0,1.42.08,2.35a3.42,3.42,0,0,0,.44,1.5,2.06,2.06,0,0,0,1.06.84,7.37,7.37,0,0,0,2,.37v0.4q-1.28-.07-2.56-0.1t-2.56,0q-1.25,0-2.46,0t-2.43.1v-0.4a6.8,6.8,0,0,0,1.89-.37,2.07,2.07,0,0,0,1-.84,3.43,3.43,0,0,0,.44-1.5q0.08-.93.08-2.35V478q0-1.42-.08-2.35a3.44,3.44,0,0,0-.44-1.5,2.07,2.07,0,0,0-1-.84,6.81,6.81,0,0,0-1.89-.37V472.5q1.08,0.07,2.16.1t2.16,0q0.47,0,1.18-.05l1.5-.12,1.6-.12q0.81,0,1.45-.05a12.46,12.46,0,0,1,3,.37,8.53,8.53,0,0,1,2.73,1.18,6.7,6.7,0,0,1,2,2.06,5.52,5.52,0,0,1,.78,3,4.94,4.94,0,0,1-.42,2.09,5.16,5.16,0,0,1-1.13,1.59A6,6,0,0,1,94,483.67a8.91,8.91,0,0,1-2,.64q0.47,0.81,1.11,1.82t1.43,2.06q0.79,1,1.69,2.08a16.3,16.3,0,0,0,1.89,1.86,12.1,12.1,0,0,0,2,1.38,5.59,5.59,0,0,0,2.13.66v0.41ZM85.2,482.83a8.8,8.8,0,0,0,3.14.57,6.19,6.19,0,0,0,4.08-1.21,4.88,4.88,0,0,0,1.45-3.95,4.64,4.64,0,0,0-.42-2,4.78,4.78,0,0,0-1.16-1.55,5.32,5.32,0,0,0-1.7-1,5.76,5.76,0,0,0-2-.35q-0.84,0-1.65.07a7.68,7.68,0,0,0-1.59.3q-0.07,1.62-.1,3.27t0,3.58v2.29Z" transform="translate(-27.16 -22.71)"/><path class="cls-1" d="M103.36,494.3a6.8,6.8,0,0,0,1.89-.37,2.07,2.07,0,0,0,1-.84,3.43,3.43,0,0,0,.44-1.5q0.08-.93.08-2.35V478q0-1.42-.08-2.35a3.44,3.44,0,0,0-.44-1.5,2.06,2.06,0,0,0-1.06-.84,7.28,7.28,0,0,0-1.92-.37V472.5q1.42,0.07,2.75.1t2.75,0q1.11,0,2.23,0t2.19-.1v0.41a6.7,6.7,0,0,0-1.86.37,2,2,0,0,0-1,.84,3.59,3.59,0,0,0-.42,1.5q-0.08.93-.08,2.35v11.27q0,1.42.08,2.35a3.42,3.42,0,0,0,.44,1.5,2.06,2.06,0,0,0,1.06.84,7.37,7.37,0,0,0,2,.37v0.4q-1.28-.07-2.56-0.1t-2.56,0q-1.25,0-2.46,0t-2.43.1v-0.4Z" transform="translate(-27.16 -22.71)"/><path class="cls-1" d="M131.47,478.91a12.73,12.73,0,0,0-1.13-2.14,9.68,9.68,0,0,0-1.6-1.89,7.82,7.82,0,0,0-2-1.33,5.81,5.81,0,0,0-2.43-.51,6.28,6.28,0,0,0-3.16.71,2.67,2.67,0,0,0-1.23,2.53,3.17,3.17,0,0,0,.56,1.87,5.38,5.38,0,0,0,1.48,1.4,13.77,13.77,0,0,0,2.11,1.11l2.41,1q1.23,0.52,2.41,1.13a9.72,9.72,0,0,1,2.11,1.45,6.63,6.63,0,0,1,1.48,2,5.9,5.9,0,0,1,.56,2.67,6.24,6.24,0,0,1-.61,2.85,5.62,5.62,0,0,1-1.64,2,7,7,0,0,1-2.4,1.15,11.12,11.12,0,0,1-2.92.37,10.36,10.36,0,0,1-1.76-.16q-0.91-.16-1.75-0.35l-1.54-.35a5.28,5.28,0,0,0-1.1-.16,2.14,2.14,0,0,0-.71.12l-0.71.25q-0.3-1.92-.71-3.75t-0.84-3.75l0.44-.24a24.54,24.54,0,0,0,1.47,2.45,15,15,0,0,0,1.94,2.33,10.63,10.63,0,0,0,2.38,1.76,5.81,5.81,0,0,0,2.82.71,8.09,8.09,0,0,0,1.89-.22,4.83,4.83,0,0,0,1.6-.69A3.41,3.41,0,0,0,130,492a3.93,3.93,0,0,0,.41-1.87,3.75,3.75,0,0,0-1-2.65,9.39,9.39,0,0,0-2.43-1.85,28.47,28.47,0,0,0-3.16-1.47,23.44,23.44,0,0,1-3.16-1.52,9.26,9.26,0,0,1-2.43-2,4.3,4.3,0,0,1-1-2.9,5.53,5.53,0,0,1,1.87-4.23,6.08,6.08,0,0,1,2-1.16,7.11,7.11,0,0,1,2.41-.4,13.53,13.53,0,0,1,2.24.17q1,0.17,1.94.37l1.92,0.39a10.47,10.47,0,0,0,2,.19q0,1.52.05,3t0.22,2.89h-0.47Z" transform="translate(-27.16 -22.71)"/><path class="cls-1" d="M140.85,494.3a6.8,6.8,0,0,0,1.89-.37,2.07,2.07,0,0,0,1-.84,3.43,3.43,0,0,0,.44-1.5q0.08-.93.08-2.35V473.58a27.46,27.46,0,0,0-3,.13,4.82,4.82,0,0,0-2.08.69,4.77,4.77,0,0,0-1.54,1.71,16.85,16.85,0,0,0-1.3,3.14l-0.44-.14,0.47-6.61q1.42,0.07,2.8.1t2.8,0H150q1.35,0,2.67,0t2.67-.1l0.47,6.61-0.44.14a16.88,16.88,0,0,0-1.3-3.14,4.78,4.78,0,0,0-1.54-1.71,4.87,4.87,0,0,0-2.11-.69,28.85,28.85,0,0,0-3.05-.13v15.66q0,1.42.08,2.35a3.42,3.42,0,0,0,.44,1.5,2.06,2.06,0,0,0,1.06.84,7.37,7.37,0,0,0,2,.37v0.4q-1.28-.07-2.56-0.1t-2.56,0q-1.25,0-2.46,0t-2.43.1v-0.4Z" transform="translate(-27.16 -22.71)"/><path class="cls-1" d="M158.37,494.3a6.8,6.8,0,0,0,1.89-.37,2.07,2.07,0,0,0,1-.84,3.43,3.43,0,0,0,.44-1.5q0.08-.93.08-2.35V478q0-1.42-.08-2.35a3.44,3.44,0,0,0-.44-1.5,2.06,2.06,0,0,0-1.06-.84,7.28,7.28,0,0,0-1.92-.37V472.5q1.42,0.07,2.75.1t2.75,0q1.11,0,2.23,0t2.19-.1v0.41a6.7,6.7,0,0,0-1.86.37,2,2,0,0,0-1,.84,3.59,3.59,0,0,0-.42,1.5q-0.08.93-.08,2.35v11.27q0,1.42.08,2.35a3.42,3.42,0,0,0,.44,1.5,2.06,2.06,0,0,0,1.06.84,7.37,7.37,0,0,0,2,.37v0.4q-1.28-.07-2.56-0.1t-2.56,0q-1.25,0-2.46,0t-2.43.1v-0.4Z" transform="translate(-27.16 -22.71)"/><path class="cls-1" d="M177.27,484.82L175,490.93l-0.19.47a1.12,1.12,0,0,0-.08.44,1.61,1.61,0,0,0,.35,1,3,3,0,0,0,.86.73,5.33,5.33,0,0,0,1,.46,7.85,7.85,0,0,0,.91.24v0.4q-1-.07-2-0.1t-2.06,0q-1,0-2,0t-2,.1v-0.4a4.55,4.55,0,0,0,2.9-1.89,8.54,8.54,0,0,0,.83-1.48q0.35-.81.69-1.69l5.84-14.34,0.19-.44a1,1,0,0,0,.08-0.37,1.71,1.71,0,0,0-.12-0.51A3.06,3.06,0,0,0,180,473a7.62,7.62,0,0,0,1.52-.44l1.42-.57,7,19.3a5,5,0,0,0,1.32,2.08,4.48,4.48,0,0,0,2.5,1v0.4q-1.35-.07-2.65-0.1t-2.72,0h-1.59l-1.21,0-1,.05-1.06.07v-0.4a6.18,6.18,0,0,0,2.38-.73,1.68,1.68,0,0,0,1-1.5,1.35,1.35,0,0,0-.12-0.54,3.93,3.93,0,0,1-.19-0.51l-2.19-6.21h-7.05Zm3.65-9.58-3.31,8.57H184Z" transform="translate(-27.16 -22.71)"/><path class="cls-1" d="M194.21,472.5l2.24,0.1q1.06,0,2.48,0,0.74,0,1.45,0t1.45-.1q0.44,0.61,1.45,1.84l2.31,2.82,2.78,3.38q1.48,1.79,2.87,3.49t2.55,3.17q1.17,1.47,1.84,2.41h0.07c0-.67,0-1.34,0-2s0-1.33,0-2v-3.91q0-2.16-.15-3.76a9.17,9.17,0,0,0-.61-2.68,3.68,3.68,0,0,0-1.28-1.65,4.33,4.33,0,0,0-2.18-.67V472.5q1.18,0.07,2.38.1t2.38,0q1.08,0,2.19,0c0.74,0,1.47-.06,2.2-0.1v0.41a4.39,4.39,0,0,0-2.92,1.23,4.58,4.58,0,0,0-.79,3V495h-1.25q-1.86-2.9-3.93-5.64t-4.12-5.2q-2-2.46-3.95-4.57l-3.43-3.76q0,0.88-.05,1.72t0,1.72v5.91q0,3,.12,4.74a7.34,7.34,0,0,0,.57,2.67,2.36,2.36,0,0,0,1.35,1.25,11.06,11.06,0,0,0,2.48.49v0.4q-1.72-.07-3.34-0.1t-3.34,0q-1,0-1.92,0t-1.92.1v-0.4q1.15-.17,2-0.32a3.87,3.87,0,0,0,1.42-.51,2.21,2.21,0,0,0,.84-1,5.11,5.11,0,0,0,.32-1.84l0.4-15.49a9,9,0,0,0-2.36-1.38,21.18,21.18,0,0,0-2.63-.84V472.5Z" transform="translate(-27.16 -22.71)"/></svg>