<svg id="Logo_-_Impact" data-name="Logo - Impact" xmlns="http://www.w3.org/2000/svg" viewBox="0 0 869.61 506.23"><defs><style>.cls-1{fill:#0b6630;}.cls-2{fill:#5b5953;}</style></defs><title>Logo - Impact - Color</title><path id="Tree_Symbol" data-name="Tree Symbol" class="cls-1" d="M547.8,254.62l-0.16-1.75c1.21-.35,1.31-0.43,1.75-1.91-0.5-.78-1.09-0.73-1.91-0.32-0.53-.77,0-1.54.16-2.71a4.46,4.46,0,0,0-3.5,0l-0.48-.32-0.16-1.43-0.64-.64c-0.83-.63-0.65-0.78-1.59-0.32l-0.16-1.43c-1.43-.77-2.87-0.68-4.3-1-0.76-2.11-.65-3-1.59-4.3l-0.32-.64c0.27-.68,1-0.94,1.27-2.07l-0.8-1.12c-1.5.05-1.48,0.21-2.55-.16-0.64.75-1,.63-1.43,1.75a10.74,10.74,0,0,0-4.46.16,5.79,5.79,0,0,0-.48,2.87,1.84,1.84,0,0,0-1.75,1c-1.62-.36-2.51-1.43-3.82-1.75,0.13-2.32-1.93-3.07-3.82-3a17.46,17.46,0,0,1,.8-3.82,1.68,1.68,0,0,0-1.27-.48l0.32-1.12-0.48-.48c-1.42-.5-2.75.17-4.3,0,0.35-1,1-1.06.8-2.23l1.12,0.8,0.48-1.59c-0.52-.75-1.07-0.71-1.91-0.32v-1.12a1.68,1.68,0,0,1-.8-0.64c-0.87-.47-2.9-0.49-3.35,0l-1.27-.48a7.21,7.21,0,0,0-.16-4.78l-0.16-.48c-1.66,0-2.19-.14-3.19.32l0.64-2.55c-1.55-1.23-3-.09-4.78.16a3.79,3.79,0,0,0-3.35-4v-1H497l0.32-1.59-0.64-.64,0.16-1,1,0.48,0.32-1.43c-0.39-.58-0.3-0.58-1.27-0.64a1.54,1.54,0,0,0-.64-1.91l1.12-.48,0.32-1.27-0.16-.48a5.2,5.2,0,0,1-2.23-.8l-2.87,1.27c-1.44.32-3.09-1.22-4.3-.64-0.29-1.51.22-2.42-1.75-2.39,0.06-.78.23-0.69-0.32-1.12l-0.8-.16c-0.1-1.33-.39-1.88,0-3l-0.32-.48c-4-.63-6.19-0.9-9.4.16l-0.64,3-0.8.16c-2.9-2.29-3.29-4.35-7.17-2.23,1-2.52.35-1.9,0.48-4.3l-1.59-.32c0.73-1.44,1.59-2.43,1.59-4.46,1,0,1.19-.12,1.43-1l1.43,0.64,0.48-.48a0.88,0.88,0,0,0,.16-1.12l1.43-.8c-0.08-.79,0-0.62-0.48-1v-0.8l0.48-.16c2.31,0,.41-6,0.32-7.17l-1.12-.32a8.79,8.79,0,0,0-.64-3.19L472.3,171c1.1,0.58,2,.15,1.91-1.43l0.8,1,0.64-1-0.32-2.07v-0.16l0.32,0.32,0.8,0.64c0.57-1.58.13-2.21-.32-3.66l1.43-1.43c0.41-.2,0-0.13.64,0.16l1-1.91L479,161a3.48,3.48,0,0,1-1.91-.48h-0.32l0.32-.48c0.35-.08.11-0.13,0.32,0.16,1.1-.26,1.29-0.65,1.12-1.75l1.27,0.8,0.32-1.43a2.72,2.72,0,0,1-.64-1.12c0.12-.76,1.07-0.9,1.43-1.91l0.64,0.48a2.86,2.86,0,0,0,.8-1.75c-0.7-.72-1.25-0.46-1.91-1.27-0.28-.26-0.17-0.33-0.16-1.12a2.18,2.18,0,0,0,1.12.8L481.7,150l-1-.32v-1c0.74-.57.84-0.84,1.59-0.64l0.64-1.59-0.16-.32a5.21,5.21,0,0,0-2.07,0c0.5-1.06-.05-1.14-0.64-1.91,1.66-.3,2.2-3.71.48-4.3v-0.48a2,2,0,0,0,1.12.48l0.8-.48v-1l-1.27-.8a4.22,4.22,0,0,1-2.07.64v-0.8a3.84,3.84,0,0,0-2.55-.16v-0.64l-3.19-.8a3.4,3.4,0,0,0-.64-1.27c-0.07-.54.5-0.91,0.48-1.59l1,0.8c0.62-.46,1.37-0.14,2.07-1l-0.8-2.39c-1.12-.47-1.77-1.12-2.87-0.64l-0.8-1.59c-1.27-.6-3.18-0.28-4.3-0.48-0.17-1.1-.45-0.55-0.8-1.12-0.84-1.34,0-6,.32-7.33v-0.16a2.2,2.2,0,0,0-2.07,0,1.52,1.52,0,0,1-.8-1.59,4.28,4.28,0,0,0-2.07-.32c0.2-1.83.42-3.27-.16-4.46,1.15-.31,1.27-1,1.59-2.07-0.76-1.14-1.84-2-1.43-3.35-0.5-.78-1.09-0.73-1.91-0.32-0.66-.58-0.55-0.71-0.16-1.75a4.32,4.32,0,0,0-2.71-1.27V103l-1.12-.32L456.53,98,457,98.68a3.09,3.09,0,0,0,1.91-1.59l0.64,0.48a4.07,4.07,0,0,0,1-1.75L462.42,96a1.88,1.88,0,0,0,1.12-1.75l0.8,0.8,0.32-.16c0.34-1.65-.29-4.71-2.55-3.66L461.79,91a5.24,5.24,0,0,1-.32-2.39,15.68,15.68,0,0,0-4.62-.64V86.89c-1.12-.82-2.32-2-4.14-2.07V83.55c-1.57-.69-2.72-0.3-3.66-1.43l-1.27.32v1c-0.59.08-1.27,0.11-1.75,0.16a5.28,5.28,0,0,0-1,3.35c-2.2.41-4.6,1.69-4.78,4.3-1.56.25-2.77-.09-4,0.48a2.62,2.62,0,0,0-1.43-1.27,1,1,0,0,1-.8.32c-0.5.67-.17,0.92,0.32,1.43-1.82-.39-1.91.53-3.66,1.12l-0.32,1.43c-1.19.83-3.49-.16-4.78,0.16-1.08.27-.65,1.1-1.27,1.75-1.27,1.33-3.69,1.82-5.26,3h-0.48c0.06-1.75.65-1.54,0.8-3.19-1.17-.35-2.37-0.26-2.55-1.75l-0.48-.32a3,3,0,0,1-3-1.59c-2.1.6-6.59,0-7.17-3-1.64-.78-6.22-0.57-7.49-0.16l-0.48,2.07c-1.1-.79-2.8-0.41-4,0l-0.32,1.59c-2.57.34-5.83-.52-8.12,0.8-1.7-1.7-3.77-2.27-5.26-4-1.56-.17-7.52.35-7.81,1.91h-0.16l-0.16-.64c-2.15-1-4,.27-5.73.8l-1,2.55a14.76,14.76,0,0,1-3.82-2.07l-0.32-.32c0.52-1,.78-1.09,1.59-1.12l0.64-1.59a6,6,0,0,0-1.75-1.43l1-3.35a8.53,8.53,0,0,0-5.73-1c-0.79-.9-0.4-2.63-0.32-4.62a2.39,2.39,0,0,0-1.27-.32,3.87,3.87,0,0,1,.32-2.39L353.15,74a1.35,1.35,0,0,1-.8.32,0.92,0.92,0,0,0-.16,1.12l-1.27.48L349.33,74c-1,.14-1.32.21-1.43,1.27l-0.64.16a6.14,6.14,0,0,1-.16-2.55,3.4,3.4,0,0,0-1.75-.32c0-1.64-.47-1.74-0.64-3a3.4,3.4,0,0,0-1.75-.32,21.11,21.11,0,0,0-1-5.1V64l1,0.8a3.16,3.16,0,0,0,.64-2.23l1,0.64,0.8-.48a1.67,1.67,0,0,0,.32-1.59l1.12,0.8,0.32-.16a12.21,12.21,0,0,0-1.27-5.89c-0.19-.56,1-2.24,1.27-3s-0.79-1.18-.8-1.91,0.68-1.27-.16-1.91l-0.48-.64c1.07-.64.78-0.87,2.07-0.8L348.06,46a1.13,1.13,0,0,0-1.12-.48c-0.07-.85,0-1.16-0.48-1.59a4.1,4.1,0,0,0-3.82.8h-0.16L342.8,42c-1.94-1-6.23.17-6.85-.48a1.91,1.91,0,0,1,.48-2.39,2.62,2.62,0,0,0-.8-1.27l1.12-.8c-0.09-1-.08-1.5-1.12-1.75,0.49-2.22,1.71-3.27,2.39-5.42,0.46-1.45-.5-1.72-0.8-2.23L337.54,26l-1.75-2.55c-2.24-2.52-8.61-1.29-11.31-1.43-0.16,1.94-1.71,2.66-1.75,5.42a5.41,5.41,0,0,1-4,.64c-0.75.89-2.4,1.76-2.23,3-1.41-.1-10.59-1-11.79-0.32l-2.55,2.87c-1,.3-0.52-0.5-1.12-0.8-1.39-.69-5.06,1.07-5.73,1.91-0.32,1.16-.51,1.84.64,1.75v2.23c0.6,0.22.33,0,.64,0.48a1.5,1.5,0,0,0,1.43-.32h0.16v4.3a2.56,2.56,0,0,0,1.27-.32l0.16,4.14c1.3,0.32,1.4,1.27,2.55,1.91-0.73,1.7-.69,4.64-0.64,7h-0.48a1,1,0,0,0,0,1.27,15,15,0,0,1-5.26,1l-0.32.64,0.64,0.64c-0.7.61-.6,0.52-0.32,1.43a24.24,24.24,0,0,0-4.3,1.27l-0.32,2.71c-0.62.65-2.3,0.66-3.35,1l-0.48,3.66a8.66,8.66,0,0,0-3.19-.48c-0.42-1.27-.18-2.54-2.07-2.55,0.09-.81.12-0.89-0.8-1.12l0.8-2.71a3.38,3.38,0,0,0-2.71-1.75,4.75,4.75,0,0,0,.32-2.23l-4.78-.64c-1.74,1-1.31,1.6-2.07,3.66a3.25,3.25,0,0,1-1.43.64c-0.38.7,0,1.83-.32,2.55-0.17.44-1.09,1.43-1.27,1.91-0.55,1.42.37,2.88,0.32,3.82l-0.8,2.71a2.24,2.24,0,0,0-2.23,1.59c-0.84-.1-0.56,1.07-0.48,2.07a8.87,8.87,0,0,0-3.35,3.66,35.44,35.44,0,0,1-3.5,1.12c-0.65,3,.57,4.82.8,7.17a1.86,1.86,0,0,1,1.27.32l0.32,0.16A25.83,25.83,0,0,1,258.06,91c-2.41-2.38-6-2.79-9.4-1.91l-0.8,1.75a8.91,8.91,0,0,1-1.75.64c-1.06,3.44.35,7.34,0.32,11.15l0.16,0.16a1.61,1.61,0,0,0,1-.64l0.16,2.71c-1.64-.52-3.43,1.35-5.26,1.59-0.41.57-.2,0.72,0,1.43a1.14,1.14,0,0,1-1,.64l-0.32.64,1.12,1.59a1.61,1.61,0,0,0-1.75,1.59c-1.2-.33-1.34-1-2.07-2.07l-1.27.16a2,2,0,0,1-.8-1.91,3.4,3.4,0,0,0-1.75-.32c0.18-1.28.83-1.68,1.27-2.87-0.76-.79-0.72-2.52-1.59-3.19a2,2,0,0,1,.48-0.8,1.74,1.74,0,0,0-1.27-1.59c-0.84.49-2.53,1-2.39,2.07-1.37.21-2.11-.21-3.35,0.32-0.54-1.06-3.39-2.46-4.62-2.71-0.93-.23-1.58.53-2.55,0.8L218.71,98a2.47,2.47,0,0,0-1.59.48c0.13,1.37.39,2.23,1.59,2.55l-0.48,1.27c-1.22-.19-1.69.39-2.71,0.8l-0.32,1.27c-0.13,1.4-.21,2.15,1,2.39v0.64a2,2,0,0,0-1.12.8l-0.32,3.19,1,0.32-0.16,1.91c-1.28.62-1.66-.4-3,0.16l-1.91,1.27c-1.58-.6-2.43-0.17-3.82.48-0.19-1.31-1.47-1.84-2.39-2.39-1.67.88-3.75-.13-4.94,1.59l-0.16.8c-3,.05-3.8.56-5.89,1l-3.82-.8,0.64-3.19c0.82-.47.58-0.28,1.59,0l0.8-1c0.68-.23.28-0.18,1,0.16l0.64-1.59a1.52,1.52,0,0,0-1.27-.48,12.8,12.8,0,0,0,.64-2.55,4.34,4.34,0,0,0-3.82.32c0-.94,0-0.95-0.64-1.27l1.59-5.1-0.32-.48c-1.16-.18-1.65.25-2.71-0.32l-1-1.12c-0.88-.39-2.51.32-2.71,0.16-0.64-.53-0.21-0.82-1.43-1V96.93l-1.12-.32c0-1.09.05-1.46-1-1.75l0.64-1.27c1.4,0.16,1.3-2.4.64-3.35a16.48,16.48,0,0,0,.8-2.23c0.65-.24.26-0.12,1.12,0l0.16-1.91a12.36,12.36,0,0,0,2.23-3.82l-0.32-.48h-1.12l-0.16-.8a1.37,1.37,0,0,1,1.43-.64c1.19-1.45-.12-4.37.64-6.37,0.48-.83.88-0.76,2.07-0.8a1.49,1.49,0,0,0,.48-1.59l1.12,0.8,0.48-1.59a1.06,1.06,0,0,0-.8-0.48l0.8-2.39-0.16-.48a19.35,19.35,0,0,1-3.35-.64l0.48-2.07a2.77,2.77,0,0,0-1.91-1l0.64-2.23-0.16-.48c-6.41-1.58-6.89,5.74-12.9,4.62a15.65,15.65,0,0,1-2.23,2.55c-1,.73-4.31-0.33-6.05.16-0.12.48,0,2-.16,2.39-0.39,1-2,1.66-2.39,4-2.92-.19-4.62-1.63-7.65-0.8a6.31,6.31,0,0,0-3,3,7.12,7.12,0,0,0,1.27,4.14c-2.93-.74-7.54,1.84-8.92,4-0.6.64-5.38,0.37-5.42,0.32-1.06.59-1.85,2.32-2.55,3.5v1.12h1l-0.16.8,0.32,0.48,1-.48a0.91,0.91,0,0,0,1,.64c0.07,1.78.17,2.76,0.16,4.78l-1,.32a6.06,6.06,0,0,0-.16,3.66,14.74,14.74,0,0,0-3.66.16,3,3,0,0,0,.32,2.07,5.59,5.59,0,0,0-3.66,5.1,19.16,19.16,0,0,1-3,.64l-1.12,3.5V114a1.65,1.65,0,0,0,1.27-.16l-0.16,1.59,0.16,0.16a1.61,1.61,0,0,0,1-.64l0.32,0.8h0.48l1-.8-0.16,3.5,1.27-.16v1.91l0.48,0.16,0.8-.8c0.84,3.61,4.51,2.54,4.46,6.53a2,2,0,0,1,1.27,1c0.74,0.44.72,2.15,0.64,3.35a1.89,1.89,0,0,0,1.43-.16c0,5.78-3.23,6.6-4.46,10.67a40.45,40.45,0,0,0-8.6,1c-0.48.69-.12,0.85,0.32,1.43-2.25.62-2.62-.18-5.1-0.32-0.23-1.27-.44-0.45-1-1.12-0.71-.92-0.65-3.87-0.64-5.89a3.84,3.84,0,0,0-2.55-.16c-0.5-1.43-.69-1.94-1.59-2.55s-3.06.06-3.66,0.16c-2.2,2.76-4.89,3.71-4.78,9.56-1.33.45-1.79,1-1.75,2.87a2.77,2.77,0,0,0-1.75.32,8.68,8.68,0,0,0-.16,3l-1.59,1a5.39,5.39,0,0,0,.8,3.82,1.65,1.65,0,0,0,1.43,0v1.59a17.48,17.48,0,0,1,2.87.48v1.43c1,0.14,1.21.2,1.59-.64H111c0.81,2.25,0,3.6,0,6.53a1.65,1.65,0,0,0,1.27-.16c-0.09,1.5-.38,1.93-1.12,2.39L112,167a2.63,2.63,0,0,0-1.59,2.55,9,9,0,0,0-4.3.16,3.75,3.75,0,0,0-.16,2.23h1c-0.75,1-.87,2.21-1.27,3.66-0.11,1.33-.18,2,0.8,2.39-1.14,3.3.79,6.26,0.8,9.56l0.16,0.16a1.61,1.61,0,0,0,1-.64,4,4,0,0,0,.64.8,6.7,6.7,0,0,1-1.59,2.23,2,2,0,0,0-2.07.32L105,191.86c-0.72,1.16-5.54.48-7.81,0.32l0.32-1L97,190.75c-1.35-.52-6.08.19-8.28,0.64,0.7-1.18,2.1-5.89-.8-4.3-0.23-1.44-1.16-1.24-1-2.55-0.88-1.06-2.87-.55-4-0.16a5.22,5.22,0,0,0,0,2.87,6.92,6.92,0,0,1-2.87,1.12c-1.1,1.75-2.44,2.75-2.39,5.58-1.34.82-3.83,1.22-4.78,3.19-0.71,1.48,1.28,2,1.12,3.35a54.74,54.74,0,0,0-.32,8.28,10.13,10.13,0,0,1-2.23,1.91l-0.32.64c1.46,1.88,1.32,2,1.27,4.78l0.16,0.16a1.61,1.61,0,0,0,1-.64l0.32,0.8c0.84,0,.77,0,1.12-0.48,0.37,0.18.27-.13,0.48,0.64l1.27-.48,0.48,0.32c-1.07,1-1.51,1.29-1.43,3.5-0.95.35-1,.84-2.07,1.27-1.93-1.45-2.14-.83-3.82-1.59l-1.27.64a4.37,4.37,0,0,0-.48,2.39l0.48,0.16,0.64-.48,0.8,1.12c-0.36,3.06-1.76,5.27-1.75,8.6-2.27.1-4.35,1.31-6.21,1.43-0.86.06-2.15-.77-3.19-0.48s-2.63,1.05-4.3.64L54,233.28l-1.12,1.12a3.37,3.37,0,0,0,.32,3.19l-1.12.8-0.16,1.91,0.48,0.16,0.8-.8,0.16,0.8c1.28,0.28,2.92-.87,3,1.59a1.13,1.13,0,0,0,.8-0.16,14.66,14.66,0,0,0-.64,2.55c0.67,0.29.76,0.31,1.12-.48a5.6,5.6,0,0,1,1.27,3.35c0.55,0.08.4,0.21,0.8-.16H59.9c-0.21,1.44-.87.85-1.27,1.75l-0.16,3.19L57,254.3H56.88a2.11,2.11,0,0,1,0-1.75l-0.16-.32c-0.94-.43-1.85-0.18-2.87-0.32l-1.12,1a28.31,28.31,0,0,0-.32,7c0.94,0.27,2.49.66,3.35,0.16v2.71c0.45,0.61.66-.11,0.8,1.12A1.89,1.89,0,0,0,58,263.7c0.35,1.33,1.22,3.92,2.39,4.46l-0.48,1,1,1.27c-1,.56-2,0-2.87,1.12-0.45,2.43.74,4.91,1.75,6.53l0.64-.8,1,0.8,1.12-1-0.16,3.66c0.94,0.11,1.06.18,1.43-.64l0.32-.16c0.74,1.34,1.19,1.19,1.12,3.19,0.65,0.27.69,0.09,1,.8-1.12-.19-1.66.46-2.71,0.8l-0.64,2.39c0.15,0.58,0,.32.32,0.64l0.32,0.48-1.12.32a1.84,1.84,0,0,1-.64-1.27c-1-.49-1.93-0.21-2.87-0.48-1.83,2.46-.94,2.7-2.07,5.1l-2.23,1.27,0.32-1c-1.34-2.07-4.41.22-5.73,0.8l-0.64-.48c-0.66-.61-1.32,0-2.23.48-0.4-.28-0.78-1.11-1.12-1.27-1.37-.66-1.45.47-2.39-0.64l-3.35,1.43a3.31,3.31,0,0,0,.48,2.07A3,3,0,0,0,38.4,297a13.73,13.73,0,0,0-2.55.32l-0.32.48a3.49,3.49,0,0,0,.48,2.87l-1.27.32-0.32.48,1.43,1.75,0.64,8.28a7,7,0,0,0-2.55,1.91l0.64,1a9.39,9.39,0,0,1-3.19,1.12l-0.32,2.23,0.16,0.16a1.61,1.61,0,0,0,1-.64l0.32,0.8a2.1,2.1,0,0,0,1.12-.48l1.27,2.55c1.45,0.44,2.23,1,3.66,1.12a22,22,0,0,0-1.27,4.14c0.65,0.93,1.31,2.63,2.71,2.87a6.72,6.72,0,0,1-.8,2.87,4.34,4.34,0,0,0,.48,2.55c-1-.14-3.74,1.4-2.23,3.19l-2.87,1.91-0.16,1.75,0.8,0.32,0.48-.64c0.1,1.13.82,1.25,1,1.91s-0.29,2.37-.16,3.35c-0.27.07-2.13,0.25-2.55,0.32a1.63,1.63,0,0,0-.32,1.27l1.91,2.55,0.8-.64,0.32,0.8,1.91-.8a2.63,2.63,0,0,0,1,1.12v0.48a4.43,4.43,0,0,1-2.23,1L37,353.7l0.16,0.16a1.61,1.61,0,0,0,1-.64l1.12,1.59c-1,.75-1.47,1-1.43,2.87l0.16,0.16a1.61,1.61,0,0,0,1-.64L39.2,358l1.59-.48,0.32,0.8c0.12,0.34-.46,1.32-0.48,2.71l0.16,0.16a0.78,0.78,0,0,0,.8-0.64l0.48,0.8c2.16,0.09,2.84-.64,2.71-2.87a2.65,2.65,0,0,0,1.91-1.75c0.75-.17.27-0.17,1,0.32l0.64-1a6.47,6.47,0,0,1,1.27-.32l0.32,1.12,1-.48,0.16-.32,0.32,1,0.8-.16a1.67,1.67,0,0,0,.32-1.59l0.32,0.32,0.8,0.64a2.83,2.83,0,0,0,.16-2.23c0.79-.08.62,0,1-0.48A2.52,2.52,0,0,0,56.56,355a1.26,1.26,0,0,0,1-1L58,355a1.22,1.22,0,0,0,1.27-1.12c2.1,2.08,3.09,3.45,5.42,4.3l0.16,0.32-0.48,1a11.36,11.36,0,0,0-3-.48,0.83,0.83,0,0,1-.8.48l-0.48,1.12a5.39,5.39,0,0,0,1.27,3.19c-0.35,1-.79,1.19-0.8,2.71,0.79,0.16.72-.06,1.27-0.48l0.32,0.8a1.2,1.2,0,0,0,1.27-1.27,2.83,2.83,0,0,1,2.07,1.59c-1,.69-1.47.9-1.43,2.71l0.16,0.16,1-.48a1.48,1.48,0,0,0,.8.64,7.51,7.51,0,0,1,2.71-1.43l0.16-.16,0.32,0.16-0.32,2.07L69,370.9a1.61,1.61,0,0,0,1-.64,1.33,1.33,0,0,0,.8.8c1.16-.86,1.89-0.8,3.35-1.59l-0.16,1.91,0.32,0.16a2.13,2.13,0,0,0,.8-0.48l0.16-.32,0.32,1,1.59-.64v0.8c0.94,0.11,1.06.18,1.43-.64,0.63,0.28.44,0.08,0.64,0.8l-1.27.48a4.06,4.06,0,0,0-.48,2.23l0.32,0.16a2.13,2.13,0,0,0,.8-0.48l0.16-.32,0.64,2.39a1.5,1.5,0,0,0,1.43-.32c0.22,1.3,1,2.74,2.55,2.87l-0.16,1a1.18,1.18,0,0,0,1-.16l0.8,0.48-0.64,4.3,0.32,0.16a2.13,2.13,0,0,0,.8-0.48l0.16-.32a6.22,6.22,0,0,1,.48,2.55c1.05,0.12,1.28,0,1.59-1h0.16c0.52,1.42,1.41,1.61,1.43,3.5,1,0.12,1.22.07,1.59-.8l0.64,1.27a2.3,2.3,0,0,0,1.75-.8h0.16c0.33,2.2-.41,4.45-0.8,6.53C92,398.33,93,399.69,93,402c0.68,0.21.29,0.41,0.8-.16,1,1.19.7,2.82,0.64,4.46l0.16,0.16,1.12-.64,0.16,0.8h0.48a1.22,1.22,0,0,0,.8-1.59l0.8,0.8c0.65,0.43.6,0.18,1.12-.32l0.32,0.8c1.33-.18,1.62,0,2.71-0.64l0.64,0.64,0.8-.64,0.32,0.8a1.66,1.66,0,0,0,1.43-1.59l0.8,0.64,0.8-1.43,0.32-.32a13.62,13.62,0,0,1,.16,2.23l0.48,0.16,0.64-.8a1.11,1.11,0,0,0,.8.8,1.19,1.19,0,0,0,.64-1.59l1.12,0.8c0.53-1.12.09-1.87,1.12-2.39L112,404.35c0.79,0.16.72-.06,1.27-0.48,0.19,0.71,0,.52.64,0.8a1.61,1.61,0,0,0,1-1.43l0.8,0.64,0.64-1.43,1-.48,0.16,1.43c0.84,0,.79-0.26,1.43-0.8a1.6,1.6,0,0,1,.48,1.12c1.25-.24,1.46-0.93,2.23-1.59l-0.16,1.43,0.16,0.16a1.66,1.66,0,0,0,1.12-.64c0.59,1,.77.79,1.59,0.16v2.23l0.48,0.16,0.64-.64,0.32,0.8,0.8-.16,0.48-1.27,0.32-.16c0.66,1.36-.22,2-0.32,3.66L129.2,408v1.27l0.48,0.32,0.64-.64c1.07,1.08,2,.23,3.19,1l1.43-1c0.2,1.93-.89,2.69-1,4.78l0.16,0.16a1.66,1.66,0,0,0,1.12-.64l0.32,1a1.6,1.6,0,0,0,1.12-.48l0.8,1c-0.21,1.58-1.09,1.33-1.12,3.5l0.16,0.16,1.12-.64,0.16,0.8h0.48l1.27-.8,0.16-.32,0.32,1,0.8-.16a1.67,1.67,0,0,0,.32-1.59l0.32,0.32c1,0.66.4,0.35,1.59,0-0.15,4.94.35,1.64,1.75,4.62,0.63,0.12.61,0.27,1-.32,0.73,0.62,1.88,1.24,2.07,2.39,1.17,0.57,2.37.48,3.66,1.27a1.45,1.45,0,0,0,1.12-.48,1.48,1.48,0,0,0,.8.64,1.19,1.19,0,0,0,.64-1.59l1.12,0.8c2-1.32,3.64-.91,5.58-2.07l-0.16,1.59,0.32,0.16a2.13,2.13,0,0,0,.8-0.48l0.16-.32,0.32,1,0.8-.16a1.43,1.43,0,0,0,.32-1.43l1.12,0.8c0.49-1.07,1.27-1.26,1.59-2.39l0.48,1.12a1.51,1.51,0,0,0,1.43-1.43l0.8,0.64a13.31,13.31,0,0,0,.16-2.39c0.65-.86,1.21-0.49,1.43-1.91a1.07,1.07,0,0,1,1,.16c0.6-.93,1.58-1.61,1.43-2.71l1,0.8c0.78-.91.06-1.56,0.48-2.71,0.31-.87,1.18-0.81,1.43-1.91l0.8,0.48,0.32-.16a3.4,3.4,0,0,0-.16-2.39l1.12,0.8,0.32-1.91c0.74,0,1,.32,1.43-0.48l0.48,0.8a3.89,3.89,0,0,0,2.55-.48,14.13,14.13,0,0,1,1,2.39l0.8-.64a1.48,1.48,0,0,0,.8.64,1.46,1.46,0,0,0,.8-1.27c0.78,0.16,3,.2,3.19.8,2.86-.11,5.43-3,7.33-2.87a6.8,6.8,0,0,0,.32-3.5l0.32-.16,0.32,0.64c0.58-.3.53-0.37,0.64-1.12H198l1,1.12,0.8-.48v1.59l0.32,0.16a2.13,2.13,0,0,0,.8-0.48l0.16-.32,0.32,1c1-.26,1.1-0.71,1.75-1.27a10.66,10.66,0,0,0,1.27,2.87l0.8-.8,0.16,0.8,0.32,0.16c0.75-.4,1.26-0.73,1-1.75a3.29,3.29,0,0,1,1.91,2.87l0.16,0.16a0.78,0.78,0,0,0,.8-0.64l1.43,1.27,1-.16a4.67,4.67,0,0,1,.8-1.27c0.18-.19,1.29-0.47,1.91-1l0.16,0.8c1.37,0.1,3.42-1.95,4.78-2.71,2-.6,5.35,1.37,6.85,2.07,3.76,1.74,5.59,4.69,8.6,7,2.21,1.71,5.06,3.09,7.33,4.62,6.43,4.34,14.34,6.35,20.55,10.83,5.9,4.26,11.42,9.92,16.25,15.29l3.66,4.94c6.61,6.87,14.29,14.6,7.49,27.24-3.16,5.86-10.29,9.08-16.57,11.79-4.51,1.94-12.31-.1-16.73,1.91-2.31,1.05-3.72,3.7-5.89,4.62-1.24.53-3-.09-4.46,0.48-3.68,1.43-7.76,3.09-11.63,4.3l-7.49,1.27-6.37,2.87c-2.63.78-5.28,0.54-7.49,1.75-6,3.3-13.16,5.65-19.91,8.12-2.8,1-4.6,3.26-7.65,4a2.06,2.06,0,0,0-.48,1.43L185.9,519c3.18,0,5-1.4,7.65-2.07,2.32-.58,7.91-0.08,9.4-0.8,1.8-.87,3.23-2.75,4.94-3.5a49.91,49.91,0,0,1,5.58-1.75c7.9-2.42,14.46-4.26,22-6.69l13.86-1.91c4.09-1.54,7.78-4,11.79-5.73l6.37-1.12,6.69-2.23v0.16c-2.6,1.08-4.92,3.38-7.17,4.94-2.72,1.89-5.94,2.47-8.44,4.46-2.14,1.7-3.12,4.48-5.58,5.89-4.51,2.58-11.56,1.51-16.88,3.35-1.78.61-2.69,2.69-4,3.82l-5.58,3.35a43.73,43.73,0,0,0-7.65,8.12l1,0.8c3.93-.33,5.6-3.94,8.44-5.26,1.85-.86,3.14-0.91,4.94-1.75l2.71-1.91c4.1-1.48,8.87-2.42,12.9-3.82,3-1,5.94.34,8.44-1.12,3.2-1.87,4-4.86,6.37-7.49A9.88,9.88,0,0,1,266,505.5c1.8-1.06,3.65-2.71,5.58-3.82,1.65-1,6.4-1.35,9.24-2.71,3.94-1.89,8.41-4.6,13.86-4.78,0,7.12-1.87,10.83-6.37,14.5-3.19,2.59-8.8,6.3-5.58,12.27,0.8,1.3,3.08,1.86,5.42,1.75l0.16-1c-0.93-1-1.59-2.24-3.19-2.55,1.1-3.94,4.22-3.61,6.85-6.21s4.27-5.89,6.69-8.76c1.65-2,3.78-3.78,5.42-5.73,1.22-1.47,1.84-2.91,3.66-3.82l2.39,2.23c3.59,1.65,8.8-.32,11.95,1.75,2.15,1.42,3.59,4.08,5.73,5.26,6.84,3.78,13.62,7.67,21.5,10.51l8.92,0.16c2.69,0.92,6.49-1.52,8.44-.64,1.07,0.48,2.1,2.27,4.3,1.75,1.39-.33,2.07-1.19,3.82-1.27l0.48-.48v-0.8L375,513c-1.23-1.07-3.29.57-4.46,0.16-1.68-.58-2.53-2.37-4.46-2.87h-3.66l-13.7-1.91c-1.32-.43-2.57-2-3.66-2.71s-2.23-.34-3.66-0.8l-3-2.87-4.14-.8c-1.32-2.52-2.68-5.12-4.78-6.85v-0.16c1.73,0.39,4.58.82,6.21,1.27,1.43,0.4,3.22-.79,5.42,0,2.67,1,6.43.84,10.83,1.75l4.94,1.59,6.21,0.32,2.39,1.27c2.1,0.79,3.88.24,5.89,1.12l1.43,1.27h4.46c2.16,0.59,4.77.34,6.69,1,4.59,1.47,8.61,4.3,14.5,4l-0.16-1.27-13.86-7.33c-4.06-1.34-9.11,0-12.74-1.75-1.51-.71-3.59-2.14-5.1-2.87-1.92-.93-4.12-0.5-6.05-1.27l-4.3-2.39c-1.5-.61-3.09.14-4.62-0.16-4-.78-8.9-2.44-12.9-3.5l-6.21-.8c-2.57-.69-11.7-8.38-13.38-10.51-2.81-3.55-3.22-13.49-1.75-18.48l2.07-5.26c1.13-3.84,1.17-7.5,2.39-10.67,6.66-17.27,14.57-34.45,24.69-48.42,2-2.81,2.95-6.08,4.78-9.08l1.75-2.07c0.39-.77,1.85-3,1.12-4,1.86-1.88,12.61-10.63,12.74-12.42l0.32-.16a1.48,1.48,0,0,0,.8.64h0.16a1.55,1.55,0,0,0,.48-1.75l1.12,1,0.48-.48,0.64,1,0.64-.8,1,0.8a1.19,1.19,0,0,0,.64-1.59c1.68,0.73,1.61,1.95,1.91,3.66a11.71,11.71,0,0,0,4.62-.48,0.87,0.87,0,0,0,.64.48c0.79,1.49.28,2.31,0.16,4l0.32,0.16a2.13,2.13,0,0,0,.8-0.48l0.16-.32,0.32,1,0.8-.16a1.43,1.43,0,0,0,.32-1.43,12.35,12.35,0,0,1,1.43.8c0.37,0.49.32,1.85,0.48,2.55l0.48,0.16,0.48-1,0.48,1,0.8-.16a1.43,1.43,0,0,0,.32-1.43,3,3,0,0,1,1.91,1.43l0.8-.64,0.64,0.8a2,2,0,0,0,1.12-1.75l0.8,0.8,0.32-.48c1,0.23,1.18.88,1.75,1.75l0.64-.8a3,3,0,0,1,1.12,1.91l0.32,0.16,0.64-.64,0.32,0.32a4.56,4.56,0,0,0-1,2.55l0.16,0.32,0.48,0.16,0.48-1c0.6,0.8.87,1.66,1.75,1.75l-0.16,1.59,1.43,0.64c-0.08.82-.33,0.53-0.8,1a25,25,0,0,0,1.43,2.71,2,2,0,0,0,1-.64l0.32,0.8,0.8-.16a1.49,1.49,0,0,0,.32-1.59l1.27,0.8a8.05,8.05,0,0,1,4.3-2.07c0.52,2,3.24,2,4.62,1.12v1.12c0.72-.15.47,0,0.8-0.48h0.16l0.16,1.59,0.16,0.16a1.67,1.67,0,0,0,1-.48l0.48,0.64h0.48a1.82,1.82,0,0,0,.8-1.27l0.32-.16,0.64,0.64c0.22-.61.14-1.64,0.32-2.07,0.46-1.13,1.86-.58,1.59-2.23,0.34,0.11.06-.09,0.32,0.16l0.8,0.64,0.48-1.59a2.72,2.72,0,0,0-1.75-1v-0.16c1.42-1.7,2.64-.88,3.5-2.87L424,374.09c1.54-.79,3.87-0.35,4.3-2.55l1,0.48c0.84-1.82,1.58-3.3,3.35-3.19l0.48-1.91-2.23-1c0.18-2.38-.16-2.27-0.16-4.62l0.64,0.32a7.32,7.32,0,0,0,.32-3.82l-1.75-.16a7.61,7.61,0,0,1-1.12-4l0.64,0.32,0.32-.48c-0.09-1.7-1.17-3.05-1.59-4.62h-1.43V345.1a1.88,1.88,0,0,1,1.12-.32l0.32-.48c0.11-1.26.2-1.95-.8-2.23,0-.92,0-1,0.48-1.43,0.29-.46.12-0.12,0.64,0l0.32-.32c0-1.22-.08-1.37-0.64-1.91a0.79,0.79,0,0,0,.64-0.8l0.64,0.48,0.32-.16,0.32-1.43-1.91-2.23c1.12-.41,1.11-1.07,1.91-1l0.48-1.59a1.2,1.2,0,0,0-.8-0.64l0.48-2.07c0.6-.34,1.3-0.26,1.75-1l0.32,0.64c1.17-.32,1-0.84,1.91-0.64a2.39,2.39,0,0,0,.32-1.27c0.74,0.25.51,0.36,1-.32l0.32,0.64c1.17-.32,1-0.84,1.91-0.64l0.32-1.43,0.8-.16c0.28,0,.07-0.06.32,0.32,0.76-.16,2.66-0.7,3-1.27l0.32,0.64c1.58-.34,1.53-1.12,2.87-1.59,0.51-.34.09-0.07,0.8,0.16,1.32-.81,1.3-1.3,2.39-2.07,0.5-.36,1.92-0.34,2.39-0.64,0.83-.52,1.33-2.29,2.23-3.19l0.64,0.32,1.12-2.71c0.29-.46.12-0.12,0.64,0a3.54,3.54,0,0,0,0-2.55c1.27,0.46,1.4-.5,2.39-0.32l0.32-1.12a10.71,10.71,0,0,0,2.87-.48v1.43c2.57-.13,10.57-4.35,11.63-4.14l0.32-1.43c0.57,0.15,5.56-3,7.65-3.5v0.64c0.72-.15.47,0,0.8-0.48,0.5,0.57.21,0.47,1,.48v1.43c0.72-.15.47,0,0.8-0.48l0.32,0.64a1.45,1.45,0,0,0,1.27-1,2.89,2.89,0,0,1,.32,1.91c0.72-.15.47,0,0.8-0.48l0.16,0.8,1-.32L487,309.73c1.22,0.09,1.67.2,2.39-.32l0.16,1c0.72-.15.47,0,0.8-0.48l0.32,0.64a0.83,0.83,0,0,0,.8-0.48l0.16,1.43c0.72-.15.47,0,0.8-0.48l0.32,0.64,1-.48,0.16,0.64c0.72-.15.47,0,0.8-0.48l0.32,0.64,2.23-1v1c0.72-.15.47,0,0.8-0.48l0.32,0.64c1.17-.32,1-0.84,1.91-0.64l0.32-1.59,0.32,0.64a1.45,1.45,0,0,0,1.27-1c0.68,0.39.6-.07,0.8,0.8,0.72-.15.47,0,0.8-0.48l0.32,0.64a10.2,10.2,0,0,0,2.23-1v1.27l1.59,0.32,1-1a1.66,1.66,0,0,0,1.75.32l0.16,1.12a4.29,4.29,0,0,0,3.66-.64l0.8,0.64a1.75,1.75,0,0,0,1-1.43l1.12,0.48c0.34-2.84.28-4.91,0.48-7.81l-1-.8c-0.47-.72-0.35-3.94.16-5.42-0.39-.58-0.3-0.58-1.27-0.64,0.45-1,1.13-1.28.64-2.39l1,0.64a1.22,1.22,0,0,0,1-.32c0.6-.41.46-0.52,0.32-1.27l1,0.32c0.43-1.1.61-.95,1.43-1.59l0.32,0.8,0.8-.16a1.49,1.49,0,0,0,.32-1.59l0.48,0.48,0.64,0.48,0.48-1.91-1-.32a1.63,1.63,0,0,0,.48-1.27L520.09,285a6.36,6.36,0,0,0,.32-2.39,4.47,4.47,0,0,0,1.43.32l0.48-1.43c0.39,0.12.35,0,.64,0.64,2.4-.65,4.08-2.15,5.73-2.87,0.41-.84.2-1-0.16-1.75l0.32-.32,1.43,0.8c1.8-.13,3.15-3.87,2.87-5.1l0.16-.48,1.12,0.32,0.32-2.39c0.77-.44.64-0.21,1.59-0.32a2.06,2.06,0,0,0,.48-1.43l1,0.8c0.61-1.71-.61-2.73.48-4.14,0.33-.2.42,0.18,1.12,0.48,0.62-.63,1.66-0.91,1.75-2.23l1,0.48c1-1.1,2.26-3.18,3.66-2.87,0.33-.82.64-1.58,0-2.07a2.44,2.44,0,0,1,2.39-1.75,7.08,7.08,0,0,0,1-2.07A1.27,1.27,0,0,0,547.8,254.62ZM245.63,405.47c-1.33.84-9.1-5.94-10.35-7.17,0.64-.61,3.15-2.42,4.46-2.23,1.47-2.89,3.35-2.44,4.46-4.14C245.16,393.07,246.63,404.64,245.63,405.47Zm48.42,39.34c-9.08-7.88-16.26-18.07-26.12-25.17-3.51-2.53-7.08-5.23-10.67-7.49-1.06-.67-2.9-1-3.5-2.07-1.61-2.89-2.87-15.23-2.87-19.75,1.53-.53,2.22-0.86,2.87-1.91l0.16,0.64a1.56,1.56,0,0,0,1.43-.64l0.32,0.64,2.07-1h0.16v0.64c0.72-.15.47,0,0.8-0.48L259,388.9l1.12-.48c2.59,6.56,5.22,13.19,9.72,17.84,2.32,2.4,5.43,4,8,6.21C283.39,417.32,295,434.35,294.06,444.81Zm-1.91-33.45-1-.16c-2.63-.94-3.89-4-5.89-5.58-2.79-2.26-5.55-4.69-8.28-6.85l-4-2.87-5.58-11.79v-0.64c2.88,0.39,6.87-4.36,10-3.66a2.39,2.39,0,0,0,.32-1.27l0.48-.16v1c0.72-.15.47,0,0.8-0.48h0.16l-0.16,2.07c0.72-.15.47,0,0.8-0.48a2.1,2.1,0,0,1,.8,1.75c0.72-.15.47,0,0.8-0.48l0.32,0.64a6.24,6.24,0,0,0,3.19-1.75l0.32,0.64c1.17-.32,1-0.84,1.91-0.64,0.41-.94.3-1.82,1.12-2.39,0.29-.46.12-0.12,0.64,0,0.7-1.6.5-4.44,2.55-4L292,373c0.29-.46.12-0.12,0.64,0l0.64-1.75,1,8.44C296.21,388.48,296.57,404.9,292.15,411.36Zm19.27-12.74c-0.72,1.26-2,2.16-2.55,3.66l-1.12,1c-3.1-6.84-3.67-16.92-5.58-24.85-1.12-4.66,0-10.35-1.12-14.34,0.2-.65-0.07-0.33.48-0.48a6.11,6.11,0,0,0,.16-3l0.64,0.32c0.95-1.89.52-3.37,1.43-5.26,0.29-.46.12-0.12,0.64,0,0.46-1.08.28-2.25,1.43-2.71,0.5-.48,1.42-0.16,1.75.8a1.57,1.57,0,0,0,1.59-.48c0.35,0.58.94,1.26,1.59,0.64l0.32,2.23c1.05,0.12,1.28,0,1.59-1l0.64,1.43c1.76-.12,2.66-1.41,4.14-1.43a8,8,0,0,0,1.12-4l0.64-.16c0.28,0,.07-0.06.32,0.32,1.17-.32,1-0.84,1.91-0.64,0.43-.74.57-1.69-0.32-2.07,1.06-.64,1.75-0.78,1.75-2.55l1.59,1,1.59-4.46,2.07-.48,0.16,0.8c1.62-.06,1.21-0.54,2.87-0.48,0.57-.91,1.24-1,1.43-2.39l1.27,1,1.12-2.07h0.64l0.16,2.55,0.8,0.8c0.61,0.34,1.56,0,2.39,0a1.82,1.82,0,0,0,.8-1.27h0.16c2,6.35-5.33,14.25-8.12,18.32-5.61,8.19-11.3,17.27-15.45,26.6Zm37.27-28.67c-2.86,2.64-6.45,4.63-8.76,7.81-1.31,1.8-1.67,3.92-2.87,5.89-1.5,2.46-3.82,4.67-5.42,7l-8.76,15.61c-1.67,2.74-5.38,4.88-6.37,7.49l-0.32.16c0.32-7,5.06-17.26,7.65-22.62l1.12-3.82,2.39-3.82,1.12-4c6.27-9.79,12.44-19.67,18.8-29.47l1,0.48h-0.64l-0.16.64c0.76,1.23.88,1.94,0.8,4.3,1.09,0.21,1.29-.13,2.07,1-0.3.94-.23,1.06-1.12,1.43,0.37,1.87,0,1.62-.32,3.82l0.16,0.32,0.32,0.16,0.64-.8,1,0.8a1.19,1.19,0,0,0,.64-1.59l1.75,1.43C352.54,363.76,349.93,368.8,348.69,369.95Z" transform="translate(-31.07 -21.89)"/><path d="M425.85,423.5q0.56-2,4.47-7.91t9.87-13.77q6-7.91,13.22-17.22t14.33-18.15Q474.8,357.61,481,350t10.14-12.29q3.91-1.3,6.14-2a31.89,31.89,0,0,0,3.54-1.21c0.74,0.25.87,0.62,0.37,1.12a6.44,6.44,0,0,0-2.79,4.28q-0.75,4.28-1.49,10.24t-1.4,12.66q-0.65,6.7-1.21,13.77T493.42,390q-0.37,6.33-.56,11.63t-0.19,8.47a7.42,7.42,0,0,0,.28,2.51,0.69,0.69,0,0,0,.75.56,2,2,0,0,0,1-.75q0.56-.65,1.12-1.4,2-2.6,6.7-8.28t10.61-12.84q6-7.16,12.66-15t12.84-14.8q6.14-7,11.08-12.47t7.35-7.72a46.91,46.91,0,0,1,7.26-2.79,27.84,27.84,0,0,0,6.89-3,1.15,1.15,0,0,1,.93.47,0.8,0.8,0,0,1,0,1,28.35,28.35,0,0,0-4.56,2.23,6.9,6.9,0,0,0-2.33,3.54q-2.23,7.08-4.56,16.47t-4.28,19.27q-2,9.87-3.26,19.26a121.68,121.68,0,0,0-1.3,16.47q0,2.61,1.21,3.63a4.32,4.32,0,0,0,2.89,1,20.83,20.83,0,0,0,3.72-.37,16.26,16.26,0,0,0,3.72-1.12,0.48,0.48,0,0,1,.46.47,0.89,0.89,0,0,1-.28.84l-4.37,1.3-5,1.49-4.65,1.4q-2.14.65-3.63,1a7,7,0,0,1-3.63-.84,4.13,4.13,0,0,1-1.77-3.07,85.93,85.93,0,0,1,1.3-8.56q1.12-6,2.79-13.4t3.63-15.64q2-8.19,3.63-15.17t2.89-11.82q1.21-4.84,1.4-5.77,0.74-2.79,0-2.7a5.3,5.3,0,0,0-2.23,1.4q-3.54,3.17-8.28,8.1T535.58,366q-5.31,6-10.89,12.66t-11,13.4q-5.4,6.7-10.24,13.12T494.9,417c-0.25.5-.56,1.09-0.93,1.77a11.45,11.45,0,0,0-.93,2.33,14.77,14.77,0,0,0-5.3,1,15.27,15.27,0,0,0-3.63,2.51c-0.74.25-1.18,0.12-1.3-.37q0.56-3.91,1.21-10.42t1.3-14.33q0.65-7.82,1.21-16.1t1.12-15.64q0.56-7.35.93-12.94t0.56-8q0-3.53-3,0-5.4,6.14-12.75,15.45t-14.8,19.36q-7.45,10.05-14.05,19.73T434,418.11q-3.35,6.14-4,9.31a18.36,18.36,0,0,0-.47,5.21c0.12,1.36,0,2-.37,1.77a3,3,0,0,1-1.12-1.4,12.39,12.39,0,0,1-.93-3.35Q426.78,427.41,425.85,423.5Z" transform="translate(-31.07 -21.89)"/><path d="M636.37,395.77q-4.28,5.21-9.4,10.52a122.27,122.27,0,0,1-10.33,9.59,57.37,57.37,0,0,1-10.33,6.89,21,21,0,0,1-9.4,2.61q-3.73,0-5.21-1.86a7.2,7.2,0,0,1-1.49-4.65,21.91,21.91,0,0,1,1.58-7,49.35,49.35,0,0,1,4.75-9.4q-2.42,3.17-5.58,6.7a70.51,70.51,0,0,1-6.51,6.42,45.2,45.2,0,0,1-6.7,4.84,12.16,12.16,0,0,1-6,2q-3.91,0-3.91-3.91,0-4.28,3.35-10.8a55.58,55.58,0,0,1,9-12.56,60.44,60.44,0,0,1,12.94-10.42,28.84,28.84,0,0,1,15.08-4.37,10.47,10.47,0,0,1,1.68-2.61,5.84,5.84,0,0,1,1.49-1.12l5.21-1.49,0.37,0.19a12,12,0,0,0-1.77,2.33q-0.84,1.4-1.77,2.89,0.93,0,2.79.19t2.79,0.37a1.16,1.16,0,0,1,.93.93,0.49,0.49,0,0,1-.56.56,15.57,15.57,0,0,0-3.35-.56q-2.23-.18-3.35-0.19-8.56,15.08-12.56,23.92t-4,13.12a4.52,4.52,0,0,0,.84,2.79q0.84,1.12,3.44,1.12a15.88,15.88,0,0,0,7.07-2.14,52.19,52.19,0,0,0,8.75-6,121.4,121.4,0,0,0,9.59-8.84,140.3,140.3,0,0,0,9.4-10.61c0.25-.37.49-0.46,0.74-0.28A1,1,0,0,1,636.37,395.77Zm-29-14.15a19.48,19.48,0,0,0-12.1,4.47A53.11,53.11,0,0,0,585,396.61a66.55,66.55,0,0,0-7.17,12q-2.7,6-2.7,8.75c0,1,.37,1.49,1.12,1.49a7.63,7.63,0,0,0,3.44-1.49,51.46,51.46,0,0,0,5.31-4,66.12,66.12,0,0,0,6-5.86,60,60,0,0,0,5.68-7.26q3-4.47,5.77-9.49t5-8.93Z" transform="translate(-31.07 -21.89)"/><path d="M670.25,371.57a6.85,6.85,0,0,1-.93,3.35q-9.31,17.31-16.75,30.62t-14.15,24.57q-6.7,11.26-13.22,21.78t-13.77,22.43a157.09,157.09,0,0,1-12.94,17.78A84.09,84.09,0,0,1,583,506.43a72.08,72.08,0,0,1-18.43,9.49,66.55,66.55,0,0,1-21.87,3.44q-8.75,0-14.43-2.33a22.45,22.45,0,0,1-8.93-6.24,22.7,22.7,0,0,1-4.56-8.93,41.44,41.44,0,0,1-1.3-10.42,32.49,32.49,0,0,1,.37-4.75,20.28,20.28,0,0,1,.93-4,0.79,0.79,0,0,1,.74-0.74c0.37,0,.56.31,0.56,0.93q-0.37,1.3-.75,3.07a18.57,18.57,0,0,0-.37,3.82A21.82,21.82,0,0,0,517.8,501a22.72,22.72,0,0,0,7.72,7.82,38.71,38.71,0,0,0,11.63,4.65,62.31,62.31,0,0,0,14.33,1.58,52.34,52.34,0,0,0,16.1-2.61,54.65,54.65,0,0,0,16.1-8.66,89.58,89.58,0,0,0,15.73-15.73,151,151,0,0,0,15.17-23.83q4.84-8.94,10.24-19T635.25,426l9-16.57q4-7.35,5.86-10.7-3.73,5-7.26,9.49t-6.61,7.82a36.8,36.8,0,0,1-5.86,5.3,9.07,9.07,0,0,1-5,2,3.79,3.79,0,0,1-2.79-1.12,4.83,4.83,0,0,1-1.12-3.54q0-2.79,2.33-7.91a71.8,71.8,0,0,1,6.14-10.7,81.6,81.6,0,0,1,8.66-10.61,35,35,0,0,1,9.87-7.45,19.83,19.83,0,0,1,8.93-2.23,9,9,0,0,1,2,.19q1.49-2.6,3.07-5.21t3.26-5.58q1.3-2.42,2.42-2.42,0.74,0,1.4,1.67A8.77,8.77,0,0,1,670.25,371.57Zm-11.91,11a4.92,4.92,0,0,0-1.49-.19h-1.3a25.3,25.3,0,0,0-4.93.46,8.38,8.38,0,0,0-4,2,44.38,44.38,0,0,0-8,8.75A70.07,70.07,0,0,0,633,403a49.57,49.57,0,0,0-3.26,8.47,24.37,24.37,0,0,0-1,5.49c0,1.37.37,2,1.12,2s2.23-1.05,4.47-3.17a84.13,84.13,0,0,0,7.54-8.38q4.19-5.21,8.66-11.73A111.66,111.66,0,0,0,658.33,382.55Z" transform="translate(-31.07 -21.89)"/><path d="M728.5,397.26a101.36,101.36,0,0,1-7.72,9.4,70.13,70.13,0,0,1-9.31,8.47,57.35,57.35,0,0,1-10.05,6.14,23.26,23.26,0,0,1-10,2.42,12.36,12.36,0,0,1-4.09-.65q-1.86-.65-1.86-3.26a16.55,16.55,0,0,1,1.86-6.61q1.86-4,4.37-8.47t5.21-9.12a80.69,80.69,0,0,0,4.37-8.56,2,2,0,0,0,.09-1.58q-0.28-.65-1.21-0.09a57,57,0,0,0-4.84,3.54q-2.79,2.23-5.68,4.75t-5.58,5.12a56.14,56.14,0,0,0-4.37,4.65q-3,4.66-5.12,8.56t-5.3,8.75a2.19,2.19,0,0,1-1.12,1.12q-0.93,0-1.58-2a12.08,12.08,0,0,1-.65-2.61q0-1.68,2.33-4.56t5.12-6.42q3-6,6.14-12.56t5.4-11.82a1.83,1.83,0,0,1,1.67-.93,3.2,3.2,0,0,1,3,3q0,0.75-2.7,5.12a89.71,89.71,0,0,0-5.3,10.14q3.53-3.16,7.72-6.7t8-6.51q3.81-3,6.7-4.93t4-2a1.81,1.81,0,0,1,1.4.84,2.64,2.64,0,0,1,.65,1.58,5,5,0,0,1-.93,2.23q-2.05,3-5,7.63t-5.68,9.59a98.47,98.47,0,0,0-4.56,9.4,19.83,19.83,0,0,0-1.86,7.07,4,4,0,0,0,.93,3.07,4.37,4.37,0,0,0,3,.84,15.71,15.71,0,0,0,7.45-2.42,68.41,68.41,0,0,0,8.84-6,75.87,75.87,0,0,0,8.66-8.1,62.8,62.8,0,0,0,6.7-8.56,0.84,0.84,0,0,1,1.12-.28Q729.43,396.14,728.5,397.26Z" transform="translate(-31.07 -21.89)"/><path d="M780.44,389.63a37.94,37.94,0,0,1-7.72,7.72,16.7,16.7,0,0,1-10.33,3.44,13.47,13.47,0,0,1-6.24-1.58,12.05,12.05,0,0,1-4.93-4.75q-1.3,3-3.35,6.79a64.9,64.9,0,0,1-4.84,7.63,47.71,47.71,0,0,1-6.24,7,34.46,34.46,0,0,1-7.35,5.21,14.44,14.44,0,0,1-5.58,1.49q-6.7,0-6.7-6a21.16,21.16,0,0,1,1.21-6.89,42.32,42.32,0,0,1,3.07-6.89,63.82,63.82,0,0,1,4-6.33,39.37,39.37,0,0,1,4-4.84,38.87,38.87,0,0,1,8.93-7.26,25.83,25.83,0,0,1,10.8-3.54,30.59,30.59,0,0,1,1.12-3.44,3.41,3.41,0,0,1,2.61-2.33l1.86-.37a6.52,6.52,0,0,0,1.67-.56,1.05,1.05,0,0,1,1.12-.09c0.37,0.19.43,0.53,0.19,1a15.48,15.48,0,0,0-2,5.21,34,34,0,0,0-.65,6.89,16.82,16.82,0,0,0,2,8.56q2,3.35,6.79,3.35a13.55,13.55,0,0,0,8.75-3.16,33.9,33.9,0,0,0,6.51-6.89,0.82,0.82,0,0,1,1.21-.56C780.9,388.76,780.93,389.13,780.44,389.63Zm-30.71,1.3a28.71,28.71,0,0,1-.56-3.91q-0.19-2.23-.19-4.28a0.75,0.75,0,0,0-.74-0.93,8.1,8.1,0,0,0-4.28,1.4,23.73,23.73,0,0,0-4.47,3.72,57.92,57.92,0,0,0-4.47,5.31,65.61,65.61,0,0,0-4.09,6.14,69,69,0,0,0-4.37,8.84,21.22,21.22,0,0,0-1.77,9,6.21,6.21,0,0,0,.46,2.42,2.05,2.05,0,0,0,2.14,1.12q3.16,0,6.89-3.54a55.54,55.54,0,0,0,7.07-8.28,67,67,0,0,0,5.68-9.59A28.52,28.52,0,0,0,749.73,390.93Z" transform="translate(-31.07 -21.89)"/><path d="M853.4,299.91q0,2.61-2,7.63a97.6,97.6,0,0,1-5.86,11.63,161.68,161.68,0,0,1-9.31,14.15,157.67,157.67,0,0,1-12.47,15,153.57,153.57,0,0,1-15.36,14.24,119.66,119.66,0,0,1-17.87,12q-1.68,3-4.65,8T780,393.16q-2.89,5.58-5,11a25.69,25.69,0,0,0-2.14,9.12q0,6,5.4,6a21,21,0,0,0,9.68-2.61,55.52,55.52,0,0,0,9.59-6.33,94.46,94.46,0,0,0,8.56-7.91q4-4.19,6.79-7.54,1.3-1.3,1.49-.65a1.45,1.45,0,0,1-.56,1.4q-3.35,4.1-7.91,8.75a90.36,90.36,0,0,1-9.68,8.56,58.09,58.09,0,0,1-10.7,6.51A26.18,26.18,0,0,1,774.29,422q-4.84,0-7-2.33a8.07,8.07,0,0,1-2.14-5.68q0-3.35,2.88-9.59t6.79-13.12q3.91-6.88,7.82-13t5.77-9.31L795,357.71q3.44-5.86,6.79-11.45l6.42-10.7q3.07-5.12,5.68-9,3.16-4.84,6.51-9.12a55.78,55.78,0,0,1,8.56-8.56,76.66,76.66,0,0,1,13-9.12q6-3.16,8-3.16a3.48,3.48,0,0,1,2.42.84A3.21,3.21,0,0,1,853.4,299.91ZM845,304.75q0-3-2.42-3a4.63,4.63,0,0,0-2,.56,12.59,12.59,0,0,0-2.88,2.33,60.09,60.09,0,0,0-4.28,4.93q-2.51,3.17-6.42,8.19-1.49,2.05-4.19,6t-6.89,10.33q-4.19,6.42-10.05,15.82L792,372.13a112.55,112.55,0,0,0,20.94-15.36,135.87,135.87,0,0,0,16.84-18.52,103,103,0,0,0,11.17-18.43Q845,310.89,845,304.75Z" transform="translate(-31.07 -21.89)"/><path d="M846.14,396.89a84.57,84.57,0,0,1-10.24,11,88.42,88.42,0,0,1-10.61,8.38,33.26,33.26,0,0,1-7.63,3.72,22.58,22.58,0,0,1-7.07,1.3,21.15,21.15,0,0,1-2.61-.19,6.59,6.59,0,0,1-2.7-.93,6.74,6.74,0,0,1-2-2,5.62,5.62,0,0,1-.84-3.26,17.65,17.65,0,0,1,1.86-6.61q1.86-4.19,4.37-8.66t5-8.56q2.51-4.09,4-6.14a7,7,0,0,1,3.26-2.51,10.35,10.35,0,0,1,3.07-1c0.62,0,.93.19,0.93,0.56a3.53,3.53,0,0,1-.28,1.12,3.13,3.13,0,0,1-.65,1.12q-2.42,3.73-4.93,8.19t-4.56,8.66a67,67,0,0,0-3.26,7.73,18.46,18.46,0,0,0-1.21,5.58,4,4,0,0,0,1.21,3.26,4.86,4.86,0,0,0,3.26,1,17,17,0,0,0,8.19-2.51,64,64,0,0,0,8.84-6,85,85,0,0,0,8.1-7.45,72,72,0,0,0,5.77-6.7c0.62-.62,1-0.77,1-0.47A2.75,2.75,0,0,1,846.14,396.89Zm-8.38-41.51a6.82,6.82,0,0,1-2,4.47,5.74,5.74,0,0,1-4.37,2.23,2,2,0,0,1-2.23-2.23,7.4,7.4,0,0,1,1.77-4.65,5.38,5.38,0,0,1,4.37-2.23A2.14,2.14,0,0,1,837.77,355.38Z" transform="translate(-31.07 -21.89)"/><path d="M900.68,395.77q-4.28,5.21-9.4,10.52A122.27,122.27,0,0,1,881,415.87a57.37,57.37,0,0,1-10.33,6.89,21,21,0,0,1-9.4,2.61q-3.73,0-5.21-1.86a7.2,7.2,0,0,1-1.49-4.65,21.91,21.91,0,0,1,1.58-7,49.35,49.35,0,0,1,4.75-9.4q-2.42,3.17-5.58,6.7a70.51,70.51,0,0,1-6.51,6.42,45.2,45.2,0,0,1-6.7,4.84,12.16,12.16,0,0,1-6,2q-3.91,0-3.91-3.91,0-4.28,3.35-10.8a55.58,55.58,0,0,1,9-12.56,60.44,60.44,0,0,1,12.94-10.42,28.84,28.84,0,0,1,15.08-4.37,10.47,10.47,0,0,1,1.68-2.61,5.84,5.84,0,0,1,1.49-1.12l5.21-1.49,0.37,0.19a12,12,0,0,0-1.77,2.33q-0.84,1.4-1.77,2.89,0.93,0,2.79.19t2.79,0.37a1.16,1.16,0,0,1,.93.93,0.49,0.49,0,0,1-.56.56,15.57,15.57,0,0,0-3.35-.56q-2.23-.18-3.35-0.19-8.56,15.08-12.56,23.92t-4,13.12a4.52,4.52,0,0,0,.84,2.79q0.84,1.12,3.44,1.12a15.88,15.88,0,0,0,7.07-2.14,52.19,52.19,0,0,0,8.75-6,121.4,121.4,0,0,0,9.59-8.84,140.3,140.3,0,0,0,9.4-10.61c0.25-.37.49-0.46,0.74-0.28A1,1,0,0,1,900.68,395.77Zm-29-14.15a19.48,19.48,0,0,0-12.1,4.47,53.11,53.11,0,0,0-10.24,10.52,66.55,66.55,0,0,0-7.17,12q-2.7,6-2.7,8.75c0,1,.37,1.49,1.12,1.49a7.63,7.63,0,0,0,3.44-1.49,51.46,51.46,0,0,0,5.31-4,66.12,66.12,0,0,0,6-5.86,60,60,0,0,0,5.68-7.26q3-4.47,5.77-9.49t5-8.93Z" transform="translate(-31.07 -21.89)"/><path class="cls-2" d="M633,476.1a12.15,12.15,0,0,1,3.86.58,8.84,8.84,0,0,1,3,1.67,7.39,7.39,0,0,1,2,2.69,9.73,9.73,0,0,1,0,7.22,7.39,7.39,0,0,1-2,2.69,8.82,8.82,0,0,1-3,1.67,13.06,13.06,0,0,1-7.72,0,8.82,8.82,0,0,1-3-1.67,7.37,7.37,0,0,1-2-2.69,9.73,9.73,0,0,1,0-7.22,7.38,7.38,0,0,1,2-2.69,8.83,8.83,0,0,1,3-1.67A12.14,12.14,0,0,1,633,476.1Zm0,0.89a5.45,5.45,0,0,0-2.67.62,5.34,5.34,0,0,0-1.86,1.69,7.54,7.54,0,0,0-1.08,2.44,12.38,12.38,0,0,0,0,5.82,7.51,7.51,0,0,0,1.08,2.46,5.33,5.33,0,0,0,1.86,1.69,6,6,0,0,0,5.33,0,5.35,5.35,0,0,0,1.86-1.69,7.51,7.51,0,0,0,1.08-2.46,12.35,12.35,0,0,0,0-5.82,7.53,7.53,0,0,0-1.08-2.44,5.35,5.35,0,0,0-1.86-1.69A5.45,5.45,0,0,0,633,477Z" transform="translate(-31.07 -21.89)"/><path class="cls-2" d="M650.32,483.42h1.29a5,5,0,0,0,1.27-.16,3.75,3.75,0,0,0,1.15-.52,3.44,3.44,0,0,0,.93-1,4.38,4.38,0,0,0,.59-1.46h0.5q0,0.87-.06,1.76t0,1.76q0,0.89,0,1.77t0.06,1.77h-0.5a7,7,0,0,0-.5-1.54,2.75,2.75,0,0,0-.77-1,2.92,2.92,0,0,0-1.12-.53,6.54,6.54,0,0,0-1.56-.16h-1.29v5.73a4.49,4.49,0,0,0,.1,1,1.29,1.29,0,0,0,.41.7,1.94,1.94,0,0,0,.89.4,7.55,7.55,0,0,0,1.53.12v0.7l-2.36-.08-2.36,0-2.06,0-2.06.08v-0.7a5.77,5.77,0,0,0,1.33-.12,1.62,1.62,0,0,0,.78-0.4,1.42,1.42,0,0,0,.37-0.7,4.49,4.49,0,0,0,.1-1V480a7.52,7.52,0,0,0-.09-1.22,1.88,1.88,0,0,0-.36-0.87,1.72,1.72,0,0,0-.78-0.53,4.41,4.41,0,0,0-1.35-.21v-0.7l2.54,0.1q1.28,0,2.54,0,2.41,0,4.78,0l4.78-.1q0,0.45,0,.89v0.87q0,0.77,0,1.54a10.76,10.76,0,0,0,.14,1.54h-0.5a5,5,0,0,0-1.85-3,6.57,6.57,0,0,0-3.73-.89h-2.78v6Z" transform="translate(-31.07 -21.89)"/><path class="cls-2" d="M681.29,481.64a7.39,7.39,0,0,0-.73-2.2,3.41,3.41,0,0,0-1.13-1.23,3.9,3.9,0,0,0-1.54-.55,14.27,14.27,0,0,0-2-.12V489.4a10.27,10.27,0,0,0,.08,1.38,1.64,1.64,0,0,0,.35.86,1.59,1.59,0,0,0,.82.47,8.4,8.4,0,0,0,1.49.22v0.5l-2.1-.08-2.12,0-2.26,0-2.31.08v-0.5a8.43,8.43,0,0,0,1.49-.22,1.59,1.59,0,0,0,.82-0.47,1.64,1.64,0,0,0,.35-0.86,10.3,10.3,0,0,0,.07-1.38V477.54a14.25,14.25,0,0,0-2,.12,3.91,3.91,0,0,0-1.54.55,3.41,3.41,0,0,0-1.13,1.23,7.36,7.36,0,0,0-.73,2.2h-0.65c0-.31.06-0.63,0.09-1s0-.68.07-1.08,0-.85.06-1.36,0-1.11,0-1.79l3.67,0.1q1.81,0,3.65,0t3.72,0l3.75-.1q0,1,0,1.79t0.06,1.36c0,0.4,0,.76.07,1.08s0.05,0.64.09,1h-0.55Z" transform="translate(-31.07 -21.89)"/><path class="cls-2" d="M682.8,492.23a11.87,11.87,0,0,0,1.24-.14,1.59,1.59,0,0,0,.79-0.35,1.41,1.41,0,0,0,.42-0.72,4.86,4.86,0,0,0,.12-1.23v-9.68a13.42,13.42,0,0,0-.06-1.44,1.66,1.66,0,0,0-.32-0.87,1.64,1.64,0,0,0-.77-0.5,6.82,6.82,0,0,0-1.38-.27v-0.6q2.13,0.15,4.29.15t4.27-.15V477a7.72,7.72,0,0,0-1.46.27,1.72,1.72,0,0,0-.82.5,1.67,1.67,0,0,0-.35.87,11.26,11.26,0,0,0-.07,1.44v3.28h8.24v-3.28a11.08,11.08,0,0,0-.07-1.44,1.73,1.73,0,0,0-.33-0.87,1.64,1.64,0,0,0-.79-0.5,7.52,7.52,0,0,0-1.48-.27v-0.6q2.21,0.15,4.37.15t4.27-.15V477a7.17,7.17,0,0,0-1.44.27,1.64,1.64,0,0,0-.78.5,1.73,1.73,0,0,0-.33.87,11.08,11.08,0,0,0-.07,1.44v9.68a4.86,4.86,0,0,0,.12,1.23,1.42,1.42,0,0,0,.42.72,1.6,1.6,0,0,0,.81.35,12.46,12.46,0,0,0,1.28.14v0.6l-2.15-.08-2.15,0-2.13,0-2.13.08v-0.6a11.9,11.9,0,0,0,1.24-.14,1.67,1.67,0,0,0,.81-0.35,1.38,1.38,0,0,0,.43-0.72,4.86,4.86,0,0,0,.12-1.23v-5.36H688.7v5.36a4.86,4.86,0,0,0,.12,1.23,1.38,1.38,0,0,0,.43.72,1.69,1.69,0,0,0,.82.35,12.41,12.41,0,0,0,1.25.14v0.6l-2.17-.08-2.17,0-2.1,0-2.1.08v-0.6Z" transform="translate(-31.07 -21.89)"/><path class="cls-2" d="M703.89,492.23a5.75,5.75,0,0,0,1.35-.21,1.6,1.6,0,0,0,.78-0.5,1.81,1.81,0,0,0,.36-0.86,7.88,7.88,0,0,0,.09-1.27V480a7.52,7.52,0,0,0-.09-1.22,1.9,1.9,0,0,0-.36-0.87,1.71,1.71,0,0,0-.78-0.53,4.42,4.42,0,0,0-1.35-.21v-0.7l2.54,0.1q1.28,0,2.54,0,2.41,0,4.79,0l4.86-.1q0,0.45,0,.89v0.87q0,0.77,0,1.51a6.8,6.8,0,0,0,.17,1.37l-0.55.1a5.4,5.4,0,0,0-1.9-2.84,6.34,6.34,0,0,0-3.78-1H709.8v6h1.29a5,5,0,0,0,1.27-.16,3.74,3.74,0,0,0,1.15-.52,3.43,3.43,0,0,0,.93-1,4.38,4.38,0,0,0,.6-1.46h0.5q0,0.87-.06,1.76t0,1.76q0,0.89,0,1.77t0.06,1.77H715a5,5,0,0,0-.57-1.54,3.4,3.4,0,0,0-.87-1,3.16,3.16,0,0,0-1.13-.53,5.57,5.57,0,0,0-1.38-.16H709.8v7.37a8.14,8.14,0,0,0,1.33.26,13.71,13.71,0,0,0,1.63.09,8.51,8.51,0,0,0,4.39-1.15,9.3,9.3,0,0,0,3.33-3.59l0.47,0.35q-0.62,1.32-1.18,2.63a27,27,0,0,0-1,2.71l-3.85-.08-3.85,0h-4.33l-1.66,0-1.2,0v-0.6Z" transform="translate(-31.07 -21.89)"/><path class="cls-2" d="M737.86,476.1a12.15,12.15,0,0,1,3.86.58,8.84,8.84,0,0,1,3,1.67,7.39,7.39,0,0,1,2,2.69,9.73,9.73,0,0,1,0,7.22,7.39,7.39,0,0,1-2,2.69,8.82,8.82,0,0,1-3,1.67,13.06,13.06,0,0,1-7.72,0,8.82,8.82,0,0,1-3-1.67,7.37,7.37,0,0,1-2-2.69,9.73,9.73,0,0,1,0-7.22,7.38,7.38,0,0,1,2-2.69,8.83,8.83,0,0,1,3-1.67A12.14,12.14,0,0,1,737.86,476.1Zm0,0.89a5.45,5.45,0,0,0-2.67.62,5.34,5.34,0,0,0-1.86,1.69,7.54,7.54,0,0,0-1.08,2.44,12.38,12.38,0,0,0,0,5.82,7.51,7.51,0,0,0,1.08,2.46,5.33,5.33,0,0,0,1.86,1.69,6,6,0,0,0,5.33,0,5.35,5.35,0,0,0,1.86-1.69,7.51,7.51,0,0,0,1.08-2.46,12.35,12.35,0,0,0,0-5.82,7.53,7.53,0,0,0-1.08-2.44,5.35,5.35,0,0,0-1.86-1.69A5.45,5.45,0,0,0,737.86,477Z" transform="translate(-31.07 -21.89)"/><path class="cls-2" d="M750.74,481.76q0-.3,0-0.72v-0.87a17.71,17.71,0,0,1,.09-1.85,14.7,14.7,0,0,1,.33-1.87q1.69,0,3.34.09t3.34,0.06l3.54,0q1.75,0,3.54-.12l0.27,0.6q-1.61,1.71-3.09,3.52t-2.89,3.67q-1.42,1.86-2.8,3.75t-2.85,3.72l1,0.09c0.34,0,.67,0,1,0a18.84,18.84,0,0,0,2.88-.21,9.37,9.37,0,0,0,2.52-.74,6.83,6.83,0,0,0,2-1.45,6.53,6.53,0,0,0,1.42-2.33H765a24.48,24.48,0,0,1-.88,2.93,23.73,23.73,0,0,1-1.25,2.8l-3.37-.08-3.37,0-3.33,0-3.32.08-0.42-.52,11.69-15q-2.26,0-4,.1a9.5,9.5,0,0,0-2.85.55,3.76,3.76,0,0,0-1.77,1.33,4.88,4.88,0,0,0-.74,2.44h-0.67Z" transform="translate(-31.07 -21.89)"/><path class="cls-2" d="M765.4,492.23a3.74,3.74,0,0,0,1.15-.29,2.31,2.31,0,0,0,.77-0.56,3.81,3.81,0,0,0,.55-0.81q0.24-.46.48-1.05l4.86-11.34L772.77,477q0.79-.15,1.56-0.36a10.33,10.33,0,0,0,1.49-.53l5.38,14.62a2,2,0,0,0,1,1.15,3.44,3.44,0,0,0,1.51.36v0.6l-1.07,0-1.19,0h-2.23l-2.07,0-2.07.08v-0.6a5.21,5.21,0,0,0,1.91-.42,1,1,0,0,0,.62-1,2.47,2.47,0,0,0-.09-0.57,6.53,6.53,0,0,0-.22-0.71l-0.27-.72-0.24-.61L776,485.78h-4.94l-1.27,3.5q-0.12.35-.26,0.67a2.12,2.12,0,0,0-.14.82,0.82,0.82,0,0,0,.21.55,2,2,0,0,0,.55.43,4,4,0,0,0,.72.31,4.58,4.58,0,0,0,.71.17v0.6l-1.6-.08-1.6,0-1.49,0-1.49.08v-0.6Zm10.25-7.39-2-5.81h0l-2.16,5.81h4.24Z" transform="translate(-31.07 -21.89)"/><path class="cls-2" d="M784,476.5l1.8,0.07,2,0q1.34,0,2.68-.07t2.8-.08a6.77,6.77,0,0,1,2.32.37,5.29,5.29,0,0,1,1.76,1,4.47,4.47,0,0,1,1.12,1.53,4.61,4.61,0,0,1,.38,1.89,3.8,3.8,0,0,1-.29,1.53,3.53,3.53,0,0,1-.78,1.14,4.36,4.36,0,0,1-1.17.81,6.63,6.63,0,0,1-1.46.5q0.52,0.84,1.29,2a22.84,22.84,0,0,0,1.7,2.23,13.45,13.45,0,0,0,2,1.9,5,5,0,0,0,2.18,1v0.45l-1.4-.08-1.4,0-1.24,0-1.24.08a36.79,36.79,0,0,1-2.89-3.47,34.66,34.66,0,0,1-2.42-3.8q-0.42,0-1-.15a2,2,0,0,1-.81-0.3v4.29a12.13,12.13,0,0,0,.06,1.37,1.47,1.47,0,0,0,.32.82,1.51,1.51,0,0,0,.76.43,8,8,0,0,0,1.36.21v0.6q-0.87-.05-1.9-0.08l-2.1,0-2.26,0-2.23.08v-0.6a9.14,9.14,0,0,0,1.45-.21,1.53,1.53,0,0,0,.79-0.43,1.55,1.55,0,0,0,.33-0.82,10,10,0,0,0,.07-1.37V480a9.1,9.1,0,0,0-.07-1.27,1.86,1.86,0,0,0-.33-0.87,1.63,1.63,0,0,0-.79-0.53A6.07,6.07,0,0,0,784,477V476.5Zm6,7.64a3.87,3.87,0,0,0,1.66.37,3.76,3.76,0,0,0,2.64-.92,3.45,3.45,0,0,0,1-2.68,4.13,4.13,0,0,0-.24-1.4,3.31,3.31,0,0,0-.68-1.14,3.16,3.16,0,0,0-1.07-.76,3.41,3.41,0,0,0-1.39-.27,9.19,9.19,0,0,0-1,0,4.27,4.27,0,0,0-1,.22v6.53Z" transform="translate(-31.07 -21.89)"/><path class="cls-2" d="M804.49,479.53a3.49,3.49,0,0,0-.12-0.94,2,2,0,0,0-.42-0.78,2.18,2.18,0,0,0-.79-0.55,3.18,3.18,0,0,0-1.24-.21v-0.6q2.06,0.15,4.07.15,1.12,0,2.25,0l2.25-.1V477a3.43,3.43,0,0,0-1.3.21,2.16,2.16,0,0,0-.81.55,2,2,0,0,0-.42.78,3.49,3.49,0,0,0-.12.94v5l0.71-.58,1.15-1L811,481.7q0.71-.66,1.29-1.29a12.92,12.92,0,0,0,1-1.17,1.65,1.65,0,0,0,.38-0.86,0.88,0.88,0,0,0-.17-0.53,1.71,1.71,0,0,0-.43-0.41,2.32,2.32,0,0,0-.56-0.27A2.58,2.58,0,0,0,812,477v-0.6a16.76,16.76,0,0,0,1.94.14h2l2,0q1,0,2-.12V477a6.79,6.79,0,0,0-2.34.71,13.12,13.12,0,0,0-2,1.32q-1,.76-1.87,1.61t-1.85,1.6l5.09,7.29q0.4,0.57.78,1a5,5,0,0,0,.83.79,4.13,4.13,0,0,0,1,.55,5,5,0,0,0,1.29.29v0.6l-2.25-.08-2.25,0-2.21,0-2.21.08v-0.5l0.55-.12a3.46,3.46,0,0,0,.68-0.22,2.39,2.39,0,0,0,.58-0.36,0.67,0.67,0,0,0,.25-0.53,1.9,1.9,0,0,0-.29-0.68q-0.29-.51-0.73-1.19t-1-1.46q-0.53-.78-1-1.49L809.94,485l-0.57-.79-1.56,1.24v4.24a6.62,6.62,0,0,0,.07,1.05,1.56,1.56,0,0,0,.33.77,1.68,1.68,0,0,0,.78.48,5.59,5.59,0,0,0,1.41.22v0.6l-2.26-.08-2.23,0-2,0-2,.08v-0.6a5.42,5.42,0,0,0,1.4-.22,1.69,1.69,0,0,0,.77-0.48,1.56,1.56,0,0,0,.33-0.77,6.62,6.62,0,0,0,.07-1.05V479.53Z" transform="translate(-31.07 -21.89)"/><path class="cls-2" d="M832.72,481.39a5.4,5.4,0,0,0-.81-1.71,6.89,6.89,0,0,0-1.29-1.39,6.15,6.15,0,0,0-1.6-.94,4.71,4.71,0,0,0-1.76-.35,3.09,3.09,0,0,0-1.9.58,2,2,0,0,0-.78,1.75,1.94,1.94,0,0,0,.71,1.51,7.71,7.71,0,0,0,1.77,1.13q1.07,0.51,2.29,1a13.07,13.07,0,0,1,2.3,1.25,6.89,6.89,0,0,1,1.77,1.75,4.78,4.78,0,0,1,.29,4.47,4.2,4.2,0,0,1-1.19,1.48,5.63,5.63,0,0,1-1.86.94,8.26,8.26,0,0,1-2.43.33,7,7,0,0,1-1.24-.11l-1.23-.25-1.23-.25a6.92,6.92,0,0,0-1.24-.11l-0.26,0-0.35.09-0.36.1-0.27.1q-0.2-1.39-.42-2.8t-0.57-2.85h0.55a6.34,6.34,0,0,0,.89,1.81,8.3,8.3,0,0,0,1.45,1.6,7.21,7.21,0,0,0,1.8,1.13,4.76,4.76,0,0,0,1.91.42,8.17,8.17,0,0,0,1.49-.12,3.49,3.49,0,0,0,1.15-.41,2,2,0,0,0,.74-0.77,2.57,2.57,0,0,0,.26-1.23,2.25,2.25,0,0,0-.72-1.7,7.82,7.82,0,0,0-1.8-1.24q-1.08-.56-2.33-1.08a16.22,16.22,0,0,1-2.33-1.19,6.82,6.82,0,0,1-1.8-1.59,3.54,3.54,0,0,1-.72-2.26,4,4,0,0,1,1.41-3.39,7.17,7.17,0,0,1,4.29-1.05,9.1,9.1,0,0,1,1.44.11q0.69,0.11,1.32.26l1.17,0.26a5.11,5.11,0,0,0,1,.11h0.89q0,0.42,0,.79c0,0.25,0,.5,0,0.77q0,0.72.06,1.49t0.11,1.49h-0.52Z" transform="translate(-31.07 -21.89)"/><path class="cls-1" d="M643,456l-2.77,7.61c-0.08.22-.16,0.42-0.23,0.59a1.4,1.4,0,0,0-.11.55,2,2,0,0,0,.44,1.3,3.73,3.73,0,0,0,1.07.9,6.67,6.67,0,0,0,1.3.57,9.8,9.8,0,0,0,1.14.29v0.5q-1.26-.08-2.52-0.13t-2.56,0q-1.26,0-2.46,0t-2.54.13v-0.5a5.68,5.68,0,0,0,3.62-2.36,10.76,10.76,0,0,0,1-1.85q0.44-1,.86-2.1l7.27-17.87,0.23-.55a1.23,1.23,0,0,0,.11-0.46,2.16,2.16,0,0,0-.15-0.63,3.87,3.87,0,0,0-.36-0.76,9.51,9.51,0,0,0,1.89-.55L650,440l8.75,24.05a6.22,6.22,0,0,0,1.64,2.59,5.58,5.58,0,0,0,3.11,1.2v0.5q-1.68-.08-3.3-0.13t-3.38,0h-2l-1.51,0-1.28.06-1.32.08v-0.5a7.72,7.72,0,0,0,3-.9,2.1,2.1,0,0,0,1.2-1.87,1.68,1.68,0,0,0-.15-0.67,4.92,4.92,0,0,1-.23-0.63L651.79,456H643Zm4.54-11.94-4.12,10.68h7.91Z" transform="translate(-31.07 -21.89)"/><path class="cls-1" d="M689.67,450.26a16.22,16.22,0,0,0-1.45-3.49,11.81,11.81,0,0,0-2.14-2.78,9,9,0,0,0-2.86-1.83,9.66,9.66,0,0,0-3.64-.65,8.94,8.94,0,0,0-4.42,1,8.53,8.53,0,0,0-3,2.73,11.94,11.94,0,0,0-1.68,4A21.19,21.19,0,0,0,670,454a17,17,0,0,0,.67,4.81,12.12,12.12,0,0,0,2,4,9.77,9.77,0,0,0,3.32,2.75,9.89,9.89,0,0,0,4.6,1,11.51,11.51,0,0,0,6.75-2,18.82,18.82,0,0,0,5-5.38l1.05,0.84a37,37,0,0,1-2.86,3.78,16,16,0,0,1-3.11,2.78,13.26,13.26,0,0,1-3.66,1.72,15.6,15.6,0,0,1-4.46.59,13.51,13.51,0,0,1-5.34-1.07,13.65,13.65,0,0,1-4.42-3,14.22,14.22,0,0,1-3-4.58,16,16,0,0,1,0-11.73,14.22,14.22,0,0,1,3-4.58,13.67,13.67,0,0,1,4.42-3,13.51,13.51,0,0,1,5.34-1.07,20.92,20.92,0,0,1,2.9.19q1.34,0.19,2.59.4l2.4,0.42a16,16,0,0,0,2.29.25q0,0.88.06,2.06t0.19,2.42q0.13,1.24.25,2.44t0.25,2.08h-0.59Z" transform="translate(-31.07 -21.89)"/><path class="cls-1" d="M702.2,456l-2.77,7.61c-0.08.22-.16,0.42-0.23,0.59a1.4,1.4,0,0,0-.11.55,2,2,0,0,0,.44,1.3,3.73,3.73,0,0,0,1.07.9,6.67,6.67,0,0,0,1.3.57,9.8,9.8,0,0,0,1.14.29v0.5q-1.26-.08-2.52-0.13t-2.56,0q-1.26,0-2.46,0t-2.54.13v-0.5a5.68,5.68,0,0,0,3.62-2.36,10.76,10.76,0,0,0,1-1.85q0.44-1,.86-2.1l7.27-17.87,0.23-.55a1.23,1.23,0,0,0,.11-0.46,2.16,2.16,0,0,0-.15-0.63,3.87,3.87,0,0,0-.36-0.76,9.51,9.51,0,0,0,1.89-.55l1.77-.71L718,464.06a6.22,6.22,0,0,0,1.64,2.59,5.58,5.58,0,0,0,3.11,1.2v0.5q-1.68-.08-3.3-0.13t-3.38,0h-2l-1.51,0-1.28.06-1.32.08v-0.5a7.72,7.72,0,0,0,3-.9,2.1,2.1,0,0,0,1.2-1.87,1.68,1.68,0,0,0-.15-0.67,4.92,4.92,0,0,1-.23-0.63L711,456H702.2Zm4.54-11.94-4.12,10.68h7.91Z" transform="translate(-31.07 -21.89)"/><path class="cls-1" d="M724.28,467.84a7.86,7.86,0,0,0,2.21-.46,3.81,3.81,0,0,0,1.26-.78,2,2,0,0,0,.57-0.95,4.16,4.16,0,0,0,.13-1V445.22a10.92,10.92,0,0,0-.11-1.62,2.39,2.39,0,0,0-.53-1.2,2.8,2.8,0,0,0-1.26-.8,9.66,9.66,0,0,0-2.27-.42v-0.5q1.09,0.08,2.19.13t2.19,0a47.1,47.1,0,0,0,5.47-.29,44.8,44.8,0,0,1,5.17-.29,19.12,19.12,0,0,1,6.39,1.05,16,16,0,0,1,5.24,3,14.18,14.18,0,0,1,3.55,4.73,14.46,14.46,0,0,1,1.3,6.22,12.9,12.9,0,0,1-1.26,6,11.55,11.55,0,0,1-3.36,4,13.81,13.81,0,0,1-4.81,2.29,22.06,22.06,0,0,1-5.66.71l-3.89,0-2.84,0-2.19,0-1.85,0q-1.43,0-2.82,0t-2.82.13v-0.5Zm7.95-2.86a7.5,7.5,0,0,0,3.09,1.77,12.56,12.56,0,0,0,3.51.5q6.47,0,9.44-3.32t3-9.63a13.18,13.18,0,0,0-1-5.11,12.85,12.85,0,0,0-2.73-4.14,12.6,12.6,0,0,0-4.16-2.78,14.07,14.07,0,0,0-10.87.17q-0.17,2.19-.21,4.35t0,4.44V465Z" transform="translate(-31.07 -21.89)"/><path class="cls-1" d="M767.33,466.54c0.25,0.06.56,0.11,0.92,0.17l1.18,0.17,1.3,0.15q0.67,0.06,1.26.06a22,22,0,0,0,4.52-.42,12.94,12.94,0,0,0,3.66-1.35,14.9,14.9,0,0,0,3.13-2.35,29.4,29.4,0,0,0,3-3.45l0.46,0.38-3.83,8.45q-0.71-.08-1.47-0.13t-1.47,0H764.18q-1.22,0-2.44,0t-2.44.13v-0.5a8.48,8.48,0,0,0,2.35-.46,2.48,2.48,0,0,0,1.26-1.05,4.48,4.48,0,0,0,.53-1.87q0.11-1.16.11-2.92v-14q0-1.77-.11-2.92a4.49,4.49,0,0,0-.53-1.87,2.47,2.47,0,0,0-1.3-1.05,9,9,0,0,0-2.4-.46v-0.5l2.71,0.08,2.65,0.06,2.9,0H771q2.94,0,5.89,0t6-.13c0,0.31,0,.62-0.06.92s0,0.6,0,.88v1.68q0,0.93.08,1.87t0.17,2.08l-0.55.17A10.48,10.48,0,0,0,781,445a6.92,6.92,0,0,0-2.1-2,7.71,7.71,0,0,0-2.63-1,17.43,17.43,0,0,0-3-.25q-2.94,0-5.89.25v10.51q0.84,0,1.62,0t1.62,0a8.08,8.08,0,0,0,4.6-1.16q1.7-1.16,2.08-4.23h0.5q0,1.51,0,3t0,3q0,1.51,0,3t0,3h-0.5a12.71,12.71,0,0,0-.93-2.88,4.46,4.46,0,0,0-1.37-1.7,4.88,4.88,0,0,0-2-.8,17.4,17.4,0,0,0-2.9-.21h-2.69v13Z" transform="translate(-31.07 -21.89)"/><path class="cls-1" d="M812.08,440.68q1.51,0.08,3,.13t3,0q1.34,0,2.67,0t2.67-.13v0.5a7,7,0,0,0-2.9,1,3,3,0,0,0-1.13,2.73,29.66,29.66,0,0,0,.32,3.43q0.31,2.38.8,5.19t1,5.63q0.53,2.82,1,4.79a11.23,11.23,0,0,0,.46,1.47,3.19,3.19,0,0,0,2,1.91,9.89,9.89,0,0,0,2.23.48v0.5q-1.68-.08-3.34-0.13t-3.34,0q-1.6,0-3.13,0t-3.13.13v-0.5q0.88-.13,1.68-0.32a4.73,4.73,0,0,0,1.41-.57,2.58,2.58,0,0,0,.95-1,3.82,3.82,0,0,0,.34-1.74q0-.51,0-1.35a14.13,14.13,0,0,0-.25-1.93L815.48,444H815.4q-1.18,3-2.48,6t-2.56,5.95q-1.26,3-2.46,6t-2.17,6.24h-0.08q-2-6.52-4.56-12.55t-5.45-12.09h-0.08q-0.34,2.31-.67,5.13t-0.61,5.49q-0.27,2.67-.44,4.88t-0.17,3.3a13.11,13.11,0,0,0,.19,2.4,3.7,3.7,0,0,0,.74,1.68,3.29,3.29,0,0,0,1.49,1,9,9,0,0,0,2.46.42v0.5q-1.77-.08-3.45-0.13t-3.45,0q-1.3,0-2.59,0t-2.59.13v-0.5a9.43,9.43,0,0,0,1.75-.34,6.44,6.44,0,0,0,1.58-.69,4.62,4.62,0,0,0,1.2-1.05,3,3,0,0,0,.61-1.45q0.25-1.47.46-3.09t0.42-3.22l2-15a7.61,7.61,0,0,0-2.1-1.18,13.3,13.3,0,0,0-2.44-.67v-0.5q1.81,0.08,3.59.13t3.6,0q1.3,0,2.59,0t2.59-.13v0.5a4.43,4.43,0,0,0-1.47.69,1.76,1.76,0,0,0-.67,1.53,4.23,4.23,0,0,0,.23,1.39q0.23,0.67.53,1.39l5.93,14.55q2.14-4.46,4.08-8.94t3.53-9.19a3.72,3.72,0,0,0-1.09-.88,7.66,7.66,0,0,0-1.3-.55v-0.5Z" transform="translate(-31.07 -21.89)"/><path class="cls-1" d="M826.12,440.68q1.77,0.08,3.45.13t3.45,0q1.64,0,3.3,0t3.3-.13v0.5a11.22,11.22,0,0,0-1.11.25,5.11,5.11,0,0,0-1.13.46,2.64,2.64,0,0,0-.86.76,1.88,1.88,0,0,0-.34,1.14,2.63,2.63,0,0,0,.44,1.22,21.43,21.43,0,0,0,1.28,1.89l6,8.07,5-7.78a6.27,6.27,0,0,0,1.09-3.24,2.3,2.3,0,0,0-1-2,4.27,4.27,0,0,0-2.27-.82v-0.5q1.47,0.08,3,.13t3,0q1.34,0,2.67,0t2.67-.13v0.5a7.39,7.39,0,0,0-2.69,1.07,12.42,12.42,0,0,0-2.12,1.77,15.57,15.57,0,0,0-1.68,2.08q-0.74,1.09-1.37,2l-5.76,8.41v6.18a10,10,0,0,0,.25,2.5,3.14,3.14,0,0,0,.82,1.49,3.39,3.39,0,0,0,1.53.8,15.06,15.06,0,0,0,2.44.38v0.5q-1.89-.08-3.74-0.13t-3.74,0q-1.56,0-3.11,0t-3.11.13v-0.5a14.32,14.32,0,0,0,2.33-.38,3.4,3.4,0,0,0,1.51-.8,3,3,0,0,0,.8-1.49,11,11,0,0,0,.23-2.5v-6.6l-7.61-9.76q-0.59-.76-1.22-1.53a12.54,12.54,0,0,0-1.41-1.47,10.09,10.09,0,0,0-1.79-1.26,8.47,8.47,0,0,0-2.35-.86v-0.5Z" transform="translate(-31.07 -21.89)"/><path class="cls-1" d="M389.63,452.86a16.2,16.2,0,0,0-1.45-3.49,11.85,11.85,0,0,0-2.14-2.78,9,9,0,0,0-2.86-1.83,9.67,9.67,0,0,0-3.64-.65,8.94,8.94,0,0,0-4.42,1,8.53,8.53,0,0,0-3,2.73,11.92,11.92,0,0,0-1.68,4,21.19,21.19,0,0,0-.53,4.79,17,17,0,0,0,.67,4.81,12.1,12.1,0,0,0,2,4,9.77,9.77,0,0,0,3.32,2.75,9.89,9.89,0,0,0,4.6,1,11.51,11.51,0,0,0,6.75-2,18.83,18.83,0,0,0,5-5.38l1.05,0.84a37.09,37.09,0,0,1-2.86,3.79,16,16,0,0,1-3.11,2.78,13.25,13.25,0,0,1-3.66,1.72,15.61,15.61,0,0,1-4.46.59,13.51,13.51,0,0,1-5.34-1.07,13.66,13.66,0,0,1-4.42-3,14.21,14.21,0,0,1-3-4.58,16,16,0,0,1,0-11.73,14.23,14.23,0,0,1,3-4.58,13.68,13.68,0,0,1,4.42-3,13.51,13.51,0,0,1,5.34-1.07,20.91,20.91,0,0,1,2.9.19q1.35,0.19,2.59.4l2.4,0.42a16,16,0,0,0,2.29.25q0,0.88.06,2.06t0.19,2.42q0.13,1.24.25,2.44t0.25,2.08h-0.59Z" transform="translate(-31.07 -21.89)"/><path class="cls-1" d="M418.31,450.08q0-1.77-.1-2.92a4.29,4.29,0,0,0-.55-1.87,2.58,2.58,0,0,0-1.32-1.05,9,9,0,0,0-2.4-.46v-0.5q1.77,0.08,3.43.13t3.43,0q1.39,0,2.78,0t2.73-.13v0.5a8.33,8.33,0,0,0-2.31.46,2.48,2.48,0,0,0-1.26,1.05,4.48,4.48,0,0,0-.53,1.87q-0.11,1.16-.1,2.92v14q0,1.77.1,2.92a4.27,4.27,0,0,0,.55,1.87,2.57,2.57,0,0,0,1.32,1.05,9.2,9.2,0,0,0,2.44.46v0.5q-1.6-.08-3.2-0.13t-3.2,0q-1.56,0-3.07,0t-3,.13v-0.5a8.49,8.49,0,0,0,2.35-.46,2.58,2.58,0,0,0,1.28-1.05,4.27,4.27,0,0,0,.55-1.87q0.1-1.16.1-2.92v-7.57h-15.6v7.57q0,1.77.1,2.92a4.27,4.27,0,0,0,.55,1.87,2.57,2.57,0,0,0,1.32,1.05,9.19,9.19,0,0,0,2.44.46v0.5q-1.6-.08-3.2-0.13t-3.2,0q-1.56,0-3.07,0t-3,.13v-0.5A8.5,8.5,0,0,0,397,470a2.59,2.59,0,0,0,1.28-1.05,4.27,4.27,0,0,0,.55-1.87q0.1-1.16.1-2.92v-14q0-1.77-.1-2.92a4.29,4.29,0,0,0-.55-1.87,2.58,2.58,0,0,0-1.32-1.05,9,9,0,0,0-2.4-.46v-0.5q1.77,0.08,3.43.13t3.43,0q1.39,0,2.78,0t2.73-.13v0.5a8.33,8.33,0,0,0-2.31.46,2.48,2.48,0,0,0-1.26,1.05,4.48,4.48,0,0,0-.53,1.87q-0.11,1.16-.1,2.92v5.13h15.6v-5.13Z" transform="translate(-31.07 -21.89)"/><path class="cls-1" d="M459.06,470.77h-7.57a73.69,73.69,0,0,1-4.9-6,48.25,48.25,0,0,1-4-6.46,8.57,8.57,0,0,1-1.07-.08l-1.35-.19q-0.69-.1-1.35-0.25t-1.07-.27v6.56q0,1.77.1,2.92a4.27,4.27,0,0,0,.55,1.87,2.57,2.57,0,0,0,1.32,1.05,9.19,9.19,0,0,0,2.44.46v0.5q-1.6-.08-3.2-0.13t-3.2,0q-1.56,0-3.07,0t-3,.13v-0.5A8.5,8.5,0,0,0,432,470a2.59,2.59,0,0,0,1.28-1.05,4.27,4.27,0,0,0,.55-1.87q0.1-1.16.1-2.92v-14q0-1.77-.1-2.92a4.29,4.29,0,0,0-.55-1.87,2.59,2.59,0,0,0-1.28-1.05,8.46,8.46,0,0,0-2.35-.46v-0.5q1.35,0.08,2.69.13t2.69,0q0.59,0,1.47-.06l1.87-.15,2-.15q1-.06,1.81-0.06a15.54,15.54,0,0,1,3.7.46A10.64,10.64,0,0,1,449.3,445a8.34,8.34,0,0,1,2.48,2.57,6.87,6.87,0,0,1,1,3.7,6.15,6.15,0,0,1-.53,2.61,6.43,6.43,0,0,1-1.41,2,7.46,7.46,0,0,1-2.08,1.39,11.1,11.1,0,0,1-2.5.8q0.59,1,1.39,2.27t1.79,2.57q1,1.3,2.1,2.59a20.19,20.19,0,0,0,2.35,2.31,15,15,0,0,0,2.54,1.72,7,7,0,0,0,2.65.82v0.5Zm-21.32-14.63a11,11,0,0,0,3.91.71,7.71,7.71,0,0,0,5.09-1.51q1.81-1.51,1.81-4.92a5.8,5.8,0,0,0-.53-2.5,6,6,0,0,0-1.45-1.93,6.6,6.6,0,0,0-2.12-1.26,7.19,7.19,0,0,0-2.5-.44q-1.05,0-2.06.08a9.51,9.51,0,0,0-2,.38q-0.08,2-.13,4.08t0,4.46v2.86Z" transform="translate(-31.07 -21.89)"/><path class="cls-1" d="M460.36,470.44a8.49,8.49,0,0,0,2.35-.46,2.58,2.58,0,0,0,1.28-1.05,4.27,4.27,0,0,0,.55-1.87q0.1-1.16.1-2.92v-14q0-1.77-.1-2.92a4.29,4.29,0,0,0-.55-1.87,2.58,2.58,0,0,0-1.32-1.05,9,9,0,0,0-2.4-.46v-0.5q1.77,0.08,3.43.13t3.43,0q1.39,0,2.78,0t2.73-.13v0.5a8.33,8.33,0,0,0-2.31.46,2.48,2.48,0,0,0-1.26,1.05,4.48,4.48,0,0,0-.53,1.87q-0.11,1.16-.1,2.92v14q0,1.77.1,2.92a4.27,4.27,0,0,0,.55,1.87,2.57,2.57,0,0,0,1.32,1.05,9.19,9.19,0,0,0,2.44.46v0.5q-1.6-.08-3.2-0.13t-3.2,0q-1.56,0-3.07,0t-3,.13v-0.5Z" transform="translate(-31.07 -21.89)"/><path class="cls-1" d="M495.39,451.26a15.92,15.92,0,0,0-1.41-2.67,12,12,0,0,0-2-2.36,9.72,9.72,0,0,0-2.52-1.66,7.24,7.24,0,0,0-3-.63,7.81,7.81,0,0,0-3.93.88A3.32,3.32,0,0,0,481,448a4,4,0,0,0,.69,2.33,6.71,6.71,0,0,0,1.85,1.75,17,17,0,0,0,2.63,1.39l3,1.28q1.54,0.65,3,1.41a12.13,12.13,0,0,1,2.63,1.81,8.26,8.26,0,0,1,1.85,2.44,7.35,7.35,0,0,1,.69,3.32,7.76,7.76,0,0,1-.76,3.55,7,7,0,0,1-2,2.46,8.7,8.7,0,0,1-3,1.43,13.87,13.87,0,0,1-3.64.46,12.93,12.93,0,0,1-2.19-.2q-1.14-.2-2.19-0.44l-1.91-.43a6.62,6.62,0,0,0-1.37-.2,2.66,2.66,0,0,0-.88.15l-0.88.32q-0.38-2.39-.88-4.67t-1.05-4.67l0.55-.29a30.52,30.52,0,0,0,1.83,3.06,18.62,18.62,0,0,0,2.42,2.91,13.25,13.25,0,0,0,3,2.2,7.24,7.24,0,0,0,3.51.88,10.06,10.06,0,0,0,2.35-.27,6,6,0,0,0,2-.86,4.24,4.24,0,0,0,1.37-1.53,4.89,4.89,0,0,0,.5-2.33,4.68,4.68,0,0,0-1.22-3.3,11.7,11.7,0,0,0-3-2.31,35.48,35.48,0,0,0-3.93-1.83,29.12,29.12,0,0,1-3.93-1.89,11.55,11.55,0,0,1-3-2.48,5.36,5.36,0,0,1-1.22-3.61,6.89,6.89,0,0,1,2.33-5.27,7.58,7.58,0,0,1,2.48-1.45,8.88,8.88,0,0,1,3-.5,16.79,16.79,0,0,1,2.8.21q1.24,0.21,2.42.46l2.4,0.48a13.08,13.08,0,0,0,2.52.23q0,1.89.06,3.68t0.27,3.6h-0.59Z" transform="translate(-31.07 -21.89)"/><path class="cls-1" d="M507.08,470.44a8.5,8.5,0,0,0,2.35-.46,2.58,2.58,0,0,0,1.28-1.05,4.27,4.27,0,0,0,.55-1.87q0.11-1.16.11-2.92V444.62a34.1,34.1,0,0,0-3.72.17,6,6,0,0,0-2.59.86,5.94,5.94,0,0,0-1.91,2.12,21.05,21.05,0,0,0-1.62,3.91l-0.55-.17,0.59-8.24q1.77,0.08,3.49.13t3.49,0h9.88q1.68,0,3.32,0t3.32-.13l0.59,8.24-0.55.17a21,21,0,0,0-1.62-3.91,6,6,0,0,0-1.91-2.12,6.09,6.09,0,0,0-2.63-.86,35.81,35.81,0,0,0-3.81-.17v19.51q0,1.77.11,2.92a4.26,4.26,0,0,0,.55,1.87,2.57,2.57,0,0,0,1.32,1.05,9.2,9.2,0,0,0,2.44.46v0.5q-1.6-.08-3.2-0.13t-3.2,0q-1.56,0-3.07,0t-3,.13v-0.5Z" transform="translate(-31.07 -21.89)"/><path class="cls-1" d="M528.91,470.44a8.49,8.49,0,0,0,2.35-.46,2.59,2.59,0,0,0,1.28-1.05,4.28,4.28,0,0,0,.55-1.87q0.11-1.16.11-2.92v-14q0-1.77-.11-2.92a4.29,4.29,0,0,0-.55-1.87,2.58,2.58,0,0,0-1.33-1.05,9,9,0,0,0-2.4-.46v-0.5q1.77,0.08,3.43.13t3.43,0q1.39,0,2.78,0t2.73-.13v0.5a8.32,8.32,0,0,0-2.31.46,2.48,2.48,0,0,0-1.26,1.05,4.48,4.48,0,0,0-.53,1.87q-0.11,1.16-.11,2.92v14q0,1.77.11,2.92a4.26,4.26,0,0,0,.55,1.87A2.57,2.57,0,0,0,539,470a9.2,9.2,0,0,0,2.44.46v0.5q-1.6-.08-3.2-0.13t-3.2,0q-1.56,0-3.07,0t-3,.13v-0.5Z" transform="translate(-31.07 -21.89)"/><path class="cls-1" d="M552.45,458.62l-2.78,7.61c-0.08.23-.16,0.42-0.23,0.59a1.41,1.41,0,0,0-.1.55,2,2,0,0,0,.44,1.3,3.71,3.71,0,0,0,1.07.9,6.64,6.64,0,0,0,1.3.57,9.84,9.84,0,0,0,1.13.29v0.5q-1.26-.08-2.52-0.13t-2.57,0q-1.26,0-2.46,0t-2.54.13v-0.5a6,6,0,0,0,2.17-.9,5.92,5.92,0,0,0,1.45-1.45,10.64,10.64,0,0,0,1-1.85q0.44-1,.86-2.1L556,446.26l0.23-.55a1.23,1.23,0,0,0,.11-0.46,2.16,2.16,0,0,0-.15-0.63,3.87,3.87,0,0,0-.36-0.76,9.45,9.45,0,0,0,1.89-.55l1.77-.71,8.75,24.05a6.22,6.22,0,0,0,1.64,2.59,5.58,5.58,0,0,0,3.11,1.2v0.5q-1.68-.08-3.3-0.13t-3.38,0h-2l-1.51,0-1.28.06-1.33.08v-0.5a7.71,7.71,0,0,0,3-.9,2.1,2.1,0,0,0,1.2-1.87,1.67,1.67,0,0,0-.15-0.67,4.92,4.92,0,0,1-.23-0.63l-2.73-7.74h-8.79ZM557,446.68l-4.12,10.68h7.91Z" transform="translate(-31.07 -21.89)"/><path class="cls-1" d="M573.56,443.27q1.47,0.08,2.8.13t3.09,0q0.93,0,1.81,0t1.81-.13q0.54,0.76,1.81,2.29l2.88,3.51,3.47,4.21q1.85,2.23,3.58,4.35t3.17,4q1.45,1.83,2.29,3h0.08q0-1.26,0-2.5t0-2.5v-4.88q0-2.69-.19-4.69a11.46,11.46,0,0,0-.76-3.34,4.62,4.62,0,0,0-1.6-2.06,5.41,5.41,0,0,0-2.71-.84v-0.5q1.47,0.08,3,.13t3,0q1.34,0,2.73,0t2.73-.13v0.5a5.48,5.48,0,0,0-3.64,1.54,5.71,5.71,0,0,0-1,3.68v22.29h-1.56q-2.31-3.62-4.9-7t-5.13-6.48q-2.55-3.07-4.92-5.7t-4.27-4.69q0,1.09-.06,2.14t0,2.15V459q0,3.74.15,5.91a9.2,9.2,0,0,0,.71,3.32,2.94,2.94,0,0,0,1.68,1.56,13.88,13.88,0,0,0,3.09.61v0.5q-2.14-.08-4.16-0.13t-4.16,0q-1.22,0-2.4,0t-2.4.13v-0.5q1.43-.21,2.5-0.4a4.85,4.85,0,0,0,1.77-.63,2.76,2.76,0,0,0,1.05-1.26,6.36,6.36,0,0,0,.4-2.29l0.5-19.3a11.12,11.12,0,0,0-2.94-1.72,26.29,26.29,0,0,0-3.28-1.05v-0.5Z" transform="translate(-31.07 -21.89)"/></svg>