<svg id="Logo_-_Balanced_-_BW" data-name="Logo - Balanced - BW" xmlns="http://www.w3.org/2000/svg" viewBox="0 0 242.9 237.23"><title>Logo - Symbol - BW</title><path id="Tree_Symbol" data-name="Tree Symbol" d="M248.94,115.31l-0.07-.82a0.9,0.9,0,0,0,.82-0.9,0.58,0.58,0,0,0-.9-0.15,1.86,1.86,0,0,1,.07-1.27,2.09,2.09,0,0,0-1.64,0L247,112l-0.07-.67-0.3-.3c-0.39-.3-0.31-0.37-0.75-0.15l-0.07-.67a6.35,6.35,0,0,0-2-.45,7.35,7.35,0,0,0-.75-2l-0.15-.3a3.87,3.87,0,0,0,.6-1l-0.37-.52a2.29,2.29,0,0,1-1.19-.07,2,2,0,0,0-.67.82,5,5,0,0,0-2.09.07,2.71,2.71,0,0,0-.22,1.34,0.86,0.86,0,0,0-.82.45c-0.76-.17-1.17-0.67-1.79-0.82,0.06-1.09-.9-1.44-1.79-1.42a8.18,8.18,0,0,1,.37-1.79,0.79,0.79,0,0,0-.6-0.22l0.15-.52-0.22-.22a8.76,8.76,0,0,0-2,0c0.17-.47.49-0.5,0.37-1l0.52,0.37,0.22-.75a0.6,0.6,0,0,0-.9-0.15V101.5a0.79,0.79,0,0,1-.37-0.3,1.88,1.88,0,0,0-1.57,0l-0.6-.22a3.38,3.38,0,0,0-.07-2.24l-0.07-.22a3,3,0,0,0-1.49.15l0.3-1.19c-0.73-.58-1.42,0-2.24.07a1.78,1.78,0,0,0-1.57-1.87V95.23h0.37l0.15-.75-0.3-.3,0.07-.45L225.5,94l0.15-.67c-0.18-.27-0.14-0.27-0.6-0.3a0.72,0.72,0,0,0-.3-0.9l0.52-.22,0.15-.6-0.07-.22a2.44,2.44,0,0,1-1-.37l-1.34.6c-0.68.15-1.45-.57-2-0.3-0.14-.71.1-1.13-0.82-1.12,0-.37.11-0.32-0.15-0.52l-0.37-.07a3,3,0,0,1,0-1.42l-0.15-.22a8.26,8.26,0,0,0-4.4.07l-0.3,1.42-0.37.07c-1.36-1.08-1.54-2-3.36-1,0.47-1.18.16-.89,0.22-2L210.5,86a4,4,0,0,0,.75-2.09c0.48,0,.56-0.06.67-0.45l0.67,0.3,0.22-.22a0.41,0.41,0,0,0,.07-0.52l0.67-.37c0-.37,0-0.29-0.22-0.45V81.8l0.22-.07c1.08,0,.19-2.81.15-3.36l-0.52-.15a4.12,4.12,0,0,0-.3-1.49l0.67-.6c0.52,0.27.93,0.07,0.9-.67l0.37,0.45,0.3-.45-0.15-1V74.41l0.15,0.15,0.37,0.3a2.15,2.15,0,0,0-.15-1.72l0.67-.67c0.19-.1,0-0.06.3,0.07l0.45-.9-0.07-.22a1.63,1.63,0,0,1-.9-0.22h-0.15L215.8,71c0.16,0,0-.06.15,0.07a0.58,0.58,0,0,0,.52-0.82l0.6,0.37,0.15-.67a1.27,1.27,0,0,1-.3-0.52c0.05-.36.5-0.42,0.67-0.9l0.3,0.22a1.34,1.34,0,0,0,.37-0.82,9.13,9.13,0,0,1-.9-0.6c-0.13-.12-0.08-0.15-0.07-0.52a1,1,0,0,0,.52.37l0.15-.9-0.45-.15V65.67c0.34-.27.39-0.39,0.75-0.3l0.3-.75-0.07-.15a2.44,2.44,0,0,0-1,0c0.23-.5,0-0.53-0.3-0.9,0.78-.14,1-1.74.22-2V61.34a0.93,0.93,0,0,0,.52.22l0.37-.22V60.9l-0.6-.37a2,2,0,0,1-1,.3V60.45a1.8,1.8,0,0,0-1.19-.07v-0.3l-1.49-.37a1.59,1.59,0,0,0-.3-0.6c0-.25.24-0.43,0.22-0.75l0.45,0.37a2.83,2.83,0,0,0,1-.45l-0.37-1.12a1.54,1.54,0,0,0-1.34-.3l-0.37-.75a7.54,7.54,0,0,0-2-.22c-0.08-.52-0.21-0.26-0.37-0.52-0.39-.63,0-2.83.15-3.43V51.86a1,1,0,0,0-1,0,0.71,0.71,0,0,1-.37-0.75,2,2,0,0,0-1-.15,3.87,3.87,0,0,0-.07-2.09,1,1,0,0,0,.75-1c-0.35-.53-0.86-0.93-0.67-1.57a0.58,0.58,0,0,0-.9-0.15c-0.31-.27-0.26-0.33-0.07-0.82a2,2,0,0,0-1.27-.6V44.25L206,44.1l0.15-2.16,0.22,0.3a1.45,1.45,0,0,0,.9-0.75l0.3,0.22a1.91,1.91,0,0,0,.45-0.82l0.9,0.07a0.88,0.88,0,0,0,.52-0.82l0.37,0.37,0.15-.07c0.16-.77-0.14-2.21-1.19-1.72l-0.15-.07a2.46,2.46,0,0,1-.15-1.12,7.35,7.35,0,0,0-2.16-.3V36.71a3.57,3.57,0,0,0-1.94-1v-0.6c-0.73-.32-1.28-0.14-1.72-0.67l-0.6.15v0.45c-0.28,0-.6.05-0.82,0.07a2.48,2.48,0,0,0-.45,1.57,2.43,2.43,0,0,0-2.24,2,6.92,6.92,0,0,0-1.87.22,1.23,1.23,0,0,0-.67-0.6,0.48,0.48,0,0,1-.37.15c-0.23.31-.08,0.43,0.15,0.67-0.85-.18-0.9.25-1.72,0.52l-0.15.67c-0.56.39-1.63-.08-2.24,0.07s-0.3.51-.6,0.82c-0.6.63-1.73,0.85-2.46,1.42H188.4c0-.82.3-0.72,0.37-1.49-0.55-.17-1.11-0.12-1.19-0.82l-0.22-.15a1.39,1.39,0,0,1-1.42-.75c-1,.28-3.09,0-3.36-1.42a7.46,7.46,0,0,0-3.51-.07l-0.22,1A2.18,2.18,0,0,0,177,39l-0.15.75c-1.21.16-2.73-.24-3.81,0.37-0.8-.8-1.77-1.06-2.46-1.87-0.73-.08-3.53.16-3.66,0.9h-0.07l-0.07-.3c-1-.46-1.86.13-2.69,0.37l-0.45,1.19a6.92,6.92,0,0,1-1.79-1l-0.15-.15a0.67,0.67,0,0,1,.75-0.52l0.3-.75a2.79,2.79,0,0,0-.82-0.67l0.45-1.57a4,4,0,0,0-2.69-.45c-0.37-.42-0.19-1.23-0.15-2.16a1.12,1.12,0,0,0-.6-0.15,1.82,1.82,0,0,1,.15-1.12l-1.34-1.19a0.63,0.63,0,0,1-.37.15,0.43,0.43,0,0,0-.07.52l-0.6.22-0.75-.9c-0.45.07-.62,0.1-0.67,0.6l-0.3.07a2.88,2.88,0,0,1-.07-1.19,1.6,1.6,0,0,0-.82-0.15,7.39,7.39,0,0,0-.3-1.42,1.6,1.6,0,0,0-.82-0.15A9.89,9.89,0,0,0,152.5,26V26l0.45,0.37a1.48,1.48,0,0,0,.3-1l0.45,0.3,0.37-.22a0.78,0.78,0,0,0,.15-0.75L154.74,25l0.15-.07a5.72,5.72,0,0,0-.6-2.76,5.32,5.32,0,0,1,.6-1.42c0.13-.42-0.37-0.55-0.37-0.9s0.32-.6-0.07-0.9l-0.22-.3a1.09,1.09,0,0,1,1-.37l0.15-.75a0.53,0.53,0,0,0-.52-0.22,0.81,0.81,0,0,0-.22-0.75,1.92,1.92,0,0,0-1.79.37h-0.07l0.15-1.27c-0.91-.45-2.92.08-3.21-0.22a0.89,0.89,0,0,1,.22-1.12,1.23,1.23,0,0,0-.37-0.6l0.52-.37c0-.48,0-0.7-0.52-0.82,0.23-1,.8-1.53,1.12-2.54a0.92,0.92,0,0,0-.37-1l0.15-.75L149.59,7c-1-1.18-4-.6-5.3-0.67-0.08.91-.8,1.25-0.82,2.54a2.54,2.54,0,0,1-1.87.3c-0.35.42-1.12,0.83-1,1.42-0.66,0-5-.45-5.52-0.15l-1.19,1.34c-0.45.14-.24-0.24-0.52-0.37-0.65-.32-2.37.5-2.69,0.9-0.15.55-.24,0.86,0.3,0.82v1c0.28,0.1.15,0,.3,0.22a0.7,0.7,0,0,0,.67-0.15H132v2a1.2,1.2,0,0,0,.6-0.15l0.07,1.94c0.61,0.15.66,0.59,1.19,0.9a9.28,9.28,0,0,0-.3,3.28h-0.22a0.45,0.45,0,0,0,0,.6,7,7,0,0,1-2.46.45l-0.15.3,0.3,0.3c-0.33.28-.28,0.25-0.15,0.67a11.36,11.36,0,0,0-2,.6l-0.15,1.27a4.13,4.13,0,0,1-1.57.45l-0.22,1.72a4.06,4.06,0,0,0-1.49-.22c-0.2-.6-0.08-1.19-1-1.19,0-.38.06-0.42-0.37-0.52l0.37-1.27a1.58,1.58,0,0,0-1.27-.82,2.23,2.23,0,0,0,.15-1l-2.24-.3c-0.82.48-.61,0.75-1,1.72a1.52,1.52,0,0,1-.67.3,9.87,9.87,0,0,0-.15,1.19c-0.08.21-.51,0.67-0.6,0.9a4.32,4.32,0,0,0,.15,1.79l-0.37,1.27a1,1,0,0,0-1,.75c-0.39,0-.26.5-0.22,1a4.16,4.16,0,0,0-1.57,1.72,16.61,16.61,0,0,1-1.64.52c-0.3,1.4.27,2.26,0.37,3.36a0.87,0.87,0,0,1,.6.15l0.15,0.07a12.1,12.1,0,0,1-1.94.75,4.54,4.54,0,0,0-4.4-.9l-0.37.82a4.17,4.17,0,0,1-.82.3c-0.5,1.61.16,3.44,0.15,5.23l0.07,0.07a0.75,0.75,0,0,0,.45-0.3l0.07,1.27c-0.77-.24-1.61.63-2.46,0.75a0.58,0.58,0,0,0,0,.67,0.53,0.53,0,0,1-.45.3l-0.15.3,0.52,0.75a0.75,0.75,0,0,0-.82.75,1.64,1.64,0,0,1-1-1l-0.6.07a0.91,0.91,0,0,1-.37-0.9,1.6,1.6,0,0,0-.82-0.15,5.58,5.58,0,0,1,.6-1.34c-0.35-.37-0.34-1.18-0.75-1.49a0.93,0.93,0,0,1,.22-0.37,0.81,0.81,0,0,0-.6-0.75c-0.39.23-1.19,0.45-1.12,1a5.26,5.26,0,0,0-1.57.15,4.37,4.37,0,0,0-2.16-1.27,2.43,2.43,0,0,0-1.19.37l-0.9-1a1.16,1.16,0,0,0-.75.22,1.09,1.09,0,0,0,.75,1.19L94.5,44a2,2,0,0,0-1.27.37l-0.15.6c-0.06.66-.1,1,0.45,1.12v0.3a0.92,0.92,0,0,0-.52.37l-0.15,1.49,0.45,0.15-0.07.9c-0.6.29-.78-0.19-1.42,0.07l-0.9.6a2,2,0,0,0-1.79.22A1.79,1.79,0,0,0,88,49c-0.78.41-1.76-.06-2.31,0.75l-0.07.37a11.57,11.57,0,0,0-2.76.45l-1.79-.37,0.3-1.49c0.38-.22.27-0.13,0.75,0l0.37-.45c0.32-.11.13-0.09,0.45,0.07l0.3-.75a0.71,0.71,0,0,0-.6-0.22,6,6,0,0,0,.3-1.19,2,2,0,0,0-1.79.15c0-.44,0-0.44-0.3-0.6l0.75-2.39-0.15-.22A3,3,0,0,1,80.17,43l-0.45-.52a4.23,4.23,0,0,0-1.27.07c-0.3-.25-0.1-0.39-0.67-0.45V41.41l-0.52-.15c0-.51,0-0.69-0.45-0.82l0.3-.6c0.66,0.07.61-1.12,0.3-1.57a7.73,7.73,0,0,0,.37-1,0.57,0.57,0,0,1,.52,0l0.07-.9a5.79,5.79,0,0,0,1-1.79l-0.15-.22H78.75l-0.07-.37a0.64,0.64,0,0,1,.67-0.3c0.56-.68-0.06-2,0.3-3a0.85,0.85,0,0,1,1-.37,0.7,0.7,0,0,0,.22-0.75l0.52,0.37,0.22-.75a0.49,0.49,0,0,0-.37-0.22l0.37-1.12-0.07-.22a9.07,9.07,0,0,1-1.57-.3l0.22-1a1.3,1.3,0,0,0-.9-0.45l0.3-1-0.07-.22c-3-.74-3.23,2.69-6,2.16a7.34,7.34,0,0,1-1,1.19c-0.45.34-2-.15-2.84,0.07-0.06.23,0,.94-0.07,1.12-0.18.49-1,.78-1.12,1.87-1.37-.09-2.17-0.76-3.58-0.37a3,3,0,0,0-1.42,1.42A3.33,3.33,0,0,0,64,34c-1.37-.35-3.54.86-4.18,1.87-0.28.3-2.52,0.17-2.54,0.15a4.59,4.59,0,0,0-1.19,1.64V38.2h0.45l-0.07.37,0.15,0.22L57,38.58a0.42,0.42,0,0,0,.45.3c0,0.83.08,1.29,0.07,2.24l-0.45.15A2.84,2.84,0,0,0,57,43a6.91,6.91,0,0,0-1.72.07,1.41,1.41,0,0,0,.15,1,2.62,2.62,0,0,0-1.72,2.39,9,9,0,0,1-1.42.3L51.8,48.36v1a0.77,0.77,0,0,0,.6-0.07l-0.07.75,0.07,0.07a0.75,0.75,0,0,0,.45-0.3L53,50.22h0.22l0.45-.37-0.07,1.64,0.6-.07v0.9l0.22,0.07L54.79,52c0.4,1.69,2.12,1.19,2.09,3.06a0.94,0.94,0,0,1,.6.45,2,2,0,0,1,.3,1.57A0.88,0.88,0,0,0,58.45,57c0,2.71-1.51,3.09-2.09,5a19,19,0,0,0-4,.45c-0.22.32-.06,0.4,0.15,0.67-1.05.29-1.23-.08-2.39-0.15-0.11-.59-0.21-0.21-0.45-0.52a6.55,6.55,0,0,1-.3-2.76,1.8,1.8,0,0,0-1.19-.07,1.85,1.85,0,0,0-.75-1.19,3.66,3.66,0,0,0-1.72.07c-1,1.29-2.29,1.74-2.24,4.48a1.09,1.09,0,0,0-.82,1.34,1.3,1.3,0,0,0-.82.15,4.07,4.07,0,0,0-.07,1.42L41,66.35a2.52,2.52,0,0,0,.37,1.79,0.77,0.77,0,0,0,.67,0v0.75a8.19,8.19,0,0,1,1.34.22v0.67c0.46,0.07.57,0.1,0.75-.3h0.15c0.38,1.05,0,1.69,0,3.06a0.77,0.77,0,0,0,.6-0.07,1.12,1.12,0,0,1-.52,1.12l0.37,0.67A1.23,1.23,0,0,0,44,75.45a4.23,4.23,0,0,0-2,.07,1.76,1.76,0,0,0-.07,1h0.45a4.82,4.82,0,0,0-.6,1.72c-0.05.62-.08,1,0.37,1.12-0.53,1.55.37,2.94,0.37,4.48L42.55,84a0.75,0.75,0,0,0,.45-0.3,1.87,1.87,0,0,0,.3.37,3.14,3.14,0,0,1-.75,1,0.93,0.93,0,0,0-1,.15l-0.15.67c-0.34.54-2.59,0.22-3.66,0.15l0.15-.45-0.22-.22a12.11,12.11,0,0,0-3.88.3c0.33-.55,1-2.76-0.37-2C33.33,83,32.9,83.08,33,82.47c-0.41-.5-1.35-0.26-1.87-0.07a2.44,2.44,0,0,0,0,1.34,3.24,3.24,0,0,1-1.34.52c-0.52.82-1.14,1.29-1.12,2.61-0.63.38-1.8,0.57-2.24,1.49-0.33.7,0.6,0.92,0.52,1.57a25.65,25.65,0,0,0-.15,3.88,4.75,4.75,0,0,1-1,.9L25.6,95c0.68,0.88.62,1,.6,2.24l0.07,0.07a0.75,0.75,0,0,0,.45-0.3l0.15,0.37c0.39,0,.36,0,0.52-0.22,0.17,0.08.13-.06,0.22,0.3l0.6-.22,0.22,0.15A1.57,1.57,0,0,0,27.77,99c-0.44.16-.49,0.39-1,0.6A5,5,0,0,0,25,98.89l-0.6.3a2,2,0,0,0-.22,1.12l0.22,0.07,0.3-.22,0.37,0.52c-0.17,1.43-.82,2.47-0.82,4-1.06,0-2,.61-2.91.67a6.24,6.24,0,0,0-1.49-.22,3.74,3.74,0,0,1-2,.3l-0.3-.15-0.52.52a1.58,1.58,0,0,0,.15,1.49l-0.52.37-0.07.9,0.22,0.07,0.37-.37,0.07,0.37c0.6,0.13,1.37-.41,1.42.75a0.53,0.53,0,0,0,.37-0.07,6.87,6.87,0,0,0-.3,1.19c0.31,0.14.35,0.15,0.52-.22a2.62,2.62,0,0,1,.6,1.57c0.26,0,.19.1,0.37-0.07H20.3c-0.1.68-.41,0.4-0.6,0.82l-0.07,1.49-0.67,1H18.88a1,1,0,0,1,0-.82l-0.07-.15a4.38,4.38,0,0,0-1.34-.15l-0.52.45a13.27,13.27,0,0,0-.15,3.28,2.35,2.35,0,0,0,1.57.07v1.27c0.21,0.28.31-.05,0.37,0.52a0.88,0.88,0,0,0,.67-0.07,3.73,3.73,0,0,0,1.12,2.09l-0.22.45,0.45,0.6c-0.49.26-.92,0-1.34,0.52a4.54,4.54,0,0,0,.82,3.06l0.3-.37L21,126.29l0.52-.45-0.07,1.72c0.44,0,.5.08,0.67-0.3l0.15-.07a1.87,1.87,0,0,1,.52,1.49c0.31,0.12.32,0,.45,0.37a2.41,2.41,0,0,0-1.27.37l-0.3,1.12c0.07,0.27,0,.15.15,0.3l0.15,0.22-0.52.15a0.86,0.86,0,0,1-.3-0.6,6.55,6.55,0,0,0-1.34-.22c-0.86,1.15-.44,1.26-1,2.39l-1,.6,0.15-.45c-0.63-1-2.06.1-2.69,0.37l-0.3-.22c-0.31-.28-0.62,0-1,0.22-0.19-.13-0.37-0.52-0.52-0.6-0.64-.31-0.68.22-1.12-0.3l-1.57.67a1.55,1.55,0,0,0,.22,1,1.41,1.41,0,0,0-.67,1.12,6.44,6.44,0,0,0-1.19.15l-0.15.22a1.64,1.64,0,0,0,.22,1.34l-0.6.15-0.15.22L9,138.08,9.33,142a3.26,3.26,0,0,0-1.19.9l0.3,0.45a4.4,4.4,0,0,1-1.49.52l-0.15,1,0.07,0.07a0.75,0.75,0,0,0,.45-0.3L7.46,145A1,1,0,0,0,8,144.8L8.58,146a6.94,6.94,0,0,0,1.72.52,10.33,10.33,0,0,0-.6,1.94A2.48,2.48,0,0,0,11,149.8a3.15,3.15,0,0,1-.37,1.34,2,2,0,0,0,.22,1.19c-0.48-.06-1.75.65-1,1.49l-1.34.9-0.07.82,0.37,0.15L9,155.4a2.93,2.93,0,0,0,.45.9c0.06,0.3-.14,1.11-0.07,1.57-0.13,0-1,.12-1.19.15a0.77,0.77,0,0,0-.15.6l0.9,1.19,0.37-.3,0.15,0.37,0.9-.37a1.23,1.23,0,0,0,.45.52v0.22a2.08,2.08,0,0,1-1,.45l-0.15,1,0.07,0.07a0.75,0.75,0,0,0,.45-0.3l0.52,0.75a1.21,1.21,0,0,0-.67,1.34L10,163.68a0.75,0.75,0,0,0,.45-0.3l0.15,0.37,0.75-.22,0.15,0.37c0.06,0.16-.21.62-0.22,1.27l0.07,0.07a0.37,0.37,0,0,0,.37-0.3l0.22,0.37c1,0,1.33-.3,1.27-1.34a1.24,1.24,0,0,0,.9-0.82c0.35-.08.13-0.08,0.45,0.15l0.3-.45a3,3,0,0,1,.6-0.15l0.15,0.52L16,163l0.07-.15,0.15,0.45,0.37-.07a0.78,0.78,0,0,0,.15-0.75l0.15,0.15,0.37,0.3a1.33,1.33,0,0,0,.07-1c0.37,0,.29,0,0.45-0.22a1.18,1.18,0,0,0,.9.67,0.59,0.59,0,0,0,.45-0.45l0.22,0.45a0.57,0.57,0,0,0,.6-0.52,6.86,6.86,0,0,0,2.54,2L22.62,164l-0.22.45a5.33,5.33,0,0,0-1.42-.22,0.39,0.39,0,0,1-.37.22l-0.22.52a2.53,2.53,0,0,0,.6,1.49,2.58,2.58,0,0,0-.37,1.27c0.37,0.08.34,0,.6-0.22l0.15,0.37a0.56,0.56,0,0,0,.6-0.6,1.33,1.33,0,0,1,1,.75,1.12,1.12,0,0,0-.67,1.27l0.07,0.07,0.45-.22a0.7,0.7,0,0,0,.37.3,3.52,3.52,0,0,1,1.27-.67l0.07-.07,0.15,0.07-0.15,1,0.07,0.07a0.75,0.75,0,0,0,.45-0.3,0.62,0.62,0,0,0,.37.37,11.57,11.57,0,0,1,1.57-.75l-0.07.9L27,170.1a1,1,0,0,0,.37-0.22l0.07-.15,0.15,0.45,0.75-.3v0.37c0.44,0,.5.08,0.67-0.3,0.29,0.13.21,0,.3,0.37l-0.6.22a1.9,1.9,0,0,0-.22,1l0.15,0.07a1,1,0,0,0,.37-0.22l0.07-.15,0.3,1.12a0.7,0.7,0,0,0,.67-0.15,1.47,1.47,0,0,0,1.19,1.34l-0.07.45a0.55,0.55,0,0,0,.45-0.07L32,174.21l-0.3,2,0.15,0.07a1,1,0,0,0,.37-0.22l0.07-.15a2.92,2.92,0,0,1,.22,1.19c0.49,0.06.6,0,.75-0.45h0.07c0.24,0.67.66,0.75,0.67,1.64,0.46,0.06.57,0,.75-0.37l0.3,0.6a1.08,1.08,0,0,0,.82-0.37H36a9.4,9.4,0,0,1-.37,3.06c-0.27,1.43.23,2.07,0.22,3.14,0.32,0.1.14,0.19,0.37-.07a2.89,2.89,0,0,1,.3,2.09l0.07,0.07,0.52-.3,0.07,0.37H37.4a0.57,0.57,0,0,0,.37-0.75l0.37,0.37c0.3,0.2.28,0.08,0.52-.15l0.15,0.37a2.37,2.37,0,0,0,1.27-.3l0.3,0.3,0.37-.3,0.15,0.37a0.78,0.78,0,0,0,.67-0.75l0.37,0.3,0.37-.67,0.15-.15a6.38,6.38,0,0,1,.07,1l0.22,0.07,0.3-.37a0.52,0.52,0,0,0,.37.37,0.56,0.56,0,0,0,.3-0.75l0.52,0.37c0.25-.52,0-0.88.52-1.12l-0.07.67c0.37,0.08.34,0,.6-0.22,0.09,0.33,0,.25.3,0.37a0.76,0.76,0,0,0,.45-0.67l0.37,0.3,0.3-.67,0.45-.22L47.25,185a0.81,0.81,0,0,0,.67-0.37,0.75,0.75,0,0,1,.22.52,1.91,1.91,0,0,0,1-.75l-0.07.67,0.07,0.07a0.78,0.78,0,0,0,.52-0.3c0.28,0.47.36,0.37,0.75,0.07v1l0.22,0.07,0.3-.3,0.15,0.37,0.37-.07,0.22-.6,0.15-.07c0.31,0.64-.1.95-0.15,1.72l1,0.07v0.6L53,187.94l0.3-.3c0.5,0.51,1,.11,1.49.45l0.67-.45c0.09,0.91-.42,1.26-0.45,2.24L55.09,190a0.78,0.78,0,0,0,.52-0.3l0.15,0.45a0.75,0.75,0,0,0,.52-0.22l0.37,0.45c-0.1.74-.51,0.63-0.52,1.64l0.07,0.07,0.52-.3,0.07,0.37H57l0.6-.37,0.07-.15,0.15,0.45,0.37-.07a0.78,0.78,0,0,0,.15-0.75l0.15,0.15c0.49,0.31.19,0.16,0.75,0-0.07,2.31.16,0.77,0.82,2.16,0.29,0.05.29,0.13,0.45-.15a2.13,2.13,0,0,1,1,1.12,14,14,0,0,1,1.72.6,0.68,0.68,0,0,0,.52-0.22,0.7,0.7,0,0,0,.37.3,0.56,0.56,0,0,0,.3-0.75l0.52,0.37c0.95-.62,1.71-0.43,2.61-1l-0.07.75,0.15,0.07a1,1,0,0,0,.37-0.22l0.07-.15,0.15,0.45,0.37-.07a0.67,0.67,0,0,0,.15-0.67l0.52,0.37a7.26,7.26,0,0,0,.75-1.12l0.22,0.52a0.71,0.71,0,0,0,.67-0.67l0.37,0.3a6.24,6.24,0,0,0,.07-1.12c0.3-.4.57-0.23,0.67-0.9a0.5,0.5,0,0,1,.45.07,2,2,0,0,0,.67-1.27l0.45,0.37c0.36-.43,0-0.73.22-1.27a4.81,4.81,0,0,0,.67-0.9l0.37,0.22,0.15-.07a1.59,1.59,0,0,0-.07-1.12l0.52,0.37,0.15-.9c0.34,0,.46.15,0.67-0.22L76.51,187a1.82,1.82,0,0,0,1.19-.22,6.62,6.62,0,0,1,.45,1.12l0.37-.3a0.7,0.7,0,0,0,.37.3,0.69,0.69,0,0,0,.37-0.6c0.37,0.08,1.4.09,1.49,0.37,1.34-.05,2.55-1.42,3.43-1.34a3.18,3.18,0,0,0,.15-1.64l0.15-.07,0.15,0.3c0.27-.14.25-0.17,0.3-0.52H85L85.47,185l0.37-.22v0.75L86,185.56a1,1,0,0,0,.37-0.22l0.07-.15,0.15,0.45a1.61,1.61,0,0,0,.82-0.6,5,5,0,0,0,.6,1.34l0.37-.37,0.07,0.37,0.15,0.07a0.62,0.62,0,0,0,.45-0.82,1.54,1.54,0,0,1,.9,1.34L90,187a0.37,0.37,0,0,0,.37-0.3l0.67,0.6,0.45-.07a2.19,2.19,0,0,1,.37-0.6c0.09-.09.61-0.22,0.9-0.45l0.07,0.37c0.64,0,1.6-.91,2.24-1.27,0.92-.28,2.51.64,3.21,1,1.76,0.82,2.62,2.2,4,3.28,1,0.8,2.37,1.45,3.43,2.16,3,2,6.72,3,9.63,5.08A50.64,50.64,0,0,1,123,204l1.72,2.31c3.1,3.22,6.69,6.84,3.51,12.76-1.48,2.75-4.82,4.26-7.76,5.52-2.11.91-5.77,0-7.84,0.9-1.08.49-1.74,1.73-2.76,2.16-0.58.25-1.41,0-2.09,0.22-1.72.67-3.64,1.45-5.45,2l-3.51.6-3,1.34c-1.23.36-2.47,0.25-3.51,0.82A68.46,68.46,0,0,1,83,236.46c-1.31.48-2.16,1.53-3.58,1.87a1,1,0,0,0-.22.67l0.15,0.22c1.49,0,2.32-.66,3.58-1,1.09-.27,3.71,0,4.4-0.37s1.51-1.29,2.31-1.64a23.39,23.39,0,0,1,2.61-.82c3.7-1.13,6.77-2,10.3-3.14l6.49-.9c1.92-.72,3.65-1.87,5.52-2.69l3-.52,3.14-1v0.07a20.06,20.06,0,0,0-3.36,2.31c-1.27.88-2.79,1.16-4,2.09-1,.8-1.46,2.1-2.61,2.76-2.11,1.21-5.42.71-7.91,1.57-0.83.29-1.26,1.26-1.87,1.79l-2.61,1.57a20.49,20.49,0,0,0-3.58,3.81l0.45,0.37c1.84-.16,2.62-1.85,4-2.46,0.87-.4,1.47-0.42,2.31-0.82l1.27-.9c1.92-.69,4.16-1.13,6-1.79,1.39-.48,2.79.16,4-0.52,1.5-.87,1.87-2.28,3-3.51a4.63,4.63,0,0,1,1.12-.6c0.84-.5,1.71-1.27,2.61-1.79s3-.63,4.33-1.27c1.85-.89,3.94-2.15,6.49-2.24,0,3.34-.88,5.08-3,6.79-1.49,1.22-4.13,3-2.61,5.75a2.9,2.9,0,0,0,2.54.82l0.07-.45a2.85,2.85,0,0,0-1.49-1.19c0.52-1.85,2-1.69,3.21-2.91s2-2.76,3.14-4.11c0.77-.92,1.77-1.77,2.54-2.69a5.44,5.44,0,0,1,1.72-1.79l1.12,1c1.68,0.77,4.13-.15,5.6.82,1,0.66,1.68,1.91,2.69,2.46a69.09,69.09,0,0,0,10.08,4.93l4.18,0.07c1.26,0.43,3-.71,4-0.3,0.5,0.23,1,1.07,2,.82a7.19,7.19,0,0,1,1.79-.6l0.22-.22v-0.37l-0.15-.07c-0.57-.5-1.54.27-2.09,0.07-0.79-.27-1.18-1.11-2.09-1.34h-1.72l-6.42-.9a9.51,9.51,0,0,1-1.72-1.27,7.12,7.12,0,0,0-1.72-.37l-1.42-1.34-1.94-.37a10,10,0,0,0-2.24-3.21v-0.07c0.81,0.18,2.15.39,2.91,0.6s1.51-.37,2.54,0c1.25,0.45,3,.39,5.08.82l2.31,0.75,2.91,0.15,1.12,0.6c1,0.37,1.82.11,2.76,0.52l0.67,0.6H169c1,0.28,2.24.16,3.14,0.45,2.15,0.69,4,2,6.79,1.87l-0.07-.6-6.49-3.43c-1.9-.63-4.27,0-6-0.82-0.71-.33-1.68-1-2.39-1.34-0.9-.44-1.93-0.24-2.84-0.6l-2-1.12c-0.7-.29-1.45.07-2.16-0.07-1.85-.37-4.17-1.14-6-1.64l-2.91-.37c-1.2-.32-5.48-3.93-6.27-4.93-1.31-1.67-1.51-6.32-.82-8.66l1-2.46c0.53-1.8.55-3.52,1.12-5,3.12-8.1,6.83-16.14,11.57-22.69,1-1.32,1.38-2.85,2.24-4.25l0.82-1c0.18-.36.87-1.42,0.52-1.87,0.87-.88,5.91-5,6-5.82l0.15-.07a0.7,0.7,0,0,0,.37.3h0.07a0.73,0.73,0,0,0,.22-0.82l0.52,0.45,0.22-.22,0.3,0.45,0.3-.37,0.45,0.37a0.56,0.56,0,0,0,.3-0.75c0.79,0.34.75,0.91,0.9,1.72a5.49,5.49,0,0,0,2.16-.22,0.41,0.41,0,0,0,.3.22,2.79,2.79,0,0,1,.07,1.87l0.15,0.07A1,1,0,0,0,171,170l0.07-.15,0.15,0.45,0.37-.07a0.67,0.67,0,0,0,.15-0.67,5.79,5.79,0,0,1,.67.37,4.22,4.22,0,0,1,.22,1.19l0.22,0.07,0.22-.45,0.22,0.45,0.37-.07a0.67,0.67,0,0,0,.15-0.67,1.39,1.39,0,0,1,.9.67l0.37-.3,0.3,0.37a0.93,0.93,0,0,0,.52-0.82l0.37,0.37,0.15-.22a1.34,1.34,0,0,1,.82.82l0.3-.37a1.39,1.39,0,0,1,.52.9l0.15,0.07,0.3-.3,0.15,0.15a2.14,2.14,0,0,0-.45,1.19l0.07,0.15,0.22,0.07,0.22-.45a1.42,1.42,0,0,0,.82.82l-0.07.75,0.67,0.3c0,0.38-.16.25-0.37,0.45a11.7,11.7,0,0,0,.67,1.27,1,1,0,0,0,.45-0.3l0.15,0.37,0.37-.07a0.7,0.7,0,0,0,.15-0.75l0.6,0.37a3.77,3.77,0,0,1,2-1c0.24,0.92,1.52.92,2.16,0.52v0.52c0.34-.07.22,0,0.37-0.22h0.07l0.07,0.75,0.07,0.07a0.78,0.78,0,0,0,.45-0.22l0.22,0.3h0.22a0.85,0.85,0,0,0,.37-0.6l0.15-.07,0.3,0.3c0.1-.29.07-0.77,0.15-1,0.22-.53.87-0.27,0.75-1,0.16,0.05,0,0,.15.07l0.37,0.3,0.22-.75a1.28,1.28,0,0,0-.82-0.45v-0.07c0.67-.8,1.24-0.41,1.64-1.34l-0.22-.82c0.72-.37,1.81-0.16,2-1.19l0.45,0.22c0.39-.85.74-1.54,1.57-1.49l0.22-.9-1-.45a18.37,18.37,0,0,0-.07-2.16l0.3,0.15a3.43,3.43,0,0,0,.15-1.79l-0.82-.07a3.56,3.56,0,0,1-.52-1.87l0.3,0.15,0.15-.22a10.59,10.59,0,0,0-.75-2.16h-0.67v-1.79a0.88,0.88,0,0,1,.52-0.15l0.15-.22c0.05-.59.09-0.91-0.37-1a0.6,0.6,0,0,1,.22-0.67c0.14-.21.06-0.06,0.3,0l0.15-.15a0.86,0.86,0,0,0-.3-0.9,0.37,0.37,0,0,0,.3-0.37l0.3,0.22,0.15-.07,0.15-.67-0.9-1c0.53-.19.52-0.5,0.9-0.45l0.22-.75a0.56,0.56,0,0,0-.37-0.3l0.22-1a1.65,1.65,0,0,0,.82-0.45l0.15,0.3c0.55-.15.45-0.39,0.9-0.3a1.12,1.12,0,0,0,.15-0.6c0.35,0.12.24,0.17,0.45-.15l0.15,0.3c0.55-.15.45-0.39,0.9-0.3l0.15-.67,0.37-.07c0.13,0,0,0,.15.15a3.19,3.19,0,0,0,1.42-.6l0.15,0.3a7,7,0,0,0,1.34-.75c0.24-.16,0,0,0.37.07a12.38,12.38,0,0,0,1.12-1c0.24-.17.9-0.16,1.12-0.3a15.77,15.77,0,0,0,1-1.49l0.3,0.15,0.52-1.27c0.14-.21.06-0.06,0.3,0a1.66,1.66,0,0,0,0-1.19c0.59,0.21.66-.23,1.12-0.15l0.15-.52a5,5,0,0,0,1.34-.22v0.67c1.2-.06,5-2,5.45-1.94l0.15-.67c0.27,0.07,2.61-1.42,3.58-1.64v0.3c0.34-.07.22,0,0.37-0.22,0.23,0.27.1,0.22,0.45,0.22v0.67c0.34-.07.22,0,0.37-0.22l0.15,0.3a0.68,0.68,0,0,0,.6-0.45,1.36,1.36,0,0,1,.15.9c0.34-.07.22,0,0.37-0.22l0.07,0.37,0.45-.15-0.07,1.79a1.4,1.4,0,0,0,1.12-.15l0.07,0.45c0.34-.07.22,0,0.37-0.22l0.15,0.3a0.39,0.39,0,0,0,.37-0.22l0.07,0.67c0.34-.07.22,0,0.37-0.22l0.15,0.3,0.45-.22,0.07,0.3c0.34-.07.22,0,0.37-0.22l0.15,0.3,1-.45v0.45c0.34-.07.22,0,0.37-0.22l0.15,0.3c0.55-.15.45-0.39,0.9-0.3l0.15-.75,0.15,0.3a0.68,0.68,0,0,0,.6-0.45c0.32,0.18.28,0,.37,0.37,0.34-.07.22,0,0.37-0.22l0.15,0.3a4.78,4.78,0,0,0,1-.45v0.6l0.75,0.15,0.45-.45a0.78,0.78,0,0,0,.82.15l0.07,0.52a2,2,0,0,0,1.72-.3l0.37,0.3a0.82,0.82,0,0,0,.45-0.67l0.52,0.22c0.16-1.33.13-2.3,0.22-3.66l-0.45-.37a4.86,4.86,0,0,1,.07-2.54c-0.18-.27-0.14-0.27-0.6-0.3,0.21-.48.53-0.6,0.3-1.12l0.45,0.3a0.57,0.57,0,0,0,.45-0.15c0.28-.19.22-0.24,0.15-0.6l0.45,0.15a1.25,1.25,0,0,1,.67-0.75l0.15,0.37,0.37-.07a0.7,0.7,0,0,0,.15-0.75l0.22,0.22,0.3,0.22,0.22-.9-0.45-.15a0.77,0.77,0,0,0,.22-0.6L236,129.57a3,3,0,0,0,.15-1.12,2.09,2.09,0,0,0,.67.15l0.22-.67c0.18,0.06.16,0,.3,0.3a16.29,16.29,0,0,0,2.69-1.34,0.69,0.69,0,0,0-.07-0.82l0.15-.15,0.67,0.37c0.84-.06,1.48-1.81,1.34-2.39l0.07-.22,0.52,0.15,0.15-1.12a1.19,1.19,0,0,1,.75-0.15,1,1,0,0,0,.22-0.67l0.45,0.37c0.28-.8-0.28-1.28.22-1.94,0.15-.09.2,0.08,0.52,0.22a1.57,1.57,0,0,0,.82-1l0.45,0.22c0.47-.52,1.06-1.49,1.72-1.34a0.77,0.77,0,0,0,0-1,1.14,1.14,0,0,1,1.12-.82,3.32,3.32,0,0,0,.45-1A0.59,0.59,0,0,0,248.94,115.31ZM107.34,186c-0.62.39-4.26-2.78-4.85-3.36a3.92,3.92,0,0,1,2.09-1c0.69-1.36,1.57-1.14,2.09-1.94C107.12,180.19,107.81,185.62,107.34,186ZM130,204.44c-4.26-3.69-7.62-8.47-12.24-11.79-1.65-1.18-3.32-2.45-5-3.51-0.5-.31-1.36-0.46-1.64-1-0.75-1.35-1.35-7.14-1.34-9.26a2.09,2.09,0,0,0,1.34-.9l0.07,0.3a0.73,0.73,0,0,0,.67-0.3l0.15,0.3,1-.45h0.07v0.3c0.34-.07.22,0,0.37-0.22l0.15,0.3,0.52-.22c1.21,3.07,2.44,6.18,4.55,8.36,1.09,1.13,2.54,1.88,3.73,2.91C125,191.56,130.49,199.54,130,204.44Zm-0.9-15.68-0.45-.07c-1.23-.44-1.82-1.85-2.76-2.61-1.31-1.06-2.6-2.2-3.88-3.21l-1.87-1.34L117.57,176v-0.3c1.35,0.18,3.22-2,4.7-1.72a1.12,1.12,0,0,0,.15-0.6l0.22-.07v0.45c0.34-.07.22,0,0.37-0.22h0.07l-0.07,1c0.34-.07.22,0,0.37-0.22a1,1,0,0,1,.37.82c0.34-.07.22,0,0.37-0.22l0.15,0.3a2.93,2.93,0,0,0,1.49-.82l0.15,0.3c0.55-.15.45-0.39,0.9-0.3a2.1,2.1,0,0,1,.52-1.12c0.14-.21.06-0.06,0.3,0,0.33-.75.24-2.08,1.19-1.87l0.22-.6c0.14-.21.06-0.06,0.3,0l0.3-.82,0.45,4C131,178,131.21,185.74,129.14,188.77Zm9-6a11.68,11.68,0,0,0-1.19,1.72l-0.52.45c-1.45-3.2-1.72-7.93-2.61-11.64-0.52-2.18,0-4.85-.52-6.72,0.09-.3,0-0.16.22-0.22a2.87,2.87,0,0,0,.07-1.42l0.3,0.15c0.45-.89.25-1.58,0.67-2.46,0.14-.21.06-0.06,0.3,0,0.22-.51.13-1.06,0.67-1.27a0.53,0.53,0,0,1,.82.37,0.74,0.74,0,0,0,.75-0.22c0.16,0.27.44,0.59,0.75,0.3l0.15,1c0.49,0.06.6,0,.75-0.45l0.3,0.67c0.82-.05,1.25-0.66,1.94-0.67a3.73,3.73,0,0,0,.52-1.87l0.3-.07c0.13,0,0,0,.15.15,0.55-.15.45-0.39,0.9-0.3a0.62,0.62,0,0,0-.15-1,1.12,1.12,0,0,0,.82-1.19l0.75,0.45,0.75-2.09,1-.22,0.07,0.37a10.25,10.25,0,0,1,1.34-.22,2.16,2.16,0,0,0,.67-1.12l0.6,0.45,0.52-1h0.3l0.07,1.19,0.37,0.37a2.94,2.94,0,0,0,1.12,0,0.85,0.85,0,0,0,.37-0.6h0.07c1,3-2.5,6.68-3.81,8.58a80.77,80.77,0,0,0-7.24,12.47Zm17.47-13.44c-1.34,1.24-3,2.17-4.11,3.66-0.61.84-.78,1.84-1.34,2.76-0.7,1.15-1.79,2.19-2.54,3.28l-4.11,7.32c-0.78,1.29-2.52,2.29-3,3.51l-0.15.07c0.15-3.26,2.37-8.09,3.58-10.6l0.52-1.79,1.12-1.79,0.52-1.87c2.94-4.59,5.83-9.22,8.81-13.81l0.45,0.22h-0.3l-0.07.3a2.92,2.92,0,0,1,.37,2,1,1,0,0,1,1,.45,0.71,0.71,0,0,1-.52.67,3.6,3.6,0,0,1-.15,1.79l0.07,0.15,0.15,0.07,0.3-.37,0.45,0.37A0.56,0.56,0,0,0,157,165l0.82,0.67A20.06,20.06,0,0,1,155.64,169.36Z" transform="translate(-6.79 -6.25)"/></svg>