<svg id="Logo_-_Long" data-name="Logo - Long" xmlns="http://www.w3.org/2000/svg" viewBox="0 0 900.42 299.3"><title>Logo - Long - BW</title><path id="Tree_Symbol" data-name="Tree Symbol" d="M288.48,142l-0.08-.89a1,1,0,0,0,.89-1,0.63,0.63,0,0,0-1-.16c-0.27-.39,0-0.78.08-1.37a2.26,2.26,0,0,0-1.78,0l-0.24-.16-0.08-.73-0.32-.32c-0.42-.32-0.33-0.4-0.81-0.16l-0.08-.73a6.88,6.88,0,0,0-2.18-.49,8,8,0,0,0-.81-2.18l-0.16-.32a4.2,4.2,0,0,0,.65-1.05l-0.4-.57a2.48,2.48,0,0,1-1.29-.08,2.16,2.16,0,0,0-.73.89,5.45,5.45,0,0,0-2.26.08,2.94,2.94,0,0,0-.24,1.46,0.94,0.94,0,0,0-.89.49c-0.82-.18-1.27-0.72-1.94-0.89,0.06-1.18-1-1.56-1.94-1.54a8.86,8.86,0,0,1,.4-1.94,0.86,0.86,0,0,0-.65-0.24l0.16-.57-0.24-.24c-0.72-.25-1.39.09-2.18,0,0.18-.51.53-0.54,0.4-1.13l0.57,0.4,0.24-.81a0.65,0.65,0,0,0-1-.16V127a0.85,0.85,0,0,1-.4-0.32,2,2,0,0,0-1.7,0l-0.65-.24a3.66,3.66,0,0,0-.08-2.43l-0.08-.24a3.27,3.27,0,0,0-1.62.16l0.32-1.29c-0.79-.62-1.53,0-2.43.08a1.93,1.93,0,0,0-1.7-2V120.2h0.4l0.16-.81-0.32-.32,0.08-.49,0.49,0.24,0.16-.73c-0.2-.29-0.15-0.3-0.65-0.32a0.78,0.78,0,0,0-.32-1l0.57-.24,0.16-.65-0.08-.24a2.64,2.64,0,0,1-1.13-.4l-1.46.65c-0.73.16-1.57-.62-2.18-0.32-0.15-.77.11-1.23-0.89-1.21,0-.4.12-0.35-0.16-0.57l-0.4-.08a3.21,3.21,0,0,1,0-1.54l-0.16-.24a9,9,0,0,0-4.77.08l-0.32,1.54-0.4.08c-1.47-1.16-1.67-2.21-3.64-1.13,0.51-1.28.18-1,.24-2.18l-0.81-.16a4.34,4.34,0,0,0,.81-2.26c0.52,0,.6-0.06.73-0.49l0.73,0.32,0.24-.24a0.45,0.45,0,0,0,.08-0.57l0.73-.4c0-.4,0-0.32-0.24-0.49v-0.4l0.24-.08c1.17,0,.21-3,0.16-3.64l-0.57-.16a4.46,4.46,0,0,0-.32-1.62l0.73-.65c0.56,0.29,1,.08,1-0.73l0.4,0.49,0.32-.49-0.16-1.05V97.65l0.16,0.16,0.4,0.32a2.33,2.33,0,0,0-.16-1.86l0.73-.73c0.21-.1,0-0.07.32,0.08l0.49-1-0.08-.24a1.77,1.77,0,0,1-1-.24h-0.16l0.16-.24c0.18,0,.05-0.06.16,0.08a0.62,0.62,0,0,0,.57-0.89l0.65,0.4,0.16-.73a1.38,1.38,0,0,1-.32-0.57c0.06-.39.54-0.46,0.73-1l0.32,0.24a1.45,1.45,0,0,0,.4-0.89,9.89,9.89,0,0,1-1-.65c-0.14-.13-0.09-0.17-0.08-0.57a1.11,1.11,0,0,0,.57.4l0.16-1-0.49-.16V88.19c0.37-.29.43-0.42,0.81-0.32l0.32-.81-0.08-.16a2.64,2.64,0,0,0-1.05,0c0.25-.54,0-0.58-0.32-1,0.84-.15,1.12-1.88.24-2.18V83.5a1,1,0,0,0,.57.24l0.4-.24V83l-0.65-.4a2.14,2.14,0,0,1-1.05.32v-0.4a2,2,0,0,0-1.29-.08V82.12l-1.62-.4a1.73,1.73,0,0,0-.32-0.65c0-.27.26-0.46,0.24-0.81l0.49,0.4a3.06,3.06,0,0,0,1.05-.49L251.77,79a1.67,1.67,0,0,0-1.46-.32l-0.4-.81a8.16,8.16,0,0,0-2.18-.24c-0.09-.56-0.23-0.28-0.4-0.57-0.42-.68,0-3.07.16-3.72V73.23a1.12,1.12,0,0,0-1.05,0,0.77,0.77,0,0,1-.4-0.81,2.17,2.17,0,0,0-1.05-.16A4.19,4.19,0,0,0,244.9,70a1.13,1.13,0,0,0,.81-1.05c-0.38-.58-0.94-1-0.73-1.7a0.63,0.63,0,0,0-1-.16c-0.33-.29-0.28-0.36-0.08-0.89a2.2,2.2,0,0,0-1.37-.65V65L242,64.82l0.16-2.34,0.24,0.32a1.57,1.57,0,0,0,1-.81l0.32,0.24a2.06,2.06,0,0,0,.49-0.89l1,0.08a1,1,0,0,0,.57-0.89l0.4,0.4,0.16-.08c0.17-.84-0.15-2.39-1.29-1.86l-0.16-.08a2.66,2.66,0,0,1-.16-1.21,8,8,0,0,0-2.34-.32V56.82a3.87,3.87,0,0,0-2.1-1.05V55.12c-0.79-.35-1.38-0.15-1.86-0.73l-0.65.16V55c-0.3,0-.65.06-0.89,0.08a2.68,2.68,0,0,0-.49,1.7A2.63,2.63,0,0,0,233.91,59a7.5,7.5,0,0,0-2,.24,1.33,1.33,0,0,0-.73-0.65,0.52,0.52,0,0,1-.4.16c-0.25.34-.09,0.47,0.16,0.73-0.92-.2-1,0.27-1.86.57l-0.16.73c-0.6.42-1.77-.08-2.43,0.08s-0.33.56-.65,0.89c-0.65.68-1.87,0.93-2.67,1.54h-0.24c0-.89.33-0.78,0.4-1.62-0.59-.18-1.2-0.13-1.29-0.89l-0.24-.16a1.51,1.51,0,0,1-1.54-.81c-1.07.3-3.34,0-3.64-1.54a8.08,8.08,0,0,0-3.8-.08l-0.24,1.05a2.36,2.36,0,0,0-2,0l-0.16.81c-1.31.17-3-.26-4.12,0.4-0.86-.86-1.91-1.15-2.67-2-0.79-.08-3.82.18-4,1h-0.08l-0.08-.32c-1.09-.5-2,0.14-2.91.4l-0.49,1.29a7.49,7.49,0,0,1-1.94-1.05L194,59.57a0.73,0.73,0,0,1,.81-0.57l0.32-.81a3,3,0,0,0-.89-0.73l0.49-1.7a4.33,4.33,0,0,0-2.91-.49c-0.4-.46-0.2-1.33-0.16-2.34a1.21,1.21,0,0,0-.65-0.16,2,2,0,0,1,.16-1.21l-1.46-1.29a0.68,0.68,0,0,1-.4.16,0.47,0.47,0,0,0-.08.57l-0.65.24-0.81-1c-0.49.07-.67,0.11-0.73,0.65l-0.32.08a3.12,3.12,0,0,1-.08-1.29,1.73,1.73,0,0,0-.89-0.16,8,8,0,0,0-.32-1.54,1.73,1.73,0,0,0-.89-0.16,10.71,10.71,0,0,0-.49-2.59V45.17l0.49,0.4a1.6,1.6,0,0,0,.32-1.13l0.49,0.32,0.4-.24a0.85,0.85,0,0,0,.16-0.81l0.57,0.4,0.16-.08a6.2,6.2,0,0,0-.65-3,5.76,5.76,0,0,1,.65-1.54c0.14-.45-0.4-0.6-0.4-1s0.35-.65-0.08-1l-0.24-.32a1.18,1.18,0,0,1,1.05-.4l0.16-.81a0.58,0.58,0,0,0-.57-0.24,0.88,0.88,0,0,0-.24-0.81,2.08,2.08,0,0,0-1.94.4h-0.08L184.42,34c-1-.48-3.16.09-3.48-0.24a1,1,0,0,1,.24-1.21,1.33,1.33,0,0,0-.4-0.65l0.57-.4c0-.52,0-0.76-0.57-0.89,0.25-1.13.87-1.66,1.21-2.75a1,1,0,0,0-.4-1.13l0.16-.81-0.89-1.29c-1.14-1.28-4.37-.65-5.74-0.73-0.08,1-.87,1.35-0.89,2.75a2.75,2.75,0,0,1-2,.32c-0.38.45-1.22,0.9-1.13,1.54-0.71,0-5.37-.49-6-0.16l-1.29,1.46c-0.48.15-.26-0.26-0.57-0.4-0.71-.35-2.57.54-2.91,1-0.16.59-.26,0.93,0.32,0.89V32.4c0.31,0.11.17,0,.32,0.24a0.76,0.76,0,0,0,.73-0.16h0.08v2.18a1.3,1.3,0,0,0,.65-0.16l0.08,2.1c0.66,0.16.71,0.64,1.29,1a10,10,0,0,0-.32,3.56h-0.24a0.49,0.49,0,0,0,0,.65,7.61,7.61,0,0,1-2.67.49l-0.16.32,0.32,0.32c-0.35.31-.3,0.27-0.16,0.73a12.3,12.3,0,0,0-2.18.65l-0.16,1.37a4.47,4.47,0,0,1-1.7.49L156.29,48a4.4,4.4,0,0,0-1.62-.24c-0.21-.65-0.09-1.29-1.05-1.29,0-.41.06-0.45-0.4-0.57l0.4-1.37a1.71,1.71,0,0,0-1.37-.89,2.41,2.41,0,0,0,.16-1.13L150,42.18c-0.89.52-.67,0.81-1.05,1.86a1.65,1.65,0,0,1-.73.32,10.7,10.7,0,0,0-.16,1.29c-0.08.22-.55,0.73-0.65,1-0.28.72,0.19,1.46,0.16,1.94l-0.4,1.37a1.14,1.14,0,0,0-1.13.81c-0.43,0-.28.54-0.24,1.05a4.5,4.5,0,0,0-1.7,1.86,18,18,0,0,1-1.78.57c-0.33,1.52.29,2.45,0.4,3.64a1,1,0,0,1,.65.16l0.16,0.08a13.11,13.11,0,0,1-2.1.81,4.92,4.92,0,0,0-4.77-1l-0.4.89a4.52,4.52,0,0,1-.89.32c-0.54,1.75.18,3.72,0.16,5.66l0.08,0.08a0.82,0.82,0,0,0,.49-0.32L136.15,66c-0.83-.26-1.74.69-2.67,0.81a0.62,0.62,0,0,0,0,.73,0.58,0.58,0,0,1-.49.32l-0.16.32,0.57,0.81a0.82,0.82,0,0,0-.89.81,1.78,1.78,0,0,1-1.05-1.05l-0.65.08a1,1,0,0,1-.4-1,1.73,1.73,0,0,0-.89-0.16,6,6,0,0,1,.65-1.46c-0.38-.4-0.36-1.28-0.81-1.62a1,1,0,0,1,.24-0.4,0.88,0.88,0,0,0-.65-0.81c-0.43.25-1.29,0.49-1.21,1.05a5.7,5.7,0,0,0-1.7.16,4.73,4.73,0,0,0-2.34-1.37,2.63,2.63,0,0,0-1.29.4l-1-1.13a1.25,1.25,0,0,0-.81.24,1.18,1.18,0,0,0,.81,1.29l-0.24.65a2.21,2.21,0,0,0-1.37.4l-0.16.65c-0.06.71-.11,1.09,0.49,1.21v0.32a1,1,0,0,0-.57.4l-0.16,1.62,0.49,0.16-0.08,1c-0.65.31-.84-0.2-1.54,0.08l-1,.65a2.11,2.11,0,0,0-1.94.24,1.93,1.93,0,0,0-1.21-1.21c-0.85.45-1.9-.07-2.51,0.81l-0.08.4a12.53,12.53,0,0,0-3,.49l-1.94-.4L107,69.83c0.42-.24.3-0.14,0.81,0l0.4-.49c0.35-.12.14-0.09,0.49,0.08l0.32-.81a0.77,0.77,0,0,0-.65-0.24,6.5,6.5,0,0,0,.32-1.29,2.2,2.2,0,0,0-1.94.16c0-.48,0-0.48-0.32-0.65L107.21,64,107,63.77a3.19,3.19,0,0,1-1.37-.16L105.19,63a4.58,4.58,0,0,0-1.37.08c-0.32-.27-0.11-0.42-0.73-0.49V61.91l-0.57-.16c0-.55,0-0.74-0.49-0.89l0.32-.65c0.71,0.08.66-1.22,0.32-1.7a8.37,8.37,0,0,0,.4-1.13,0.62,0.62,0,0,1,.57,0l0.08-1a6.27,6.27,0,0,0,1.13-1.94l-0.16-.24h-0.57l-0.08-.4a0.7,0.7,0,0,1,.73-0.32c0.61-.74-0.06-2.22.32-3.23a0.92,0.92,0,0,1,1.05-.4,0.75,0.75,0,0,0,.24-0.81l0.57,0.4,0.24-.81a0.54,0.54,0,0,0-.4-0.24l0.4-1.21L107.13,47a9.82,9.82,0,0,1-1.7-.32l0.24-1.05a1.4,1.4,0,0,0-1-.49L105,44l-0.08-.24c-3.26-.8-3.5,2.91-6.55,2.34a8,8,0,0,1-1.13,1.29c-0.49.37-2.19-.17-3.07,0.08-0.06.25,0,1-.08,1.21-0.2.53-1,.84-1.21,2-1.48-.1-2.35-0.83-3.88-0.4a3.2,3.2,0,0,0-1.54,1.54,3.61,3.61,0,0,0,.65,2.1c-1.49-.38-3.83.93-4.53,2-0.31.32-2.73,0.19-2.75,0.16a5,5,0,0,0-1.29,1.78v0.57H80l-0.08.4,0.16,0.24,0.49-.24a0.46,0.46,0,0,0,.49.32c0,0.9.08,1.4,0.08,2.43l-0.49.16a3.07,3.07,0,0,0-.08,1.86,7.48,7.48,0,0,0-1.86.08,1.53,1.53,0,0,0,.16,1.05,2.84,2.84,0,0,0-1.86,2.59,9.72,9.72,0,0,1-1.54.32l-0.57,1.78v1.13a0.84,0.84,0,0,0,.65-0.08l-0.08.81,0.08,0.08A0.82,0.82,0,0,0,76.08,71l0.16,0.4h0.24L77,71l-0.08,1.78,0.65-.08v1l0.24,0.08,0.4-.4c0.43,1.83,2.29,1.29,2.26,3.31a1,1,0,0,1,.65.49c0.38,0.22.36,1.09,0.32,1.7a1,1,0,0,0,.73-0.08c0,2.94-1.64,3.35-2.26,5.42a20.53,20.53,0,0,0-4.37.49c-0.24.35-.06,0.43,0.16,0.73-1.14.31-1.33-.09-2.59-0.16C73,84.63,72.86,85,72.6,84.71s-0.33-2-.32-3A2,2,0,0,0,71,81.64a2,2,0,0,0-.81-1.29,4,4,0,0,0-1.86.08c-1.11,1.4-2.48,1.88-2.43,4.85A1.18,1.18,0,0,0,65,86.73a1.4,1.4,0,0,0-.89.16A4.41,4.41,0,0,0,64,88.43l-0.81.49a2.73,2.73,0,0,0,.4,1.94,0.84,0.84,0,0,0,.73,0v0.81a8.87,8.87,0,0,1,1.46.24v0.73c0.5,0.07.61,0.1,0.81-.32h0.16c0.41,1.14,0,1.83,0,3.31a0.84,0.84,0,0,0,.65-0.08,1.21,1.21,0,0,1-.57,1.21l0.4,0.73a1.33,1.33,0,0,0-.81,1.29,4.58,4.58,0,0,0-2.18.08,1.91,1.91,0,0,0-.08,1.13h0.49a5.23,5.23,0,0,0-.65,1.86c-0.06.67-.09,1,0.4,1.21-0.58,1.68.4,3.18,0.4,4.85L64.92,108a0.82,0.82,0,0,0,.49-0.32,2,2,0,0,0,.32.4,3.4,3.4,0,0,1-.81,1.13,1,1,0,0,0-1.05.16l-0.16.73c-0.37.59-2.81,0.24-4,.16l0.16-.49-0.24-.24c-0.69-.26-3.08.1-4.2,0.32,0.36-.6,1.07-3-0.4-2.18-0.12-.73-0.59-0.63-0.49-1.29-0.45-.54-1.46-0.28-2-0.08a2.65,2.65,0,0,0,0,1.46,3.51,3.51,0,0,1-1.46.57c-0.56.89-1.24,1.39-1.21,2.83-0.68.42-1.94,0.62-2.43,1.62-0.36.75,0.65,1,.57,1.7a27.79,27.79,0,0,0-.16,4.2,5.14,5.14,0,0,1-1.13,1l-0.16.32c0.74,1,.67,1,0.65,2.43l0.08,0.08a0.82,0.82,0,0,0,.49-0.32l0.16,0.4c0.43,0,.39,0,0.57-0.24,0.19,0.09.14-.07,0.24,0.32l0.65-.24,0.24,0.16a1.7,1.7,0,0,0-.73,1.78c-0.48.18-.53,0.43-1.05,0.65-1-.73-1.09-0.42-1.94-0.81l-0.65.32A2.22,2.22,0,0,0,45,125.7l0.24,0.08,0.32-.24,0.4,0.57c-0.18,1.55-.89,2.67-0.89,4.37-1.15.05-2.21,0.66-3.15,0.73a6.76,6.76,0,0,0-1.62-.24,4,4,0,0,1-2.18.32l-0.32-.16-0.57.57a1.71,1.71,0,0,0,.16,1.62l-0.57.4-0.08,1L37,134.76l0.4-.4,0.08,0.4c0.65,0.14,1.48-.44,1.54.81a0.57,0.57,0,0,0,.4-0.08,7.44,7.44,0,0,0-.32,1.29c0.34,0.15.38,0.16,0.57-.24a2.84,2.84,0,0,1,.65,1.7c0.28,0,.2.11,0.4-0.08h0.08c-0.11.73-.44,0.43-0.65,0.89l-0.08,1.62-0.73,1.13H39.29a1.07,1.07,0,0,1,0-.89l-0.08-.16a4.74,4.74,0,0,0-1.46-.16l-0.57.49a14.37,14.37,0,0,0-.16,3.56,2.54,2.54,0,0,0,1.7.08v1.37c0.23,0.31.34-.06,0.4,0.57a1,1,0,0,0,.73-0.08c0.18,0.68.62,2,1.21,2.26l-0.24.49L41.31,150c-0.53.28-1,0-1.46,0.57a4.92,4.92,0,0,0,.89,3.31l0.32-.4,0.49,0.4,0.57-.49L42,155.21c0.48,0.05.54,0.09,0.73-.32l0.16-.08a2,2,0,0,1,.57,1.62c0.33,0.14.35,0,.49,0.4a2.61,2.61,0,0,0-1.37.4l-0.32,1.21c0.08,0.29,0,.16.16,0.32L42.61,159l-0.57.16a0.94,0.94,0,0,1-.32-0.65,7.09,7.09,0,0,0-1.46-.24c-0.93,1.25-.48,1.37-1.05,2.59l-1.13.65,0.16-.49c-0.68-1.05-2.24.11-2.91,0.4L35,161.2c-0.33-.31-0.67,0-1.13.24-0.2-.14-0.4-0.56-0.57-0.65-0.7-.33-0.74.24-1.21-0.32l-1.7.73a1.68,1.68,0,0,0,.24,1.05,1.53,1.53,0,0,0-.73,1.21,7,7,0,0,0-1.29.16l-0.16.24a1.77,1.77,0,0,0,.24,1.46l-0.65.16-0.16.24,0.73,0.89,0.32,4.2a3.53,3.53,0,0,0-1.29,1L28,172.27a4.77,4.77,0,0,1-1.62.57L26.19,174l0.08,0.08a0.81,0.81,0,0,0,.49-0.32l0.16,0.4a1.07,1.07,0,0,0,.57-0.24l0.65,1.29a7.52,7.52,0,0,0,1.86.57,11.19,11.19,0,0,0-.65,2.1c0.33,0.47.67,1.33,1.37,1.46a3.41,3.41,0,0,1-.4,1.46,2.2,2.2,0,0,0,.24,1.29c-0.52-.07-1.9.71-1.13,1.62l-1.46,1-0.08.89,0.4,0.16,0.24-.32a3.17,3.17,0,0,0,.49,1c0.06,0.32-.15,1.2-0.08,1.7-0.14,0-1.08.13-1.29,0.16a0.83,0.83,0,0,0-.16.65l1,1.29,0.4-.32,0.16,0.4,1-.4a1.33,1.33,0,0,0,.49.57v0.24a2.25,2.25,0,0,1-1.13.49l-0.16,1.13,0.08,0.08a0.82,0.82,0,0,0,.49-0.32l0.57,0.81a1.31,1.31,0,0,0-.73,1.46l0.08,0.08a0.82,0.82,0,0,0,.49-0.32l0.16,0.4,0.81-.24,0.16,0.4c0.06,0.17-.23.67-0.24,1.37L31.13,196a0.4,0.4,0,0,0,.4-0.32l0.24,0.4c1.1,0,1.44-.32,1.37-1.46a1.35,1.35,0,0,0,1-.89c0.38-.09.14-0.09,0.49,0.16l0.32-.49a3.29,3.29,0,0,1,.65-0.16l0.16,0.57,0.49-.24,0.08-.16,0.16,0.49,0.4-.08a0.85,0.85,0,0,0,.16-0.81l0.16,0.16,0.4,0.32a1.44,1.44,0,0,0,.08-1.13c0.4,0,.32,0,0.49-0.24a1.28,1.28,0,0,0,1,.73,0.64,0.64,0,0,0,.49-0.49l0.24,0.49a0.62,0.62,0,0,0,.65-0.57c1.07,1.06,1.57,1.75,2.75,2.18l0.08,0.16-0.24.49a5.77,5.77,0,0,0-1.54-.24,0.42,0.42,0,0,1-.4.24l-0.24.57a2.74,2.74,0,0,0,.65,1.62,2.79,2.79,0,0,0-.4,1.37c0.4,0.08.37,0,.65-0.24l0.16,0.4a0.61,0.61,0,0,0,.65-0.65,1.44,1.44,0,0,1,1.05.81,1.22,1.22,0,0,0-.73,1.37L43,200.49l0.49-.24a0.75,0.75,0,0,0,.4.32,3.81,3.81,0,0,1,1.37-.73l0.08-.08,0.16,0.08-0.16,1.05L45.44,201a0.81,0.81,0,0,0,.49-0.32,0.67,0.67,0,0,0,.4.4,12.53,12.53,0,0,1,1.7-.81l-0.08,1,0.16,0.08a1.08,1.08,0,0,0,.4-0.24l0.08-.16,0.16,0.49,0.81-.32v0.4c0.48,0.05.54,0.09,0.73-.32,0.32,0.14.23,0,.32,0.4l-0.65.24a2.06,2.06,0,0,0-.24,1.13L49.88,203a1.08,1.08,0,0,0,.4-0.24l0.08-.16,0.32,1.21a0.76,0.76,0,0,0,.73-0.16,1.59,1.59,0,0,0,1.29,1.46l-0.08.49a0.6,0.6,0,0,0,.49-0.08l0.4,0.24-0.32,2.18L53.36,208a1.08,1.08,0,0,0,.4-0.24l0.08-.16a3.16,3.16,0,0,1,.24,1.29c0.53,0.06.65,0,.81-0.49H55c0.27,0.72.72,0.82,0.73,1.78,0.5,0.06.62,0,.81-0.4l0.32,0.65a1.17,1.17,0,0,0,.89-0.4h0.08a10.19,10.19,0,0,1-.4,3.31c-0.29,1.55.25,2.24,0.24,3.4,0.35,0.11.15,0.21,0.4-.08a3.14,3.14,0,0,1,.32,2.26L58.45,219l0.57-.32,0.08,0.4h0.24a0.62,0.62,0,0,0,.4-0.81l0.4,0.4c0.33,0.22.31,0.09,0.57-.16l0.16,0.4a2.56,2.56,0,0,0,1.37-.32l0.32,0.32,0.4-.32,0.16,0.4a0.84,0.84,0,0,0,.73-0.81l0.4,0.32,0.4-.73,0.16-.16a6.91,6.91,0,0,1,.08,1.13l0.24,0.08,0.32-.4a0.57,0.57,0,0,0,.4.4,0.6,0.6,0,0,0,.32-0.81l0.57,0.4c0.27-.57,0-1,0.57-1.21l-0.08.73c0.4,0.08.37,0,.65-0.24,0.1,0.36,0,.27.32,0.4a0.82,0.82,0,0,0,.49-0.73l0.4,0.32,0.32-.73,0.49-.24L70,217.47a0.88,0.88,0,0,0,.73-0.4,0.81,0.81,0,0,1,.24.57,2.07,2.07,0,0,0,1.13-.81l-0.08.73,0.08,0.08a0.84,0.84,0,0,0,.57-0.32c0.3,0.51.39,0.4,0.81,0.08v1.13l0.24,0.08,0.32-.32,0.16,0.4,0.4-.08,0.24-.65,0.16-.08c0.33,0.69-.11,1-0.16,1.86L76,219.82v0.65l0.24,0.16,0.32-.32c0.54,0.55,1,.11,1.62.49l0.73-.49c0.1,1-.45,1.37-0.49,2.43l0.08,0.08a0.84,0.84,0,0,0,.57-0.32L79.23,223a0.81,0.81,0,0,0,.57-0.24l0.4,0.49c-0.11.8-.55,0.68-0.57,1.78l0.08,0.08,0.57-.32,0.08,0.4h0.24l0.65-.4,0.08-.16,0.16,0.49,0.4-.08a0.85,0.85,0,0,0,.16-0.81l0.16,0.16c0.53,0.33.2,0.18,0.81,0-0.08,2.51.18,0.83,0.89,2.34,0.32,0.06.31,0.14,0.49-.16a2.31,2.31,0,0,1,1.05,1.21,15.15,15.15,0,0,1,1.86.65,0.74,0.74,0,0,0,.57-0.24,0.75,0.75,0,0,0,.4.32,0.6,0.6,0,0,0,.32-0.81l0.57,0.4c1-.67,1.85-0.46,2.83-1.05l-0.08.81,0.16,0.08a1.08,1.08,0,0,0,.4-0.24l0.08-.16L92.74,228l0.4-.08a0.73,0.73,0,0,0,.16-0.73l0.57,0.4a7.86,7.86,0,0,0,.81-1.21l0.24,0.57a0.77,0.77,0,0,0,.73-0.73l0.4,0.32a6.76,6.76,0,0,0,.08-1.21c0.33-.43.61-0.25,0.73-1a0.54,0.54,0,0,1,.49.08,2.2,2.2,0,0,0,.73-1.37l0.49,0.4c0.4-.46,0-0.79.24-1.37s0.6-.41.73-1l0.4,0.24,0.16-.08a1.72,1.72,0,0,0-.08-1.21l0.57,0.4,0.16-1c0.37,0,.5.16,0.73-0.24l0.24,0.4a2,2,0,0,0,1.29-.24,7.17,7.17,0,0,1,.49,1.21l0.4-.32a0.75,0.75,0,0,0,.4.32,0.74,0.74,0,0,0,.4-0.65c0.4,0.08,1.52.1,1.62,0.4,1.45-.06,2.76-1.53,3.72-1.46a3.45,3.45,0,0,0,.16-1.78l0.16-.08,0.16,0.32c0.3-.15.27-0.19,0.32-0.57h0.08l0.49,0.57,0.4-.24V218L112,218a1.08,1.08,0,0,0,.4-0.24l0.08-.16,0.16,0.49a1.75,1.75,0,0,0,.89-0.65,5.41,5.41,0,0,0,.65,1.46l0.4-.4,0.08,0.4,0.16,0.08a0.67,0.67,0,0,0,.49-0.89,1.67,1.67,0,0,1,1,1.46l0.08,0.08a0.4,0.4,0,0,0,.4-0.32l0.73,0.65,0.49-.08a2.37,2.37,0,0,1,.4-0.65c0.09-.1.66-0.24,1-0.49l0.08,0.4c0.69,0.05,1.74-1,2.43-1.37,1-.3,2.71.7,3.48,1.05,1.91,0.88,2.84,2.38,4.37,3.56,1.12,0.87,2.57,1.57,3.72,2.34,3.27,2.2,7.28,3.23,10.43,5.5a54.85,54.85,0,0,1,8.25,7.76l1.86,2.51c3.35,3.49,7.25,7.41,3.8,13.83-1.6,3-5.22,4.61-8.41,6-2.29,1-6.25-.05-8.49,1-1.17.53-1.89,1.88-3,2.34-0.63.27-1.52,0-2.26,0.24-1.87.73-3.94,1.57-5.9,2.18l-3.8.65-3.23,1.46c-1.34.39-2.68,0.27-3.8,0.89a74.15,74.15,0,0,1-10.11,4.12c-1.42.52-2.33,1.65-3.88,2a1,1,0,0,0-.24.73l0.16,0.24c1.61,0,2.52-.71,3.88-1.05,1.18-.29,4,0,4.77-0.4,0.91-.44,1.64-1.4,2.51-1.78a25.33,25.33,0,0,1,2.83-.89c4-1.23,7.34-2.16,11.16-3.4l7-1c2.07-.78,4-2,6-2.91l3.23-.57,3.4-1.13v0.08a21.72,21.72,0,0,0-3.64,2.51c-1.38,1-3,1.26-4.29,2.26-1.09.86-1.58,2.28-2.83,3-2.29,1.31-5.87.76-8.57,1.7-0.9.31-1.37,1.36-2,1.94l-2.83,1.7a22.19,22.19,0,0,0-3.88,4.12l0.49,0.4c2-.17,2.84-2,4.29-2.67,0.94-.43,1.59-0.46,2.51-0.89l1.37-1c2.08-.75,4.5-1.23,6.55-1.94,1.51-.52,3,0.17,4.29-0.57,1.63-.95,2-2.47,3.23-3.8a5,5,0,0,1,1.21-.65c0.91-.54,1.85-1.37,2.83-1.94s3.25-.68,4.69-1.37c2-1,4.27-2.33,7-2.43,0,3.61-1,5.5-3.23,7.36-1.62,1.32-4.47,3.2-2.83,6.23,0.41,0.66,1.56.95,2.75,0.89l0.08-.49a3.08,3.08,0,0,0-1.62-1.29c0.56-2,2.14-1.83,3.48-3.15s2.17-3,3.4-4.45c0.84-1,1.92-1.92,2.75-2.91a5.9,5.9,0,0,1,1.86-1.94l1.21,1.13c1.82,0.84,4.47-.16,6.06.89,1.09,0.72,1.82,2.07,2.91,2.67a74.83,74.83,0,0,0,10.92,5.34l4.53,0.08c1.37,0.47,3.3-.77,4.29-0.32,0.54,0.25,1.07,1.15,2.18.89a7.79,7.79,0,0,1,1.94-.65l0.24-.24v-0.4l-0.16-.08c-0.62-.55-1.67.29-2.26,0.08-0.85-.3-1.28-1.2-2.26-1.46h-1.86l-7-1a10.3,10.3,0,0,1-1.86-1.37,7.71,7.71,0,0,0-1.86-.4l-1.54-1.46-2.1-.4a10.87,10.87,0,0,0-2.43-3.48v-0.08c0.88,0.2,2.33.42,3.15,0.65s1.64-.4,2.75,0c1.36,0.49,3.26.43,5.5,0.89l2.51,0.81,3.15,0.16,1.21,0.65c1.06,0.4,2,.12,3,0.57l0.73,0.65h2.26c1.09,0.3,2.42.17,3.4,0.49,2.33,0.74,4.37,2.18,7.36,2l-0.08-.65-7-3.72c-2.06-.68-4.63,0-6.47-0.89-0.77-.36-1.82-1.08-2.59-1.46-1-.47-2.09-0.25-3.07-0.65l-2.18-1.21c-0.76-.31-1.57.07-2.34-0.08-2-.4-4.52-1.24-6.55-1.78l-3.15-.4c-1.3-.35-5.94-4.25-6.79-5.34-1.42-1.8-1.64-6.85-.89-9.38l1.05-2.67c0.57-1.95.59-3.81,1.21-5.42,3.38-8.77,7.39-17.48,12.53-24.58,1-1.43,1.5-3.09,2.43-4.61l0.89-1.05c0.2-.39.94-1.54,0.57-2,0.95-1,6.4-5.4,6.47-6.31l0.16-.08a0.75,0.75,0,0,0,.4.32h0.08a0.79,0.79,0,0,0,.24-0.89l0.57,0.49,0.24-.24,0.32,0.49,0.32-.4,0.49,0.4a0.6,0.6,0,0,0,.32-0.81c0.85,0.37.81,1,1,1.86a5.94,5.94,0,0,0,2.34-.24,0.44,0.44,0,0,0,.32.24c0.4,0.76.14,1.17,0.08,2l0.16,0.08a1.08,1.08,0,0,0,.4-0.24l0.08-.16,0.16,0.49,0.4-.08a0.73,0.73,0,0,0,.16-0.73,6.27,6.27,0,0,1,.73.4,4.57,4.57,0,0,1,.24,1.29l0.24,0.08,0.24-.49,0.24,0.49,0.4-.08a0.73,0.73,0,0,0,.16-0.73,1.51,1.51,0,0,1,1,.73l0.4-.32,0.32,0.4a1,1,0,0,0,.57-0.89l0.4,0.4,0.16-.24a1.45,1.45,0,0,1,.89.89l0.32-.4a1.51,1.51,0,0,1,.57,1l0.16,0.08,0.32-.32,0.16,0.16a2.31,2.31,0,0,0-.49,1.29l0.08,0.16,0.24,0.08,0.24-.49a1.54,1.54,0,0,0,.89.89l-0.08.81,0.73,0.32c0,0.41-.17.27-0.4,0.49a12.67,12.67,0,0,0,.73,1.37,1,1,0,0,0,.49-0.32l0.16,0.4,0.4-.08a0.76,0.76,0,0,0,.16-0.81l0.65,0.4a4.09,4.09,0,0,1,2.18-1.05c0.26,1,1.65,1,2.34.57v0.57c0.37-.08.24,0,0.4-0.24h0.08l0.08,0.81,0.08,0.08a0.85,0.85,0,0,0,.49-0.24l0.24,0.32h0.24a0.92,0.92,0,0,0,.4-0.65l0.16-.08,0.32,0.32c0.11-.31.07-0.83,0.16-1.05,0.23-.57.94-0.29,0.81-1.13,0.17,0.05,0,0,.16.08l0.4,0.32,0.24-.81a1.38,1.38,0,0,0-.89-0.49v-0.08c0.72-.86,1.34-0.45,1.78-1.46l-0.24-.89c0.78-.4,2-0.18,2.18-1.29l0.49,0.24c0.43-.92.8-1.67,1.7-1.62l0.24-1-1.13-.49a19.9,19.9,0,0,0-.08-2.34l0.32,0.16a3.72,3.72,0,0,0,.16-1.94l-0.89-.08a3.86,3.86,0,0,1-.57-2l0.32,0.16,0.16-.24a11.48,11.48,0,0,0-.81-2.34H227v-1.94a1,1,0,0,1,.57-0.16l0.16-.24c0.06-.64.1-1-0.4-1.13a0.65,0.65,0,0,1,.24-0.73c0.15-.23.06-0.06,0.32,0l0.16-.16a0.93,0.93,0,0,0-.32-1,0.4,0.4,0,0,0,.32-0.4l0.32,0.24,0.16-.08,0.16-.73-1-1.13c0.57-.21.57-0.54,1-0.49l0.24-.81a0.61,0.61,0,0,0-.4-0.32l0.24-1.05a1.79,1.79,0,0,0,.89-0.49l0.16,0.32c0.59-.16.49-0.42,1-0.32a1.21,1.21,0,0,0,.16-0.65c0.38,0.13.26,0.18,0.49-.16l0.16,0.32c0.59-.16.49-0.42,1-0.32l0.16-.73,0.4-.08c0.14,0,0,0,.16.16a3.46,3.46,0,0,0,1.54-.65l0.16,0.32c0.8-.17.78-0.57,1.46-0.81,0.26-.17,0,0,0.4.08a13.41,13.41,0,0,0,1.21-1.05c0.26-.18,1-0.17,1.21-0.32a17.09,17.09,0,0,0,1.13-1.62l0.32,0.16,0.57-1.37c0.15-.23.06-0.06,0.32,0a1.8,1.8,0,0,0,0-1.29c0.64,0.23.71-.25,1.21-0.16l0.16-.57a5.44,5.44,0,0,0,1.46-.24V171c1.3-.07,5.36-2.21,5.9-2.1l0.16-.73c0.29,0.08,2.82-1.53,3.88-1.78v0.32c0.37-.08.24,0,0.4-0.24,0.25,0.29.11,0.24,0.49,0.24v0.73c0.37-.08.24,0,0.4-0.24l0.16,0.32a0.73,0.73,0,0,0,.65-0.49,1.47,1.47,0,0,1,.16,1c0.37-.08.24,0,0.4-0.24l0.08,0.4,0.49-.16-0.08,1.94a1.51,1.51,0,0,0,1.21-.16l0.08,0.49c0.37-.08.24,0,0.4-0.24l0.16,0.32a0.42,0.42,0,0,0,.4-0.24l0.08,0.73c0.37-.08.24,0,0.4-0.24l0.16,0.32,0.49-.24,0.08,0.32c0.37-.08.24,0,0.4-0.24l0.16,0.32,1.13-.49v0.49c0.37-.08.24,0,0.4-0.24l0.16,0.32c0.59-.16.49-0.42,1-0.32l0.16-.81,0.16,0.32a0.73,0.73,0,0,0,.65-0.49c0.35,0.2.3,0,.4,0.4,0.37-.08.24,0,0.4-0.24l0.16,0.32a5.17,5.17,0,0,0,1.13-.49v0.65l0.81,0.16,0.49-.49a0.84,0.84,0,0,0,.89.16l0.08,0.57a2.18,2.18,0,0,0,1.86-.32l0.4,0.32a0.89,0.89,0,0,0,.49-0.73l0.57,0.24c0.17-1.44.14-2.49,0.24-4l-0.49-.4a5.26,5.26,0,0,1,.08-2.75c-0.2-.29-0.15-0.3-0.65-0.32,0.23-.52.57-0.65,0.32-1.21l0.49,0.32a0.62,0.62,0,0,0,.49-0.16c0.3-.21.23-0.26,0.16-0.65l0.49,0.16a1.35,1.35,0,0,1,.73-0.81L275,161l0.4-.08a0.76,0.76,0,0,0,.16-0.81l0.24,0.24,0.32,0.24,0.24-1-0.49-.16a0.83,0.83,0,0,0,.24-0.65l-1.7-1.46a3.23,3.23,0,0,0,.16-1.21,2.27,2.27,0,0,0,.73.16l0.24-.73c0.2,0.06.18,0,.32,0.32a17.65,17.65,0,0,0,2.91-1.46,0.75,0.75,0,0,0-.08-0.89l0.16-.16,0.73,0.4c0.91-.07,1.6-2,1.46-2.59l0.08-.24,0.57,0.16,0.16-1.21a1.29,1.29,0,0,1,.81-0.16,1,1,0,0,0,.24-0.73l0.49,0.4c0.31-.87-0.31-1.39.24-2.1,0.17-.1.21,0.09,0.57,0.24a1.7,1.7,0,0,0,.89-1.13l0.49,0.24c0.51-.56,1.15-1.62,1.86-1.46a0.83,0.83,0,0,0,0-1.05,1.24,1.24,0,0,1,1.21-.89,3.6,3.6,0,0,0,.49-1.05A0.64,0.64,0,0,0,288.48,142ZM135.1,218.52c-0.67.43-4.62-3-5.26-3.64a4.25,4.25,0,0,1,2.26-1.13c0.75-1.47,1.7-1.24,2.26-2.1C134.86,212.23,135.61,218.1,135.1,218.52Zm24.58,20c-4.61-4-8.25-9.17-13.26-12.77-1.78-1.28-3.6-2.65-5.42-3.8-0.54-.34-1.47-0.5-1.78-1.05-0.82-1.47-1.46-7.73-1.46-10a2.26,2.26,0,0,0,1.46-1l0.08,0.32a0.79,0.79,0,0,0,.73-0.32l0.16,0.32,1.05-.49h0.08V210c0.37-.08.24,0,0.4-0.24l0.16,0.32,0.57-.24c1.31,3.33,2.65,6.69,4.93,9.06,1.18,1.22,2.75,2,4,3.15C154.27,224.54,160.18,233.18,159.68,238.49Zm-1-17-0.49-.08c-1.33-.48-2-2-3-2.83-1.42-1.15-2.82-2.38-4.2-3.48l-2-1.46-2.83-6v-0.32c1.46,0.2,3.49-2.21,5.09-1.86a1.21,1.21,0,0,0,.16-0.65l0.24-.08v0.49c0.37-.08.24,0,0.4-0.24h0.08l-0.08,1.05c0.37-.08.24,0,0.4-0.24a1.06,1.06,0,0,1,.4.89c0.37-.08.24,0,0.4-0.24l0.16,0.32a3.17,3.17,0,0,0,1.62-.89l0.16,0.32c0.59-.16.49-0.42,1-0.32a2.27,2.27,0,0,1,.57-1.21c0.15-.23.06-0.06,0.32,0,0.36-.81.26-2.25,1.29-2l0.24-.65c0.15-.23.06-0.06,0.32,0l0.32-.89,0.49,4.29C160.77,209.9,161,218.23,158.71,221.51Zm9.78-6.47a12.65,12.65,0,0,0-1.29,1.86l-0.57.49c-1.58-3.47-1.86-8.59-2.83-12.61-0.57-2.36,0-5.25-.57-7.28,0.1-.33,0-0.17.24-0.24a3.1,3.1,0,0,0,.08-1.54l0.32,0.16c0.48-1,.27-1.71.73-2.67,0.15-.23.06-0.06,0.32,0,0.24-.55.14-1.14,0.73-1.37a0.58,0.58,0,0,1,.89.4,0.8,0.8,0,0,0,.81-0.24c0.18,0.3.48,0.64,0.81,0.32l0.16,1.13c0.53,0.06.65,0,.81-0.49l0.32,0.73c0.89-.06,1.35-0.71,2.1-0.73a4,4,0,0,0,.57-2l0.32-.08c0.14,0,0,0,.16.16,0.59-.16.49-0.42,1-0.32a0.68,0.68,0,0,0-.16-1.05,1.21,1.21,0,0,0,.89-1.29l0.81,0.49,0.81-2.26,1.05-.24,0.08,0.4a11.1,11.1,0,0,1,1.46-.24,2.34,2.34,0,0,0,.73-1.21l0.65,0.49,0.57-1.05h0.32l0.08,1.29,0.4,0.4a3.18,3.18,0,0,0,1.21,0,0.92,0.92,0,0,0,.4-0.65H183c1,3.22-2.71,7.23-4.12,9.3a87.49,87.49,0,0,0-7.84,13.5Zm18.92-14.55c-1.45,1.34-3.27,2.35-4.45,4-0.66.91-.85,2-1.46,3-0.76,1.25-1.94,2.37-2.75,3.56l-4.45,7.92c-0.85,1.39-2.73,2.48-3.23,3.8l-0.16.08c0.16-3.53,2.57-8.76,3.88-11.48l0.57-1.94,1.21-1.94,0.57-2c3.18-5,6.31-10,9.54-15l0.49,0.24h-0.32l-0.08.32a3.16,3.16,0,0,1,.4,2.18,1,1,0,0,1,1.05.49,0.77,0.77,0,0,1-.57.73c0.19,0.95,0,.82-0.16,1.94l0.08,0.16,0.16,0.08,0.32-.4,0.49,0.4a0.6,0.6,0,0,0,.32-0.81l0.89,0.73A21.72,21.72,0,0,1,187.41,200.49Z" transform="translate(-26.19 -23.82)"/><path d="M293.55,195.32q0.74-2.73,6-10.55t13.15-18.36q7.94-10.55,17.62-23t19.11-24.2q9.43-11.78,17.74-22t13.52-16.38q5.21-1.73,8.19-2.61a43,43,0,0,0,4.72-1.61c1,0.33,1.16.83,0.5,1.49a8.59,8.59,0,0,0-3.72,5.71q-1,5.71-2,13.65t-1.86,16.87q-0.87,8.93-1.61,18.36t-1.24,17.87q-0.5,8.44-.74,15.51t-0.25,11.29a9.86,9.86,0,0,0,.37,3.35,0.91,0.91,0,0,0,1,.74,2.68,2.68,0,0,0,1.36-1q0.74-.87,1.49-1.86,2.73-3.47,8.93-11t14.15-17.12q7.94-9.55,16.88-20t17.12-19.73q8.19-9.31,14.77-16.63t9.8-10.3a62.72,62.72,0,0,1,9.68-3.72,37.08,37.08,0,0,0,9.18-4,1.54,1.54,0,0,1,1.24.62,1.06,1.06,0,0,1,0,1.36,37.84,37.84,0,0,0-6.08,3,9.2,9.2,0,0,0-3.1,4.72q-3,9.43-6.08,22t-5.71,25.69q-2.61,13.16-4.34,25.69a162.27,162.27,0,0,0-1.74,22q0,3.48,1.61,4.84a5.75,5.75,0,0,0,3.85,1.36,27.74,27.74,0,0,0,5-.5,21.68,21.68,0,0,0,5-1.49,0.64,0.64,0,0,1,.62.62,1.18,1.18,0,0,1-.37,1.12l-5.83,1.74-6.7,2-6.2,1.86q-2.86.87-4.84,1.37a9.32,9.32,0,0,1-4.84-1.12,5.5,5.5,0,0,1-2.36-4.09,114.92,114.92,0,0,1,1.74-11.42q1.49-7.94,3.72-17.87t4.84-20.85q2.61-10.92,4.84-20.23t3.85-15.76q1.61-6.45,1.86-7.69,1-3.72,0-3.6a7.05,7.05,0,0,0-3,1.86q-4.72,4.22-11,10.79t-13.4,14.52q-7.07,7.95-14.52,16.88t-14.64,17.87q-7.2,8.93-13.65,17.5t-11.42,15.76c-0.33.66-.74,1.45-1.24,2.36a15.18,15.18,0,0,0-1.24,3.1,19.69,19.69,0,0,0-7.07,1.36,20.37,20.37,0,0,0-4.84,3.35c-1,.33-1.57.16-1.74-0.5q0.74-5.21,1.61-13.9t1.74-19.11q0.87-10.42,1.61-21.47T375.94,121q0.74-9.8,1.24-17.25t0.74-10.67q0-4.71-4,0-7.2,8.19-17,20.6t-19.73,25.81q-9.93,13.4-18.74,26.31t-14,22.33q-4.47,8.19-5.34,12.41a24.48,24.48,0,0,0-.62,6.95c0.16,1.82,0,2.61-.5,2.36a4,4,0,0,1-1.49-1.86,16.51,16.51,0,0,1-1.24-4.47Q294.79,200.53,293.55,195.32Z" transform="translate(-26.19 -23.82)"/><path d="M574.23,158.34q-5.71,7-12.53,14a163.25,163.25,0,0,1-13.77,12.78,76.64,76.64,0,0,1-13.77,9.18,28,28,0,0,1-12.53,3.47q-5,0-6.95-2.48a9.6,9.6,0,0,1-2-6.2,29.18,29.18,0,0,1,2.11-9.31,65.86,65.86,0,0,1,6.33-12.53q-3.23,4.22-7.45,8.93a93.74,93.74,0,0,1-8.69,8.56,60.25,60.25,0,0,1-8.93,6.45,16.23,16.23,0,0,1-7.94,2.61q-5.21,0-5.21-5.21,0-5.71,4.47-14.39a74.11,74.11,0,0,1,12-16.75,80.56,80.56,0,0,1,17.25-13.9,38.45,38.45,0,0,1,20.1-5.83,14,14,0,0,1,2.23-3.47,7.84,7.84,0,0,1,2-1.49l6.95-2,0.5,0.25a16,16,0,0,0-2.36,3.1Q544.94,136,543.7,138c0.83,0,2.07.09,3.72,0.25s2.89,0.33,3.72.5a1.55,1.55,0,0,1,1.24,1.24,0.66,0.66,0,0,1-.75.74,20.64,20.64,0,0,0-4.47-.74c-2-.16-3.47-0.25-4.47-0.25q-11.42,20.1-16.75,31.89t-5.34,17.5a6,6,0,0,0,1.12,3.72q1.12,1.49,4.59,1.49,4,0,9.43-2.85a69.52,69.52,0,0,0,11.66-7.94,161.6,161.6,0,0,0,12.78-11.79,187.23,187.23,0,0,0,12.53-14.15q0.49-.74,1-0.37A1.31,1.31,0,0,1,574.23,158.34Zm-38.71-18.86q-8.44,0-16.13,6a70.85,70.85,0,0,0-13.65,14,88.7,88.7,0,0,0-9.55,16q-3.6,7.94-3.6,11.66c0,1.33.5,2,1.49,2s2.52-.66,4.59-2a69,69,0,0,0,7.07-5.34A88.52,88.52,0,0,0,513.8,174a80.14,80.14,0,0,0,7.57-9.68q4-6,7.69-12.66t6.7-11.91Z" transform="translate(-26.19 -23.82)"/><path d="M619.39,126.08a9.14,9.14,0,0,1-1.24,4.47q-12.41,23.08-22.33,40.82T577,204.13q-8.93,15-17.62,29T541,263.07a209.48,209.48,0,0,1-17.25,23.7,112.21,112.21,0,0,1-20.6,19.11,96.09,96.09,0,0,1-24.57,12.66,88.7,88.7,0,0,1-29.16,4.59q-11.66,0-19.23-3.1a29.92,29.92,0,0,1-11.91-8.31,30.25,30.25,0,0,1-6.08-11.91,55.26,55.26,0,0,1-1.74-13.9,43.43,43.43,0,0,1,.5-6.33,27.07,27.07,0,0,1,1.24-5.34,1.06,1.06,0,0,1,1-1c0.5,0,.74.41,0.74,1.24q-0.49,1.73-1,4.1a24.7,24.7,0,0,0-.5,5.09,29.09,29.09,0,0,0,3.72,15,30.29,30.29,0,0,0,10.3,10.42A51.61,51.61,0,0,0,442,315.31a83.21,83.21,0,0,0,19.11,2.11,69.8,69.8,0,0,0,21.47-3.47A72.84,72.84,0,0,0,504,302.4a119.44,119.44,0,0,0,21-21,201.39,201.39,0,0,0,20.23-31.77q6.45-11.91,13.65-25.31t13.9-25.69l12-22.09q5.33-9.8,7.82-14.27-5,6.7-9.68,12.66t-8.81,10.42a49,49,0,0,1-7.82,7.07q-3.72,2.61-6.7,2.61a5.05,5.05,0,0,1-3.72-1.49q-1.49-1.49-1.49-4.71,0-3.72,3.1-10.55a95.56,95.56,0,0,1,8.19-14.27,108.78,108.78,0,0,1,11.54-14.15A46.69,46.69,0,0,1,590.36,140a26.43,26.43,0,0,1,11.91-3,11.93,11.93,0,0,1,2.73.25q2-3.47,4.09-6.95t4.34-7.44q1.73-3.22,3.23-3.23,1,0,1.86,2.23A11.68,11.68,0,0,1,619.39,126.08Zm-15.88,14.64a6.53,6.53,0,0,0-2-.25h-1.74a33.7,33.7,0,0,0-6.58.62,11.17,11.17,0,0,0-5.33,2.61,59.22,59.22,0,0,0-10.67,11.66A93.55,93.55,0,0,0,569.76,168a66,66,0,0,0-4.34,11.29,32.51,32.51,0,0,0-1.37,7.32c0,1.82.5,2.73,1.49,2.73s3-1.4,6-4.22A112.22,112.22,0,0,0,581.55,174q5.58-6.94,11.54-15.63A148.79,148.79,0,0,0,603.51,140.72Z" transform="translate(-26.19 -23.82)"/><path d="M697.07,160.33a135.27,135.27,0,0,1-10.3,12.53,93.58,93.58,0,0,1-12.41,11.29,76.44,76.44,0,0,1-13.4,8.19,31,31,0,0,1-13.28,3.23,16.45,16.45,0,0,1-5.46-.87q-2.48-.87-2.48-4.34t2.48-8.81q2.48-5.33,5.83-11.29T655,158.1a107.6,107.6,0,0,0,5.83-11.42,2.73,2.73,0,0,0,.12-2.11q-0.37-.87-1.61-0.12a75.89,75.89,0,0,0-6.45,4.71q-3.72,3-7.57,6.33t-7.45,6.82a74.69,74.69,0,0,0-5.83,6.2q-4,6.21-6.82,11.42t-7.07,11.66q-1,1.49-1.49,1.49-1.25,0-2.11-2.73a16,16,0,0,1-.87-3.47q0-2.23,3.1-6.08t6.82-8.56q4-7.94,8.19-16.75t7.2-15.76a2.44,2.44,0,0,1,2.23-1.24,4.27,4.27,0,0,1,4,4q0,1-3.6,6.82a119.55,119.55,0,0,0-7.07,13.52q4.71-4.22,10.3-8.93t10.67-8.69q5.08-4,8.93-6.58t5.33-2.61a2.42,2.42,0,0,1,1.86,1.12,3.52,3.52,0,0,1,.87,2.11,6.61,6.61,0,0,1-1.24,3q-2.73,4-6.7,10.17T657,165.17a131.34,131.34,0,0,0-6.08,12.53q-2.48,6-2.48,9.43,0,3,1.24,4.09a5.83,5.83,0,0,0,4,1.12q4.22,0,9.93-3.23a90.93,90.93,0,0,0,11.79-8.07,101.2,101.2,0,0,0,11.54-10.79,83.8,83.8,0,0,0,8.93-11.42,1.13,1.13,0,0,1,1.49-.37Q698.31,158.84,697.07,160.33Z" transform="translate(-26.19 -23.82)"/><path d="M766.31,150.15a50.64,50.64,0,0,1-10.3,10.3A22.26,22.26,0,0,1,742.23,165a18,18,0,0,1-8.31-2.11,16.06,16.06,0,0,1-6.58-6.33q-1.74,4-4.47,9.06a86.66,86.66,0,0,1-6.45,10.17,63.65,63.65,0,0,1-8.31,9.31,46,46,0,0,1-9.8,6.95,19.26,19.26,0,0,1-7.45,2q-8.93,0-8.93-7.94a28.22,28.22,0,0,1,1.61-9.18,56.47,56.47,0,0,1,4.09-9.18,85.43,85.43,0,0,1,5.33-8.44,52.59,52.59,0,0,1,5.34-6.45,51.84,51.84,0,0,1,11.91-9.68,34.43,34.43,0,0,1,14.39-4.71,40.72,40.72,0,0,1,1.49-4.59,4.55,4.55,0,0,1,3.47-3.1l2.48-.5a8.69,8.69,0,0,0,2.23-.74,1.4,1.4,0,0,1,1.49-.12c0.5,0.25.58,0.71,0.25,1.36a20.66,20.66,0,0,0-2.61,6.95,45.37,45.37,0,0,0-.87,9.18q0,7,2.61,11.42t9.06,4.47a18.06,18.06,0,0,0,11.66-4.22,45.2,45.2,0,0,0,8.69-9.18,1.09,1.09,0,0,1,1.61-.74C766.93,149,767,149.49,766.31,150.15Zm-40.95,1.74a38.48,38.48,0,0,1-.74-5.21q-0.25-3-.25-5.71a1,1,0,0,0-1-1.24,10.81,10.81,0,0,0-5.71,1.86,31.61,31.61,0,0,0-6,5,77,77,0,0,0-6,7.07,88,88,0,0,0-5.46,8.19,91.87,91.87,0,0,0-5.83,11.79,28.3,28.3,0,0,0-2.36,12,8.27,8.27,0,0,0,.62,3.23c0.41,1,1.37,1.49,2.85,1.49q4.22,0,9.18-4.71a74.1,74.1,0,0,0,9.43-11,89.35,89.35,0,0,0,7.57-12.78Q724.86,155.37,725.36,151.89Z" transform="translate(-26.19 -23.82)"/><path d="M863.59,30.54q0,3.48-2.73,10.17A130.47,130.47,0,0,1,853,56.22a215.46,215.46,0,0,1-12.41,18.86,210.36,210.36,0,0,1-16.63,20,204.86,204.86,0,0,1-20.47,19,159.51,159.51,0,0,1-23.82,16q-2.23,4-6.2,10.67t-7.82,14.15q-3.85,7.44-6.7,14.64t-2.85,12.16q0,7.94,7.2,7.94a28,28,0,0,0,12.91-3.47A74.07,74.07,0,0,0,789,177.7a126.22,126.22,0,0,0,11.42-10.55q5.33-5.58,9.06-10.05,1.73-1.73,2-.87a1.93,1.93,0,0,1-.75,1.86q-4.47,5.46-10.55,11.66a120.41,120.41,0,0,1-12.9,11.42A77.49,77.49,0,0,1,773,189.86a34.92,34.92,0,0,1-14.89,3.47q-6.46,0-9.31-3.1a10.77,10.77,0,0,1-2.85-7.57q0-4.47,3.85-12.78t9.06-17.5q5.21-9.18,10.42-17.37T777,122.61l8.81-15q4.59-7.82,9.06-15.26l8.56-14.27q4.09-6.82,7.57-12,4.22-6.45,8.69-12.16a74.33,74.33,0,0,1,11.42-11.42,102.1,102.1,0,0,1,17.37-12.16q7.94-4.22,10.67-4.22a4.64,4.64,0,0,1,3.23,1.12A4.28,4.28,0,0,1,863.59,30.54ZM852.42,37q0-4-3.23-4a6.17,6.17,0,0,0-2.73.74,16.78,16.78,0,0,0-3.85,3.1,79.65,79.65,0,0,0-5.71,6.58q-3.35,4.22-8.56,10.92-2,2.73-5.58,7.94t-9.18,13.77q-5.58,8.56-13.4,21.09l-18.49,29.66a150,150,0,0,0,27.92-20.47,181.29,181.29,0,0,0,22.46-24.69A137.41,137.41,0,0,0,847,57.09Q852.41,45.18,852.42,37Z" transform="translate(-26.19 -23.82)"/><path d="M853.91,159.83a112.78,112.78,0,0,1-13.65,14.64,117.71,117.71,0,0,1-14.15,11.17,44.33,44.33,0,0,1-10.17,5,30.09,30.09,0,0,1-9.43,1.74,28.23,28.23,0,0,1-3.47-.25,8.81,8.81,0,0,1-3.6-1.24,9,9,0,0,1-2.73-2.61,7.5,7.5,0,0,1-1.12-4.34q0-3.22,2.48-8.81t5.83-11.54q3.35-6,6.7-11.42t5.33-8.19a9.35,9.35,0,0,1,4.34-3.35,13.81,13.81,0,0,1,4.09-1.37c0.83,0,1.24.25,1.24,0.74a4.73,4.73,0,0,1-.37,1.49,4.16,4.16,0,0,1-.87,1.49q-3.23,5-6.58,10.92t-6.08,11.54a89.65,89.65,0,0,0-4.34,10.3,24.62,24.62,0,0,0-1.61,7.44,5.37,5.37,0,0,0,1.61,4.34,6.49,6.49,0,0,0,4.34,1.37q5,0,10.92-3.35a85.28,85.28,0,0,0,11.79-8.06,113.23,113.23,0,0,0,10.8-9.93,95.81,95.81,0,0,0,7.69-8.93q1.24-1.24,1.37-.62A3.66,3.66,0,0,1,853.91,159.83Zm-11.17-55.34a9.1,9.1,0,0,1-2.61,6,7.65,7.65,0,0,1-5.83,3,2.63,2.63,0,0,1-3-3,9.87,9.87,0,0,1,2.36-6.2,7.17,7.17,0,0,1,5.83-3Q842.74,101.27,842.74,104.49Z" transform="translate(-26.19 -23.82)"/><path d="M926.62,158.34q-5.71,7-12.53,14a163.41,163.41,0,0,1-13.77,12.78,76.58,76.58,0,0,1-13.77,9.18A28,28,0,0,1,874,197.8q-5,0-6.95-2.48a9.6,9.6,0,0,1-2-6.2,29.2,29.2,0,0,1,2.11-9.31,65.81,65.81,0,0,1,6.33-12.53q-3.23,4.22-7.45,8.93a94,94,0,0,1-8.69,8.56,60.26,60.26,0,0,1-8.93,6.45,16.22,16.22,0,0,1-7.94,2.61q-5.21,0-5.21-5.21,0-5.71,4.47-14.39a74.12,74.12,0,0,1,12-16.75A80.57,80.57,0,0,1,869,143.58a38.45,38.45,0,0,1,20.1-5.83,14,14,0,0,1,2.23-3.47,7.83,7.83,0,0,1,2-1.49l6.95-2,0.5,0.25a16,16,0,0,0-2.36,3.1q-1.12,1.86-2.36,3.85c0.83,0,2.07.09,3.72,0.25s2.89,0.33,3.72.5a1.55,1.55,0,0,1,1.24,1.24,0.66,0.66,0,0,1-.75.74,20.66,20.66,0,0,0-4.47-.74c-2-.16-3.47-0.25-4.47-0.25q-11.42,20.1-16.75,31.89T873,189.12a6,6,0,0,0,1.12,3.72q1.12,1.49,4.59,1.49,4,0,9.43-2.85a69.52,69.52,0,0,0,11.66-7.94,161.94,161.94,0,0,0,12.78-11.79,187.21,187.21,0,0,0,12.53-14.15q0.49-.74,1-0.37A1.31,1.31,0,0,1,926.62,158.34Zm-38.71-18.86q-8.44,0-16.13,6a70.87,70.87,0,0,0-13.65,14,88.7,88.7,0,0,0-9.55,16q-3.6,7.94-3.6,11.66c0,1.33.5,2,1.49,2s2.52-.66,4.59-2a69,69,0,0,0,7.07-5.34,88.39,88.39,0,0,0,8.07-7.82,80.15,80.15,0,0,0,7.57-9.68q4-6,7.69-12.66t6.7-11.91Z" transform="translate(-26.19 -23.82)"/><path d="M569.8,265.45a16.19,16.19,0,0,1,5.14.78,11.79,11.79,0,0,1,4,2.23,9.84,9.84,0,0,1,2.61,3.59,13,13,0,0,1,0,9.63,9.84,9.84,0,0,1-2.61,3.59,11.76,11.76,0,0,1-4,2.23,17.39,17.39,0,0,1-10.29,0,11.76,11.76,0,0,1-4-2.23,9.84,9.84,0,0,1-2.61-3.59,13,13,0,0,1,0-9.63,9.84,9.84,0,0,1,2.61-3.59,11.79,11.79,0,0,1,4-2.23A16.18,16.18,0,0,1,569.8,265.45Zm0,1.19a7.28,7.28,0,0,0-3.56.83,7.13,7.13,0,0,0-2.48,2.25,10,10,0,0,0-1.44,3.26,16.48,16.48,0,0,0,0,7.76,10,10,0,0,0,1.44,3.27,7.11,7.11,0,0,0,2.48,2.25,8.06,8.06,0,0,0,7.11,0,7.14,7.14,0,0,0,2.48-2.25,10,10,0,0,0,1.44-3.27,16.48,16.48,0,0,0,0-7.76,10.06,10.06,0,0,0-1.44-3.26,7.16,7.16,0,0,0-2.48-2.25A7.28,7.28,0,0,0,569.8,266.64Z" transform="translate(-26.19 -23.82)"/><path d="M592.83,275.21h1.72a6.67,6.67,0,0,0,1.69-.21,5,5,0,0,0,1.54-.69A4.57,4.57,0,0,0,599,273a5.85,5.85,0,0,0,.79-2h0.66q0,1.16-.08,2.35t0,2.35q0,1.19,0,2.37t0.08,2.37h-0.66a9.38,9.38,0,0,0-.66-2.05,3.7,3.7,0,0,0-1-1.32,3.9,3.9,0,0,0-1.49-.71,8.7,8.7,0,0,0-2.08-.22h-1.72v7.64a6,6,0,0,0,.13,1.36,1.72,1.72,0,0,0,.55.93,2.6,2.6,0,0,0,1.19.53,10.12,10.12,0,0,0,2,.17v0.93q-1.59-.07-3.14-0.1t-3.14,0q-1.39,0-2.75,0t-2.75.1v-0.93a7.7,7.7,0,0,0,1.77-.17,2.17,2.17,0,0,0,1-.53,1.89,1.89,0,0,0,.5-0.93,6,6,0,0,0,.13-1.36V270.61a10,10,0,0,0-.12-1.62,2.51,2.51,0,0,0-.48-1.16,2.3,2.3,0,0,0-1-.71,5.91,5.91,0,0,0-1.8-.28v-0.93l3.39,0.13q1.7,0.07,3.39.07,3.21,0,6.37-.07l6.37-.13q0,0.59,0,1.19v1.16q0,1,0,2.05a14.26,14.26,0,0,0,.18,2.05H604a6.63,6.63,0,0,0-2.46-4,8.77,8.77,0,0,0-5-1.19h-3.71v8Z" transform="translate(-26.19 -23.82)"/><path d="M634.11,272.82a9.82,9.82,0,0,0-1-2.93,4.53,4.53,0,0,0-1.5-1.64,5.17,5.17,0,0,0-2.05-.73,18.87,18.87,0,0,0-2.65-.17v15.81A13.72,13.72,0,0,0,627,285a2.18,2.18,0,0,0,.46,1.14,2.1,2.1,0,0,0,1.09.63,11.2,11.2,0,0,0,2,.3v0.66q-1.39-.07-2.8-0.1t-2.83,0q-1.52,0-3,0t-3.08.1v-0.66a11.23,11.23,0,0,0,2-.3,2.11,2.11,0,0,0,1.09-.63,2.2,2.2,0,0,0,.46-1.14,13.72,13.72,0,0,0,.1-1.84V267.37a18.88,18.88,0,0,0-2.65.17,5.18,5.18,0,0,0-2.05.73,4.52,4.52,0,0,0-1.5,1.64,9.85,9.85,0,0,0-1,2.93h-0.86q0.07-.63.12-1.27t0.1-1.44q0-.79.08-1.82t0-2.38l4.9,0.13q2.41,0.07,4.86.07t5-.07l5-.13q0,1.36,0,2.38t0.08,1.82q0,0.79.1,1.44t0.12,1.27h-0.73Z" transform="translate(-26.19 -23.82)"/><path d="M636.13,287a15.82,15.82,0,0,0,1.65-.18,2.13,2.13,0,0,0,1.06-.46,1.89,1.89,0,0,0,.56-1,6.48,6.48,0,0,0,.17-1.64v-12.9a17.85,17.85,0,0,0-.08-1.92,1.95,1.95,0,0,0-1.46-1.82,9.16,9.16,0,0,0-1.84-.36v-0.79q2.85,0.2,5.72.2t5.69-.2v0.79a10.4,10.4,0,0,0-2,.36,2.32,2.32,0,0,0-1.09.66,2.22,2.22,0,0,0-.46,1.16,14.76,14.76,0,0,0-.1,1.92v4.37h11v-4.37a14.78,14.78,0,0,0-.1-1.92,2.3,2.3,0,0,0-.45-1.16,2.2,2.2,0,0,0-1.06-.66,10.08,10.08,0,0,0-2-.36v-0.79q2.94,0.2,5.82.2t5.69-.2v0.79a9.64,9.64,0,0,0-1.92.36,2.2,2.2,0,0,0-1,.66,2.3,2.3,0,0,0-.45,1.16,14.76,14.76,0,0,0-.1,1.92v12.9a6.49,6.49,0,0,0,.17,1.64,1.89,1.89,0,0,0,.56,1,2.15,2.15,0,0,0,1.08.46,16.58,16.58,0,0,0,1.7.18v0.79q-1.42-.07-2.86-0.1t-2.86,0q-1.42,0-2.84,0t-2.85.1V287a15.76,15.76,0,0,0,1.65-.18,2.23,2.23,0,0,0,1.08-.46,1.84,1.84,0,0,0,.58-1,6.49,6.49,0,0,0,.17-1.64v-7.15H644v7.15a6.44,6.44,0,0,0,.17,1.64,1.83,1.83,0,0,0,.58,1,2.25,2.25,0,0,0,1.09.46,16.46,16.46,0,0,0,1.67.18v0.79q-1.46-.07-2.89-0.1t-2.89,0q-1.39,0-2.8,0t-2.79.1V287Z" transform="translate(-26.19 -23.82)"/><path d="M664.25,287a7.63,7.63,0,0,0,1.8-.28,2.13,2.13,0,0,0,1-.66,2.4,2.4,0,0,0,.48-1.14,10.58,10.58,0,0,0,.12-1.69V270.61a10.11,10.11,0,0,0-.12-1.62,2.51,2.51,0,0,0-.48-1.16,2.29,2.29,0,0,0-1-.71,5.91,5.91,0,0,0-1.8-.28v-0.93l3.39,0.13q1.7,0.07,3.39.07,3.21,0,6.38-.07l6.48-.13q0,0.59,0,1.19v1.16q0,1,0,2a9,9,0,0,0,.23,1.82l-0.73.13a7.21,7.21,0,0,0-2.53-3.79,8.46,8.46,0,0,0-5-1.27h-3.71v8h1.72a6.67,6.67,0,0,0,1.69-.21,5,5,0,0,0,1.54-.69,4.58,4.58,0,0,0,1.24-1.27,5.85,5.85,0,0,0,.79-2h0.66q0,1.16-.08,2.35t0,2.35q0,1.19,0,2.37t0.08,2.37H679.1a6.76,6.76,0,0,0-.76-2.05,4.56,4.56,0,0,0-1.16-1.32,4.22,4.22,0,0,0-1.51-.71,7.41,7.41,0,0,0-1.84-.22h-1.72V286a10.94,10.94,0,0,0,1.77.35,18.51,18.51,0,0,0,2.17.12,11.33,11.33,0,0,0,5.86-1.54,12.4,12.4,0,0,0,4.43-4.78l0.63,0.46q-0.83,1.75-1.57,3.51a36,36,0,0,0-1.31,3.61q-2.58-.07-5.13-0.1t-5.13,0h-3.08l-2.7,0-2.22,0-1.6.07V287Z" transform="translate(-26.19 -23.82)"/><path d="M709.54,265.45a16.19,16.19,0,0,1,5.14.78,11.79,11.79,0,0,1,4,2.23,9.84,9.84,0,0,1,2.61,3.59,13,13,0,0,1,0,9.63,9.84,9.84,0,0,1-2.61,3.59,11.76,11.76,0,0,1-4,2.23,17.39,17.39,0,0,1-10.29,0,11.76,11.76,0,0,1-4-2.23,9.84,9.84,0,0,1-2.61-3.59,13,13,0,0,1,0-9.63,9.84,9.84,0,0,1,2.61-3.59,11.79,11.79,0,0,1,4-2.23A16.18,16.18,0,0,1,709.54,265.45Zm0,1.19a7.28,7.28,0,0,0-3.56.83,7.13,7.13,0,0,0-2.48,2.25,10,10,0,0,0-1.44,3.26,16.48,16.48,0,0,0,0,7.76A10,10,0,0,0,703.5,284a7.11,7.11,0,0,0,2.48,2.25,8.06,8.06,0,0,0,7.11,0,7.14,7.14,0,0,0,2.48-2.25,10,10,0,0,0,1.44-3.27,16.48,16.48,0,0,0,0-7.76,10.06,10.06,0,0,0-1.44-3.26,7.16,7.16,0,0,0-2.48-2.25A7.28,7.28,0,0,0,709.54,266.64Z" transform="translate(-26.19 -23.82)"/><path d="M726.71,273q0-.4,0-1v-1.16a23.59,23.59,0,0,1,.12-2.46,19.73,19.73,0,0,1,.45-2.5q2.25,0,4.45.12t4.45,0.08q2.38,0,4.71,0t4.71-.17l0.36,0.79q-2.15,2.28-4.12,4.7T738,276.3q-1.89,2.48-3.74,5t-3.8,5l1.34,0.12q0.68,0,1.34,0a25,25,0,0,0,3.84-.28,12.46,12.46,0,0,0,3.36-1,9.09,9.09,0,0,0,2.73-1.94,8.69,8.69,0,0,0,1.89-3.11h0.83a32.42,32.42,0,0,1-1.17,3.9,31.42,31.42,0,0,1-1.67,3.74q-2.28-.07-4.5-0.1t-4.5,0q-2.22,0-4.43,0t-4.43.1l-0.56-.7L740,267.1q-3,0-5.28.13a12.68,12.68,0,0,0-3.8.73,5,5,0,0,0-2.37,1.77,6.5,6.5,0,0,0-1,3.26h-0.89Z" transform="translate(-26.19 -23.82)"/><path d="M746.26,287a5,5,0,0,0,1.54-.38,3.07,3.07,0,0,0,1-.74,5.09,5.09,0,0,0,.73-1.08q0.31-.61.64-1.41l6.48-15.12-0.6-1.59q1.06-.2,2.08-0.48a13.82,13.82,0,0,0,2-.71l7.18,19.49a2.69,2.69,0,0,0,1.39,1.54,4.59,4.59,0,0,0,2,.48v0.79l-1.42-.07-1.59,0-1.59,0h-1.39q-1.39,0-2.76,0t-2.76.1V287a6.94,6.94,0,0,0,2.55-.56,1.38,1.38,0,0,0,.83-1.29,3.33,3.33,0,0,0-.12-0.76,8.63,8.63,0,0,0-.3-0.94l-0.36-1-0.31-.81-1.12-3.28H753.8L752.12,283q-0.17.46-.35,0.89a2.83,2.83,0,0,0-.18,1.09,1.1,1.1,0,0,0,.28.73,2.6,2.6,0,0,0,.73.58,5.3,5.3,0,0,0,1,.41,6,6,0,0,0,.94.23v0.79q-1.06-.07-2.13-0.1t-2.13,0q-1,0-2,0t-2,.1V287Zm13.66-9.86-2.71-7.74h-0.07l-2.88,7.74h5.66Z" transform="translate(-26.19 -23.82)"/><path d="M771,266q1.22,0.07,2.4.1t2.66,0q1.79,0,3.57-.1t3.74-.1a9.05,9.05,0,0,1,3.09.5,7.07,7.07,0,0,1,2.35,1.37,6,6,0,0,1,1.49,2,6.14,6.14,0,0,1,.51,2.51,5.06,5.06,0,0,1-.38,2,4.74,4.74,0,0,1-1,1.52,5.85,5.85,0,0,1-1.55,1.08,8.86,8.86,0,0,1-2,.66q0.69,1.13,1.72,2.66a30.09,30.09,0,0,0,2.27,3,18,18,0,0,0,2.66,2.53,6.72,6.72,0,0,0,2.91,1.36v0.6q-1-.07-1.87-0.1t-1.87,0q-0.83,0-1.65,0t-1.65.1a49.18,49.18,0,0,1-3.85-4.63,46.38,46.38,0,0,1-3.23-5.06q-0.56-.07-1.27-0.2a2.66,2.66,0,0,1-1.08-.4v5.72a15.9,15.9,0,0,0,.08,1.82,2,2,0,0,0,.43,1.09,2,2,0,0,0,1,.58,10.57,10.57,0,0,0,1.82.28v0.79q-1.16-.07-2.53-0.1t-2.8,0q-1.52,0-3,0t-3,.1V287a12.08,12.08,0,0,0,1.93-.28,2,2,0,0,0,1.06-.58,2.06,2.06,0,0,0,.45-1.09,13.52,13.52,0,0,0,.1-1.82V270.61a12.3,12.3,0,0,0-.1-1.69,2.47,2.47,0,0,0-.45-1.16,2.17,2.17,0,0,0-1.06-.71,8,8,0,0,0-1.93-.35V266Zm8,10.19a5.17,5.17,0,0,0,2.22.5,5,5,0,0,0,3.52-1.22,4.59,4.59,0,0,0,1.34-3.57,5.51,5.51,0,0,0-.31-1.87,4.41,4.41,0,0,0-.91-1.52,4.24,4.24,0,0,0-1.42-1,4.56,4.56,0,0,0-1.85-.36,12.36,12.36,0,0,0-1.29.07,5.76,5.76,0,0,0-1.29.3v8.7Z" transform="translate(-26.19 -23.82)"/><path d="M798.37,270a4.68,4.68,0,0,0-.17-1.26,2.59,2.59,0,0,0-.56-1,2.91,2.91,0,0,0-1.06-.73,4.24,4.24,0,0,0-1.65-.28v-0.79q2.75,0.2,5.43.2,1.49,0,3-.07l3-.13v0.79a4.58,4.58,0,0,0-1.74.28,2.89,2.89,0,0,0-1.08.73,2.59,2.59,0,0,0-.56,1,4.68,4.68,0,0,0-.17,1.26v6.68c0.18-.13.49-0.39,0.94-0.78s1-.84,1.54-1.36l1.8-1.65q0.94-.88,1.72-1.72a17.13,17.13,0,0,0,1.29-1.55,2.19,2.19,0,0,0,.51-1.14,1.17,1.17,0,0,0-.23-0.71,2.28,2.28,0,0,0-.58-0.55,3.13,3.13,0,0,0-.74-0.36,3.44,3.44,0,0,0-.73-0.17v-0.79a22.45,22.45,0,0,0,2.58.18l2.61,0q1.39,0,2.68,0t2.68-.17v0.79a9,9,0,0,0-3.13.94A17.36,17.36,0,0,0,813,269.4q-1.29,1-2.5,2.15t-2.46,2.13l6.78,9.73q0.53,0.76,1,1.37a6.68,6.68,0,0,0,1.11,1.06,5.53,5.53,0,0,0,1.32.73A6.58,6.58,0,0,0,820,287v0.79q-1.49-.07-3-0.1t-3,0q-1.49,0-2.94,0t-2.94.1v-0.66l0.73-.17a4.68,4.68,0,0,0,.91-0.3,3.18,3.18,0,0,0,.78-0.48,0.89,0.89,0,0,0,.33-0.71,2.53,2.53,0,0,0-.38-0.91q-0.38-.68-1-1.59t-1.31-2q-0.71-1-1.39-2l-1.21-1.67-0.76-1.06-2.08,1.65v5.66a8.84,8.84,0,0,0,.1,1.41,2.07,2.07,0,0,0,.45,1,2.25,2.25,0,0,0,1,.65,7.49,7.49,0,0,0,1.89.3v0.79q-1.52-.07-3-0.1t-3,0q-1.36,0-2.68,0t-2.68.1V287a7.26,7.26,0,0,0,1.87-.3,2.25,2.25,0,0,0,1-.65,2.08,2.08,0,0,0,.45-1,8.84,8.84,0,0,0,.1-1.41V270Z" transform="translate(-26.19 -23.82)"/><path d="M836,272.49a7.23,7.23,0,0,0-1.08-2.28,9.18,9.18,0,0,0-1.72-1.85,8.19,8.19,0,0,0-2.13-1.26,6.28,6.28,0,0,0-2.35-.46,4.12,4.12,0,0,0-2.53.78,2.73,2.73,0,0,0-1,2.33,2.58,2.58,0,0,0,.94,2,10.22,10.22,0,0,0,2.37,1.5q1.42,0.68,3.06,1.37a17.47,17.47,0,0,1,3.06,1.67,9.16,9.16,0,0,1,2.37,2.33,6.37,6.37,0,0,1,.38,6,5.6,5.6,0,0,1-1.59,2,7.49,7.49,0,0,1-2.48,1.26,11,11,0,0,1-3.24.45,9.29,9.29,0,0,1-1.65-.15q-0.83-.15-1.64-0.33t-1.64-.33a9.3,9.3,0,0,0-1.65-.15,1.62,1.62,0,0,0-.35,0l-0.46.12-0.48.13a2.06,2.06,0,0,0-.36.13q-0.27-1.85-.56-3.74t-0.76-3.8h0.73a8.46,8.46,0,0,0,1.19,2.42,11.12,11.12,0,0,0,1.93,2.13,9.65,9.65,0,0,0,2.4,1.5,6.33,6.33,0,0,0,2.55.56,10.94,10.94,0,0,0,2-.17,4.69,4.69,0,0,0,1.54-.55,2.61,2.61,0,0,0,1-1,3.43,3.43,0,0,0,.35-1.64,3,3,0,0,0-1-2.27,10.43,10.43,0,0,0-2.4-1.65q-1.44-.74-3.11-1.44a21.54,21.54,0,0,1-3.11-1.59,9.07,9.07,0,0,1-2.4-2.12,4.72,4.72,0,0,1-1-3,5.26,5.26,0,0,1,1.89-4.52q1.89-1.4,5.72-1.41a12,12,0,0,1,1.92.15q0.93,0.15,1.75.35l1.55,0.35a6.77,6.77,0,0,0,1.36.15h1.19q0,0.56-.07,1.06t0,1q0,1,.08,2t0.15,2H836Z" transform="translate(-26.19 -23.82)"/><path d="M583.07,238.68l-3.7,10.15c-0.11.3-.22,0.56-0.31,0.79a1.87,1.87,0,0,0-.14.73,2.68,2.68,0,0,0,.59,1.74,5,5,0,0,0,1.43,1.21,8.86,8.86,0,0,0,1.74.76,12.89,12.89,0,0,0,1.51.39v0.67q-1.68-.11-3.36-0.17t-3.42-.06q-1.68,0-3.28.06t-3.39.17v-0.67a8,8,0,0,0,2.89-1.21,7.92,7.92,0,0,0,1.93-1.93,14.16,14.16,0,0,0,1.37-2.47q0.59-1.35,1.15-2.8l9.7-23.83,0.31-.73a1.63,1.63,0,0,0,.14-0.62A2.88,2.88,0,0,0,588,220a5.14,5.14,0,0,0-.48-1,12.68,12.68,0,0,0,2.52-.73q1.06-.45,2.35-1l11.66,32.07a8.3,8.3,0,0,0,2.19,3.45,7.43,7.43,0,0,0,4.15,1.6v0.67q-2.24-.11-4.4-0.17t-4.51-.06h-2.63q-1.12,0-2,0t-1.71.08l-1.77.11v-0.67a10.26,10.26,0,0,0,4-1.21,2.8,2.8,0,0,0,1.6-2.49,2.22,2.22,0,0,0-.2-0.9,6.77,6.77,0,0,1-.31-0.84l-3.64-10.31H583.07Zm6.05-15.92L583.63,237h10.54Z" transform="translate(-26.19 -23.82)"/><path d="M645.29,231a21.59,21.59,0,0,0-1.93-4.65,15.79,15.79,0,0,0-2.86-3.7,12,12,0,0,0-3.81-2.44,12.88,12.88,0,0,0-4.85-.87,11.92,11.92,0,0,0-5.89,1.35,11.36,11.36,0,0,0-4,3.64,15.89,15.89,0,0,0-2.24,5.33,28.23,28.23,0,0,0-.7,6.39,22.64,22.64,0,0,0,.9,6.42,16.14,16.14,0,0,0,2.66,5.35,13,13,0,0,0,4.43,3.67,13.19,13.19,0,0,0,6.14,1.37,15.34,15.34,0,0,0,9-2.63,25.09,25.09,0,0,0,6.7-7.18l1.4,1.12a49.24,49.24,0,0,1-3.81,5,21.36,21.36,0,0,1-4.15,3.7,17.69,17.69,0,0,1-4.88,2.3,20.81,20.81,0,0,1-5.94.78,18,18,0,0,1-7.12-1.43,18.2,18.2,0,0,1-5.89-4,18.94,18.94,0,0,1-4-6.11,21.32,21.32,0,0,1,0-15.64,19,19,0,0,1,4-6.11,18.22,18.22,0,0,1,5.89-4,18,18,0,0,1,7.12-1.43,27.87,27.87,0,0,1,3.87.25q1.79,0.25,3.45.53l3.2,0.56a21.31,21.31,0,0,0,3.05.34q0,1.18.08,2.75t0.25,3.22q0.17,1.65.34,3.25t0.34,2.78h-0.79Z" transform="translate(-26.19 -23.82)"/><path d="M662,238.68l-3.7,10.15c-0.11.3-.22,0.56-0.31,0.79a1.87,1.87,0,0,0-.14.73,2.68,2.68,0,0,0,.59,1.74,5,5,0,0,0,1.43,1.21,8.86,8.86,0,0,0,1.74.76,12.89,12.89,0,0,0,1.51.39v0.67q-1.68-.11-3.36-0.17t-3.42-.06q-1.68,0-3.28.06t-3.39.17v-0.67a8,8,0,0,0,2.89-1.21,7.92,7.92,0,0,0,1.93-1.93,14.16,14.16,0,0,0,1.37-2.47q0.59-1.35,1.15-2.8l9.7-23.83,0.31-.73a1.63,1.63,0,0,0,.14-0.62A2.88,2.88,0,0,0,667,220a5.14,5.14,0,0,0-.48-1,12.68,12.68,0,0,0,2.52-.73q1.06-.45,2.35-1L683,249.38a8.3,8.3,0,0,0,2.19,3.45,7.43,7.43,0,0,0,4.15,1.6v0.67q-2.24-.11-4.4-0.17t-4.51-.06h-2.63q-1.12,0-2,0t-1.71.08l-1.77.11v-0.67a10.26,10.26,0,0,0,4-1.21,2.8,2.8,0,0,0,1.6-2.49,2.22,2.22,0,0,0-.2-0.9,6.77,6.77,0,0,1-.31-0.84l-3.64-10.31H662Zm6.05-15.92L662.56,237H673.1Z" transform="translate(-26.19 -23.82)"/><path d="M691.43,254.43a10.45,10.45,0,0,0,2.94-.62,5.1,5.1,0,0,0,1.68-1,2.72,2.72,0,0,0,.76-1.26,5.52,5.52,0,0,0,.17-1.35v-25.9a14.54,14.54,0,0,0-.14-2.16,3.2,3.2,0,0,0-.7-1.6,3.74,3.74,0,0,0-1.68-1.06,13,13,0,0,0-3-.56v-0.67q1.46,0.11,2.92.17t2.92,0.06a63,63,0,0,0,7.29-.39,59.66,59.66,0,0,1,6.9-.39,25.5,25.5,0,0,1,8.52,1.4,21.32,21.32,0,0,1,7,4,18.9,18.9,0,0,1,4.74,6.31,19.29,19.29,0,0,1,1.74,8.3,17.21,17.21,0,0,1-1.68,7.93,15.4,15.4,0,0,1-4.48,5.38,18.39,18.39,0,0,1-6.42,3.06,29.45,29.45,0,0,1-7.54,1q-3,0-5.19,0l-3.78,0q-1.63,0-2.92,0l-2.47,0q-1.91,0-3.76.06t-3.76.17v-0.67ZM702,250.62a10,10,0,0,0,4.12,2.35,16.76,16.76,0,0,0,4.68.67q8.63,0,12.59-4.43t4-12.84a17.58,17.58,0,0,0-1.32-6.81A17.15,17.15,0,0,0,722.4,224a16.8,16.8,0,0,0-5.55-3.7,18.76,18.76,0,0,0-14.49.22q-0.23,2.92-.28,5.8T702,232.28v18.33Z" transform="translate(-26.19 -23.82)"/><path d="M748.84,252.69c0.34,0.08.75,0.15,1.23,0.22l1.57,0.22q0.84,0.11,1.74.2t1.68,0.08a29.37,29.37,0,0,0,6-.56,17.26,17.26,0,0,0,4.88-1.79,19.88,19.88,0,0,0,4.18-3.14,39.18,39.18,0,0,0,4-4.6l0.62,0.5-5.1,11.27q-1-.11-2-0.17t-2-.06H744.63q-1.63,0-3.25.06t-3.25.17v-0.67a11.29,11.29,0,0,0,3.14-.62,3.3,3.3,0,0,0,1.68-1.4,6,6,0,0,0,.7-2.49q0.14-1.54.14-3.9V227.3q0-2.35-.14-3.9a6,6,0,0,0-.7-2.49,3.29,3.29,0,0,0-1.74-1.4,12.1,12.1,0,0,0-3.2-.62v-0.67l3.62,0.11q1.71,0.06,3.53.08t3.87,0h4.63q3.92,0,7.85-.06t8-.17q-0.06.62-.08,1.23t0,1.18v2.24q0,1.23.11,2.49t0.22,2.77l-0.73.22A14,14,0,0,0,767,224a9.23,9.23,0,0,0-2.8-2.66,10.27,10.27,0,0,0-3.5-1.29,23.18,23.18,0,0,0-4-.34q-3.92,0-7.85.34v14Q750,234,751,234t2.16-.06a10.77,10.77,0,0,0,6.14-1.54q2.27-1.54,2.78-5.63h0.67q0,2-.06,4t-0.06,4q0,2,.06,4t0.06,4h-0.67a16.94,16.94,0,0,0-1.23-3.84,5.94,5.94,0,0,0-1.82-2.27,6.49,6.49,0,0,0-2.72-1.06,23.15,23.15,0,0,0-3.87-.28h-3.59v17.32Z" transform="translate(-26.19 -23.82)"/><path d="M808.48,218.21q2,0.11,4,.17t4,0.06q1.79,0,3.56-.06t3.56-.17v0.67a9.27,9.27,0,0,0-3.87,1.35q-1.51,1-1.51,3.64a39.41,39.41,0,0,0,.42,4.57q0.42,3.17,1.07,6.92t1.35,7.51q0.7,3.76,1.32,6.39a15.35,15.35,0,0,0,.62,2,4.26,4.26,0,0,0,2.69,2.55,13.19,13.19,0,0,0,3,.65v0.67q-2.24-.11-4.46-0.17t-4.46-.06q-2.13,0-4.18.06t-4.18.17v-0.67q1.18-.17,2.24-0.42a6.29,6.29,0,0,0,1.88-.76,3.44,3.44,0,0,0,1.26-1.37,5.1,5.1,0,0,0,.45-2.33q0-.67-0.06-1.79a18.86,18.86,0,0,0-.34-2.58L813,222.59h-0.11q-1.57,4-3.31,8t-3.42,7.93q-1.68,4-3.28,8T800,254.88h-0.11q-2.69-8.69-6.08-16.73T786.56,222h-0.11q-0.45,3.08-.9,6.84t-0.81,7.32q-0.37,3.56-.59,6.5t-0.22,4.4a17.51,17.51,0,0,0,.25,3.2,4.92,4.92,0,0,0,1,2.24,4.38,4.38,0,0,0,2,1.35,12,12,0,0,0,3.28.56v0.67q-2.35-.11-4.6-0.17t-4.6-.06q-1.74,0-3.45.06t-3.45.17v-0.67a12.48,12.48,0,0,0,2.33-.45,8.57,8.57,0,0,0,2.1-.92,6.12,6.12,0,0,0,1.6-1.4,4,4,0,0,0,.81-1.93q0.34-2,.62-4.12t0.56-4.29l2.69-20a10.15,10.15,0,0,0-2.8-1.57,17.68,17.68,0,0,0-3.25-.9v-0.67q2.41,0.11,4.79.17t4.79,0.06q1.74,0,3.45-.06t3.45-.17v0.67a5.92,5.92,0,0,0-2,.93,2.35,2.35,0,0,0-.9,2,5.63,5.63,0,0,0,.31,1.85q0.31,0.9.7,1.85l7.91,19.4Q804.39,239,807,233t4.71-12.25a5,5,0,0,0-1.46-1.18,10.13,10.13,0,0,0-1.74-.73v-0.67Z" transform="translate(-26.19 -23.82)"/><path d="M827.21,218.21q2.35,0.11,4.6.17t4.6,0.06q2.19,0,4.4-.06t4.4-.17v0.67a15.15,15.15,0,0,0-1.49.34,6.82,6.82,0,0,0-1.51.62,3.53,3.53,0,0,0-1.15,1,2.5,2.5,0,0,0-.45,1.51,3.51,3.51,0,0,0,.59,1.63,28.7,28.7,0,0,0,1.71,2.52l8,10.76,6.62-10.37a8.35,8.35,0,0,0,1.46-4.32,3.07,3.07,0,0,0-1.34-2.61,5.69,5.69,0,0,0-3-1.09v-0.67q2,0.11,4,.17t4,0.06q1.79,0,3.56-.06t3.56-.17v0.67a9.86,9.86,0,0,0-3.59,1.43,16.6,16.6,0,0,0-2.83,2.35,20.82,20.82,0,0,0-2.24,2.77q-1,1.46-1.82,2.63l-7.68,11.21v8.24a13.4,13.4,0,0,0,.34,3.34,4.19,4.19,0,0,0,1.09,2,4.53,4.53,0,0,0,2,1.06,20,20,0,0,0,3.25.5v0.67q-2.52-.11-5-0.17t-5-.06q-2.08,0-4.15.06t-4.15.17v-0.67a19,19,0,0,0,3.11-.5,4.53,4.53,0,0,0,2-1.06,4,4,0,0,0,1.07-2,14.57,14.57,0,0,0,.31-3.34v-8.8l-10.15-13q-0.79-1-1.63-2a16.85,16.85,0,0,0-1.88-2,13.52,13.52,0,0,0-2.38-1.68,11.34,11.34,0,0,0-3.14-1.15v-0.67Z" transform="translate(-26.19 -23.82)"/><path d="M245.27,234.45a21.59,21.59,0,0,0-1.93-4.65,15.8,15.8,0,0,0-2.86-3.7,12,12,0,0,0-3.81-2.44,12.89,12.89,0,0,0-4.85-.87,11.92,11.92,0,0,0-5.89,1.35,11.36,11.36,0,0,0-4,3.64,15.89,15.89,0,0,0-2.24,5.33,28.24,28.24,0,0,0-.7,6.39,22.67,22.67,0,0,0,.9,6.42,16.15,16.15,0,0,0,2.66,5.35,13,13,0,0,0,4.43,3.67,13.19,13.19,0,0,0,6.14,1.37,15.35,15.35,0,0,0,9-2.63,25.09,25.09,0,0,0,6.7-7.18l1.4,1.12a49.39,49.39,0,0,1-3.81,5,21.36,21.36,0,0,1-4.15,3.7,17.67,17.67,0,0,1-4.88,2.3,20.8,20.8,0,0,1-5.94.79,18,18,0,0,1-7.12-1.43,18.2,18.2,0,0,1-5.89-4,18.94,18.94,0,0,1-4-6.11,21.33,21.33,0,0,1,0-15.64,19,19,0,0,1,4-6.11,18.21,18.21,0,0,1,5.89-4,18,18,0,0,1,7.12-1.43,27.8,27.8,0,0,1,3.87.25q1.79,0.25,3.45.53l3.2,0.56a21.3,21.3,0,0,0,3.06.34q0,1.18.08,2.75t0.25,3.22q0.17,1.65.34,3.25t0.34,2.78h-0.79Z" transform="translate(-26.19 -23.82)"/><path d="M283.51,230.75q0-2.35-.14-3.9a5.72,5.72,0,0,0-.73-2.5,3.44,3.44,0,0,0-1.77-1.4,12.07,12.07,0,0,0-3.2-.62v-0.67q2.35,0.11,4.57.17t4.57,0.06q1.85,0,3.7-.06t3.64-.17v0.67a11.12,11.12,0,0,0-3.08.62,3.3,3.3,0,0,0-1.68,1.4,6,6,0,0,0-.7,2.5q-0.14,1.54-.14,3.9v18.73q0,2.35.14,3.9a5.69,5.69,0,0,0,.73,2.5,3.42,3.42,0,0,0,1.77,1.4,12.2,12.2,0,0,0,3.25.62v0.67q-2.13-.11-4.26-0.17t-4.26-.06q-2.07,0-4.09.06t-4,.17v-0.67a11.27,11.27,0,0,0,3.14-.62,3.44,3.44,0,0,0,1.71-1.4,5.71,5.71,0,0,0,.73-2.5q0.14-1.54.14-3.9V239.39h-20.8v10.09q0,2.35.14,3.9a5.7,5.7,0,0,0,.73,2.5,3.42,3.42,0,0,0,1.77,1.4,12.21,12.21,0,0,0,3.25.62v0.67q-2.13-.11-4.26-0.17t-4.26-.06q-2.07,0-4.09.06t-4,.17v-0.67a11.27,11.27,0,0,0,3.14-.62,3.44,3.44,0,0,0,1.71-1.4,5.71,5.71,0,0,0,.73-2.5q0.14-1.54.14-3.9V230.75q0-2.35-.14-3.9a5.71,5.71,0,0,0-.73-2.5A3.43,3.43,0,0,0,255,223a12.06,12.06,0,0,0-3.2-.62v-0.67q2.35,0.11,4.57.17T261,221.9q1.85,0,3.7-.06t3.64-.17v0.67a11.12,11.12,0,0,0-3.08.62,3.3,3.3,0,0,0-1.68,1.4,6,6,0,0,0-.7,2.5q-0.14,1.54-.14,3.9v6.84h20.8v-6.84Z" transform="translate(-26.19 -23.82)"/><path d="M337.83,258.34H327.74a98.4,98.4,0,0,1-6.53-7.93,64.32,64.32,0,0,1-5.35-8.61,11.49,11.49,0,0,1-1.43-.11l-1.79-.25q-0.93-.14-1.79-0.34t-1.43-.36v8.75q0,2.35.14,3.9a5.7,5.7,0,0,0,.73,2.5,3.42,3.42,0,0,0,1.77,1.4,12.21,12.21,0,0,0,3.25.62v0.67q-2.13-.11-4.26-0.17t-4.26-.06q-2.07,0-4.09.06t-4,.17v-0.67a11.27,11.27,0,0,0,3.14-.62,3.44,3.44,0,0,0,1.71-1.4,5.71,5.71,0,0,0,.73-2.5q0.14-1.54.14-3.9V230.75q0-2.35-.14-3.9a5.71,5.71,0,0,0-.73-2.5,3.45,3.45,0,0,0-1.71-1.4,11.29,11.29,0,0,0-3.14-.62v-0.67q1.79,0.11,3.59.17t3.59,0.06q0.78,0,2-.08l2.49-.2,2.66-.2q1.35-.08,2.41-0.08a20.76,20.76,0,0,1,4.93.62,14.2,14.2,0,0,1,4.54,2,11.13,11.13,0,0,1,3.31,3.42,9.16,9.16,0,0,1,1.29,4.93,8.19,8.19,0,0,1-.7,3.48,8.58,8.58,0,0,1-1.88,2.63,10,10,0,0,1-2.77,1.85,14.76,14.76,0,0,1-3.34,1.07q0.78,1.35,1.85,3t2.38,3.42q1.32,1.74,2.8,3.45a26.94,26.94,0,0,0,3.14,3.08,20.06,20.06,0,0,0,3.39,2.3,9.33,9.33,0,0,0,3.53,1.09v0.67Zm-28.42-19.51a14.63,14.63,0,0,0,5.21,1,10.27,10.27,0,0,0,6.78-2q2.41-2,2.41-6.56a7.73,7.73,0,0,0-.7-3.34,8,8,0,0,0-1.93-2.58,8.82,8.82,0,0,0-2.83-1.68A9.57,9.57,0,0,0,315,223q-1.4,0-2.75.11a12.71,12.71,0,0,0-2.63.5q-0.11,2.69-.17,5.44T309.41,235v3.81Z" transform="translate(-26.19 -23.82)"/><path d="M339.57,257.89a11.27,11.27,0,0,0,3.14-.62,3.44,3.44,0,0,0,1.71-1.4,5.71,5.71,0,0,0,.73-2.5q0.14-1.54.14-3.9V230.75q0-2.35-.14-3.9a5.71,5.71,0,0,0-.73-2.5,3.43,3.43,0,0,0-1.77-1.4,12.07,12.07,0,0,0-3.2-.62v-0.67q2.35,0.11,4.57.17t4.57,0.06q1.85,0,3.7-.06t3.64-.17v0.67a11.12,11.12,0,0,0-3.08.62,3.3,3.3,0,0,0-1.68,1.4,6,6,0,0,0-.7,2.5q-0.14,1.54-.14,3.9v18.73q0,2.35.14,3.9a5.69,5.69,0,0,0,.73,2.5,3.42,3.42,0,0,0,1.77,1.4,12.21,12.21,0,0,0,3.25.62v0.67q-2.13-.11-4.26-0.17t-4.26-.06q-2.07,0-4.09.06t-4,.17v-0.67Z" transform="translate(-26.19 -23.82)"/><path d="M386.27,232.32a21.12,21.12,0,0,0-1.88-3.56,16,16,0,0,0-2.66-3.14,13,13,0,0,0-3.36-2.21,9.64,9.64,0,0,0-4-.84,10.42,10.42,0,0,0-5.24,1.18q-2,1.18-2,4.21a5.27,5.27,0,0,0,.93,3.11,8.94,8.94,0,0,0,2.47,2.33,22.7,22.7,0,0,0,3.5,1.85l4,1.71q2,0.87,4,1.88a16.23,16.23,0,0,1,3.5,2.41,11,11,0,0,1,2.47,3.25,9.81,9.81,0,0,1,.92,4.43,10.36,10.36,0,0,1-1,4.74,9.31,9.31,0,0,1-2.72,3.28,11.58,11.58,0,0,1-4,1.91,18.48,18.48,0,0,1-4.85.62,17.27,17.27,0,0,1-2.92-.26q-1.51-.26-2.92-0.58l-2.55-.58a8.81,8.81,0,0,0-1.82-.26,3.53,3.53,0,0,0-1.18.2l-1.18.42q-0.5-3.18-1.18-6.23t-1.4-6.22l0.73-.39a40.92,40.92,0,0,0,2.44,4.07,24.84,24.84,0,0,0,3.22,3.88,17.67,17.67,0,0,0,4,2.93,9.65,9.65,0,0,0,4.68,1.17,13.41,13.41,0,0,0,3.14-.36A8,8,0,0,0,382,256.1a5.66,5.66,0,0,0,1.82-2,6.52,6.52,0,0,0,.67-3.11,6.24,6.24,0,0,0-1.63-4.39,15.58,15.58,0,0,0-4-3.08,47.13,47.13,0,0,0-5.24-2.44,38.92,38.92,0,0,1-5.24-2.52,15.42,15.42,0,0,1-4-3.3,7.15,7.15,0,0,1-1.63-4.81,9.19,9.19,0,0,1,3.11-7,10.1,10.1,0,0,1,3.31-1.93,11.81,11.81,0,0,1,4-.67,22.49,22.49,0,0,1,3.73.28q1.65,0.28,3.22.62l3.2,0.64a17.4,17.4,0,0,0,3.36.31q0,2.52.08,4.91t0.36,4.79h-0.79Z" transform="translate(-26.19 -23.82)"/><path d="M401.86,257.89a11.27,11.27,0,0,0,3.14-.62,3.44,3.44,0,0,0,1.71-1.4,5.71,5.71,0,0,0,.73-2.5q0.14-1.54.14-3.9v-26a45.71,45.71,0,0,0-5,.22,8,8,0,0,0-3.45,1.15,7.91,7.91,0,0,0-2.55,2.83,28,28,0,0,0-2.16,5.21l-0.73-.22,0.79-11q2.35,0.11,4.65.17t4.65,0.06H417q2.24,0,4.43-.06t4.43-.17l0.79,11-0.73.22a28.05,28.05,0,0,0-2.16-5.21,7.92,7.92,0,0,0-2.55-2.83,8.1,8.1,0,0,0-3.5-1.15,48,48,0,0,0-5.07-.22v26q0,2.35.14,3.9a5.7,5.7,0,0,0,.73,2.5,3.42,3.42,0,0,0,1.77,1.4,12.21,12.21,0,0,0,3.25.62v0.67q-2.13-.11-4.26-0.17t-4.26-.06q-2.07,0-4.09.06t-4,.17v-0.67Z" transform="translate(-26.19 -23.82)"/><path d="M431,257.89a11.27,11.27,0,0,0,3.14-.62,3.44,3.44,0,0,0,1.71-1.4,5.71,5.71,0,0,0,.73-2.5q0.14-1.54.14-3.9V230.75q0-2.35-.14-3.9a5.71,5.71,0,0,0-.73-2.5A3.43,3.43,0,0,0,434,223a12.07,12.07,0,0,0-3.2-.62v-0.67q2.35,0.11,4.57.17T440,221.9q1.85,0,3.7-.06t3.64-.17v0.67a11.12,11.12,0,0,0-3.08.62,3.3,3.3,0,0,0-1.68,1.4,6,6,0,0,0-.7,2.5q-0.14,1.54-.14,3.9v18.73q0,2.35.14,3.9a5.69,5.69,0,0,0,.73,2.5,3.42,3.42,0,0,0,1.77,1.4,12.21,12.21,0,0,0,3.25.62v0.67q-2.13-.11-4.26-0.17t-4.26-.06q-2.07,0-4.09.06t-4,.17v-0.67Z" transform="translate(-26.19 -23.82)"/><path d="M462.35,242.13l-3.7,10.15c-0.11.3-.22,0.56-0.31,0.79a1.87,1.87,0,0,0-.14.73,2.68,2.68,0,0,0,.59,1.74,4.94,4.94,0,0,0,1.43,1.21,8.84,8.84,0,0,0,1.74.76,13,13,0,0,0,1.51.39v0.67q-1.68-.11-3.36-0.17t-3.42-.06q-1.68,0-3.28.06t-3.39.17v-0.67a8,8,0,0,0,2.89-1.21,7.92,7.92,0,0,0,1.93-1.93,14.26,14.26,0,0,0,1.37-2.47q0.59-1.35,1.15-2.8l9.7-23.83,0.31-.73a1.63,1.63,0,0,0,.14-0.62,2.85,2.85,0,0,0-.2-0.84,5.13,5.13,0,0,0-.48-1,12.7,12.7,0,0,0,2.52-.73q1.06-.45,2.35-1l11.66,32.07a8.3,8.3,0,0,0,2.19,3.45,7.43,7.43,0,0,0,4.15,1.6v0.67q-2.24-.11-4.4-0.17t-4.51-.06h-2.63q-1.12,0-2,0t-1.71.08l-1.77.11v-0.67a10.24,10.24,0,0,0,4-1.21,2.8,2.8,0,0,0,1.6-2.49,2.23,2.23,0,0,0-.2-0.9,6.61,6.61,0,0,1-.31-0.84l-3.64-10.32H462.35Zm6.05-15.92-5.49,14.24h10.54Z" transform="translate(-26.19 -23.82)"/><path d="M490.49,221.67q2,0.11,3.73.17t4.12,0.06q1.23,0,2.41-.06t2.41-.17q0.73,1,2.41,3.06l3.84,4.68Q511.57,232,514,235t4.77,5.8q2.3,2.83,4.23,5.27t3.06,4h0.11q0-1.68,0-3.34t0-3.34v-6.5q0-3.59-.25-6.25a15.28,15.28,0,0,0-1-4.46,6.15,6.15,0,0,0-2.13-2.75,7.21,7.21,0,0,0-3.62-1.12v-0.67q2,0.11,4,.17t4,0.06q1.79,0,3.64-.06t3.64-.17v0.67q-3.53.45-4.85,2a7.61,7.61,0,0,0-1.32,4.91V259h-2.07q-3.08-4.82-6.53-9.36T512.83,241q-3.39-4.09-6.56-7.6t-5.69-6.25q-0.06,1.46-.08,2.86t0,2.86v9.81q0,5,.2,7.88a12.25,12.25,0,0,0,1,4.43,3.92,3.92,0,0,0,2.24,2.07,18.45,18.45,0,0,0,4.12.81v0.67q-2.86-.11-5.55-0.17t-5.55-.06q-1.63,0-3.2.06t-3.2.17v-0.67q1.9-.28,3.33-0.53a6.45,6.45,0,0,0,2.36-.84,3.68,3.68,0,0,0,1.4-1.68,8.47,8.47,0,0,0,.53-3.06L498.79,226a14.82,14.82,0,0,0-3.92-2.3,35.19,35.19,0,0,0-4.37-1.4v-0.67Z" transform="translate(-26.19 -23.82)"/></svg>