<svg id="Logo_-_Balanced" data-name="Logo - Balanced" xmlns="http://www.w3.org/2000/svg" viewBox="0 0 537.69 380.21"><title>Logo - Balanced - BW</title><g id="_Group_" data-name="&lt;Group&gt;"><path id="Tree_Symbol" data-name="Tree Symbol" d="M511.85,135.22l-0.07-.82a0.9,0.9,0,0,0,.82-0.9,0.58,0.58,0,0,0-.9-0.15,1.86,1.86,0,0,1,.07-1.27,2.09,2.09,0,0,0-1.64,0l-0.22-.15-0.07-.67-0.3-.3c-0.39-.3-0.31-0.37-0.75-0.15l-0.07-.67a6.35,6.35,0,0,0-2-.45,7.35,7.35,0,0,0-.75-2l-0.15-.3a3.87,3.87,0,0,0,.6-1l-0.37-.52a2.29,2.29,0,0,1-1.19-.07,2,2,0,0,0-.67.82,5,5,0,0,0-2.09.07,2.71,2.71,0,0,0-.22,1.34,0.86,0.86,0,0,0-.82.45c-0.76-.17-1.17-0.67-1.79-0.82,0.06-1.09-.9-1.44-1.79-1.42a8.18,8.18,0,0,1,.37-1.79,0.79,0.79,0,0,0-.6-0.22l0.15-.52-0.22-.22a8.76,8.76,0,0,0-2,0c0.17-.47.49-0.5,0.37-1l0.52,0.37,0.22-.75a0.6,0.6,0,0,0-.9-0.15v-0.52a0.79,0.79,0,0,1-.37-0.3,1.88,1.88,0,0,0-1.57,0l-0.6-.22a3.38,3.38,0,0,0-.07-2.24l-0.07-.22a3,3,0,0,0-1.49.15l0.3-1.19c-0.73-.58-1.42,0-2.24.07a1.78,1.78,0,0,0-1.57-1.87v-0.45H488l0.15-.75-0.3-.3,0.07-.45,0.45,0.22,0.15-.67c-0.18-.27-0.14-0.27-0.6-0.3a0.72,0.72,0,0,0-.3-0.9l0.52-.22,0.15-.6-0.07-.22a2.44,2.44,0,0,1-1-.37l-1.34.6c-0.68.15-1.45-.57-2-0.3-0.14-.71.1-1.13-0.82-1.12,0-.37.11-0.32-0.15-0.52l-0.37-.07a3,3,0,0,1,0-1.42l-0.15-.22a8.26,8.26,0,0,0-4.4.07l-0.3,1.42-0.37.07c-1.36-1.08-1.54-2-3.36-1,0.47-1.18.16-.89,0.22-2l-0.75-.15a4,4,0,0,0,.75-2.09c0.48,0,.56-0.06.67-0.45l0.67,0.3,0.22-.22a0.41,0.41,0,0,0,.07-0.52l0.67-.37c0-.37,0-0.29-0.22-0.45V101.7l0.22-.07c1.08,0,.19-2.81.15-3.36l-0.52-.15a4.12,4.12,0,0,0-.3-1.49l0.67-.6c0.52,0.27.93,0.07,0.9-.67l0.37,0.45,0.3-.45-0.15-1V94.31L478,94.46l0.37,0.3a2.15,2.15,0,0,0-.15-1.72l0.67-.67c0.19-.1,0-0.06.3,0.07l0.45-.9-0.07-.22a1.63,1.63,0,0,1-.9-0.22h-0.15l0.15-.22c0.16,0,0-.06.15,0.07a0.58,0.58,0,0,0,.52-0.82L480,90.5l0.15-.67a1.27,1.27,0,0,1-.3-0.52c0.05-.36.5-0.42,0.67-0.9l0.3,0.22a1.34,1.34,0,0,0,.37-0.82,9.13,9.13,0,0,1-.9-0.6c-0.13-.12-0.08-0.15-0.07-0.52a1,1,0,0,0,.52.37l0.15-.9L480.42,86V85.58c0.34-.27.39-0.39,0.75-0.3l0.3-.75-0.07-.15a2.44,2.44,0,0,0-1,0c0.23-.5,0-0.53-0.3-0.9,0.78-.14,1-1.74.22-2V81.25a0.93,0.93,0,0,0,.52.22l0.37-.22V80.8l-0.6-.37a2,2,0,0,1-1,.3V80.35a1.8,1.8,0,0,0-1.19-.07V80L477,79.61a1.59,1.59,0,0,0-.3-0.6c0-.25.24-0.43,0.22-0.75l0.45,0.37a2.83,2.83,0,0,0,1-.45L478,77.07a1.54,1.54,0,0,0-1.34-.3L476.24,76a7.54,7.54,0,0,0-2-.22c-0.08-.52-0.21-0.26-0.37-0.52-0.39-.63,0-2.83.15-3.43V71.77a1,1,0,0,0-1,0,0.71,0.71,0,0,1-.37-0.75,2,2,0,0,0-1-.15,3.87,3.87,0,0,0-.07-2.09,1,1,0,0,0,.75-1c-0.35-.53-0.86-0.93-0.67-1.57a0.58,0.58,0,0,0-.9-0.15c-0.31-.27-0.26-0.33-0.07-0.82a2,2,0,0,0-1.27-.6V64.15L468.92,64l0.15-2.16,0.22,0.3a1.45,1.45,0,0,0,.9-0.75l0.3,0.22a1.91,1.91,0,0,0,.45-0.82l0.9,0.07a0.88,0.88,0,0,0,.52-0.82l0.37,0.37,0.15-.07c0.16-.77-0.14-2.21-1.19-1.72l-0.15-.07a2.46,2.46,0,0,1-.15-1.12,7.35,7.35,0,0,0-2.16-.3V56.61a3.57,3.57,0,0,0-1.94-1V55c-0.73-.32-1.28-0.14-1.72-0.67l-0.6.15V55c-0.28,0-.6.05-0.82,0.07a2.48,2.48,0,0,0-.45,1.57,2.43,2.43,0,0,0-2.24,2,6.92,6.92,0,0,0-1.87.22,1.23,1.23,0,0,0-.67-0.6,0.48,0.48,0,0,1-.37.15c-0.23.31-.08,0.43,0.15,0.67-0.85-.18-0.9.25-1.72,0.52l-0.15.67c-0.56.39-1.63-.08-2.24,0.07s-0.3.51-.6,0.82c-0.6.63-1.73,0.85-2.46,1.42h-0.22c0-.82.3-0.72,0.37-1.49-0.55-.17-1.11-0.12-1.19-0.82l-0.22-.15a1.39,1.39,0,0,1-1.42-.75c-1,.28-3.09,0-3.36-1.42a7.46,7.46,0,0,0-3.51-.07l-0.22,1a2.18,2.18,0,0,0-1.87,0l-0.15.75c-1.21.16-2.73-.24-3.81,0.37-0.8-.8-1.77-1.06-2.46-1.87-0.73-.08-3.53.16-3.66,0.9h-0.07l-0.07-.3c-1-.46-1.86.13-2.69,0.37l-0.45,1.19a6.92,6.92,0,0,1-1.79-1l-0.15-.15a0.67,0.67,0,0,1,.75-0.52l0.3-.75a2.79,2.79,0,0,0-.82-0.67l0.45-1.57a4,4,0,0,0-2.69-.45c-0.37-.42-0.19-1.23-0.15-2.16a1.12,1.12,0,0,0-.6-0.15,1.82,1.82,0,0,1,.15-1.12l-1.34-1.19a0.63,0.63,0,0,1-.37.15,0.43,0.43,0,0,0-.07.52l-0.6.22-0.75-.9c-0.45.07-.62,0.1-0.67,0.6l-0.3.07a2.88,2.88,0,0,1-.07-1.19A1.6,1.6,0,0,0,417,49.9a7.39,7.39,0,0,0-.3-1.42,1.6,1.6,0,0,0-.82-0.15,9.89,9.89,0,0,0-.45-2.39V45.87l0.45,0.37a1.48,1.48,0,0,0,.3-1l0.45,0.3,0.37-.22a0.78,0.78,0,0,0,.15-0.75l0.52,0.37,0.15-.07a5.72,5.72,0,0,0-.6-2.76,5.32,5.32,0,0,1,.6-1.42c0.13-.42-0.37-0.55-0.37-0.9s0.32-.6-0.07-0.9l-0.22-.3a1.09,1.09,0,0,1,1-.37l0.15-.75a0.53,0.53,0,0,0-.52-0.22,0.81,0.81,0,0,0-.22-0.75,1.92,1.92,0,0,0-1.79.37h-0.07l0.15-1.27c-0.91-.45-2.92.08-3.21-0.22a0.89,0.89,0,0,1,.22-1.12,1.23,1.23,0,0,0-.37-0.6l0.52-.37c0-.48,0-0.7-0.52-0.82,0.23-1,.8-1.53,1.12-2.54a0.92,0.92,0,0,0-.37-1l0.15-.75-0.82-1.19c-1-1.18-4-.6-5.3-0.67-0.08.91-.8,1.25-0.82,2.54a2.54,2.54,0,0,1-1.87.3c-0.35.42-1.12,0.83-1,1.42-0.66,0-5-.45-5.52-0.15l-1.19,1.34c-0.45.14-.24-0.24-0.52-0.37-0.65-.32-2.37.5-2.69,0.9-0.15.55-.24,0.86,0.3,0.82v1c0.28,0.1.15,0,.3,0.22a0.7,0.7,0,0,0,.67-0.15h0.07v2a1.2,1.2,0,0,0,.6-0.15L395.55,38c0.61,0.15.66,0.59,1.19,0.9a9.28,9.28,0,0,0-.3,3.28h-0.22a0.45,0.45,0,0,0,0,.6,7,7,0,0,1-2.46.45l-0.15.3,0.3,0.3c-0.33.28-.28,0.25-0.15,0.67a11.36,11.36,0,0,0-2,.6l-0.15,1.27a4.13,4.13,0,0,1-1.57.45l-0.22,1.72a4.06,4.06,0,0,0-1.49-.22c-0.2-.6-0.08-1.19-1-1.19,0-.38.06-0.42-0.37-0.52l0.37-1.27a1.58,1.58,0,0,0-1.27-.82,2.23,2.23,0,0,0,.15-1L384,43.1c-0.82.48-.61,0.75-1,1.72a1.52,1.52,0,0,1-.67.3,9.87,9.87,0,0,0-.15,1.19c-0.08.21-.51,0.67-0.6,0.9a4.32,4.32,0,0,0,.15,1.79l-0.37,1.27a1,1,0,0,0-1,.75c-0.39,0-.26.5-0.22,1a4.16,4.16,0,0,0-1.57,1.72,16.61,16.61,0,0,1-1.64.52c-0.3,1.4.27,2.26,0.37,3.36a0.87,0.87,0,0,1,.6.15L378,57.81a12.1,12.1,0,0,1-1.94.75,4.54,4.54,0,0,0-4.4-.9l-0.37.82a4.17,4.17,0,0,1-.82.3c-0.5,1.61.16,3.44,0.15,5.23l0.07,0.07a0.75,0.75,0,0,0,.45-0.3L371.21,65c-0.77-.24-1.61.63-2.46,0.75a0.58,0.58,0,0,0,0,.67,0.53,0.53,0,0,1-.45.3l-0.15.3,0.52,0.75a0.75,0.75,0,0,0-.82.75,1.64,1.64,0,0,1-1-1l-0.6.07a0.91,0.91,0,0,1-.37-0.9,1.6,1.6,0,0,0-.82-0.15,5.58,5.58,0,0,1,.6-1.34c-0.35-.37-0.34-1.18-0.75-1.49a0.93,0.93,0,0,1,.22-0.37,0.81,0.81,0,0,0-.6-0.75c-0.39.23-1.19,0.45-1.12,1a5.26,5.26,0,0,0-1.57.15,4.37,4.37,0,0,0-2.16-1.27,2.43,2.43,0,0,0-1.19.37l-0.9-1a1.16,1.16,0,0,0-.75.22,1.09,1.09,0,0,0,.75,1.19l-0.22.6a2,2,0,0,0-1.27.37l-0.15.6c-0.06.66-.1,1,0.45,1.12v0.3a0.92,0.92,0,0,0-.52.37l-0.15,1.49,0.45,0.15-0.07.9c-0.6.29-.78-0.19-1.42,0.07l-0.9.6a2,2,0,0,0-1.79.22,1.79,1.79,0,0,0-1.12-1.12c-0.78.41-1.76-.06-2.31,0.75l-0.07.37a11.57,11.57,0,0,0-2.76.45L344,70.13l0.3-1.49c0.38-.22.27-0.13,0.75,0l0.37-.45c0.32-.11.13-0.09,0.45,0.07l0.3-.75a0.71,0.71,0,0,0-.6-0.22,6,6,0,0,0,.3-1.19,2,2,0,0,0-1.79.15c0-.44,0-0.44-0.3-0.6l0.75-2.39L344.34,63a3,3,0,0,1-1.27-.15l-0.45-.52a4.23,4.23,0,0,0-1.27.07c-0.3-.25-0.1-0.39-0.67-0.45V61.32l-0.52-.15c0-.51,0-0.69-0.45-0.82l0.3-.6c0.66,0.07.61-1.12,0.3-1.57a7.73,7.73,0,0,0,.37-1,0.57,0.57,0,0,1,.52,0l0.07-.9a5.79,5.79,0,0,0,1-1.79l-0.15-.22h-0.52l-0.07-.37a0.64,0.64,0,0,1,.67-0.3c0.56-.68-0.06-2,0.3-3a0.85,0.85,0,0,1,1-.37,0.7,0.7,0,0,0,.22-0.75l0.52,0.37,0.22-.75a0.49,0.49,0,0,0-.37-0.22l0.37-1.12-0.07-.22a9.07,9.07,0,0,1-1.57-.3l0.22-1a1.3,1.3,0,0,0-.9-0.45l0.3-1-0.07-.22c-3-.74-3.23,2.69-6,2.16a7.34,7.34,0,0,1-1,1.19c-0.45.34-2-.15-2.84,0.07-0.06.23,0,.94-0.07,1.12-0.18.49-1,.78-1.12,1.87-1.37-.09-2.17-0.76-3.58-0.37A3,3,0,0,0,326.28,52a3.33,3.33,0,0,0,.6,1.94c-1.37-.35-3.54.86-4.18,1.87-0.28.3-2.52,0.17-2.54,0.15A4.59,4.59,0,0,0,319,57.59v0.52h0.45l-0.07.37,0.15,0.22,0.45-.22a0.42,0.42,0,0,0,.45.3c0,0.83.08,1.29,0.07,2.24l-0.45.15a2.84,2.84,0,0,0-.07,1.72,6.91,6.91,0,0,0-1.72.07,1.41,1.41,0,0,0,.15,1,2.62,2.62,0,0,0-1.72,2.39,9,9,0,0,1-1.42.3l-0.52,1.64v1a0.77,0.77,0,0,0,.6-0.07l-0.07.75,0.07,0.07a0.75,0.75,0,0,0,.45-0.3l0.15,0.37h0.22l0.45-.37-0.07,1.64,0.6-.07v0.9l0.22,0.07,0.37-.37c0.4,1.69,2.12,1.19,2.09,3.06a0.94,0.94,0,0,1,.6.45,2,2,0,0,1,.3,1.57,0.88,0.88,0,0,0,.67-0.07c0,2.71-1.51,3.09-2.09,5a19,19,0,0,0-4,.45c-0.22.32-.06,0.4,0.15,0.67-1.05.29-1.23-.08-2.39-0.15-0.11-.59-0.21-0.21-0.45-0.52a6.55,6.55,0,0,1-.3-2.76,1.8,1.8,0,0,0-1.19-.07,1.85,1.85,0,0,0-.75-1.19,3.66,3.66,0,0,0-1.72.07c-1,1.29-2.29,1.74-2.24,4.48a1.09,1.09,0,0,0-.82,1.34,1.3,1.3,0,0,0-.82.15,4.07,4.07,0,0,0-.07,1.42l-0.75.45a2.52,2.52,0,0,0,.37,1.79,0.77,0.77,0,0,0,.67,0v0.75a8.19,8.19,0,0,1,1.34.22v0.67c0.46,0.07.57,0.1,0.75-.3h0.15c0.38,1.05,0,1.69,0,3.06a0.77,0.77,0,0,0,.6-0.07,1.12,1.12,0,0,1-.52,1.12l0.37,0.67a1.23,1.23,0,0,0-.75,1.19,4.23,4.23,0,0,0-2,.07,1.76,1.76,0,0,0-.07,1h0.45a4.82,4.82,0,0,0-.6,1.72c-0.05.62-.08,1,0.37,1.12-0.53,1.55.37,2.94,0.37,4.48l0.07,0.07a0.75,0.75,0,0,0,.45-0.3,1.87,1.87,0,0,0,.3.37,3.14,3.14,0,0,1-.75,1,0.93,0.93,0,0,0-1,.15l-0.15.67c-0.34.54-2.59,0.22-3.66,0.15l0.15-.45-0.22-.22a12.11,12.11,0,0,0-3.88.3c0.33-.55,1-2.76-0.37-2-0.11-.67-0.54-0.58-0.45-1.19-0.41-.5-1.35-0.26-1.87-0.07a2.44,2.44,0,0,0,0,1.34,3.24,3.24,0,0,1-1.34.52c-0.52.82-1.14,1.29-1.12,2.61-0.63.38-1.8,0.57-2.24,1.49-0.33.7,0.6,0.92,0.52,1.57a25.65,25.65,0,0,0-.15,3.88,4.75,4.75,0,0,1-1,.9l-0.15.3c0.68,0.88.62,1,.6,2.24l0.07,0.07a0.75,0.75,0,0,0,.45-0.3l0.15,0.37c0.39,0,.36,0,0.52-0.22,0.17,0.08.13-.06,0.22,0.3l0.6-.22,0.22,0.15a1.57,1.57,0,0,0-.67,1.64c-0.44.16-.49,0.39-1,0.6a5,5,0,0,0-1.79-.75l-0.6.3a2,2,0,0,0-.22,1.12l0.22,0.07,0.3-.22,0.37,0.52c-0.17,1.43-.82,2.47-0.82,4-1.06,0-2,.61-2.91.67a6.24,6.24,0,0,0-1.49-.22,3.74,3.74,0,0,1-2,.3l-0.3-.15-0.52.52a1.58,1.58,0,0,0,.15,1.49l-0.52.37-0.07.9,0.22,0.07,0.37-.37,0.07,0.37c0.6,0.13,1.37-.41,1.42.75a0.53,0.53,0,0,0,.37-0.07,6.87,6.87,0,0,0-.3,1.19c0.31,0.14.35,0.15,0.52-.22a2.62,2.62,0,0,1,.6,1.57c0.26,0,.19.1,0.37-0.07h0.07c-0.1.68-.41,0.4-0.6,0.82L282.53,134l-0.67,1h-0.07a1,1,0,0,1,0-.82l-0.07-.15a4.38,4.38,0,0,0-1.34-.15l-0.52.45a13.27,13.27,0,0,0-.15,3.28,2.35,2.35,0,0,0,1.57.07V139c0.21,0.28.31-.05,0.37,0.52a0.88,0.88,0,0,0,.67-0.07,3.73,3.73,0,0,0,1.12,2.09l-0.22.45,0.45,0.6c-0.49.26-.92,0-1.34,0.52a4.54,4.54,0,0,0,.82,3.06l0.3-.37,0.45,0.37,0.52-.45-0.07,1.72c0.44,0,.5.08,0.67-0.3l0.15-.07a1.87,1.87,0,0,1,.52,1.49c0.31,0.12.32,0,.45,0.37a2.41,2.41,0,0,0-1.27.37l-0.3,1.12c0.07,0.27,0,.15.15,0.3l0.15,0.22-0.52.15a0.86,0.86,0,0,1-.3-0.6,6.55,6.55,0,0,0-1.34-.22c-0.86,1.15-.44,1.26-1,2.39l-1,.6,0.15-.45c-0.63-1-2.06.1-2.69,0.37l-0.3-.22c-0.31-.28-0.62,0-1,0.22-0.19-.13-0.37-0.52-0.52-0.6-0.64-.31-0.68.22-1.12-0.3l-1.57.67a1.55,1.55,0,0,0,.22,1,1.41,1.41,0,0,0-.67,1.12,6.44,6.44,0,0,0-1.19.15l-0.15.22a1.64,1.64,0,0,0,.22,1.34l-0.6.15-0.15.22,0.67,0.82,0.3,3.88a3.26,3.26,0,0,0-1.19.9l0.3,0.45a4.4,4.4,0,0,1-1.49.52l-0.15,1,0.07,0.07a0.75,0.75,0,0,0,.45-0.3l0.15,0.37a1,1,0,0,0,.52-0.22l0.6,1.19a6.94,6.94,0,0,0,1.72.52,10.33,10.33,0,0,0-.6,1.94,2.48,2.48,0,0,0,1.27,1.34,3.15,3.15,0,0,1-.37,1.34,2,2,0,0,0,.22,1.19c-0.48-.06-1.75.65-1,1.49l-1.34.9-0.07.82,0.37,0.15,0.22-.3a2.93,2.93,0,0,0,.45.9c0.06,0.3-.14,1.11-0.07,1.57-0.13,0-1,.12-1.19.15a0.77,0.77,0,0,0-.15.6l0.9,1.19,0.37-.3,0.15,0.37,0.9-.37a1.23,1.23,0,0,0,.45.52v0.22a2.08,2.08,0,0,1-1,.45l-0.15,1,0.07,0.07a0.75,0.75,0,0,0,.45-0.3l0.52,0.75a1.21,1.21,0,0,0-.67,1.34l0.07,0.07a0.75,0.75,0,0,0,.45-0.3l0.15,0.37,0.75-.22,0.15,0.37c0.06,0.16-.21.62-0.22,1.27l0.07,0.07a0.37,0.37,0,0,0,.37-0.3l0.22,0.37c1,0,1.33-.3,1.27-1.34a1.24,1.24,0,0,0,.9-0.82c0.35-.08.13-0.08,0.45,0.15l0.3-.45a3,3,0,0,1,.6-0.15l0.15,0.52,0.45-.22,0.07-.15,0.15,0.45,0.37-.07a0.78,0.78,0,0,0,.15-0.75l0.15,0.15,0.37,0.3a1.33,1.33,0,0,0,.07-1c0.37,0,.29,0,0.45-0.22a1.18,1.18,0,0,0,.9.67,0.59,0.59,0,0,0,.45-0.45l0.22,0.45a0.57,0.57,0,0,0,.6-0.52,6.86,6.86,0,0,0,2.54,2l0.07,0.15-0.22.45a5.33,5.33,0,0,0-1.42-.22,0.39,0.39,0,0,1-.37.22l-0.22.52a2.53,2.53,0,0,0,.6,1.49,2.58,2.58,0,0,0-.37,1.27c0.37,0.08.34,0,.6-0.22l0.15,0.37a0.56,0.56,0,0,0,.6-0.6,1.33,1.33,0,0,1,1,.75,1.12,1.12,0,0,0-.67,1.27l0.07,0.07,0.45-.22a0.7,0.7,0,0,0,.37.3,3.52,3.52,0,0,1,1.27-.67l0.07-.07,0.15,0.07-0.15,1,0.07,0.07a0.75,0.75,0,0,0,.45-0.3,0.62,0.62,0,0,0,.37.37,11.57,11.57,0,0,1,1.57-.75l-0.07.9,0.15,0.07a1,1,0,0,0,.37-0.22l0.07-.15,0.15,0.45,0.75-.3v0.37c0.44,0,.5.08,0.67-0.3,0.29,0.13.21,0,.3,0.37l-0.6.22a1.9,1.9,0,0,0-.22,1l0.15,0.07a1,1,0,0,0,.37-0.22l0.07-.15,0.3,1.12a0.7,0.7,0,0,0,.67-0.15,1.47,1.47,0,0,0,1.19,1.34l-0.07.45a0.55,0.55,0,0,0,.45-0.07l0.37,0.22-0.3,2,0.15,0.07a1,1,0,0,0,.37-0.22l0.07-.15a2.92,2.92,0,0,1,.22,1.19c0.49,0.06.6,0,.75-0.45h0.07c0.24,0.67.66,0.75,0.67,1.64,0.46,0.06.57,0,.75-0.37l0.3,0.6a1.08,1.08,0,0,0,.82-0.37h0.07a9.4,9.4,0,0,1-.37,3.06c-0.27,1.43.23,2.07,0.22,3.14,0.32,0.1.14,0.19,0.37-.07a2.89,2.89,0,0,1,.3,2.09l0.07,0.07,0.52-.3,0.07,0.37h0.22a0.57,0.57,0,0,0,.37-0.75l0.37,0.37c0.3,0.2.28,0.08,0.52-.15l0.15,0.37A2.37,2.37,0,0,0,303,206l0.3,0.3,0.37-.3,0.15,0.37a0.78,0.78,0,0,0,.67-0.75l0.37,0.3,0.37-.67,0.15-.15a6.38,6.38,0,0,1,.07,1l0.22,0.07,0.3-.37a0.52,0.52,0,0,0,.37.37,0.56,0.56,0,0,0,.3-0.75l0.52,0.37c0.25-.52,0-0.88.52-1.12l-0.07.67c0.37,0.08.34,0,.6-0.22,0.09,0.33,0,.25.3,0.37a0.76,0.76,0,0,0,.45-0.67l0.37,0.3,0.3-.67,0.45-.22,0.07,0.67a0.81,0.81,0,0,0,.67-0.37,0.75,0.75,0,0,1,.22.52,1.91,1.91,0,0,0,1-.75L312,205l0.07,0.07a0.78,0.78,0,0,0,.52-0.3c0.28,0.47.36,0.37,0.75,0.07v1l0.22,0.07,0.3-.3,0.15,0.37,0.37-.07,0.22-.6,0.15-.07c0.31,0.64-.1.95-0.15,1.72l1,0.07v0.6l0.22,0.15,0.3-.3c0.5,0.51,1,.11,1.49.45l0.67-.45c0.09,0.91-.42,1.26-0.45,2.24l0.07,0.07a0.78,0.78,0,0,0,.52-0.3l0.15,0.45a0.75,0.75,0,0,0,.52-0.22l0.37,0.45c-0.1.74-.51,0.63-0.52,1.64l0.07,0.07,0.52-.3,0.07,0.37h0.22l0.6-.37,0.07-.15,0.15,0.45,0.37-.07a0.78,0.78,0,0,0,.15-0.75l0.15,0.15c0.49,0.31.19,0.16,0.75,0-0.07,2.31.16,0.77,0.82,2.16,0.29,0.05.29,0.13,0.45-.15a2.13,2.13,0,0,1,1,1.12,14,14,0,0,1,1.72.6,0.68,0.68,0,0,0,.52-0.22,0.7,0.7,0,0,0,.37.3,0.56,0.56,0,0,0,.3-0.75l0.52,0.37c0.95-.62,1.71-0.43,2.61-1l-0.07.75,0.15,0.07a1,1,0,0,0,.37-0.22l0.07-.15,0.15,0.45,0.37-.07a0.67,0.67,0,0,0,.15-0.67l0.52,0.37a7.26,7.26,0,0,0,.75-1.12l0.22,0.52a0.71,0.71,0,0,0,.67-0.67l0.37,0.3a6.24,6.24,0,0,0,.07-1.12c0.3-.4.57-0.23,0.67-0.9a0.5,0.5,0,0,1,.45.07,2,2,0,0,0,.67-1.27l0.45,0.37c0.36-.43,0-0.73.22-1.27a4.81,4.81,0,0,0,.67-0.9l0.37,0.22,0.15-.07a1.59,1.59,0,0,0-.07-1.12l0.52,0.37,0.15-.9c0.34,0,.46.15,0.67-0.22l0.22,0.37a1.82,1.82,0,0,0,1.19-.22,6.62,6.62,0,0,1,.45,1.12l0.37-.3a0.7,0.7,0,0,0,.37.3,0.69,0.69,0,0,0,.37-0.6c0.37,0.08,1.4.09,1.49,0.37,1.34-.05,2.55-1.42,3.43-1.34a3.18,3.18,0,0,0,.15-1.64l0.15-.07,0.15,0.3c0.27-.14.25-0.17,0.3-0.52h0.07l0.45,0.52,0.37-.22v0.75l0.15,0.07a1,1,0,0,0,.37-0.22l0.07-.15,0.15,0.45a1.61,1.61,0,0,0,.82-0.6,5,5,0,0,0,.6,1.34l0.37-.37,0.07,0.37,0.15,0.07a0.62,0.62,0,0,0,.45-0.82,1.54,1.54,0,0,1,.9,1.34l0.07,0.07a0.37,0.37,0,0,0,.37-0.3l0.67,0.6,0.45-.07a2.19,2.19,0,0,1,.37-0.6c0.09-.09.61-0.22,0.9-0.45l0.07,0.37c0.64,0,1.6-.91,2.24-1.27,0.92-.28,2.51.64,3.21,1,1.76,0.82,2.62,2.2,4,3.28,1,0.8,2.37,1.45,3.43,2.16,3,2,6.72,3,9.63,5.08a50.64,50.64,0,0,1,7.61,7.17l1.72,2.31c3.1,3.22,6.69,6.84,3.51,12.76-1.48,2.75-4.82,4.26-7.76,5.52-2.11.91-5.77,0-7.84,0.9-1.08.49-1.74,1.73-2.76,2.16-0.58.25-1.41,0-2.09,0.22-1.72.67-3.64,1.45-5.45,2l-3.51.6-3,1.34c-1.23.36-2.47,0.25-3.51,0.82a68.46,68.46,0,0,1-9.33,3.81c-1.31.48-2.16,1.53-3.58,1.87a1,1,0,0,0-.22.67l0.15,0.22c1.49,0,2.32-.66,3.58-1,1.09-.27,3.71,0,4.4-0.37s1.51-1.29,2.31-1.64a23.39,23.39,0,0,1,2.61-.82c3.7-1.13,6.77-2,10.3-3.14l6.49-.9c1.92-.72,3.65-1.87,5.52-2.69l3-.52,3.14-1v0.07a20.06,20.06,0,0,0-3.36,2.31c-1.27.88-2.79,1.16-4,2.09-1,.8-1.46,2.1-2.61,2.76-2.11,1.21-5.42.71-7.91,1.57-0.83.29-1.26,1.26-1.87,1.79l-2.61,1.57A20.49,20.49,0,0,0,357.7,263l0.45,0.37c1.84-.16,2.62-1.85,4-2.46,0.87-.4,1.47-0.42,2.31-0.82l1.27-.9c1.92-.69,4.16-1.13,6-1.79,1.39-.48,2.79.16,4-0.52,1.5-.87,1.87-2.28,3-3.51a4.63,4.63,0,0,1,1.12-.6c0.84-.5,1.71-1.27,2.61-1.79s3-.63,4.33-1.27c1.85-.89,3.94-2.15,6.49-2.24,0,3.34-.88,5.08-3,6.79-1.49,1.22-4.13,3-2.61,5.75a2.9,2.9,0,0,0,2.54.82l0.07-.45a2.85,2.85,0,0,0-1.49-1.19c0.52-1.85,2-1.69,3.21-2.91s2-2.76,3.14-4.11c0.77-.92,1.77-1.77,2.54-2.69a5.44,5.44,0,0,1,1.72-1.79l1.12,1c1.68,0.77,4.13-.15,5.6.82,1,0.66,1.68,1.91,2.69,2.46A69.09,69.09,0,0,0,418.84,257L423,257c1.26,0.43,3-.71,4-0.3,0.5,0.23,1,1.07,2,.82a7.19,7.19,0,0,1,1.79-.6l0.22-.22v-0.37l-0.15-.07c-0.57-.5-1.54.27-2.09,0.07-0.79-.27-1.18-1.11-2.09-1.34H425l-6.42-.9a9.51,9.51,0,0,1-1.72-1.27,7.12,7.12,0,0,0-1.72-.37l-1.42-1.34-1.94-.37a10,10,0,0,0-2.24-3.21v-0.07c0.81,0.18,2.15.39,2.91,0.6s1.51-.37,2.54,0c1.25,0.45,3,.39,5.08.82l2.31,0.75,2.91,0.15,1.12,0.6c1,0.37,1.82.11,2.76,0.52l0.67,0.6h2.09c1,0.28,2.24.16,3.14,0.45,2.15,0.69,4,2,6.79,1.87l-0.07-.6-6.49-3.43c-1.9-.63-4.27,0-6-0.82-0.71-.33-1.68-1-2.39-1.34-0.9-.44-1.93-0.24-2.84-0.6l-2-1.12c-0.7-.29-1.45.07-2.16-0.07-1.85-.37-4.17-1.14-6-1.64l-2.91-.37c-1.2-.32-5.48-3.93-6.27-4.93-1.31-1.67-1.51-6.32-.82-8.66l1-2.46c0.53-1.8.55-3.52,1.12-5,3.12-8.1,6.83-16.14,11.57-22.69,1-1.32,1.38-2.85,2.24-4.25l0.82-1c0.18-.36.87-1.42,0.52-1.87,0.87-.88,5.91-5,6-5.82l0.15-.07a0.7,0.7,0,0,0,.37.3h0.07a0.73,0.73,0,0,0,.22-0.82l0.52,0.45,0.22-.22,0.3,0.45,0.3-.37,0.45,0.37a0.56,0.56,0,0,0,.3-0.75c0.79,0.34.75,0.91,0.9,1.72A5.49,5.49,0,0,0,433,188a0.41,0.41,0,0,0,.3.22,2.79,2.79,0,0,1,.07,1.87l0.15,0.07a1,1,0,0,0,.37-0.22l0.07-.15,0.15,0.45,0.37-.07a0.67,0.67,0,0,0,.15-0.67,5.79,5.79,0,0,1,.67.37,4.22,4.22,0,0,1,.22,1.19l0.22,0.07,0.22-.45,0.22,0.45,0.37-.07a0.67,0.67,0,0,0,.15-0.67,1.39,1.39,0,0,1,.9.67l0.37-.3,0.3,0.37a0.93,0.93,0,0,0,.52-0.82l0.37,0.37,0.15-.22a1.34,1.34,0,0,1,.82.82l0.3-.37a1.39,1.39,0,0,1,.52.9l0.15,0.07,0.3-.3,0.15,0.15a2.14,2.14,0,0,0-.45,1.19l0.07,0.15,0.22,0.07,0.22-.45a1.42,1.42,0,0,0,.82.82l-0.07.75,0.67,0.3c0,0.38-.16.25-0.37,0.45a11.7,11.7,0,0,0,.67,1.27,1,1,0,0,0,.45-0.3l0.15,0.37,0.37-.07a0.7,0.7,0,0,0,.15-0.75l0.6,0.37a3.77,3.77,0,0,1,2-1c0.24,0.92,1.52.92,2.16,0.52V196c0.34-.07.22,0,0.37-0.22h0.07l0.07,0.75,0.07,0.07a0.78,0.78,0,0,0,.45-0.22l0.22,0.3h0.22a0.85,0.85,0,0,0,.37-0.6l0.15-.07,0.3,0.3c0.1-.29.07-0.77,0.15-1,0.22-.53.87-0.27,0.75-1,0.16,0.05,0,0,.15.07l0.37,0.3,0.22-.75a1.28,1.28,0,0,0-.82-0.45v-0.07c0.67-.8,1.24-0.41,1.64-1.34l-0.22-.82c0.72-.37,1.81-0.16,2-1.19l0.45,0.22c0.39-.85.74-1.54,1.57-1.49l0.22-.9-1-.45a18.37,18.37,0,0,0-.07-2.16l0.3,0.15a3.43,3.43,0,0,0,.15-1.79l-0.82-.07a3.56,3.56,0,0,1-.52-1.87l0.3,0.15,0.15-.22a10.59,10.59,0,0,0-.75-2.16h-0.67v-1.79a0.88,0.88,0,0,1,.52-0.15l0.15-.22c0.05-.59.09-0.91-0.37-1a0.6,0.6,0,0,1,.22-0.67c0.14-.21.06-0.06,0.3,0l0.15-.15a0.86,0.86,0,0,0-.3-0.9,0.37,0.37,0,0,0,.3-0.37l0.3,0.22,0.15-.07,0.15-.67-0.9-1c0.53-.19.52-0.5,0.9-0.45l0.22-.75a0.56,0.56,0,0,0-.37-0.3l0.22-1a1.65,1.65,0,0,0,.82-0.45l0.15,0.3c0.55-.15.45-0.39,0.9-0.3a1.12,1.12,0,0,0,.15-0.6c0.35,0.12.24,0.17,0.45-.15l0.15,0.3c0.55-.15.45-0.39,0.9-0.3l0.15-.67,0.37-.07c0.13,0,0,0,.15.15a3.19,3.19,0,0,0,1.42-.6l0.15,0.3a7,7,0,0,0,1.34-.75c0.24-.16,0,0,0.37.07a12.38,12.38,0,0,0,1.12-1c0.24-.17.9-0.16,1.12-0.3a15.77,15.77,0,0,0,1-1.49l0.3,0.15,0.52-1.27c0.14-.21.06-0.06,0.3,0a1.66,1.66,0,0,0,0-1.19c0.59,0.21.66-.23,1.12-0.15l0.15-.52a5,5,0,0,0,1.34-.22V162c1.2-.06,5-2,5.45-1.94l0.15-.67c0.27,0.07,2.61-1.42,3.58-1.64v0.3c0.34-.07.22,0,0.37-0.22,0.23,0.27.1,0.22,0.45,0.22v0.67c0.34-.07.22,0,0.37-0.22l0.15,0.3a0.68,0.68,0,0,0,.6-0.45,1.36,1.36,0,0,1,.15.9c0.34-.07.22,0,0.37-0.22L483,159.4l0.45-.15L483.33,161a1.4,1.4,0,0,0,1.12-.15l0.07,0.45c0.34-.07.22,0,0.37-0.22l0.15,0.3a0.39,0.39,0,0,0,.37-0.22l0.07,0.67c0.34-.07.22,0,0.37-0.22l0.15,0.3,0.45-.22,0.07,0.3c0.34-.07.22,0,0.37-0.22l0.15,0.3,1-.45v0.45c0.34-.07.22,0,0.37-0.22l0.15,0.3c0.55-.15.45-0.39,0.9-0.3l0.15-.75,0.15,0.3a0.68,0.68,0,0,0,.6-0.45c0.32,0.18.28,0,.37,0.37,0.34-.07.22,0,0.37-0.22l0.15,0.3a4.78,4.78,0,0,0,1-.45v0.6l0.75,0.15,0.45-.45a0.78,0.78,0,0,0,.82.15l0.07,0.52a2,2,0,0,0,1.72-.3l0.37,0.3a0.82,0.82,0,0,0,.45-0.67l0.52,0.22c0.16-1.33.13-2.3,0.22-3.66l-0.45-.37a4.86,4.86,0,0,1,.07-2.54c-0.18-.27-0.14-0.27-0.6-0.3,0.21-.48.53-0.6,0.3-1.12l0.45,0.3a0.57,0.57,0,0,0,.45-0.15c0.28-.19.22-0.24,0.15-0.6l0.45,0.15a1.25,1.25,0,0,1,.67-0.75l0.15,0.37,0.37-.07a0.7,0.7,0,0,0,.15-0.75l0.22,0.22,0.3,0.22,0.22-.9-0.45-.15a0.77,0.77,0,0,0,.22-0.6l-1.57-1.34a3,3,0,0,0,.15-1.12,2.09,2.09,0,0,0,.67.15l0.22-.67c0.18,0.06.16,0,.3,0.3a16.29,16.29,0,0,0,2.69-1.34,0.69,0.69,0,0,0-.07-0.82l0.15-.15,0.67,0.37c0.84-.06,1.48-1.81,1.34-2.39l0.07-.22,0.52,0.15,0.15-1.12a1.19,1.19,0,0,1,.75-0.15,1,1,0,0,0,.22-0.67l0.45,0.37c0.28-.8-0.28-1.28.22-1.94,0.15-.09.2,0.08,0.52,0.22a1.57,1.57,0,0,0,.82-1l0.45,0.22c0.47-.52,1.06-1.49,1.72-1.34a0.77,0.77,0,0,0,0-1,1.14,1.14,0,0,1,1.12-.82,3.32,3.32,0,0,0,.45-1A0.59,0.59,0,0,0,511.85,135.22Zm-141.6,70.69c-0.62.39-4.26-2.78-4.85-3.36a3.92,3.92,0,0,1,2.09-1c0.69-1.36,1.57-1.14,2.09-1.94C370,200.1,370.71,205.52,370.24,205.91Zm22.69,18.44c-4.26-3.69-7.62-8.47-12.24-11.79-1.65-1.18-3.32-2.45-5-3.51-0.5-.31-1.36-0.46-1.64-1-0.75-1.35-1.35-7.14-1.34-9.26a2.09,2.09,0,0,0,1.34-.9l0.07,0.3a0.73,0.73,0,0,0,.67-0.3l0.15,0.3,1-.45H376v0.3c0.34-.07.22,0,0.37-0.22l0.15,0.3,0.52-.22c1.21,3.07,2.44,6.18,4.55,8.36,1.09,1.13,2.54,1.88,3.73,2.91C387.94,211.46,393.39,219.44,392.93,224.34ZM392,208.67l-0.45-.07c-1.23-.44-1.82-1.85-2.76-2.61-1.31-1.06-2.6-2.2-3.88-3.21l-1.87-1.34-2.61-5.52v-0.3c1.35,0.18,3.22-2,4.7-1.72a1.12,1.12,0,0,0,.15-0.6l0.22-.07v0.45c0.34-.07.22,0,0.37-0.22H386l-0.07,1c0.34-.07.22,0,0.37-0.22a1,1,0,0,1,.37.82c0.34-.07.22,0,0.37-0.22l0.15,0.3a2.93,2.93,0,0,0,1.49-.82l0.15,0.3c0.55-.15.45-0.39,0.9-0.3a2.1,2.1,0,0,1,.52-1.12c0.14-.21.06-0.06,0.3,0,0.33-.75.24-2.08,1.19-1.87l0.22-.6c0.14-.21.06-0.06,0.3,0l0.3-.82,0.45,4C393.94,197.94,394.11,205.64,392,208.67Zm9-6a11.68,11.68,0,0,0-1.19,1.72l-0.52.45c-1.45-3.2-1.72-7.93-2.61-11.64-0.52-2.18,0-4.85-.52-6.72,0.09-.3,0-0.16.22-0.22a2.87,2.87,0,0,0,.07-1.42l0.3,0.15c0.45-.89.25-1.58,0.67-2.46,0.14-.21.06-0.06,0.3,0,0.22-.51.13-1.06,0.67-1.27a0.53,0.53,0,0,1,.82.37,0.74,0.74,0,0,0,.75-0.22c0.16,0.27.44,0.59,0.75,0.3l0.15,1c0.49,0.06.6,0,.75-0.45L402,183c0.82-.05,1.25-0.66,1.94-0.67a3.73,3.73,0,0,0,.52-1.87l0.3-.07c0.13,0,0,0,.15.15,0.55-.15.45-0.39,0.9-0.3a0.62,0.62,0,0,0-.15-1,1.12,1.12,0,0,0,.82-1.19l0.75,0.45,0.75-2.09,1-.22,0.07,0.37a10.25,10.25,0,0,1,1.34-.22,2.16,2.16,0,0,0,.67-1.12l0.6,0.45,0.52-1h0.3l0.07,1.19,0.37,0.37a2.94,2.94,0,0,0,1.12,0,0.85,0.85,0,0,0,.37-0.6h0.07c1,3-2.5,6.68-3.81,8.58a80.77,80.77,0,0,0-7.24,12.47Zm17.47-13.44c-1.34,1.24-3,2.17-4.11,3.66-0.61.84-.78,1.84-1.34,2.76-0.7,1.15-1.79,2.19-2.54,3.28l-4.11,7.32c-0.78,1.29-2.52,2.29-3,3.51l-0.15.07c0.15-3.26,2.37-8.09,3.58-10.6l0.52-1.79,1.12-1.79,0.52-1.87c2.94-4.59,5.83-9.22,8.81-13.81l0.45,0.22H418l-0.07.3a2.92,2.92,0,0,1,.37,2,1,1,0,0,1,1,.45,0.71,0.71,0,0,1-.52.67,3.6,3.6,0,0,1-.15,1.79l0.07,0.15,0.15,0.07,0.3-.37,0.45,0.37a0.56,0.56,0,0,0,.3-0.75l0.82,0.67A20.06,20.06,0,0,1,418.54,189.26Z" transform="translate(-27 -26.15)"/><path d="M87.71,310.07q0.56-2.06,4.49-7.95t9.91-13.84q6-7.95,13.28-17.3t14.4-18.23q7.1-8.88,13.37-16.55t10.19-12.34q3.93-1.31,6.17-2a32.38,32.38,0,0,0,3.55-1.22q1.12,0.38.37,1.12a6.47,6.47,0,0,0-2.8,4.3q-0.75,4.3-1.5,10.28t-1.4,12.71q-0.66,6.73-1.22,13.84t-0.94,13.46q-0.38,6.36-.56,11.69t-0.19,8.51a7.44,7.44,0,0,0,.28,2.52,0.69,0.69,0,0,0,.75.56,2,2,0,0,0,1-.75q0.56-.65,1.12-1.4,2.06-2.62,6.73-8.32t10.66-12.9q6-7.2,12.71-15.05T201,246.4q6.17-7,11.13-12.53t7.39-7.76a47.21,47.21,0,0,1,7.29-2.8,28,28,0,0,0,6.92-3,1.16,1.16,0,0,1,.94.47,0.8,0.8,0,0,1,0,1,28.43,28.43,0,0,0-4.58,2.24,6.92,6.92,0,0,0-2.34,3.55q-2.24,7.11-4.58,16.55t-4.3,19.35q-2,9.91-3.27,19.35a122.3,122.3,0,0,0-1.31,16.55q0,2.62,1.22,3.65a4.33,4.33,0,0,0,2.9,1,20.93,20.93,0,0,0,3.74-.37,16.35,16.35,0,0,0,3.74-1.12,0.48,0.48,0,0,1,.47.47,0.89,0.89,0,0,1-.28.84l-4.39,1.31-5,1.5L212,308.1q-2.15.65-3.65,1a7,7,0,0,1-3.65-.84,4.15,4.15,0,0,1-1.78-3.09,86.64,86.64,0,0,1,1.31-8.6q1.12-6,2.8-13.46t3.65-15.71q2-8.23,3.65-15.24t2.9-11.87q1.21-4.86,1.4-5.8,0.74-2.81,0-2.71a5.32,5.32,0,0,0-2.24,1.4q-3.55,3.18-8.32,8.13t-10.1,10.94q-5.33,6-10.94,12.71t-11,13.46q-5.43,6.73-10.28,13.18t-8.6,11.87c-0.25.5-.56,1.09-0.94,1.78a11.41,11.41,0,0,0-.93,2.34,14.82,14.82,0,0,0-5.33,1,15.35,15.35,0,0,0-3.65,2.52c-0.75.25-1.19,0.12-1.31-.37q0.56-3.93,1.22-10.47t1.31-14.4q0.65-7.85,1.22-16.17t1.12-15.71q0.56-7.38.93-13t0.56-8q0-3.55-3,0-5.43,6.17-12.81,15.52T120.62,268q-7.48,10.1-14.12,19.82T95.94,304.65q-3.37,6.17-4,9.35a18.46,18.46,0,0,0-.47,5.24c0.12,1.37,0,2-.37,1.78A3,3,0,0,1,90,319.6a12.45,12.45,0,0,1-.93-3.37Q88.64,314,87.71,310.07Z" transform="translate(-27 -26.15)"/><path d="M299.18,282.21q-4.3,5.24-9.44,10.56a122.8,122.8,0,0,1-10.38,9.63A57.67,57.67,0,0,1,269,309.32a21.08,21.08,0,0,1-9.44,2.62q-3.74,0-5.24-1.87a7.24,7.24,0,0,1-1.5-4.67,22,22,0,0,1,1.59-7,49.54,49.54,0,0,1,4.77-9.44q-2.43,3.18-5.61,6.73a70.71,70.71,0,0,1-6.54,6.45,45.33,45.33,0,0,1-6.73,4.86,12.22,12.22,0,0,1-6,2q-3.93,0-3.93-3.93,0-4.3,3.37-10.84a55.85,55.85,0,0,1,9.07-12.62,60.73,60.73,0,0,1,13-10.47A29,29,0,0,1,271,266.69a10.53,10.53,0,0,1,1.68-2.62,5.93,5.93,0,0,1,1.5-1.12l5.24-1.5,0.37,0.19A12.07,12.07,0,0,0,278,264q-0.84,1.4-1.78,2.9c0.62,0,1.56.06,2.8,0.19s2.18,0.25,2.8.37a1.17,1.17,0,0,1,.93.93,0.5,0.5,0,0,1-.56.56,15.6,15.6,0,0,0-3.37-.56q-2.24-.18-3.37-0.19-8.6,15.15-12.62,24t-4,13.18a4.54,4.54,0,0,0,.84,2.8q0.84,1.12,3.46,1.12a16,16,0,0,0,7.11-2.15,52.41,52.41,0,0,0,8.79-6,122.09,122.09,0,0,0,9.63-8.88,141,141,0,0,0,9.44-10.66q0.37-.56.75-0.28A1,1,0,0,1,299.18,282.21ZM270,268a19.58,19.58,0,0,0-12.15,4.49A53.41,53.41,0,0,0,247.58,283a66.83,66.83,0,0,0-7.2,12.06q-2.71,6-2.71,8.79c0,1,.37,1.5,1.12,1.5a7.67,7.67,0,0,0,3.46-1.5,51.9,51.9,0,0,0,5.33-4,66.65,66.65,0,0,0,6.08-5.89,60.34,60.34,0,0,0,5.7-7.29q3-4.49,5.8-9.54t5-9Z" transform="translate(-27 -26.15)"/><path d="M333.21,257.9a6.89,6.89,0,0,1-.93,3.37q-9.35,17.39-16.83,30.76t-14.21,24.68Q294.51,328,288,338.58t-13.84,22.53a157.8,157.8,0,0,1-13,17.86,84.56,84.56,0,0,1-15.52,14.4,72.44,72.44,0,0,1-18.51,9.54,66.84,66.84,0,0,1-22,3.46q-8.79,0-14.49-2.34a22.53,22.53,0,0,1-9-6.26,22.79,22.79,0,0,1-4.58-9,41.66,41.66,0,0,1-1.31-10.47,32.78,32.78,0,0,1,.37-4.77,20.42,20.42,0,0,1,.94-4,0.8,0.8,0,0,1,.75-0.75c0.37,0,.56.31,0.56,0.93q-0.37,1.31-.75,3.08a18.63,18.63,0,0,0-.37,3.83,21.92,21.92,0,0,0,2.8,11.31,22.82,22.82,0,0,0,7.76,7.85,38.89,38.89,0,0,0,11.69,4.67,62.64,62.64,0,0,0,14.4,1.59,52.58,52.58,0,0,0,16.17-2.62,54.88,54.88,0,0,0,16.17-8.69,90,90,0,0,0,15.8-15.8A151.71,151.71,0,0,0,277.31,351q4.86-9,10.28-19.07t10.47-19.35L307.13,296q4-7.38,5.89-10.75-3.74,5-7.29,9.54t-6.64,7.85a37,37,0,0,1-5.89,5.33,9.11,9.11,0,0,1-5,2,3.8,3.8,0,0,1-2.8-1.12,4.86,4.86,0,0,1-1.12-3.55q0-2.8,2.34-7.95a72,72,0,0,1,6.17-10.75,82,82,0,0,1,8.69-10.66,35.14,35.14,0,0,1,9.91-7.48,19.91,19.91,0,0,1,9-2.24,9,9,0,0,1,2.06.19q1.49-2.62,3.09-5.24t3.27-5.61Q330,253,331.16,253q0.74,0,1.4,1.68A8.81,8.81,0,0,1,333.21,257.9Zm-12,11a5,5,0,0,0-1.5-.19h-1.31a25.3,25.3,0,0,0-5,.47,8.42,8.42,0,0,0-4,2,44.6,44.6,0,0,0-8,8.79,70.39,70.39,0,0,0-5.61,9.54,49.65,49.65,0,0,0-3.27,8.51,24.46,24.46,0,0,0-1,5.52c0,1.37.37,2.06,1.12,2.06s2.24-1.06,4.49-3.18A84.34,84.34,0,0,0,304.7,294q4.21-5.23,8.69-11.78A112.12,112.12,0,0,0,321.25,268.93Z" transform="translate(-27 -26.15)"/><path d="M391.74,283.7a101.81,101.81,0,0,1-7.76,9.44,70.5,70.5,0,0,1-9.35,8.51,57.66,57.66,0,0,1-10.1,6.17,23.38,23.38,0,0,1-10,2.43,12.39,12.39,0,0,1-4.11-.65q-1.87-.66-1.87-3.27a16.62,16.62,0,0,1,1.87-6.64q1.87-4,4.39-8.51T360,282a81.07,81.07,0,0,0,4.39-8.6,2.06,2.06,0,0,0,.09-1.59q-0.28-.65-1.22-0.09a57.35,57.35,0,0,0-4.86,3.55q-2.81,2.24-5.7,4.77t-5.61,5.14a56.29,56.29,0,0,0-4.39,4.67q-3,4.68-5.14,8.6t-5.33,8.79a2.21,2.21,0,0,1-1.12,1.12q-0.94,0-1.59-2.06a12.13,12.13,0,0,1-.65-2.62q0-1.68,2.34-4.58t5.14-6.45q3-6,6.17-12.62T348,268.18a1.84,1.84,0,0,1,1.68-.93,3.22,3.22,0,0,1,3,3q0,0.75-2.71,5.14a90,90,0,0,0-5.33,10.19q3.55-3.18,7.76-6.73t8-6.54q3.83-3,6.73-5t4-2a1.82,1.82,0,0,1,1.4.84,2.66,2.66,0,0,1,.65,1.59,5,5,0,0,1-.94,2.24q-2.06,3-5,7.67t-5.7,9.63a98.9,98.9,0,0,0-4.58,9.44,19.93,19.93,0,0,0-1.87,7.1A4,4,0,0,0,356,307a4.39,4.39,0,0,0,3,.84,15.78,15.78,0,0,0,7.48-2.43,68.55,68.55,0,0,0,8.88-6.08,76.21,76.21,0,0,0,8.69-8.13,63.12,63.12,0,0,0,6.73-8.6,0.85,0.85,0,0,1,1.12-.28Q392.67,282.58,391.74,283.7Z" transform="translate(-27 -26.15)"/><path d="M443.9,276a38.13,38.13,0,0,1-7.76,7.76,16.77,16.77,0,0,1-10.38,3.46,13.52,13.52,0,0,1-6.26-1.59,12.11,12.11,0,0,1-5-4.77q-1.31,3-3.37,6.83a65.44,65.44,0,0,1-4.86,7.67,47.93,47.93,0,0,1-6.26,7,34.71,34.71,0,0,1-7.39,5.24,14.51,14.51,0,0,1-5.61,1.5q-6.73,0-6.73-6a21.28,21.28,0,0,1,1.21-6.92,42.53,42.53,0,0,1,3.09-6.92,64.41,64.41,0,0,1,4-6.36,39.66,39.66,0,0,1,4-4.86,39,39,0,0,1,9-7.29,26,26,0,0,1,10.84-3.55,30.62,30.62,0,0,1,1.12-3.46,3.42,3.42,0,0,1,2.62-2.34l1.87-.37a6.53,6.53,0,0,0,1.68-.56,1.05,1.05,0,0,1,1.12-.09c0.37,0.19.44,0.53,0.19,1a15.57,15.57,0,0,0-2,5.24,34.18,34.18,0,0,0-.65,6.92,16.89,16.89,0,0,0,2,8.6q2,3.37,6.83,3.37a13.61,13.61,0,0,0,8.79-3.18,34.06,34.06,0,0,0,6.54-6.92,0.82,0.82,0,0,1,1.22-.56C444.37,275.17,444.4,275.54,443.9,276Zm-30.85,1.31a29.11,29.11,0,0,1-.56-3.93q-0.19-2.24-.19-4.3a0.76,0.76,0,0,0-.75-0.94,8.15,8.15,0,0,0-4.3,1.4,23.8,23.8,0,0,0-4.49,3.74,57.75,57.75,0,0,0-4.49,5.33,66.21,66.21,0,0,0-4.11,6.17,69.21,69.21,0,0,0-4.39,8.88,21.33,21.33,0,0,0-1.78,9.07,6.23,6.23,0,0,0,.47,2.43,2.06,2.06,0,0,0,2.15,1.12q3.18,0,6.92-3.55a55.73,55.73,0,0,0,7.1-8.32,67.22,67.22,0,0,0,5.7-9.63A28.57,28.57,0,0,0,413.05,277.35Z" transform="translate(-27 -26.15)"/><path d="M517.2,185.91q0,2.62-2.06,7.67a98.32,98.32,0,0,1-5.89,11.69,162.1,162.1,0,0,1-9.35,14.21,158.42,158.42,0,0,1-12.53,15.05A154.42,154.42,0,0,1,472,248.83a120.16,120.16,0,0,1-18,12.06q-1.68,3-4.67,8t-5.89,10.66a121.2,121.2,0,0,0-5,11,25.79,25.79,0,0,0-2.15,9.16q0,6,5.42,6a21.09,21.09,0,0,0,9.72-2.62,55.86,55.86,0,0,0,9.63-6.36,94.93,94.93,0,0,0,8.6-7.95q4-4.21,6.82-7.57,1.31-1.31,1.5-.65a1.45,1.45,0,0,1-.56,1.4q-3.37,4.11-7.95,8.79a90.65,90.65,0,0,1-9.72,8.6A58.34,58.34,0,0,1,449,306a26.3,26.3,0,0,1-11.22,2.62q-4.86,0-7-2.34a8.11,8.11,0,0,1-2.15-5.7q0-3.37,2.9-9.63t6.82-13.18q3.93-6.92,7.85-13.09t5.8-9.35L458.58,244q3.46-5.89,6.83-11.5l6.45-10.75q3.09-5.14,5.7-9.07,3.18-4.86,6.54-9.16a56.07,56.07,0,0,1,8.6-8.6,76.94,76.94,0,0,1,13.09-9.16q6-3.18,8-3.18a3.5,3.5,0,0,1,2.43.84A3.23,3.23,0,0,1,517.2,185.91Zm-8.41,4.86q0-3-2.43-3a4.64,4.64,0,0,0-2.06.56,12.62,12.62,0,0,0-2.9,2.34,59.92,59.92,0,0,0-4.3,5q-2.52,3.18-6.45,8.23-1.5,2.06-4.21,6t-6.92,10.38q-4.21,6.45-10.1,15.89L455.5,258.46a113,113,0,0,0,21-15.43,136.54,136.54,0,0,0,16.92-18.6,103.47,103.47,0,0,0,11.22-18.51Q508.78,196.95,508.79,190.78Z" transform="translate(-27 -26.15)"/><path d="M509.91,283.33a85,85,0,0,1-10.28,11A88.74,88.74,0,0,1,489,302.78a33.42,33.42,0,0,1-7.67,3.74,22.7,22.7,0,0,1-7.11,1.31,21.34,21.34,0,0,1-2.62-.19,6.64,6.64,0,0,1-2.71-.94,6.8,6.8,0,0,1-2.06-2,5.66,5.66,0,0,1-.84-3.27,17.74,17.74,0,0,1,1.87-6.64q1.87-4.21,4.39-8.69t5-8.6q2.53-4.11,4-6.17a7,7,0,0,1,3.27-2.52,10.41,10.41,0,0,1,3.08-1q0.93,0,.94.56a3.57,3.57,0,0,1-.28,1.12,3.14,3.14,0,0,1-.66,1.12q-2.43,3.74-5,8.23t-4.58,8.69a67.63,67.63,0,0,0-3.27,7.76,18.57,18.57,0,0,0-1.21,5.61,4,4,0,0,0,1.21,3.27,4.89,4.89,0,0,0,3.27,1,17,17,0,0,0,8.23-2.52,64.36,64.36,0,0,0,8.88-6.08,85.41,85.41,0,0,0,8.13-7.48,72.25,72.25,0,0,0,5.8-6.73q0.93-.93,1-0.47A2.75,2.75,0,0,1,509.91,283.33Zm-8.41-41.7a6.85,6.85,0,0,1-2,4.49,5.77,5.77,0,0,1-4.39,2.24,2,2,0,0,1-2.24-2.24,7.44,7.44,0,0,1,1.78-4.67,5.4,5.4,0,0,1,4.39-2.24A2.15,2.15,0,0,1,501.49,241.63Z" transform="translate(-27 -26.15)"/><path d="M564.69,282.21q-4.3,5.24-9.44,10.56a122.87,122.87,0,0,1-10.38,9.63,57.64,57.64,0,0,1-10.38,6.92,21.08,21.08,0,0,1-9.44,2.62q-3.74,0-5.24-1.87a7.24,7.24,0,0,1-1.5-4.67,22,22,0,0,1,1.59-7,49.54,49.54,0,0,1,4.77-9.44q-2.43,3.18-5.61,6.73a70.65,70.65,0,0,1-6.54,6.45,45.28,45.28,0,0,1-6.73,4.86,12.22,12.22,0,0,1-6,2q-3.93,0-3.93-3.93,0-4.3,3.37-10.84a55.87,55.87,0,0,1,9.07-12.62,60.72,60.72,0,0,1,13-10.47,29,29,0,0,1,15.15-4.39,10.52,10.52,0,0,1,1.68-2.62,5.93,5.93,0,0,1,1.5-1.12l5.24-1.5,0.37,0.19a12,12,0,0,0-1.78,2.34q-0.84,1.4-1.78,2.9c0.62,0,1.56.06,2.8,0.19s2.18,0.25,2.8.37a1.17,1.17,0,0,1,.93.93,0.5,0.5,0,0,1-.56.56,15.61,15.61,0,0,0-3.37-.56q-2.24-.18-3.37-0.19-8.6,15.15-12.62,24t-4,13.18a4.55,4.55,0,0,0,.84,2.8q0.84,1.12,3.46,1.12a16,16,0,0,0,7.11-2.15,52.39,52.39,0,0,0,8.79-6,121.92,121.92,0,0,0,9.63-8.88,140.74,140.74,0,0,0,9.44-10.66c0.25-.37.5-0.47,0.75-0.28A1,1,0,0,1,564.69,282.21ZM535.52,268a19.58,19.58,0,0,0-12.15,4.49A53.4,53.4,0,0,0,513.09,283a66.81,66.81,0,0,0-7.2,12.06q-2.71,6-2.71,8.79c0,1,.37,1.5,1.12,1.5a7.68,7.68,0,0,0,3.46-1.5,52.06,52.06,0,0,0,5.33-4,66.71,66.71,0,0,0,6.08-5.89,60.39,60.39,0,0,0,5.7-7.29q3-4.49,5.8-9.54t5-9Z" transform="translate(-27 -26.15)"/><path d="M295.85,362.9a12.2,12.2,0,0,1,3.88.59,8.88,8.88,0,0,1,3,1.68,7.42,7.42,0,0,1,2,2.71,9.77,9.77,0,0,1,0,7.25,7.42,7.42,0,0,1-2,2.71,8.87,8.87,0,0,1-3,1.68,13.14,13.14,0,0,1-7.75,0,8.87,8.87,0,0,1-3-1.68,7.42,7.42,0,0,1-2-2.71,9.77,9.77,0,0,1,0-7.25,7.42,7.42,0,0,1,2-2.71,8.88,8.88,0,0,1,3-1.68A12.2,12.2,0,0,1,295.85,362.9Zm0,0.9a5.48,5.48,0,0,0-2.68.62,5.38,5.38,0,0,0-1.87,1.69,7.57,7.57,0,0,0-1.08,2.46,12.41,12.41,0,0,0,0,5.85,7.56,7.56,0,0,0,1.08,2.47,5.38,5.38,0,0,0,1.87,1.7,6.07,6.07,0,0,0,5.36,0,5.38,5.38,0,0,0,1.87-1.7,7.58,7.58,0,0,0,1.08-2.47,12.43,12.43,0,0,0,0-5.85,7.59,7.59,0,0,0-1.08-2.46,5.38,5.38,0,0,0-1.87-1.69A5.49,5.49,0,0,0,295.85,363.8Z" transform="translate(-27 -26.15)"/><path d="M313.19,370.26h1.3a5,5,0,0,0,1.27-.16,3.73,3.73,0,0,0,1.16-.52,3.44,3.44,0,0,0,.93-1,4.41,4.41,0,0,0,.6-1.47H319q0,0.87-.06,1.77t0,1.77q0,0.9,0,1.78t0.06,1.78h-0.5a7,7,0,0,0-.5-1.54,2.77,2.77,0,0,0-.77-1,3,3,0,0,0-1.12-.54,6.6,6.6,0,0,0-1.57-.16h-1.3v5.76a4.53,4.53,0,0,0,.1,1,1.3,1.3,0,0,0,.41.7,2,2,0,0,0,.9.4,7.63,7.63,0,0,0,1.53.12v0.7l-2.37-.07-2.37,0-2.07,0-2.07.07V379a5.81,5.81,0,0,0,1.33-.12,1.63,1.63,0,0,0,.79-0.4,1.42,1.42,0,0,0,.37-0.7,4.53,4.53,0,0,0,.1-1v-10a7.52,7.52,0,0,0-.09-1.22,1.9,1.9,0,0,0-.36-0.87,1.72,1.72,0,0,0-.79-0.54,4.42,4.42,0,0,0-1.36-.21v-0.7l2.56,0.1q1.28,0,2.55,0,2.42,0,4.8,0l4.8-.1c0,0.3,0,.6,0,0.9V365q0,0.77,0,1.55a10.72,10.72,0,0,0,.14,1.54h-0.5a5,5,0,0,0-1.86-3,6.6,6.6,0,0,0-3.75-.9h-2.79v6.06Z" transform="translate(-27 -26.15)"/><path d="M344.3,368.46a7.41,7.41,0,0,0-.74-2.21,3.42,3.42,0,0,0-1.13-1.23,3.9,3.9,0,0,0-1.55-.55,14.24,14.24,0,0,0-2-.12v11.92a10.36,10.36,0,0,0,.08,1.38,1.66,1.66,0,0,0,.35.86,1.59,1.59,0,0,0,.82.47,8.48,8.48,0,0,0,1.5.22v0.5l-2.11-.07-2.13,0-2.27,0-2.32.07v-0.5a8.48,8.48,0,0,0,1.5-.22,1.59,1.59,0,0,0,.82-0.47,1.66,1.66,0,0,0,.35-0.86,10.36,10.36,0,0,0,.08-1.38V364.35a14.23,14.23,0,0,0-2,.13A3.89,3.89,0,0,0,332,365a3.42,3.42,0,0,0-1.13,1.23,7.41,7.41,0,0,0-.74,2.21H329.5q0-.47.09-1c0-.32,0-0.69.07-1.08s0-.86.06-1.37,0-1.11,0-1.79l3.69,0.1q1.82,0,3.66,0t3.74,0l3.76-.1q0,1,0,1.79t0.06,1.37c0,0.4,0,.76.07,1.08s0.05,0.64.09,1H344.3Z" transform="translate(-27 -26.15)"/><path d="M345.82,379.11a12,12,0,0,0,1.25-.14,1.61,1.61,0,0,0,.8-0.35,1.43,1.43,0,0,0,.42-0.72,4.91,4.91,0,0,0,.12-1.23v-9.72a13.26,13.26,0,0,0-.06-1.45,1.46,1.46,0,0,0-1.1-1.37,6.93,6.93,0,0,0-1.38-.27v-0.6q2.14,0.15,4.31.15t4.29-.15v0.6a7.87,7.87,0,0,0-1.47.27,1.74,1.74,0,0,0-.82.5,1.67,1.67,0,0,0-.35.87,11.19,11.19,0,0,0-.07,1.45v3.29H360v-3.29a11.16,11.16,0,0,0-.08-1.45,1.73,1.73,0,0,0-.34-0.87,1.66,1.66,0,0,0-.8-0.5,7.66,7.66,0,0,0-1.48-.27v-0.6q2.22,0.15,4.39.15t4.29-.15v0.6a7.3,7.3,0,0,0-1.45.27,1.66,1.66,0,0,0-.79.5,1.73,1.73,0,0,0-.34.87,11.19,11.19,0,0,0-.07,1.45v9.72a4.91,4.91,0,0,0,.12,1.23,1.43,1.43,0,0,0,.42.72,1.62,1.62,0,0,0,.81.35,12.56,12.56,0,0,0,1.28.14v0.6l-2.16-.07-2.16,0-2.14,0-2.14.07v-0.6a12,12,0,0,0,1.25-.14,1.69,1.69,0,0,0,.81-0.35,1.38,1.38,0,0,0,.44-0.72,4.9,4.9,0,0,0,.13-1.23v-5.38h-8.28v5.38a4.91,4.91,0,0,0,.12,1.23,1.38,1.38,0,0,0,.44.72,1.69,1.69,0,0,0,.82.35,12.53,12.53,0,0,0,1.26.14v0.6l-2.18-.07-2.18,0-2.11,0-2.11.07v-0.6Z" transform="translate(-27 -26.15)"/><path d="M367,379.11a5.79,5.79,0,0,0,1.36-.21,1.61,1.61,0,0,0,.79-0.5,1.8,1.8,0,0,0,.36-0.86,7.82,7.82,0,0,0,.09-1.27v-9.47a7.45,7.45,0,0,0-.09-1.22,1.89,1.89,0,0,0-.36-0.87,1.71,1.71,0,0,0-.79-0.54A4.42,4.42,0,0,0,367,364v-0.7l2.55,0.1q1.28,0,2.56,0,2.42,0,4.81,0l4.89-.1c0,0.3,0,.6,0,0.9V365q0,0.77,0,1.52a6.79,6.79,0,0,0,.17,1.37l-0.55.1a5.43,5.43,0,0,0-1.91-2.85,6.37,6.37,0,0,0-3.8-1h-2.79v6.06h1.3a5,5,0,0,0,1.27-.16,3.73,3.73,0,0,0,1.16-.52,3.42,3.42,0,0,0,.93-1,4.42,4.42,0,0,0,.6-1.47h0.5q0,0.87-.06,1.77t0,1.77q0,0.9,0,1.78t0.06,1.78h-0.5a5.11,5.11,0,0,0-.57-1.54,3.45,3.45,0,0,0-.87-1,3.18,3.18,0,0,0-1.13-.54,5.62,5.62,0,0,0-1.38-.16h-1.3v7.4a8.28,8.28,0,0,0,1.33.26,13.83,13.83,0,0,0,1.63.09,8.53,8.53,0,0,0,4.41-1.16,9.33,9.33,0,0,0,3.34-3.6l0.47,0.35q-0.62,1.32-1.18,2.64a27,27,0,0,0-1,2.72l-3.86-.07-3.86,0h-4.35l-1.67,0-1.21,0v-0.6Z" transform="translate(-27 -26.15)"/><path d="M401.13,362.9a12.2,12.2,0,0,1,3.88.59,8.89,8.89,0,0,1,3,1.68,7.41,7.41,0,0,1,2,2.71,9.77,9.77,0,0,1,0,7.25,7.41,7.41,0,0,1-2,2.71,8.87,8.87,0,0,1-3,1.68,13.14,13.14,0,0,1-7.75,0,8.87,8.87,0,0,1-3-1.68,7.41,7.41,0,0,1-2-2.71,9.77,9.77,0,0,1,0-7.25,7.41,7.41,0,0,1,2-2.71,8.89,8.89,0,0,1,3-1.68A12.2,12.2,0,0,1,401.13,362.9Zm0,0.9a5.48,5.48,0,0,0-2.68.62,5.38,5.38,0,0,0-1.87,1.69,7.57,7.57,0,0,0-1.08,2.46,12.43,12.43,0,0,0,0,5.85,7.56,7.56,0,0,0,1.08,2.47,5.38,5.38,0,0,0,1.87,1.7,6.07,6.07,0,0,0,5.36,0,5.38,5.38,0,0,0,1.87-1.7,7.58,7.58,0,0,0,1.08-2.47,12.43,12.43,0,0,0,0-5.85,7.59,7.59,0,0,0-1.08-2.46,5.38,5.38,0,0,0-1.87-1.69A5.48,5.48,0,0,0,401.13,363.8Z" transform="translate(-27 -26.15)"/><path d="M414.07,368.59c0-.2,0-0.44,0-0.72V367a17.87,17.87,0,0,1,.09-1.86,15,15,0,0,1,.34-1.88q1.69,0,3.35.09t3.35,0.06l3.55,0q1.76,0,3.55-.12l0.27,0.6q-1.62,1.72-3.1,3.54t-2.9,3.69q-1.42,1.87-2.82,3.76t-2.87,3.74l1,0.09q0.51,0,1,0a18.88,18.88,0,0,0,2.89-.21,9.36,9.36,0,0,0,2.53-.75,6.86,6.86,0,0,0,2.06-1.46,6.55,6.55,0,0,0,1.42-2.34h0.62a24.53,24.53,0,0,1-.88,2.94,23.78,23.78,0,0,1-1.26,2.82l-3.39-.07-3.39,0-3.34,0-3.34.07-0.42-.52,11.74-15q-2.27,0-4,.1a9.53,9.53,0,0,0-2.87.55,3.77,3.77,0,0,0-1.78,1.33,4.91,4.91,0,0,0-.75,2.46h-0.67Z" transform="translate(-27 -26.15)"/><path d="M428.8,379.11a3.77,3.77,0,0,0,1.16-.29,2.31,2.31,0,0,0,.77-0.56,3.84,3.84,0,0,0,.55-0.81q0.24-.46.49-1.06L436.65,365l-0.45-1.2q0.8-.15,1.57-0.36a10.27,10.27,0,0,0,1.5-.54l5.41,14.68a2,2,0,0,0,1,1.16,3.46,3.46,0,0,0,1.52.36v0.6l-1.07,0-1.2,0h-2.24l-2.08,0-2.08.07v-0.6a5.23,5.23,0,0,0,1.92-.42,1,1,0,0,0,.62-1,2.5,2.5,0,0,0-.09-0.57,6.59,6.59,0,0,0-.22-0.71l-0.27-.72-0.24-.61-0.85-2.47h-5l-1.27,3.51c-0.08.23-.17,0.46-0.26,0.67a2.12,2.12,0,0,0-.14.82,0.82,0.82,0,0,0,.21.55,2,2,0,0,0,.55.44,4.07,4.07,0,0,0,.72.31,4.63,4.63,0,0,0,.71.17v0.6l-1.61-.07-1.61,0-1.5,0-1.5.07v-0.6Zm10.29-7.43-2-5.83h0l-2.17,5.83h4.26Z" transform="translate(-27 -26.15)"/><path d="M447.45,363.3l1.81,0.08,2,0q1.35,0,2.69-.07t2.82-.08a6.83,6.83,0,0,1,2.33.37,5.31,5.31,0,0,1,1.77,1,4.49,4.49,0,0,1,1.12,1.53,4.64,4.64,0,0,1,.39,1.89,3.83,3.83,0,0,1-.29,1.53,3.57,3.57,0,0,1-.79,1.15,4.41,4.41,0,0,1-1.17.81,6.6,6.6,0,0,1-1.47.5q0.52,0.85,1.3,2a23,23,0,0,0,1.71,2.24,13.48,13.48,0,0,0,2,1.91,5,5,0,0,0,2.19,1v0.45l-1.41-.07-1.41,0-1.25,0-1.25.07a37.26,37.26,0,0,1-2.9-3.49,34.75,34.75,0,0,1-2.43-3.81c-0.28,0-.6-0.08-1-0.15a2,2,0,0,1-.81-0.3v4.31a12.25,12.25,0,0,0,.06,1.37,1.49,1.49,0,0,0,.32.82,1.52,1.52,0,0,0,.76.44,8.13,8.13,0,0,0,1.37.21v0.6q-0.87,0-1.91-.07l-2.11,0-2.27,0-2.24.07v-0.6a9.3,9.3,0,0,0,1.46-.21,1.53,1.53,0,0,0,.8-0.44,1.55,1.55,0,0,0,.34-0.82,10.12,10.12,0,0,0,.07-1.37v-9.47a9.18,9.18,0,0,0-.07-1.27,1.87,1.87,0,0,0-.34-0.87,1.63,1.63,0,0,0-.8-0.54,6,6,0,0,0-1.46-.26V363.3Zm6,7.68a3.89,3.89,0,0,0,1.67.37,3.78,3.78,0,0,0,2.65-.92,3.46,3.46,0,0,0,1-2.69,4.14,4.14,0,0,0-.24-1.41,3.33,3.33,0,0,0-.69-1.15,3.18,3.18,0,0,0-1.07-.76,3.44,3.44,0,0,0-1.4-.27,9.29,9.29,0,0,0-1,0,4.31,4.31,0,0,0-1,.22V371Z" transform="translate(-27 -26.15)"/><path d="M468.06,366.34a3.53,3.53,0,0,0-.12-0.95,2,2,0,0,0-.42-0.79,2.18,2.18,0,0,0-.8-0.55,3.19,3.19,0,0,0-1.25-.21v-0.6q2.07,0.15,4.09.15,1.12,0,2.26,0l2.26-.1v0.6a3.44,3.44,0,0,0-1.31.21,2.16,2.16,0,0,0-.81.55,1.94,1.94,0,0,0-.42.79,3.49,3.49,0,0,0-.12.95v5q0.2-.15.71-0.59l1.16-1,1.36-1.25q0.71-.66,1.3-1.3a13,13,0,0,0,1-1.17,1.65,1.65,0,0,0,.39-0.86,0.88,0.88,0,0,0-.17-0.54,1.72,1.72,0,0,0-.44-0.41,2.33,2.33,0,0,0-.56-0.27,2.55,2.55,0,0,0-.55-0.12v-0.6a16.88,16.88,0,0,0,1.94.14h2l2,0q1,0,2-.12v0.6a6.81,6.81,0,0,0-2.36.71,13.15,13.15,0,0,0-2.06,1.32q-1,.76-1.88,1.62t-1.86,1.61l5.11,7.33q0.4,0.57.79,1a5,5,0,0,0,.83.8,4.09,4.09,0,0,0,1,.55,5,5,0,0,0,1.3.29v0.6l-2.26-.07-2.26,0-2.22,0-2.22.07v-0.5l0.55-.12a3.47,3.47,0,0,0,.68-0.22,2.39,2.39,0,0,0,.59-0.36,0.67,0.67,0,0,0,.25-0.54,1.93,1.93,0,0,0-.29-0.69q-0.29-.51-0.74-1.2t-1-1.47q-0.54-.79-1-1.5l-0.91-1.26-0.57-.8-1.57,1.25v4.26a6.69,6.69,0,0,0,.08,1.06,1.57,1.57,0,0,0,.34.77,1.7,1.7,0,0,0,.79.49,5.65,5.65,0,0,0,1.42.22v0.6l-2.27-.07-2.24,0-2,0-2,.07v-0.6a5.46,5.46,0,0,0,1.41-.22,1.7,1.7,0,0,0,.77-0.49,1.57,1.57,0,0,0,.34-0.77,6.69,6.69,0,0,0,.08-1.06V366.34Z" transform="translate(-27 -26.15)"/><path d="M496.42,368.21a5.44,5.44,0,0,0-.81-1.72,6.92,6.92,0,0,0-1.3-1.4,6.13,6.13,0,0,0-1.61-.95,4.73,4.73,0,0,0-1.77-.35,3.1,3.1,0,0,0-1.91.58,2.05,2.05,0,0,0-.79,1.76,2,2,0,0,0,.71,1.52,7.72,7.72,0,0,0,1.78,1.13q1.07,0.51,2.31,1a13.25,13.25,0,0,1,2.31,1.26,6.92,6.92,0,0,1,1.78,1.76,4.35,4.35,0,0,1,.71,2.54,4.39,4.39,0,0,1-.42,1.94,4.22,4.22,0,0,1-1.2,1.48,5.67,5.67,0,0,1-1.87.95,8.3,8.3,0,0,1-2.44.34,7.07,7.07,0,0,1-1.25-.11l-1.23-.25-1.23-.25a7.07,7.07,0,0,0-1.25-.11l-0.26,0-0.35.09-0.36.1-0.27.1q-0.2-1.4-.42-2.82T484.71,374h0.55a6.4,6.4,0,0,0,.9,1.82,8.38,8.38,0,0,0,1.46,1.61,7.27,7.27,0,0,0,1.81,1.13,4.78,4.78,0,0,0,1.92.42,8.26,8.26,0,0,0,1.5-.12,3.55,3.55,0,0,0,1.16-.41,2,2,0,0,0,.75-0.77,2.58,2.58,0,0,0,.26-1.23,2.25,2.25,0,0,0-.72-1.71,7.86,7.86,0,0,0-1.81-1.25q-1.09-.56-2.34-1.08a16.32,16.32,0,0,1-2.34-1.2,6.87,6.87,0,0,1-1.81-1.6,3.56,3.56,0,0,1-.72-2.27,4,4,0,0,1,1.42-3.4A7.2,7.2,0,0,1,491,362.9a9,9,0,0,1,1.45.11q0.7,0.11,1.32.26l1.17,0.26a5.15,5.15,0,0,0,1,.11h0.9q0,0.42,0,.8t0,0.77q0,0.72.06,1.5t0.11,1.5h-0.52Z" transform="translate(-27 -26.15)"/><path d="M305.84,342.74l-2.79,7.65c-0.08.23-.16,0.42-0.23,0.59a1.41,1.41,0,0,0-.11.55,2,2,0,0,0,.44,1.31,3.72,3.72,0,0,0,1.08.91,6.64,6.64,0,0,0,1.31.57,9.56,9.56,0,0,0,1.14.3v0.51q-1.27-.08-2.53-0.13t-2.58,0q-1.27,0-2.47,0t-2.56.13V354.6a5.7,5.7,0,0,0,3.63-2.37,10.77,10.77,0,0,0,1-1.86q0.44-1,.87-2.11l7.31-18,0.23-.55a1.23,1.23,0,0,0,.11-0.46,2.15,2.15,0,0,0-.15-0.63,3.82,3.82,0,0,0-.36-0.76,9.57,9.57,0,0,0,1.9-.55l1.77-.72,8.79,24.16a6.25,6.25,0,0,0,1.65,2.6,5.59,5.59,0,0,0,3.13,1.2v0.51q-1.69-.08-3.32-0.13t-3.4,0h-2l-1.52,0-1.29.06-1.33.08V354.6a7.72,7.72,0,0,0,3-.91,2.11,2.11,0,0,0,1.2-1.88,1.68,1.68,0,0,0-.15-0.68,4.9,4.9,0,0,1-.23-0.63l-2.75-7.77h-8.83Zm4.56-12-4.14,10.73h7.94Z" transform="translate(-27 -26.15)"/><path d="M352.73,336.95a16.3,16.3,0,0,0-1.46-3.51,11.92,11.92,0,0,0-2.15-2.79,9.05,9.05,0,0,0-2.87-1.84,9.71,9.71,0,0,0-3.65-.66,9,9,0,0,0-4.43,1,8.56,8.56,0,0,0-3,2.75,12,12,0,0,0-1.69,4,21.26,21.26,0,0,0-.53,4.81,17.07,17.07,0,0,0,.68,4.84,12.15,12.15,0,0,0,2,4,9.81,9.81,0,0,0,3.34,2.77,9.94,9.94,0,0,0,4.63,1,11.56,11.56,0,0,0,6.78-2,18.91,18.91,0,0,0,5-5.41l1.06,0.84a37.23,37.23,0,0,1-2.87,3.8,16.12,16.12,0,0,1-3.12,2.79,13.34,13.34,0,0,1-3.67,1.73,15.7,15.7,0,0,1-4.48.59,13.74,13.74,0,0,1-9.8-4.08,14.28,14.28,0,0,1-3-4.6,16.07,16.07,0,0,1,0-11.78,14.29,14.29,0,0,1,3-4.6,13.74,13.74,0,0,1,9.8-4.08,20.94,20.94,0,0,1,2.91.19q1.35,0.19,2.6.4l2.41,0.42a16.09,16.09,0,0,0,2.3.25q0,0.89.06,2.07t0.19,2.43q0.13,1.25.25,2.45t0.25,2.09h-0.59Z" transform="translate(-27 -26.15)"/><path d="M365.32,342.74l-2.79,7.65c-0.08.23-.16,0.42-0.23,0.59a1.42,1.42,0,0,0-.11.55,2,2,0,0,0,.44,1.31,3.73,3.73,0,0,0,1.08.91,6.65,6.65,0,0,0,1.31.57,9.53,9.53,0,0,0,1.14.3v0.51q-1.27-.08-2.53-0.13t-2.58,0q-1.27,0-2.47,0t-2.56.13V354.6a5.7,5.7,0,0,0,3.63-2.37,10.8,10.8,0,0,0,1-1.86q0.44-1,.87-2.11l7.31-18,0.23-.55a1.24,1.24,0,0,0,.11-0.46,2.15,2.15,0,0,0-.15-0.63,3.82,3.82,0,0,0-.36-0.76,9.57,9.57,0,0,0,1.9-.55l1.77-.72,8.79,24.16a6.25,6.25,0,0,0,1.65,2.6,5.59,5.59,0,0,0,3.13,1.2v0.51q-1.69-.08-3.32-0.13t-3.4,0h-2l-1.52,0-1.29.06-1.33.08V354.6a7.72,7.72,0,0,0,3-.91,2.11,2.11,0,0,0,1.2-1.88,1.69,1.69,0,0,0-.15-0.68,4.76,4.76,0,0,1-.23-0.63l-2.75-7.77h-8.83Zm4.56-12-4.14,10.73h7.94Z" transform="translate(-27 -26.15)"/><path d="M387.49,354.6a7.87,7.87,0,0,0,2.22-.46,3.82,3.82,0,0,0,1.27-.78,2.06,2.06,0,0,0,.57-1,4.19,4.19,0,0,0,.13-1V331.88a11,11,0,0,0-.11-1.63,2.4,2.4,0,0,0-.53-1.2,2.82,2.82,0,0,0-1.27-.8,9.75,9.75,0,0,0-2.28-.42v-0.51q1.1,0.08,2.2.13t2.2,0a47.52,47.52,0,0,0,5.49-.29,44.76,44.76,0,0,1,5.19-.3A19.22,19.22,0,0,1,409,328a16.06,16.06,0,0,1,5.26,3,14.23,14.23,0,0,1,3.57,4.75,14.53,14.53,0,0,1,1.31,6.25,13,13,0,0,1-1.27,6,11.6,11.6,0,0,1-3.38,4.05,13.87,13.87,0,0,1-4.84,2.3A22.17,22.17,0,0,1,404,355l-3.91,0-2.85,0-2.2,0-1.86,0q-1.44,0-2.83,0t-2.83.13V354.6Zm8-2.87a7.55,7.55,0,0,0,3.1,1.77,12.64,12.64,0,0,0,3.53.51q6.5,0,9.48-3.34t3-9.67a13.24,13.24,0,0,0-1-5.13,12.94,12.94,0,0,0-2.75-4.16,12.66,12.66,0,0,0-4.18-2.79,14.14,14.14,0,0,0-10.92.17q-0.17,2.2-.21,4.37t0,4.46v13.81Z" transform="translate(-27 -26.15)"/><path d="M430.74,353.29q0.38,0.08.93,0.17l1.18,0.17,1.31,0.15q0.67,0.06,1.27.06a22.11,22.11,0,0,0,4.54-.42,13,13,0,0,0,3.67-1.35,15,15,0,0,0,3.15-2.37,29.51,29.51,0,0,0,3-3.46l0.46,0.38-3.84,8.49q-0.72-.08-1.48-0.13t-1.48,0H427.57q-1.22,0-2.45,0t-2.45.13V354.6a8.52,8.52,0,0,0,2.37-.46,2.48,2.48,0,0,0,1.27-1.06,4.5,4.5,0,0,0,.53-1.88q0.11-1.16.11-2.94V334.16q0-1.77-.11-2.94a4.51,4.51,0,0,0-.53-1.88,2.48,2.48,0,0,0-1.31-1.06,9.14,9.14,0,0,0-2.41-.46v-0.51l2.72,0.08,2.66,0.06,2.92,0h3.48q3,0,5.91,0t6-.13q0,0.47-.06.93t0,0.89v1.69q0,0.93.08,1.88t0.17,2.09l-0.55.17a10.5,10.5,0,0,0-1.46-3.32,7,7,0,0,0-2.11-2,7.74,7.74,0,0,0-2.64-1,17.5,17.5,0,0,0-3-.25q-3,0-5.91.25v10.56c0.56,0,1.1,0,1.63,0s1.06,0,1.63,0a8.11,8.11,0,0,0,4.63-1.16q1.71-1.16,2.09-4.24h0.51q0,1.52,0,3t0,3q0,1.52,0,3t0,3h-0.51a12.79,12.79,0,0,0-.93-2.89,4.48,4.48,0,0,0-1.37-1.71,4.89,4.89,0,0,0-2-.8,17.44,17.44,0,0,0-2.92-.21h-2.7v13.05Z" transform="translate(-27 -26.15)"/><path d="M475.68,327.32q1.52,0.08,3,.13t3,0q1.35,0,2.68,0t2.68-.13v0.51a7,7,0,0,0-2.91,1,3.06,3.06,0,0,0-1.14,2.75,29.75,29.75,0,0,0,.32,3.44q0.32,2.39.8,5.22t1,5.66q0.53,2.83,1,4.82a11.7,11.7,0,0,0,.46,1.48,3.21,3.21,0,0,0,2,1.92,10,10,0,0,0,2.24.49v0.51q-1.69-.08-3.36-0.13t-3.36,0q-1.61,0-3.15,0t-3.15.13V354.6q0.89-.13,1.69-0.32a4.75,4.75,0,0,0,1.41-.57,2.6,2.6,0,0,0,1-1,3.85,3.85,0,0,0,.34-1.75q0-.51,0-1.35a14.28,14.28,0,0,0-.25-1.94l-2.91-17H479q-1.18,3-2.49,6t-2.58,6q-1.27,3-2.47,6.06t-2.18,6.27h-0.08q-2-6.55-4.58-12.61t-5.47-12.14h-0.08q-0.34,2.32-.68,5.15t-0.61,5.51q-0.28,2.68-.44,4.9t-0.17,3.32a13.31,13.31,0,0,0,.19,2.41,3.71,3.71,0,0,0,.74,1.69,3.3,3.3,0,0,0,1.5,1,9,9,0,0,0,2.47.42v0.51q-1.77-.08-3.46-0.13t-3.46,0q-1.31,0-2.6,0t-2.6.13V354.6a9.37,9.37,0,0,0,1.75-.34,6.46,6.46,0,0,0,1.58-.7,4.59,4.59,0,0,0,1.2-1.06,3,3,0,0,0,.61-1.46q0.25-1.48.46-3.1t0.42-3.23l2-15a7.66,7.66,0,0,0-2.11-1.18,13.32,13.32,0,0,0-2.45-.68v-0.51q1.81,0.08,3.61.13t3.61,0q1.31,0,2.6,0t2.6-.13v0.51a4.48,4.48,0,0,0-1.48.7,1.77,1.77,0,0,0-.68,1.54,4.25,4.25,0,0,0,.23,1.39q0.23,0.68.53,1.39l6,14.61q2.15-4.48,4.1-9t3.55-9.23a3.72,3.72,0,0,0-1.1-.89,7.66,7.66,0,0,0-1.31-.55v-0.51Z" transform="translate(-27 -26.15)"/><path d="M489.79,327.32q1.77,0.08,3.46.13t3.46,0q1.65,0,3.32,0t3.32-.13v0.51a11.25,11.25,0,0,0-1.12.25,5.05,5.05,0,0,0-1.14.46,2.66,2.66,0,0,0-.87.76,1.89,1.89,0,0,0-.34,1.14,2.66,2.66,0,0,0,.44,1.22,21.93,21.93,0,0,0,1.29,1.9l6,8.11,5-7.81a6.3,6.3,0,0,0,1.1-3.25,2.32,2.32,0,0,0-1-2,4.28,4.28,0,0,0-2.28-.82v-0.51q1.48,0.08,3,.13t3,0q1.35,0,2.68,0t2.68-.13v0.51a7.42,7.42,0,0,0-2.7,1.08,12.49,12.49,0,0,0-2.13,1.77,15.63,15.63,0,0,0-1.69,2.09q-0.74,1.1-1.37,2L508,343.2v6.21a10.07,10.07,0,0,0,.25,2.51,3.15,3.15,0,0,0,.82,1.5,3.41,3.41,0,0,0,1.54.8,15.07,15.07,0,0,0,2.45.38v0.51q-1.9-.08-3.76-0.13t-3.76,0q-1.56,0-3.12,0t-3.13.13V354.6a14.34,14.34,0,0,0,2.34-.38,3.41,3.41,0,0,0,1.52-.8,3,3,0,0,0,.8-1.5,11,11,0,0,0,.23-2.51v-6.63l-7.64-9.8q-0.59-.76-1.23-1.54A12.66,12.66,0,0,0,494,330a10.18,10.18,0,0,0-1.79-1.27,8.53,8.53,0,0,0-2.37-.87v-0.51Z" transform="translate(-27 -26.15)"/><path d="M51.33,339.55A16.29,16.29,0,0,0,49.87,336a11.93,11.93,0,0,0-2.15-2.79,9,9,0,0,0-2.87-1.84,9.71,9.71,0,0,0-3.65-.66,9,9,0,0,0-4.44,1,8.57,8.57,0,0,0-3,2.75,12,12,0,0,0-1.69,4,21.27,21.27,0,0,0-.53,4.82,17.08,17.08,0,0,0,.68,4.84,12.16,12.16,0,0,0,2,4A9.81,9.81,0,0,0,37.58,355a9.94,9.94,0,0,0,4.63,1A11.56,11.56,0,0,0,49,354a18.9,18.9,0,0,0,5-5.41l1.06,0.84a37.09,37.09,0,0,1-2.87,3.8,16.12,16.12,0,0,1-3.13,2.79,13.33,13.33,0,0,1-3.67,1.73,15.7,15.7,0,0,1-4.48.59,13.74,13.74,0,0,1-9.8-4.08,14.27,14.27,0,0,1-3-4.6,16.07,16.07,0,0,1,0-11.79,14.29,14.29,0,0,1,3-4.6,13.72,13.72,0,0,1,4.44-3,13.58,13.58,0,0,1,5.36-1.08,20.94,20.94,0,0,1,2.91.19q1.35,0.19,2.6.4l2.41,0.42a16.11,16.11,0,0,0,2.3.25q0,0.89.06,2.07T51.42,335q0.13,1.25.25,2.45t0.25,2.09H51.33Z" transform="translate(-27 -26.15)"/><path d="M80.14,336.77q0-1.77-.11-2.94a4.31,4.31,0,0,0-.55-1.88,2.59,2.59,0,0,0-1.33-1.06,9.1,9.1,0,0,0-2.41-.46v-0.51q1.77,0.08,3.44.13t3.44,0q1.39,0,2.79,0t2.75-.13v0.51a8.39,8.39,0,0,0-2.32.46A2.49,2.49,0,0,0,84.58,332a4.51,4.51,0,0,0-.53,1.88q-0.11,1.16-.11,2.94v14.11q0,1.77.11,2.94a4.3,4.3,0,0,0,.55,1.88,2.58,2.58,0,0,0,1.33,1.06,9.22,9.22,0,0,0,2.45.46v0.51q-1.61-.08-3.21-0.13t-3.21,0q-1.56,0-3.08,0t-3,.13v-0.51a8.52,8.52,0,0,0,2.37-.46,2.59,2.59,0,0,0,1.29-1.06,4.3,4.3,0,0,0,.55-1.88q0.1-1.16.11-2.94v-7.6H64.47v7.6q0,1.77.11,2.94a4.29,4.29,0,0,0,.55,1.88,2.58,2.58,0,0,0,1.33,1.06,9.22,9.22,0,0,0,2.45.46v0.51q-1.61-.08-3.21-0.13t-3.21,0q-1.56,0-3.08,0t-3,.13v-0.51a8.52,8.52,0,0,0,2.37-.46A2.59,2.59,0,0,0,60,355.69a4.3,4.3,0,0,0,.55-1.88q0.1-1.16.11-2.94V336.77q0-1.77-.11-2.94A4.31,4.31,0,0,0,60,332a2.59,2.59,0,0,0-1.33-1.06,9.1,9.1,0,0,0-2.41-.46v-0.51q1.77,0.08,3.44.13t3.44,0q1.39,0,2.79,0t2.75-.13v0.51a8.38,8.38,0,0,0-2.32.46A2.48,2.48,0,0,0,65.1,332a4.49,4.49,0,0,0-.53,1.88q-0.11,1.16-.11,2.94v5.15H80.14v-5.15Z" transform="translate(-27 -26.15)"/><path d="M121.07,357.55h-7.6a74,74,0,0,1-4.92-6,48.46,48.46,0,0,1-4-6.48,8.67,8.67,0,0,1-1.08-.08l-1.35-.19q-0.7-.11-1.35-0.25t-1.08-.27v6.59q0,1.77.11,2.94a4.29,4.29,0,0,0,.55,1.88,2.58,2.58,0,0,0,1.33,1.06,9.22,9.22,0,0,0,2.45.46v0.51q-1.61-.08-3.21-0.13t-3.21,0q-1.56,0-3.08,0t-3,.13v-0.51a8.52,8.52,0,0,0,2.37-.46,2.59,2.59,0,0,0,1.29-1.06,4.3,4.3,0,0,0,.55-1.88q0.1-1.16.11-2.94V336.77q0-1.77-.11-2.94A4.31,4.31,0,0,0,95.2,332a2.6,2.6,0,0,0-1.29-1.06,8.52,8.52,0,0,0-2.37-.46v-0.51q1.35,0.08,2.7.13t2.7,0q0.59,0,1.48-.06l1.88-.15,2-.15q1-.06,1.82-0.06a15.63,15.63,0,0,1,3.72.46,10.7,10.7,0,0,1,3.42,1.48,8.37,8.37,0,0,1,2.49,2.58,6.9,6.9,0,0,1,1,3.72,6.17,6.17,0,0,1-.53,2.62,6.46,6.46,0,0,1-1.42,2,7.54,7.54,0,0,1-2.09,1.39,11.12,11.12,0,0,1-2.51.8q0.59,1,1.39,2.28t1.8,2.58q1,1.31,2.11,2.6a20.3,20.3,0,0,0,2.37,2.32,15,15,0,0,0,2.56,1.73,7,7,0,0,0,2.66.82v0.51Zm-21.42-14.7a11,11,0,0,0,3.93.72,7.74,7.74,0,0,0,5.11-1.52q1.82-1.52,1.82-4.94a5.82,5.82,0,0,0-.53-2.51,6,6,0,0,0-1.46-1.94,6.66,6.66,0,0,0-2.13-1.27,7.23,7.23,0,0,0-2.51-.44q-1.06,0-2.07.08a9.59,9.59,0,0,0-2,.38q-0.08,2-.13,4.1t0,4.48v2.87Z" transform="translate(-27 -26.15)"/><path d="M122.38,357.21a8.52,8.52,0,0,0,2.37-.46,2.59,2.59,0,0,0,1.29-1.06,4.3,4.3,0,0,0,.55-1.88q0.1-1.16.11-2.94V336.77q0-1.77-.11-2.94A4.31,4.31,0,0,0,126,332a2.59,2.59,0,0,0-1.33-1.06,9.1,9.1,0,0,0-2.41-.46v-0.51q1.77,0.08,3.44.13t3.44,0q1.39,0,2.79,0t2.75-.13v0.51a8.39,8.39,0,0,0-2.32.46,2.48,2.48,0,0,0-1.27,1.06,4.5,4.5,0,0,0-.53,1.88q-0.11,1.16-.11,2.94v14.11q0,1.77.11,2.94a4.3,4.3,0,0,0,.55,1.88,2.58,2.58,0,0,0,1.33,1.06,9.22,9.22,0,0,0,2.45.46v0.51q-1.61-.08-3.21-0.13t-3.21,0q-1.56,0-3.08,0t-3,.13v-0.51Z" transform="translate(-27 -26.15)"/><path d="M157.57,338a16,16,0,0,0-1.42-2.68,12.1,12.1,0,0,0-2-2.37,9.76,9.76,0,0,0-2.53-1.67,7.26,7.26,0,0,0-3-.63,7.84,7.84,0,0,0-3.95.89,3.34,3.34,0,0,0-1.54,3.17,4,4,0,0,0,.7,2.34,6.73,6.73,0,0,0,1.86,1.75,17.19,17.19,0,0,0,2.64,1.39l3,1.29q1.54,0.66,3,1.42a12.23,12.23,0,0,1,2.64,1.82,8.3,8.3,0,0,1,1.86,2.45,7.39,7.39,0,0,1,.7,3.34,7.81,7.81,0,0,1-.76,3.57,7,7,0,0,1-2,2.47,8.72,8.72,0,0,1-3,1.44,13.9,13.9,0,0,1-3.65.46,13,13,0,0,1-2.2-.2q-1.14-.2-2.2-0.44l-1.92-.44a6.6,6.6,0,0,0-1.37-.2,2.66,2.66,0,0,0-.89.15l-0.89.32q-0.38-2.4-.89-4.69t-1.06-4.69l0.55-.29A30.83,30.83,0,0,0,141,351a18.7,18.7,0,0,0,2.43,2.92,13.26,13.26,0,0,0,3,2.21A7.27,7.27,0,0,0,150,357a10.09,10.09,0,0,0,2.37-.27,6,6,0,0,0,2-.86,4.27,4.27,0,0,0,1.37-1.54,4.92,4.92,0,0,0,.51-2.34,4.7,4.7,0,0,0-1.23-3.31,11.73,11.73,0,0,0-3-2.32,35.51,35.51,0,0,0-3.95-1.83,29.43,29.43,0,0,1-3.95-1.9,11.63,11.63,0,0,1-3-2.49,5.39,5.39,0,0,1-1.23-3.63,6.92,6.92,0,0,1,2.34-5.29,7.61,7.61,0,0,1,2.49-1.46,8.91,8.91,0,0,1,3-.51,16.94,16.94,0,0,1,2.81.21q1.25,0.21,2.43.46l2.41,0.49a13.19,13.19,0,0,0,2.53.23q0,1.9.06,3.7t0.27,3.61h-0.59Z" transform="translate(-27 -26.15)"/><path d="M169.31,357.21a8.52,8.52,0,0,0,2.37-.46,2.6,2.6,0,0,0,1.29-1.06,4.3,4.3,0,0,0,.55-1.88q0.1-1.16.11-2.94v-19.6a34.4,34.4,0,0,0-3.74.17,6,6,0,0,0-2.6.87,6,6,0,0,0-1.92,2.13,21.11,21.11,0,0,0-1.63,3.93l-0.55-.17,0.59-8.28q1.77,0.08,3.51.13t3.51,0h9.93q1.69,0,3.34,0t3.34-.13L188,338.2l-0.55.17a21.15,21.15,0,0,0-1.63-3.93,6,6,0,0,0-1.92-2.13,6.11,6.11,0,0,0-2.64-.87,36.14,36.14,0,0,0-3.82-.17v19.6q0,1.77.11,2.94a4.29,4.29,0,0,0,.55,1.88,2.58,2.58,0,0,0,1.33,1.06,9.22,9.22,0,0,0,2.45.46v0.51q-1.61-.08-3.21-0.13t-3.21,0q-1.56,0-3.08,0t-3,.13v-0.51Z" transform="translate(-27 -26.15)"/><path d="M191.23,357.21a8.52,8.52,0,0,0,2.37-.46,2.59,2.59,0,0,0,1.29-1.06,4.3,4.3,0,0,0,.55-1.88q0.1-1.16.11-2.94V336.77q0-1.77-.11-2.94a4.31,4.31,0,0,0-.55-1.88,2.59,2.59,0,0,0-1.33-1.06,9.1,9.1,0,0,0-2.41-.46v-0.51q1.77,0.08,3.44.13t3.44,0q1.39,0,2.79,0t2.75-.13v0.51a8.39,8.39,0,0,0-2.32.46A2.48,2.48,0,0,0,200,332a4.5,4.5,0,0,0-.53,1.88q-0.11,1.16-.11,2.94v14.11q0,1.77.11,2.94a4.3,4.3,0,0,0,.55,1.88,2.58,2.58,0,0,0,1.33,1.06,9.22,9.22,0,0,0,2.45.46v0.51q-1.61-.08-3.21-0.13t-3.21,0q-1.56,0-3.08,0t-3,.13v-0.51Z" transform="translate(-27 -26.15)"/><path d="M214.89,345.34L212.1,353c-0.08.23-.16,0.42-0.23,0.59a1.41,1.41,0,0,0-.11.55,2,2,0,0,0,.44,1.31,3.72,3.72,0,0,0,1.08.91,6.63,6.63,0,0,0,1.31.57,9.55,9.55,0,0,0,1.14.3v0.51q-1.27-.08-2.53-0.13t-2.58,0q-1.27,0-2.47,0t-2.56.13v-0.51a5.7,5.7,0,0,0,3.63-2.37,10.71,10.71,0,0,0,1-1.86q0.44-1,.87-2.11l7.31-18,0.23-.55a1.23,1.23,0,0,0,.11-0.46,2.15,2.15,0,0,0-.15-0.63,3.82,3.82,0,0,0-.36-0.76,9.56,9.56,0,0,0,1.9-.55l1.77-.72,8.79,24.16a6.25,6.25,0,0,0,1.65,2.6,5.59,5.59,0,0,0,3.13,1.2v0.51q-1.69-.08-3.32-0.13t-3.4,0h-2l-1.52,0-1.29.06-1.33.08v-0.51a7.72,7.72,0,0,0,3-.91,2.11,2.11,0,0,0,1.2-1.88,1.68,1.68,0,0,0-.15-0.68,4.91,4.91,0,0,1-.23-0.63l-2.75-7.77h-8.83Zm4.56-12-4.14,10.73h7.94Z" transform="translate(-27 -26.15)"/><path d="M236.09,329.92q1.48,0.08,2.81.13t3.1,0q0.93,0,1.82,0t1.82-.13q0.55,0.76,1.82,2.3l2.89,3.53q1.63,2,3.49,4.22t3.59,4.37q1.73,2.13,3.19,4t2.3,3H263q0-1.27,0-2.51t0-2.51v-4.9q0-2.7-.19-4.71a11.49,11.49,0,0,0-.76-3.36,4.63,4.63,0,0,0-1.6-2.07,5.43,5.43,0,0,0-2.72-.84v-0.51q1.48,0.08,3,.13t3,0q1.35,0,2.75,0t2.75-.13v0.51a5.5,5.5,0,0,0-3.65,1.54,5.74,5.74,0,0,0-1,3.7v22.39H263q-2.32-3.63-4.92-7.05t-5.15-6.5q-2.56-3.08-4.94-5.72t-4.29-4.71q0,1.1-.06,2.15t0,2.15v7.39q0,3.76.15,5.93a9.21,9.21,0,0,0,.72,3.34,3,3,0,0,0,1.69,1.56,13.93,13.93,0,0,0,3.1.61v0.51q-2.15-.08-4.18-0.13t-4.18,0q-1.23,0-2.41,0t-2.41.13v-0.51q1.44-.21,2.51-0.4a4.86,4.86,0,0,0,1.77-.63,2.77,2.77,0,0,0,1.06-1.27,6.41,6.41,0,0,0,.4-2.3l0.51-19.39a11.16,11.16,0,0,0-3-1.73,26.5,26.5,0,0,0-3.29-1.06v-0.51Z" transform="translate(-27 -26.15)"/></g></svg>