<svg id="Logo_-_Balanced_-_BW" data-name="Logo - Balanced - BW" xmlns="http://www.w3.org/2000/svg" xmlns:xlink="http://www.w3.org/1999/xlink" viewBox="0 0 126 237.23"><defs><style>.cls-1{fill:none;}.cls-2{clip-path:url(#clip-path);}.cls-3{fill:#0b6630;}</style><clipPath id="clip-path" transform="translate(-6.79 -6.25)"><rect class="cls-1" x="1.36" y="6.25" width="131.96" height="250.81"/></clipPath></defs><title>Tree Half</title><g class="cls-2"><path id="Tree_Symbol" data-name="Tree Symbol" class="cls-3" d="M248.94,115.31l-.07-.82c.57-.16.62-.2.82-.9-.23-.37-.51-.34-.9-.15-.25-.36,0-.72.07-1.27a2.09,2.09,0,0,0-1.64,0L247,112l-.07-.67-.3-.3c-.39-.3-.31-.37-.75-.15l-.07-.67a6.35,6.35,0,0,0-2-.45,7.35,7.35,0,0,0-.75-2l-.15-.3c.13-.32.47-.44.6-1l-.37-.52c-.71,0-.69.1-1.19-.07-.3.35-.48.3-.67.82a5,5,0,0,0-2.09.07,2.71,2.71,0,0,0-.22,1.34c-.34-.06-.59.15-.82.45-.76-.17-1.17-.67-1.79-.82.06-1.09-.9-1.44-1.79-1.42a8.18,8.18,0,0,1,.37-1.79.79.79,0,0,0-.6-.22l.15-.52-.22-.22c-.67-.23-1.29.08-2,0,.17-.47.49-.5.37-1l.52.37.22-.75c-.24-.35-.5-.33-.9-.15v-.52a.79.79,0,0,1-.37-.3,1.88,1.88,0,0,0-1.57,0l-.6-.22a3.38,3.38,0,0,0-.07-2.24l-.07-.22a3,3,0,0,0-1.49.15l.3-1.19c-.73-.58-1.42,0-2.24.07a1.78,1.78,0,0,0-1.57-1.87v-.45h.37l.15-.75-.3-.3.07-.45.45.22.15-.67c-.18-.27-.14-.27-.6-.3.11-.55,0-.6-.3-.9l.52-.22.15-.6-.07-.22a2.44,2.44,0,0,1-1-.37l-1.34.6c-.68.15-1.45-.57-2-.3-.14-.71.1-1.13-.82-1.12,0-.37.11-.32-.15-.52l-.37-.07a3,3,0,0,1,0-1.42l-.15-.22a8.26,8.26,0,0,0-4.4.07l-.3,1.42-.37.07c-1.36-1.08-1.54-2-3.36-1,.47-1.18.16-.89.22-2L210.5,86a4,4,0,0,0,.75-2.09c.48,0,.56-.06.67-.45l.67.3.22-.22c.18-.19.14-.26.07-.52l.67-.37c0-.37,0-.29-.22-.45V81.8l.22-.07c1.08,0,.19-2.81.15-3.36l-.52-.15a4.12,4.12,0,0,0-.3-1.49l.67-.6c.52.27.93.07.9-.67l.37.45.3-.45-.15-1v-.07l.15.15.37.3c.27-.74.06-1-.15-1.72l.67-.67c.19-.1,0-.06.3.07l.45-.9-.07-.22c-.43-.07-.68,0-.9-.22h-.15l.15-.22c.16,0,0-.06.15.07.51-.12.61-.31.52-.82l.6.37.15-.67c-.17-.27-.26-.29-.3-.52s.5-.42.67-.9l.3.22a1.34,1.34,0,0,0,.37-.82c-.33-.34-.58-.22-.9-.6-.13-.12-.08-.15-.07-.52.21.19.19.27.52.37l.15-.9-.45-.15v-.45c.34-.27.39-.39.75-.3l.3-.75-.07-.15a2.44,2.44,0,0,0-1,0c.23-.5,0-.53-.3-.9.78-.14,1-1.74.22-2v-.22a.93.93,0,0,0,.52.22l.37-.22V60.9l-.6-.37a2,2,0,0,1-1,.3v-.37a1.8,1.8,0,0,0-1.19-.07v-.3l-1.49-.37c0-.37-.28-.47-.3-.6s.24-.43.22-.75l.45.37c.29-.22.64-.06,1-.45l-.37-1.12c-.53-.22-.83-.52-1.34-.3l-.37-.75a7.54,7.54,0,0,0-2-.22c-.08-.52-.21-.26-.37-.52-.39-.63,0-2.83.15-3.43v-.07a1,1,0,0,0-1,0c-.27-.25-.35-.2-.37-.75a2,2,0,0,0-1-.15,3.87,3.87,0,0,0-.07-2.09c.54-.15.59-.45.75-1-.35-.53-.86-.93-.67-1.57-.23-.37-.51-.34-.9-.15-.31-.27-.26-.33-.07-.82a2,2,0,0,0-1.27-.6v-.52L206,44.1l.15-2.16.22.3a1.45,1.45,0,0,0,.9-.75l.3.22a1.91,1.91,0,0,0,.45-.82l.9.07a.88.88,0,0,0,.52-.82l.37.37.15-.07c.16-.77-.14-2.21-1.19-1.72l-.15-.07a2.46,2.46,0,0,1-.15-1.12,7.35,7.35,0,0,0-2.16-.3v-.52a3.57,3.57,0,0,0-1.94-1v-.6c-.73-.32-1.28-.14-1.72-.67l-.6.15v.45c-.28,0-.6.05-.82.07a2.48,2.48,0,0,0-.45,1.57,2.43,2.43,0,0,0-2.24,2,6.92,6.92,0,0,0-1.87.22,1.23,1.23,0,0,0-.67-.6.48.48,0,0,1-.37.15c-.23.31-.08.43.15.67-.85-.18-.9.25-1.72.52l-.15.67c-.56.39-1.63-.08-2.24.07s-.3.51-.6.82c-.6.63-1.73.85-2.46,1.42h-.22c0-.82.3-.72.37-1.49-.55-.17-1.11-.12-1.19-.82l-.22-.15a1.39,1.39,0,0,1-1.42-.75c-1,.28-3.09,0-3.36-1.42a7.46,7.46,0,0,0-3.51-.07l-.22,1A2.18,2.18,0,0,0,177,39l-.15.75c-1.21.16-2.73-.24-3.81.37-.8-.8-1.77-1.06-2.46-1.87-.73-.08-3.53.16-3.66.9h-.07l-.07-.3c-1-.46-1.86.13-2.69.37l-.45,1.19a6.92,6.92,0,0,1-1.79-1l-.15-.15c.24-.48.36-.51.75-.52l.3-.75a2.79,2.79,0,0,0-.82-.67l.45-1.57a4,4,0,0,0-2.69-.45c-.37-.42-.19-1.23-.15-2.16a1.12,1.12,0,0,0-.6-.15,1.82,1.82,0,0,1,.15-1.12l-1.34-1.19a.63.63,0,0,1-.37.15.43.43,0,0,0-.07.52l-.6.22-.75-.9c-.45.07-.62.1-.67.6l-.3.07a2.88,2.88,0,0,1-.07-1.19,1.6,1.6,0,0,0-.82-.15c0-.77-.22-.82-.3-1.42a1.6,1.6,0,0,0-.82-.15A9.89,9.89,0,0,0,152.5,26V26l.45.37a1.48,1.48,0,0,0,.3-1l.45.3.37-.22a.78.78,0,0,0,.15-.75l.52.37.15-.07a5.72,5.72,0,0,0-.6-2.76c-.09-.26.48-1.05.6-1.42s-.37-.55-.37-.9.32-.6-.07-.9l-.22-.3c.5-.3.36-.41,1-.37l.15-.75c-.18-.19-.15-.19-.52-.22,0-.4,0-.54-.22-.75a1.92,1.92,0,0,0-1.79.37h-.07l.15-1.27c-.91-.45-2.92.08-3.21-.22a.89.89,0,0,1,.22-1.12c-.1-.36-.19-.36-.37-.6l.52-.37c0-.48,0-.7-.52-.82.23-1,.8-1.53,1.12-2.54.21-.68-.23-.81-.37-1l.15-.75L149.59,7c-1-1.18-4-.6-5.3-.67-.08.91-.8,1.25-.82,2.54a2.54,2.54,0,0,1-1.87.3c-.35.42-1.12.83-1,1.42-.66,0-5-.45-5.52-.15l-1.19,1.34c-.45.14-.24-.24-.52-.37-.65-.32-2.37.5-2.69.9-.15.55-.24.86.3.82v1c.28.1.15,0,.3.22.42,0,.37,0,.67-.15H132v2a1.2,1.2,0,0,0,.6-.15l.07,1.94c.61.15.66.59,1.19.9a9.28,9.28,0,0,0-.3,3.28h-.22c-.16.28-.14.31,0,.6a7,7,0,0,1-2.46.45l-.15.3.3.3c-.33.28-.28.25-.15.67a11.36,11.36,0,0,0-2,.6l-.15,1.27c-.29.31-1.08.31-1.57.45l-.22,1.72a4.06,4.06,0,0,0-1.49-.22c-.2-.6-.08-1.19-1-1.19,0-.38.06-.42-.37-.52l.37-1.27a1.58,1.58,0,0,0-1.27-.82,2.23,2.23,0,0,0,.15-1l-2.24-.3c-.82.48-.61.75-1,1.72a1.52,1.52,0,0,1-.67.3c-.18.33,0,.86-.15,1.19s-.51.67-.6.9c-.26.66.17,1.35.15,1.79l-.37,1.27a1,1,0,0,0-1,.75c-.39,0-.26.5-.22,1a4.16,4.16,0,0,0-1.57,1.72,16.61,16.61,0,0,1-1.64.52c-.3,1.4.27,2.26.37,3.36.33,0,.45,0,.6.15l.15.07a12.1,12.1,0,0,1-1.94.75,4.54,4.54,0,0,0-4.4-.9l-.37.82a4.17,4.17,0,0,1-.82.3c-.5,1.61.16,3.44.15,5.23l.07.07c.31-.1.26-.12.45-.3l.07,1.27c-.77-.24-1.61.63-2.46.75-.19.27-.09.34,0,.67-.19.24-.23.27-.45.3l-.15.3.52.75a.75.75,0,0,0-.82.75c-.56-.16-.63-.47-1-1l-.6.07a.91.91,0,0,1-.37-.9,1.6,1.6,0,0,0-.82-.15c.08-.6.39-.79.6-1.34-.35-.37-.34-1.18-.75-1.49,0-.16.07-.16.22-.37-.05-.48-.26-.58-.6-.75-.39.23-1.19.45-1.12,1-.64.1-1-.1-1.57.15a4.37,4.37,0,0,0-2.16-1.27c-.44-.11-.74.25-1.19.37l-.9-1a1.16,1.16,0,0,0-.75.22c.06.64.18,1,.75,1.19l-.22.6c-.57-.09-.79.18-1.27.37l-.15.6c-.06.66-.1,1,.45,1.12v.3c-.26.12-.37.15-.52.37l-.15,1.49.45.15-.07.9c-.6.29-.78-.19-1.42.07l-.9.6a2,2,0,0,0-1.79.22C89,49.53,88.44,49.28,88,49c-.78.41-1.76-.06-2.31.75l-.07.37a11.57,11.57,0,0,0-2.76.45l-1.79-.37.3-1.49c.38-.22.27-.13.75,0l.37-.45c.32-.11.13-.09.45.07l.3-.75a.71.71,0,0,0-.6-.22,6,6,0,0,0,.3-1.19,2,2,0,0,0-1.79.15c0-.44,0-.44-.3-.6l.75-2.39-.15-.22c-.54-.09-.77.12-1.27-.15l-.45-.52c-.41-.18-1.18.15-1.27.07-.3-.25-.1-.39-.67-.45v-.67l-.52-.15c0-.51,0-.69-.45-.82l.3-.6c.66.07.61-1.12.3-1.57a7.73,7.73,0,0,0,.37-1c.3-.11.12-.06.52,0l.07-.9a5.79,5.79,0,0,0,1-1.79l-.15-.22h-.52l-.07-.37a.64.64,0,0,1,.67-.3c.56-.68-.06-2,.3-3,.22-.39.41-.36,1-.37.2-.28.31-.33.22-.75l.52.37.22-.75c-.15-.16-.1-.14-.37-.22l.37-1.12-.07-.22a9.07,9.07,0,0,1-1.57-.3l.22-1a1.3,1.3,0,0,0-.9-.45l.3-1-.07-.22c-3-.74-3.23,2.69-6,2.16a7.34,7.34,0,0,1-1,1.19c-.45.34-2-.15-2.84.07-.06.23,0,.94-.07,1.12-.18.49-1,.78-1.12,1.87-1.37-.09-2.17-.76-3.58-.37a3,3,0,0,0-1.42,1.42A3.33,3.33,0,0,0,64,34c-1.37-.35-3.54.86-4.18,1.87-.28.3-2.52.17-2.54.15a4.59,4.59,0,0,0-1.19,1.64v.52h.45l-.07.37.15.22.45-.22c.17.25.08.22.45.3,0,.83.08,1.29.07,2.24l-.45.15A2.84,2.84,0,0,0,57,43a6.91,6.91,0,0,0-1.72.07,1.41,1.41,0,0,0,.15,1,2.62,2.62,0,0,0-1.72,2.39,9,9,0,0,1-1.42.3l-.52,1.64v1c.36,0,.33,0,.6-.07l-.07.75.07.07c.31-.1.26-.12.45-.3l.15.37h.22l.45-.37-.07,1.64.6-.07v.9l.22.07.37-.37c.4,1.69,2.12,1.19,2.09,3.06.3.13.44.17.6.45.35.2.34,1,.3,1.57a.88.88,0,0,0,.67-.07c0,2.71-1.51,3.09-2.09,5a19,19,0,0,0-4,.45c-.22.32-.06.4.15.67-1.05.29-1.23-.08-2.39-.15-.11-.59-.21-.21-.45-.52a6.55,6.55,0,0,1-.3-2.76,1.8,1.8,0,0,0-1.19-.07c-.24-.67-.32-.91-.75-1.19s-1.43,0-1.72.07c-1,1.29-2.29,1.74-2.24,4.48-.62.21-.84.49-.82,1.34-.36-.07-.48,0-.82.15a4.07,4.07,0,0,0-.07,1.42l-.75.45a2.52,2.52,0,0,0,.37,1.79.77.77,0,0,0,.67,0v.75a8.19,8.19,0,0,1,1.34.22v.67c.46.07.57.1.75-.3h.15c.38,1.05,0,1.69,0,3.06.36,0,.33,0,.6-.07,0,.7-.18.9-.52,1.12l.37.67A1.23,1.23,0,0,0,44,75.45a4.23,4.23,0,0,0-2,.07,1.76,1.76,0,0,0-.07,1h.45a4.82,4.82,0,0,0-.6,1.72c-.05.62-.08,1,.37,1.12-.53,1.55.37,2.94.37,4.48l.07.07c.31-.1.26-.12.45-.3a1.87,1.87,0,0,0,.3.37,3.14,3.14,0,0,1-.75,1c-.42-.17-.58-.06-1,.15l-.15.67c-.34.54-2.59.22-3.66.15l.15-.45-.22-.22a12.11,12.11,0,0,0-3.88.3c.33-.55,1-2.76-.37-2-.11-.67-.54-.58-.45-1.19-.41-.5-1.35-.26-1.87-.07a2.44,2.44,0,0,0,0,1.34,3.24,3.24,0,0,1-1.34.52c-.52.82-1.14,1.29-1.12,2.61-.63.38-1.8.57-2.24,1.49-.33.7.6.92.52,1.57a25.65,25.65,0,0,0-.15,3.88,4.75,4.75,0,0,1-1,.9l-.15.3c.68.88.62,1,.6,2.24l.07.07c.31-.1.26-.12.45-.3l.15.37c.39,0,.36,0,.52-.22.17.08.13-.06.22.3l.6-.22.22.15A1.57,1.57,0,0,0,27.77,99c-.44.16-.49.39-1,.6-.9-.68-1-.39-1.79-.75l-.6.3a2,2,0,0,0-.22,1.12l.22.07.3-.22.37.52c-.17,1.43-.82,2.47-.82,4-1.06,0-2,.61-2.91.67-.4,0-1-.36-1.49-.22a3.74,3.74,0,0,1-2,.3l-.3-.15-.52.52a1.58,1.58,0,0,0,.15,1.49l-.52.37-.07.9.22.07.37-.37.07.37c.6.13,1.37-.41,1.42.75.28,0,.13,0,.37-.07a6.87,6.87,0,0,0-.3,1.19c.31.14.35.15.52-.22a2.62,2.62,0,0,1,.6,1.57c.26,0,.19.1.37-.07h.07c-.1.68-.41.4-.6.82l-.07,1.49-.67,1h-.07a1,1,0,0,1,0-.82l-.07-.15a4.38,4.38,0,0,0-1.34-.15l-.52.45a13.27,13.27,0,0,0-.15,3.28,2.35,2.35,0,0,0,1.57.07v1.27c.21.28.31-.05.37.52a.88.88,0,0,0,.67-.07c.16.63.57,1.84,1.12,2.09l-.22.45.45.6c-.49.26-.92,0-1.34.52a4.54,4.54,0,0,0,.82,3.06l.3-.37.45.37.52-.45-.07,1.72c.44,0,.5.08.67-.3l.15-.07c.35.63.56.56.52,1.49.31.12.32,0,.45.37-.52-.09-.78.22-1.27.37l-.3,1.12c.07.27,0,.15.15.3l.15.22-.52.15c-.18-.23-.24-.2-.3-.6-.48-.23-.9-.1-1.34-.22-.86,1.15-.44,1.26-1,2.39l-1,.6.15-.45c-.63-1-2.06.1-2.69.37l-.3-.22c-.31-.28-.62,0-1,.22-.19-.13-.37-.52-.52-.6-.64-.31-.68.22-1.12-.3l-1.57.67a1.55,1.55,0,0,0,.22,1c-.37.34-.6.45-.67,1.12a6.44,6.44,0,0,0-1.19.15l-.15.22a1.64,1.64,0,0,0,.22,1.34l-.6.15-.15.22.67.82.3,3.88a3.26,3.26,0,0,0-1.19.9l.3.45a4.4,4.4,0,0,1-1.49.52l-.15,1,.07.07c.31-.1.26-.12.45-.3l.15.37A1,1,0,0,0,8,144.8l.6,1.19a6.94,6.94,0,0,0,1.72.52,10.33,10.33,0,0,0-.6,1.94c.31.44.62,1.23,1.27,1.34a3.15,3.15,0,0,1-.37,1.34,2,2,0,0,0,.22,1.19c-.48-.06-1.75.65-1,1.49l-1.34.9-.07.82.37.15.22-.3c0,.53.39.59.45.9s-.14,1.11-.07,1.57c-.13,0-1,.12-1.19.15s-.15.26-.15.6l.9,1.19.37-.3.15.37.9-.37a1.23,1.23,0,0,0,.45.52v.22a2.08,2.08,0,0,1-1,.45l-.15,1,.07.07c.31-.1.26-.12.45-.3l.52.75a1.21,1.21,0,0,0-.67,1.34l.07.07c.31-.1.26-.12.45-.3l.15.37.75-.22.15.37c.06.16-.21.62-.22,1.27l.07.07c.31-.1.24,0,.37-.3l.22.37c1,0,1.33-.3,1.27-1.34.43-.18.76-.34.9-.82.35-.08.13-.08.45.15l.3-.45c.13-.11.29,0,.6-.15l.15.52L16,163l.07-.15.15.45.37-.07a.78.78,0,0,0,.15-.75l.15.15.37.3a1.33,1.33,0,0,0,.07-1c.37,0,.29,0,.45-.22.26.35.36.59.9.67.29-.15.32-.12.45-.45l.22.45c.4-.08.49-.14.6-.52a6.86,6.86,0,0,0,2.54,2l.07.15-.22.45a5.33,5.33,0,0,0-1.42-.22c-.15.19-.08.15-.37.22l-.22.52a2.53,2.53,0,0,0,.6,1.49,2.58,2.58,0,0,0-.37,1.27c.37.08.34,0,.6-.22l.15.37c.43-.09.53-.14.6-.6a1.33,1.33,0,0,1,1,.75c-.48.32-.69.42-.67,1.27l.07.07.45-.22c.17.17.11.19.37.3a3.52,3.52,0,0,1,1.27-.67l.07-.07.15.07-.15,1,.07.07c.31-.1.26-.12.45-.3.16.22.08.25.37.37a11.57,11.57,0,0,1,1.57-.75l-.07.9.15.07a1,1,0,0,0,.37-.22l.07-.15.15.45.75-.3v.37c.44,0,.5.08.67-.3.29.13.21,0,.3.37l-.6.22a1.9,1.9,0,0,0-.22,1l.15.07a1,1,0,0,0,.37-.22l.07-.15.3,1.12c.42,0,.37,0,.67-.15a1.47,1.47,0,0,0,1.19,1.34l-.07.45c.3,0,.2,0,.45-.07l.37.22-.3,2,.15.07a1,1,0,0,0,.37-.22l.07-.15a2.92,2.92,0,0,1,.22,1.19c.49.06.6,0,.75-.45h.07c.24.67.66.75.67,1.64.46.06.57,0,.75-.37l.3.6c.53,0,.53-.15.82-.37H36a9.4,9.4,0,0,1-.37,3.06c-.27,1.43.23,2.07.22,3.14.32.1.14.19.37-.07.48.56.33,1.32.3,2.09l.07.07.52-.3.07.37h.22c.33-.21.47-.31.37-.75l.37.37c.3.2.28.08.52-.15l.15.37c.62-.08.76,0,1.27-.3l.3.3.37-.3.15.37a.78.78,0,0,0,.67-.75l.37.3.37-.67.15-.15c.12.21,0,.71.07,1l.22.07.3-.37c.14.24.09.25.37.37.27-.2.44-.34.3-.75l.52.37c.25-.52,0-.88.52-1.12l-.07.67c.37.08.34,0,.6-.22.09.33,0,.25.3.37a.76.76,0,0,0,.45-.67l.37.3.3-.67.45-.22.07.67c.39,0,.37-.12.67-.37a.75.75,0,0,1,.22.52c.59-.11.68-.43,1-.75l-.07.67.07.07c.37-.08.3-.12.52-.3.28.47.36.37.75.07v1l.22.07.3-.3.15.37.37-.07.22-.6.15-.07c.31.64-.1.95-.15,1.72l1,.07v.6l.22.15.3-.3c.5.51,1,.11,1.49.45l.67-.45c.09.91-.42,1.26-.45,2.24l.07.07c.37-.08.3-.12.52-.3l.15.45a.75.75,0,0,0,.52-.22l.37.45c-.1.74-.51.63-.52,1.64l.07.07.52-.3.07.37H57l.6-.37.07-.15.15.45.37-.07a.78.78,0,0,0,.15-.75l.15.15c.49.31.19.16.75,0-.07,2.31.16.77.82,2.16.29.05.29.13.45-.15.34.29.88.58,1,1.12a14,14,0,0,1,1.72.6c.32,0,.24,0,.52-.22.17.17.11.19.37.3.27-.2.44-.34.3-.75l.52.37c.95-.62,1.71-.43,2.61-1l-.07.75.15.07a1,1,0,0,0,.37-.22l.07-.15.15.45.37-.07a.67.67,0,0,0,.15-.67l.52.37c.23-.5.6-.59.75-1.12l.22.52c.46-.09.56-.24.67-.67l.37.3a6.24,6.24,0,0,0,.07-1.12c.3-.4.57-.23.67-.9.26,0,.22,0,.45.07.28-.43.74-.76.67-1.27l.45.37c.36-.43,0-.73.22-1.27s.55-.38.67-.9l.37.22.15-.07a1.59,1.59,0,0,0-.07-1.12l.52.37.15-.9c.34,0,.46.15.67-.22l.22.37a1.82,1.82,0,0,0,1.19-.22c.23.27.27.79.45,1.12l.37-.3c.17.17.11.19.37.3a.69.69,0,0,0,.37-.6c.37.08,1.4.09,1.49.37,1.34-.05,2.55-1.42,3.43-1.34a3.18,3.18,0,0,0,.15-1.64l.15-.07.15.3c.27-.14.25-.17.3-.52H85l.45.52.37-.22v.75l.15.07a1,1,0,0,0,.37-.22l.07-.15.15.45c.48-.12.52-.33.82-.6a5,5,0,0,0,.6,1.34l.37-.37.07.37.15.07c.35-.19.59-.34.45-.82a1.54,1.54,0,0,1,.9,1.34L90,187c.31-.1.24,0,.37-.3l.67.6.45-.07a2.19,2.19,0,0,1,.37-.6c.09-.09.61-.22.9-.45l.07.37c.64,0,1.6-.91,2.24-1.27.92-.28,2.51.64,3.21,1,1.76.82,2.62,2.2,4,3.28,1,.8,2.37,1.45,3.43,2.16,3,2,6.72,3,9.63,5.08A50.64,50.64,0,0,1,123,204l1.72,2.31c3.1,3.22,6.69,6.84,3.51,12.76-1.48,2.75-4.82,4.26-7.76,5.52-2.11.91-5.77,0-7.84.9-1.08.49-1.74,1.73-2.76,2.16-.58.25-1.41,0-2.09.22-1.72.67-3.64,1.45-5.45,2l-3.51.6-3,1.34c-1.23.36-2.47.25-3.51.82A68.46,68.46,0,0,1,83,236.46c-1.31.48-2.16,1.53-3.58,1.87a1,1,0,0,0-.22.67l.15.22c1.49,0,2.32-.66,3.58-1,1.09-.27,3.71,0,4.4-.37s1.51-1.29,2.31-1.64a23.39,23.39,0,0,1,2.61-.82c3.7-1.13,6.77-2,10.3-3.14l6.49-.9c1.92-.72,3.65-1.87,5.52-2.69l3-.52,3.14-1v.07a20.06,20.06,0,0,0-3.36,2.31c-1.27.88-2.79,1.16-4,2.09-1,.8-1.46,2.1-2.61,2.76-2.11,1.21-5.42.71-7.91,1.57-.83.29-1.26,1.26-1.87,1.79l-2.61,1.57a20.49,20.49,0,0,0-3.58,3.81l.45.37c1.84-.16,2.62-1.85,4-2.46.87-.4,1.47-.42,2.31-.82l1.27-.9c1.92-.69,4.16-1.13,6-1.79,1.39-.48,2.79.16,4-.52,1.5-.87,1.87-2.28,3-3.51.27-.29.76-.38,1.12-.6.84-.5,1.71-1.27,2.61-1.79s3-.63,4.33-1.27c1.85-.89,3.94-2.15,6.49-2.24,0,3.34-.88,5.08-3,6.79-1.49,1.22-4.13,3-2.61,5.75a2.9,2.9,0,0,0,2.54.82l.07-.45c-.43-.46-.75-1-1.49-1.19.52-1.85,2-1.69,3.21-2.91s2-2.76,3.14-4.11c.77-.92,1.77-1.77,2.54-2.69.57-.69.86-1.36,1.72-1.79l1.12,1c1.68.77,4.13-.15,5.6.82,1,.66,1.68,1.91,2.69,2.46a69.09,69.09,0,0,0,10.08,4.93l4.18.07c1.26.43,3-.71,4-.3.5.23,1,1.07,2,.82.65-.15,1-.56,1.79-.6l.22-.22v-.37l-.15-.07c-.57-.5-1.54.27-2.09.07-.79-.27-1.18-1.11-2.09-1.34h-1.72l-6.42-.9c-.62-.2-1.2-.94-1.72-1.27s-1-.16-1.72-.37l-1.42-1.34-1.94-.37a10,10,0,0,0-2.24-3.21v-.07c.81.18,2.15.39,2.91.6s1.51-.37,2.54,0c1.25.45,3,.39,5.08.82l2.31.75,2.91.15,1.12.6c1,.37,1.82.11,2.76.52l.67.6H169c1,.28,2.24.16,3.14.45,2.15.69,4,2,6.79,1.87l-.07-.6-6.49-3.43c-1.9-.63-4.27,0-6-.82-.71-.33-1.68-1-2.39-1.34-.9-.44-1.93-.24-2.84-.6l-2-1.12c-.7-.29-1.45.07-2.16-.07-1.85-.37-4.17-1.14-6-1.64l-2.91-.37c-1.2-.32-5.48-3.93-6.27-4.93-1.31-1.67-1.51-6.32-.82-8.66l1-2.46c.53-1.8.55-3.52,1.12-5,3.12-8.1,6.83-16.14,11.57-22.69,1-1.32,1.38-2.85,2.24-4.25l.82-1c.18-.36.87-1.42.52-1.87.87-.88,5.91-5,6-5.82l.15-.07c.17.17.11.19.37.3h.07c.2-.27.36-.39.22-.82l.52.45.22-.22.3.45.3-.37.45.37c.27-.2.44-.34.3-.75.79.34.75.91.9,1.72a5.49,5.49,0,0,0,2.16-.22c.13.18.07.13.3.22.37.7.13,1.08.07,1.87l.15.07A1,1,0,0,0,171,170l.07-.15.15.45.37-.07a.67.67,0,0,0,.15-.67,5.79,5.79,0,0,1,.67.37c.17.23.15.87.22,1.19l.22.07.22-.45.22.45.37-.07a.67.67,0,0,0,.15-.67,1.39,1.39,0,0,1,.9.67l.37-.3.3.37a.93.93,0,0,0,.52-.82l.37.37.15-.22c.47.11.55.41.82.82l.3-.37a1.39,1.39,0,0,1,.52.9l.15.07.3-.3.15.15a2.14,2.14,0,0,0-.45,1.19l.07.15.22.07.22-.45c.28.37.41.78.82.82l-.07.75.67.3c0,.38-.16.25-.37.45a11.7,11.7,0,0,0,.67,1.27c.29-.1.25-.14.45-.3l.15.37.37-.07a.7.7,0,0,0,.15-.75l.6.37a3.77,3.77,0,0,1,2-1c.24.92,1.52.92,2.16.52v.52c.34-.07.22,0,.37-.22h.07l.07.75.07.07a.78.78,0,0,0,.45-.22l.22.3h.22c.21-.24.29-.18.37-.6l.15-.07.3.3c.1-.29.07-.77.15-1,.22-.53.87-.27.75-1,.16.05,0,0,.15.07l.37.3.22-.75a1.28,1.28,0,0,0-.82-.45v-.07c.67-.8,1.24-.41,1.64-1.34l-.22-.82c.72-.37,1.81-.16,2-1.19l.45.22c.39-.85.74-1.54,1.57-1.49l.22-.9-1-.45a18.37,18.37,0,0,0-.07-2.16l.3.15a3.43,3.43,0,0,0,.15-1.79l-.82-.07a3.56,3.56,0,0,1-.52-1.87l.3.15.15-.22a10.59,10.59,0,0,0-.75-2.16h-.67v-1.79a.88.88,0,0,1,.52-.15l.15-.22c.05-.59.09-.91-.37-1,0-.43,0-.49.22-.67s.06-.06.3,0l.15-.15c0-.57,0-.64-.3-.9.26-.14.2-.06.3-.37l.3.22.15-.07.15-.67-.9-1c.53-.19.52-.5.9-.45l.22-.75a.56.56,0,0,0-.37-.3l.22-1c.28-.16.61-.12.82-.45l.15.3c.55-.15.45-.39.9-.3a1.12,1.12,0,0,0,.15-.6c.35.12.24.17.45-.15l.15.3c.55-.15.45-.39.9-.3l.15-.67.37-.07c.13,0,0,0,.15.15a3.19,3.19,0,0,0,1.42-.6l.15.3c.74-.16.72-.52,1.34-.75.24-.16,0,0,.37.07.62-.38.61-.61,1.12-1,.24-.17.9-.16,1.12-.3.39-.25.62-1.07,1-1.49l.3.15.52-1.27c.14-.21.06-.06.3,0a1.66,1.66,0,0,0,0-1.19c.59.21.66-.23,1.12-.15l.15-.52a5,5,0,0,0,1.34-.22v.67c1.2-.06,5-2,5.45-1.94l.15-.67c.27.07,2.61-1.42,3.58-1.64v.3c.34-.07.22,0,.37-.22.23.27.1.22.45.22v.67c.34-.07.22,0,.37-.22l.15.3a.68.68,0,0,0,.6-.45,1.36,1.36,0,0,1,.15.9c.34-.07.22,0,.37-.22l.07.37.45-.15-.07,1.79c.57,0,.78.09,1.12-.15l.07.45c.34-.07.22,0,.37-.22l.15.3c.29-.08.22,0,.37-.22l.07.67c.34-.07.22,0,.37-.22l.15.3.45-.22.07.3c.34-.07.22,0,.37-.22l.15.3,1-.45v.45c.34-.07.22,0,.37-.22l.15.3c.55-.15.45-.39.9-.3l.15-.75.15.3a.68.68,0,0,0,.6-.45c.32.18.28,0,.37.37.34-.07.22,0,.37-.22l.15.3a4.78,4.78,0,0,0,1-.45v.6l.75.15.45-.45c.4.22.39.26.82.15l.07.52a2,2,0,0,0,1.72-.3l.37.3a.82.82,0,0,0,.45-.67l.52.22c.16-1.33.13-2.3.22-3.66l-.45-.37a4.86,4.86,0,0,1,.07-2.54c-.18-.27-.14-.27-.6-.3.21-.48.53-.6.3-1.12l.45.3c.3,0,.29,0,.45-.15s.22-.24.15-.6l.45.15c.2-.51.28-.44.67-.75l.15.37.37-.07a.7.7,0,0,0,.15-.75l.22.22.3.22.22-.9-.45-.15a.77.77,0,0,0,.22-.6L236,129.57a3,3,0,0,0,.15-1.12c.26,0,.29.16.67.15l.22-.67c.18.06.16,0,.3.3a16.29,16.29,0,0,0,2.69-1.34c.19-.4.09-.46-.07-.82l.15-.15.67.37c.84-.06,1.48-1.81,1.34-2.39l.07-.22.52.15.15-1.12c.36-.21.3-.1.75-.15a1,1,0,0,0,.22-.67l.45.37c.28-.8-.28-1.28.22-1.94.15-.09.2.08.52.22.29-.29.78-.43.82-1l.45.22c.47-.52,1.06-1.49,1.72-1.34.15-.38.3-.74,0-1a1.14,1.14,0,0,1,1.12-.82,3.32,3.32,0,0,0,.45-1C249.35,115.38,249.36,115.35,248.94,115.31ZM107.34,186c-.62.39-4.26-2.78-4.85-3.36.3-.28,1.48-1.13,2.09-1,.69-1.36,1.57-1.14,2.09-1.94C107.12,180.19,107.81,185.62,107.34,186ZM130,204.44c-4.26-3.69-7.62-8.47-12.24-11.79-1.65-1.18-3.32-2.45-5-3.51-.5-.31-1.36-.46-1.64-1-.75-1.35-1.35-7.14-1.34-9.26a2.09,2.09,0,0,0,1.34-.9l.07.3c.35,0,.51,0,.67-.3l.15.3,1-.45h.07v.3c.34-.07.22,0,.37-.22l.15.3.52-.22c1.21,3.07,2.44,6.18,4.55,8.36,1.09,1.13,2.54,1.88,3.73,2.91C125,191.56,130.49,199.54,130,204.44Zm-.9-15.68-.45-.07c-1.23-.44-1.82-1.85-2.76-2.61-1.31-1.06-2.6-2.2-3.88-3.21l-1.87-1.34L117.57,176v-.3c1.35.18,3.22-2,4.7-1.72a1.12,1.12,0,0,0,.15-.6l.22-.07v.45c.34-.07.22,0,.37-.22h.07l-.07,1c.34-.07.22,0,.37-.22a1,1,0,0,1,.37.82c.34-.07.22,0,.37-.22l.15.3a2.93,2.93,0,0,0,1.49-.82l.15.3c.55-.15.45-.39.9-.3.19-.44.14-.85.52-1.12.14-.21.06-.06.3,0,.33-.75.24-2.08,1.19-1.87l.22-.6c.14-.21.06-.06.3,0l.3-.82.45,4C131,178,131.21,185.74,129.14,188.77Zm9-6c-.34.59-.93,1-1.19,1.72l-.52.45c-1.45-3.2-1.72-7.93-2.61-11.64-.52-2.18,0-4.85-.52-6.72.09-.3,0-.16.22-.22a2.87,2.87,0,0,0,.07-1.42l.3.15c.45-.89.25-1.58.67-2.46.14-.21.06-.06.3,0,.22-.51.13-1.06.67-1.27.23-.22.67-.07.82.37.47,0,.43,0,.75-.22.16.27.44.59.75.3l.15,1c.49.06.6,0,.75-.45l.3.67c.82-.05,1.25-.66,1.94-.67a3.73,3.73,0,0,0,.52-1.87l.3-.07c.13,0,0,0,.15.15.55-.15.45-.39.9-.3.2-.35.27-.79-.15-1,.5-.3.82-.36.82-1.19l.75.45.75-2.09,1-.22.07.37c.76,0,.57-.25,1.34-.22.27-.43.58-.47.67-1.12l.6.45.52-1h.3l.07,1.19.37.37c.29.16.73,0,1.12,0,.21-.22.29-.2.37-.6h.07c1,3-2.5,6.68-3.81,8.58a80.77,80.77,0,0,0-7.24,12.47Zm17.47-13.44c-1.34,1.24-3,2.17-4.11,3.66-.61.84-.78,1.84-1.34,2.76-.7,1.15-1.79,2.19-2.54,3.28l-4.11,7.32c-.78,1.29-2.52,2.29-3,3.51l-.15.07c.15-3.26,2.37-8.09,3.58-10.6l.52-1.79,1.12-1.79.52-1.87c2.94-4.59,5.83-9.22,8.81-13.81l.45.22h-.3l-.07.3a2.92,2.92,0,0,1,.37,2c.51.1.6-.06,1,.45-.14.44-.11.5-.52.67.17.87,0,.76-.15,1.79l.07.15.15.07.3-.37.45.37c.27-.2.44-.34.3-.75l.82.67A20.06,20.06,0,0,1,155.64,169.36Z" transform="translate(-6.79 -6.25)"/></g></svg>